<svg width="329" height="239" viewBox="0 0 329 239" fill="none" xmlns="http://www.w3.org/2000/svg">
<path d="M51 76.5001C22 96.4999 0 106.5 0 147C0 187.5 55.1 232 163.5 232C305.5 232 347.445 166.126 321 121.5C305 94.5 278.5 89.5 252.5 56.5003C232.568 31.2026 181.251 -3.02892 125 15.0001C86 27.5 80 56.5003 51 76.5001Z" fill="url(#paint0_linear_727_88188)" fill-opacity="0.3"/>
<g clip-path="url(#clip0_727_88188)">
<path d="M98.0623 72.1329L176.276 24.6422C179.475 22.6981 183.565 23.095 186.339 25.6099L253.422 86.484L98.0623 72.1329Z" fill="#948CF9"/>
<path d="M250.816 85.5305L100.806 71.6735C97.9876 71.4132 95.4923 73.4843 95.2323 76.2994L86.4732 171.122C86.2132 173.937 88.2868 176.43 91.1048 176.69L241.116 190.547C243.934 190.808 246.429 188.737 246.689 185.921L255.448 91.099C255.708 88.2839 253.634 85.7908 250.816 85.5305Z" fill="#948CF9"/>
<path d="M248.042 92.2795L230.003 103.745L229.766 103.895L215.132 113.193L204.563 119.909L182.554 133.896L178.318 136.591L176.244 135.05C173.003 132.632 168.675 132.252 165.057 134.055L162.746 135.21L159.532 132.228L139.791 113.926L130.575 105.383L117.822 93.5542L115.487 91.3916L101.883 78.7783L248.042 92.2795Z" fill="white"/>
<path d="M241.215 183.432L178.313 136.591L176.239 135.05C172.997 132.632 168.67 132.252 165.051 134.055L162.741 135.21L93.471 169.784L159.526 132.228L165.334 128.928C169.363 126.469 174.535 126.946 178.052 130.103L182.548 133.896L241.215 183.432Z" fill="#5133CF"/>
<path d="M242.467 43.8187L116.223 32.1571C110.724 31.6491 105.854 35.6955 105.346 41.1949L101.874 78.7841L248.032 92.2853L251.505 54.6961C252.013 49.1966 247.966 44.3267 242.467 43.8187Z" fill="white"/>
<path d="M128.555 42.6146L131.212 45.8831L124.782 51.3378L130.104 57.8807L126.884 60.6116L118.903 50.8025L128.555 42.6146Z" fill="#948CF9"/>
<path d="M133.317 55.1608L130.102 57.8887L132.763 61.1595L135.979 58.4316L133.317 55.1608Z" fill="#948CF9"/>
<path d="M139.195 55.7002L142.411 52.9716L137.087 46.4285L130.657 51.8859L133.319 55.1574L136.533 52.4286L139.195 55.7002Z" fill="#948CF9"/>
<path d="M228.311 80.4549L121.259 70.5661C119.153 70.3716 117.288 71.9212 117.093 74.0273C116.899 76.1334 118.448 77.9985 120.554 78.193L227.606 88.0818C229.712 88.2763 231.577 86.7267 231.772 84.6206C231.967 82.5145 230.417 80.6494 228.311 80.4549Z" fill="#F3F0FF"/>
<mask id="mask0_727_88188" style="mask-type:alpha" maskUnits="userSpaceOnUse" x="101" y="78" width="148" height="59">
<path d="M248.042 92.2795L230.003 103.745L229.766 103.895L215.132 113.193L204.563 119.909L182.554 133.896L178.318 136.591L176.244 135.05C173.003 132.632 168.675 132.252 165.057 134.055L162.746 135.21L159.532 132.228L139.791 113.926L130.575 105.383L117.822 93.5542L115.487 91.3916L101.883 78.7783L248.042 92.2795Z" fill="white"/>
</mask>
<g mask="url(#mask0_727_88188)">
<path d="M226.772 97.075L119.72 87.1862C117.614 86.9917 115.749 88.5413 115.554 90.6474C115.359 92.7536 116.909 94.6186 119.015 94.8132L226.067 104.702C228.173 104.896 230.038 103.347 230.233 101.241C230.427 99.1346 228.878 97.2695 226.772 97.075Z" fill="#F3F0FF"/>
<path d="M217.91 112.542L207.342 119.258L137.169 112.776L127.953 104.232L217.91 112.542Z" fill="#F3F0FF"/>
<path d="M216.41 128.798L205.842 135.514L135.669 129.032L126.453 120.488L216.41 128.798Z" fill="#F3F0FF"/>
</g>
</g>
<path d="M48.5 105L48.6875 105.56C50.1975 110.07 53.5974 113.699 58 115.5C53.5974 117.301 50.1975 120.93 48.6875 125.44L48.5 126L48.3125 125.44C46.8025 120.93 43.4026 117.301 39 115.5C43.4026 113.699 46.8025 110.07 48.3125 105.56L48.5 105Z" fill="#948CF9"/>
<path d="M295.5 135L295.687 135.56C297.198 140.07 300.597 143.699 305 145.5C300.597 147.301 297.198 150.93 295.687 155.44L295.5 156L295.313 155.44C293.802 150.93 290.403 147.301 286 145.5C290.403 143.699 293.802 140.07 295.313 135.56L295.5 135Z" fill="#948CF9"/>
<path d="M30.5 57L30.6763 57.563C31.508 60.2192 33.4498 62.3848 36 63.5C33.4498 64.6152 31.508 66.7808 30.6763 69.437L30.5 70L30.3237 69.437C29.492 66.7808 27.5502 64.6152 25 63.5C27.5502 62.3848 29.492 60.2192 30.3237 57.563L30.5 57Z" fill="#948CF9"/>
<path d="M310.5 105L310.676 105.563C311.508 108.219 313.45 110.385 316 111.5C313.45 112.615 311.508 114.781 310.676 117.437L310.5 118L310.324 117.437C309.492 114.781 307.55 112.615 305 111.5C307.55 110.385 309.492 108.219 310.324 105.563L310.5 105Z" fill="#948CF9"/>
<path d="M127.5 226L127.676 226.563C128.508 229.219 130.45 231.385 133 232.5C130.45 233.615 128.508 235.781 127.676 238.437L127.5 239L127.324 238.437C126.492 235.781 124.55 233.615 122 232.5C124.55 231.385 126.492 229.219 127.324 226.563L127.5 226Z" fill="#948CF9"/>
<path d="M17.5 81L17.5869 81.2818C17.9607 82.494 18.8406 83.4852 20 84C18.8406 84.5148 17.9607 85.506 17.5869 86.7182L17.5 87L17.4131 86.7182C17.0393 85.506 16.1594 84.5148 15 84C16.1594 83.4852 17.0393 82.494 17.4131 81.2818L17.5 81Z" fill="#948CF9"/>
<path d="M79.5 33L79.5869 33.2818C79.9607 34.494 80.8406 35.4852 82 36C80.8406 36.5148 79.9607 37.506 79.5869 38.7182L79.5 39L79.4131 38.7182C79.0393 37.506 78.1594 36.5148 77 36C78.1594 35.4852 79.0393 34.494 79.4131 33.2818L79.5 33Z" fill="#948CF9"/>
<path d="M36.5 144L36.5869 144.282C36.9607 145.494 37.8406 146.485 39 147C37.8406 147.515 36.9607 148.506 36.5869 149.718L36.5 150L36.4131 149.718C36.0393 148.506 35.1594 147.515 34 147C35.1594 146.485 36.0393 145.494 36.4131 144.282L36.5 144Z" fill="#948CF9"/>
<path d="M108.5 205L108.587 205.282C108.961 206.494 109.841 207.485 111 208C109.841 208.515 108.961 209.506 108.587 210.718L108.5 211L108.413 210.718C108.039 209.506 107.159 208.515 106 208C107.159 207.485 108.039 206.494 108.413 205.282L108.5 205Z" fill="#948CF9"/>
<path d="M286.5 69L286.587 69.2818C286.961 70.494 287.841 71.4852 289 72C287.841 72.5148 286.961 73.506 286.587 74.7182L286.5 75L286.413 74.7182C286.039 73.506 285.159 72.5148 284 72C285.159 71.4852 286.039 70.494 286.413 69.2818L286.5 69Z" fill="#948CF9"/>
<path d="M272.5 187L272.587 187.282C272.961 188.494 273.841 189.485 275 190C273.841 190.515 272.961 191.506 272.587 192.718L272.5 193L272.413 192.718C272.039 191.506 271.159 190.515 270 190C271.159 189.485 272.039 188.494 272.413 187.282L272.5 187Z" fill="#948CF9"/>
<path d="M278.5 0L278.587 0.281796C278.961 1.49399 279.841 2.4852 281 3C279.841 3.5148 278.961 4.50601 278.587 5.7182L278.5 6L278.413 5.7182C278.039 4.50601 277.159 3.5148 276 3C277.159 2.4852 278.039 1.49399 278.413 0.281795L278.5 0Z" fill="#948CF9"/>
<defs>
<linearGradient id="paint0_linear_727_88188" x1="276" y1="46" x2="25.5" y2="197" gradientUnits="userSpaceOnUse">
<stop stop-color="#948CF9"/>
<stop offset="1" stop-color="#948CF9" stop-opacity="0"/>
</linearGradient>
<clipPath id="clip0_727_88188">
<rect width="160.898" height="160.898" fill="white" transform="translate(100.797 16.0029) rotate(5.27762)"/>
</clipPath>
</defs>
</svg>
