<svg id="Layer_1" data-name="Layer 1" xmlns="http://www.w3.org/2000/svg" viewBox="0 0 582.39 453.96"><defs><style>.cls-1{fill:#eef2f5;}.cls-2{fill:#ffe400;}.cls-3{fill:#9e6101;}.cls-4{fill:#ffb321;}.cls-5{opacity:0.2;}.cls-6{fill:#383838;}.cls-7{fill:#ff4585;}</style></defs><title>Artboard 16</title><ellipse class="cls-1" cx="291.19" cy="423.93" rx="291.19" ry="30.03"/><path d="M398.61,50.48h20a18.14,18.14,0,0,1,18.14,18.14v0a18.14,18.14,0,0,1-18.14,18.14h-20a0,0,0,0,1,0,0V50.48A0,0,0,0,1,398.61,50.48Z"/><circle cx="398.61" cy="68.61" r="18.14"/><path class="cls-2" d="M100.74,26.1H380.62a42.51,42.51,0,0,1,42.51,42.51v0a42.51,42.51,0,0,1-42.51,42.51H100.74a0,0,0,0,1,0,0v-85A0,0,0,0,1,100.74,26.1Z"/><path class="cls-3" d="M136.42,68.61c0,23.48-6.48,42.52-30,42.52H223.72V68.61Z"/><path class="cls-4" d="M106.46,26.1A42.52,42.52,0,1,0,120,108.9L95.62,84.56l25.65-25.65,23.9,29.59,1-4.72A42.42,42.42,0,0,0,106.46,26.1Z"/><path class="cls-4" d="M139.78,77.43,121.27,58.91,95.62,84.56,120,108.9a42.55,42.55,0,0,0,21.36-16A12.12,12.12,0,0,0,139.78,77.43Z"/><rect class="cls-4" x="143.25" y="65.54" width="5.72" height="312.19"/><polygon class="cls-2" points="423.13 377.73 148.98 377.73 148.98 65.54 423.13 67.34 423.13 377.73"/><rect class="cls-4" x="179.43" y="218.55" width="213.26" height="16.72" rx="8.36" ry="8.36"/><rect class="cls-4" x="179.43" y="256.41" width="135.6" height="16.72" rx="8.36" ry="8.36"/><rect class="cls-4" x="337" y="256.41" width="55.68" height="16.72" rx="8.36" ry="8.36"/><rect class="cls-4" x="179.43" y="294.28" width="65.2" height="16.72" rx="8.36" ry="8.36"/><rect class="cls-4" x="262.75" y="294.28" width="129.94" height="16.72" rx="8.36" ry="8.36"/><g id="IzKML2"><path class="cls-4" d="M337.84,117l-12.49,8c-.76-1.07-1.42-2.1-2.18-3.06a10.16,10.16,0,0,0-11-3.38c-6,1.75-6,8.79-3,11.55a16,16,0,0,0,3.71,2.62c3,1.47,6,2.76,9.06,4.11A55.49,55.49,0,0,1,334.43,144a21,21,0,0,1,8.09,16.41,22.73,22.73,0,0,1-2.67,12.43A20.48,20.48,0,0,1,328,182.3c-10.47,3.39-20.7,2.82-30.43-2.59a27.26,27.26,0,0,1-10.73-11.13c-.12-.21-.21-.44-.36-.76l13.1-7.58.57.84a19.53,19.53,0,0,0,6.8,6.81,16.92,16.92,0,0,0,13.8,1.25c2.7-.87,4.78-2.55,5.43-5.47a6.83,6.83,0,0,0-1.9-6.83,16,16,0,0,0-3.78-2.66c-3.54-1.73-7.16-3.28-10.76-4.88a42,42,0,0,1-11.38-6.93,21.18,21.18,0,0,1-7-15,21.83,21.83,0,0,1,2.5-12.21,19.77,19.77,0,0,1,10.75-9.18,29.61,29.61,0,0,1,21.83.26C331.6,108.25,335.1,112.18,337.84,117Z"/><path class="cls-4" d="M229.56,169.53l13.08-7.91.73,1.21a19.1,19.1,0,0,0,3.72,4.93,10.37,10.37,0,0,0,10.9,1.08c2.14-1.21,3-3.24,3.33-5.52a28.33,28.33,0,0,0,.3-4.22q0-26.37,0-52.73v-1.3h16.1c0,.3,0,.61,0,.93v53.46a30.25,30.25,0,0,1-2.42,13c-2.81,6-7.64,9.58-14,11a30.6,30.6,0,0,1-19.66-1.56,24.18,24.18,0,0,1-12-12A3.79,3.79,0,0,1,229.56,169.53Z"/></g><path d="M479.53,359.6h20a18.14,18.14,0,0,1,18.14,18.14v0a18.14,18.14,0,0,1-18.14,18.14h-20a0,0,0,0,1,0,0V359.6a0,0,0,0,1,0,0Z"/><circle cx="479.53" cy="377.73" r="18.14"/><path class="cls-3" d="M185.77,335.22H465.65a42.51,42.51,0,0,1,42.51,42.51v0a42.51,42.51,0,0,1-42.51,42.51H185.77a0,0,0,0,1,0,0v-85A0,0,0,0,1,185.77,335.22Z"/><circle class="cls-4" cx="185.77" cy="377.73" r="42.51"/><path class="cls-5" d="M225.63,392.82l-24.88-24.88-25.64,25.65,24.34,24.35A42.61,42.61,0,0,0,225.63,392.82Z"/><path d="M170.11,361.39h18a16.35,16.35,0,0,1,16.35,16.35v0a16.35,16.35,0,0,1-16.35,16.35h-18a0,0,0,0,1,0,0V361.39a0,0,0,0,1,0,0Z"/><circle class="cls-6" cx="170.11" cy="377.73" r="16.35"/><path class="cls-7" d="M425.59,269.87l5.6,14.82a2.68,2.68,0,0,0,1.53,1.53l14.82,5.6a2.63,2.63,0,0,1,0,4.91l-14.82,5.61a2.64,2.64,0,0,0-1.53,1.52l-5.6,14.82a2.63,2.63,0,0,1-4.91,0l-5.61-14.82a2.59,2.59,0,0,0-1.52-1.52l-14.82-5.61a2.63,2.63,0,0,1,0-4.91l14.82-5.6a2.64,2.64,0,0,0,1.52-1.53l5.61-14.82A2.63,2.63,0,0,1,425.59,269.87Z"/><path class="cls-7" d="M214.32,1.7l5.61,14.81A2.61,2.61,0,0,0,221.45,18l14.82,5.6a2.63,2.63,0,0,1,0,4.92l-14.82,5.6a2.61,2.61,0,0,0-1.52,1.53L214.32,50.5a2.62,2.62,0,0,1-4.91,0l-5.6-14.81a2.62,2.62,0,0,0-1.53-1.53l-14.82-5.6a2.63,2.63,0,0,1,0-4.92L202.28,18a2.62,2.62,0,0,0,1.53-1.53l5.6-14.81A2.62,2.62,0,0,1,214.32,1.7Z"/><path class="cls-7" d="M482,112.83l5.6,14.81a2.65,2.65,0,0,0,1.53,1.53l14.82,5.6a2.63,2.63,0,0,1,0,4.92l-14.82,5.6a2.65,2.65,0,0,0-1.53,1.53L482,161.63a2.62,2.62,0,0,1-4.91,0l-5.61-14.81a2.61,2.61,0,0,0-1.52-1.53l-14.82-5.6a2.63,2.63,0,0,1,0-4.92l14.82-5.6a2.61,2.61,0,0,0,1.52-1.53l5.61-14.81A2.62,2.62,0,0,1,482,112.83Z"/><path class="cls-7" d="M123.34,202.51l5.6,14.81a2.62,2.62,0,0,0,1.53,1.53l14.81,5.6a2.63,2.63,0,0,1,0,4.92L130.47,235a2.62,2.62,0,0,0-1.53,1.53l-5.6,14.81a2.62,2.62,0,0,1-4.91,0l-5.61-14.81a2.6,2.6,0,0,0-1.53-1.53l-14.81-5.6a2.63,2.63,0,0,1,0-4.92l14.81-5.6a2.6,2.6,0,0,0,1.53-1.53l5.61-14.81A2.62,2.62,0,0,1,123.34,202.51Z"/><path class="cls-5" d="M139.74,77.38,121.27,58.91,95.62,84.56,120,108.9a42.54,42.54,0,0,0,19.08-13l1.45-1.75A12.42,12.42,0,0,0,139.74,77.38Z"/><path d="M91.63,54.06h18A16.35,16.35,0,0,1,126,70.4v0a16.35,16.35,0,0,1-16.35,16.35h-18a0,0,0,0,1,0,0V54.06A0,0,0,0,1,91.63,54.06Z"/><circle class="cls-6" cx="91.63" cy="70.4" r="16.35"/></svg>