<svg height="24" viewBox="0 0 24 24" width="24" xmlns="http://www.w3.org/2000/svg"><path d="m11.9924596 23.9397465c-3.15534563-.0212388-5.95678836-1.0607853-8.46042631-2.9547314-.89364523-.6761785-1.70556728-1.4412367-2.44638556-2.281785-.02631763-.0300113-.07156549-.0586375-.07456662-.0909574-.01154282-.1158899-.00854169-.2329341-.01108111-.3495166.10019169.0161599.21815932.0034628.29780479.0528661.66971449.4171576 1.31403478.877947 2.00037094 1.2646315 1.98905897 1.1203462 4.1166318 1.8463897 6.37763964 2.1917509 1.17990723.180068 2.36512413.2393981 3.54987923.1706029 2.2637782-.1311264 4.4273646-.6944161 6.4863731-1.6490074.3252767-.1507493.6440894-.3155808.9635947-.4783345.1546738-.0789529.3072699-.1112728.4386272.027241.1387447.1461321.1327424.3225064.0360136.4854911-.0554055.0937277-.1396681.1740657-.2223147.2477089-1.84108 1.6335401-3.9945088 2.6366113-6.396339 3.1031721-.8315449.1615995-1.683636.2170051-2.5264928.3211213-.0041554-.0200845-.0085417-.040169-.0126971-.0602535m8.8895884-5.0942857c-.4557105.0436319-.9612861.093266-1.4670926.1394373-.110811.0101577-.223469.0166216-.3342801.0099268-.1274327-.0076183-.1477481-.0861094-.0780294-.1789137.0415541-.0554056.1038854-.0978832.1627537-.1375905.5351252-.3592126 1.1408925-.5164258 1.7685911-.5995341.5958405-.0789529 1.1909883-.0604844 1.7734391.0955746.3931485.1052705.4787962.1525961.4494775.6101535-.0775678 1.2057631-.4658683 2.3021003-1.3401216 3.1828175-.0447861.0452479-.0870329.1034237-.1424384.1253551-.0738741.0290879-.1595218.0286262-.2400907.0408616.0018469-.0734124-.0133897-.1525961.0085417-.2193136.2084634-.6341626.426161-1.2653241.63347-1.8997176.0415542-.1272019.0572524-.2640997.0731815-.3979964.0507884-.427777-.1202762-.6429352-.5743708-.7094218-.2119262-.0309348-.4270844-.0387839-.693031-.0616387m-6.8855007-9.42536003c-.8587859-.00484798-1.6799422.0323199-2.4655466.29572708-.3880697.13020303-.781449.29526535-1.1154983.52681435-.92273309.6392415-1.16282377 1.5908317-1.08687201 2.6509244.04016902.5614428.20892507 1.0811006.6230815 1.4883314.58845301.5785262 1.57905791.6544779 2.37435831.1844542.6932619-.4097701 1.1064949-1.0420859 1.3747501-1.7789796.3952262-1.085256.2707945-2.2159908.295727-3.36727183m.6325466 6.35247633c-.308655.2809522-.5937627.5457446-.8844109.8043038-1.117576.9938369-2.4380747 1.4377738-3.92040386 1.4675543-.8047655.0161599-1.59498705-.0445553-2.34827157-.3421293-1.34173755-.5302772-2.19729147-1.5107244-2.54426868-2.9020961-.43077809-1.7279604-.28533854-3.3917426.73712457-4.90223622.75582394-1.11642168 1.84892912-1.78013391 3.11102121-2.18644122 1.08294749-.34859321 2.20398633-.50142016 3.32941143-.62746777.6175409-.06925693 1.2357744-.13089559 1.8835575-.19899824-.0193919-.77336903.0904958-1.54927748-.1812223-2.29702145-.2407832-.66232708-.7493599-1.00284031-1.4139956-1.15520555-1.0063031-.23062557-2.1469647.14474698-2.68786135.93820051-.18353086.26940945-.29572708.59745644-.39430277.91303717-.13897557.44462948-.34351437.58937646-.80522722.53443263-.90241777-.10688653-1.80691325-.19553539-2.70933102-.30103678-.44763062-.05263527-.62515921-.30750076-.53789548-.74243427.3968422-1.979363 1.54327521-3.36265471 3.40905685-4.09077588 2.20213949-.85924762 4.45322049-.92596513 6.68490959-.10527053 1.8493908.68010303 2.8651591 2.03546111 3.0004409 4.01343898.0454788.66763678.0519427 1.33873642.054713 2.00845091.0071566 1.73211577.0154674 3.46423151-.0027703 5.19611641-.0101576.9645182.257405 1.8205338.8437803 2.5821292.1408224.1833.2834917.3670617.4028444.5642131.197844.3268927.1449779.5748325-.1410532.821618-.7368938.6357786-1.4724023 1.2734041-2.2074492 1.9114912-.4046913.3511326-.6851819.3462847-1.0921817.0034629-.5362795-.4517861-.9767536-.9834484-1.3569741-1.5689003-.0692569-.1066557-.1424384-.2107719-.2292405-.3384355" fill="#f90" fill-rule="evenodd"/></svg>