<svg fill="none" height="16" viewBox="0 0 20 16" width="20" xmlns="http://www.w3.org/2000/svg"><path d="m12.9919 1.28c-.7816 1.04001-.9703 1.38667-1.725 1.38667h-11.2669v13.33333h4.42048c.9973 0 1.96767-.48 2.58761-1.28.80862-1.0667.91644-1.3867 1.69812-1.3867h11.29379v-13.3333h-4.4474c-.9973 0-1.9677.48-2.5607 1.28zm3.5041 8.61334h-4.717c-1.0243 0-1.96767.42666-2.58763 1.25336-.80862 1.0666-.97034 1.3866-1.72506 1.3866h-3.98923v-6.39996h4.71699c1.02426 0 1.96763-.48001 2.58763-1.28001.8086-1.04 1.0242-1.35999 1.752-1.35999h3.9623z" fill="#171717"/></svg>