<?xml version="1.0" encoding="UTF-8"?>
<svg xmlns:xodm="http://www.corel.com/coreldraw/odm/2003" xmlns="http://www.w3.org/2000/svg" xmlns:xlink="http://www.w3.org/1999/xlink" version="1.1" id="Layer_1" x="0px" y="0px" viewBox="0 0 2500 2500" style="enable-background:new 0 0 2500 2500;" xml:space="preserve">
<style type="text/css">
	.st0{fill:none;}
	.st1{fill:#FFFFFF;}
	.st2{fill:#0052FF;}
</style>
<g id="Layer_x0020_1">
	<rect y="0" class="st0" width="2500" height="2500"></rect>
	<g id="_1556951675616">
		<g id="Layer_x0020_1_0">
			<rect y="0" class="st0" width="2500" height="2500"></rect>
			<g id="_1842137537696">
				<path class="st1" d="M1250,0L1250,0c690.2,0,1250,559.8,1250,1250l0,0c0,690.2-559.8,1250-1250,1250l0,0      C559.8,2500,0,1940.2,0,1250l0,0C0,559.8,559.8,0,1250,0z"></path>
				<path class="st2" d="M1250.4,1689.5c-242.8,0-439.4-196.7-439.4-439.5s196.7-439.4,439.4-439.4c217.5,0,398.1,158.6,432.9,366.2      H2126c-37.4-451.2-414.9-805.7-875.6-805.7c-485.2,0-878.9,393.7-878.9,878.9s393.7,878.9,878.9,878.9      c460.7,0,838.3-354.5,875.6-805.7h-443.1C1648.1,1530.9,1467.9,1689.5,1250.4,1689.5L1250.4,1689.5z"></path>
			</g>
		</g>
	</g>
</g>
</svg>
