<svg id="logosandtypes_com" data-name="logosandtypes com" xmlns="http://www.w3.org/2000/svg" viewBox="0 0 150 150"><defs><style>.cls-1{fill:none;}.cls-2{fill:#eb1700;}</style></defs><g id="Layer_2" data-name="Layer 2"><path id="Layer_3" data-name="Layer 3" class="cls-1" d="M0,.2H150v150H0Z" transform="translate(0 -0.2)"/></g><path class="cls-2" d="M136.8,55.4a35.78,35.78,0,0,0-31.71-19H4.68a3.45,3.45,0,0,0-2.42,5.89l21.87,22a10.21,10.21,0,0,0,7.28,3h70.81a9.13,9.13,0,0,1,.19,18.26H53.6a3.46,3.46,0,0,0-2.43,5.89l21.87,22a10.37,10.37,0,0,0,7.3,3h22.07c28.71,0,50.42-30.71,34.39-61.17" transform="translate(0 -0.2)"/></svg>