<svg width="16" height="11" viewBox="0 0 16 11" fill="none" xmlns="http://www.w3.org/2000/svg">
<path d="M4.40165 0.0546875C4.39678 0.0546875 4.39194 0.0547047 4.38708 0.0547298L4.36719 1.69809C4.37174 1.69804 4.37629 1.698 4.38085 1.698C5.46252 1.698 6.30154 2.55086 8.12513 5.62254L8.2363 5.80954L8.24357 5.82178L9.2644 4.29012L9.25733 4.27829C9.01709 3.88756 8.78629 3.52806 8.56494 3.1998C8.30824 2.81945 8.06274 2.47967 7.8245 2.17631C6.61813 0.640297 5.60899 0.0546875 4.40165 0.0546875Z" fill="url(#paint0_linear_144_26)"/>
<path d="M4.38698 0.0547298C3.17378 0.0609714 2.10123 0.845474 1.32675 2.04593C1.32448 2.04944 1.32221 2.05296 1.31995 2.05649L2.74159 2.83027C2.7439 2.82677 2.74621 2.82327 2.74853 2.81978C3.20078 2.13886 3.76359 1.70456 4.36709 1.69809C4.37164 1.69804 4.37619 1.698 4.38075 1.698L4.40155 0.0546875C4.39668 0.0546875 4.39184 0.0547047 4.38698 0.0547298Z" fill="url(#paint1_linear_144_26)"/>
<path d="M1.32666 2.04688C1.3244 2.05038 1.32213 2.05391 1.31986 2.05744C0.810944 2.84965 0.431562 3.8218 0.226532 4.87056C0.225644 4.8751 0.224759 4.87964 0.223877 4.88419L1.82103 5.26104C1.82187 5.25649 1.82271 5.25192 1.82355 5.24737C1.99427 4.32568 2.31929 3.47085 2.7415 2.83121C2.7438 2.82771 2.74612 2.82421 2.74844 2.82072L1.32666 2.04688Z" fill="url(#paint2_linear_144_26)"/>
<path d="M1.82364 5.24791L0.226615 4.87109C0.225727 4.87563 0.224842 4.88018 0.22396 4.88472C0.11216 5.4615 0.0552821 6.04757 0.0540887 6.63508C0.0540793 6.63983 0.0540757 6.64458 0.0540777 6.64932L1.69203 6.79586C1.6919 6.79109 1.69176 6.78638 1.69165 6.7816C1.69084 6.74752 1.69043 6.71299 1.69042 6.67799C1.69124 6.20287 1.73498 5.72881 1.82112 5.26157C1.82195 5.25702 1.82279 5.25247 1.82364 5.24791Z" fill="url(#paint3_linear_144_26)"/>
<path d="M1.74184 7.30462C1.71246 7.13577 1.69581 6.96494 1.69203 6.79359C1.6919 6.78883 1.69176 6.78412 1.69165 6.77933L0.0540887 6.63281C0.0540793 6.63756 0.0540757 6.64231 0.0540777 6.64706C0.0540777 7.01271 0.0845699 7.35598 0.143831 7.67225C0.144688 7.67682 0.145531 7.68131 0.1464 7.68588L1.74432 7.3183C1.74348 7.31376 1.74266 7.30919 1.74184 7.30462Z" fill="url(#paint4_linear_144_26)"/>
<path d="M2.11498 8.1544C1.93675 7.95985 1.81061 7.67922 1.74429 7.32032C1.74345 7.31578 1.74264 7.31121 1.74182 7.30664L0.143799 7.67426C0.144655 7.67884 0.145498 7.68333 0.146368 7.6879C0.267152 8.32205 0.504031 8.85057 0.843261 9.2504C0.846277 9.25395 0.849304 9.2575 0.852342 9.26105L2.12451 8.16464C2.12133 8.16125 2.11813 8.15783 2.11498 8.1544Z" fill="url(#paint5_linear_144_26)"/>
<path d="M6.84924 3.60742C5.88628 5.08446 5.30292 6.01088 5.30292 6.01088C4.02016 8.02169 3.57639 8.47237 2.86221 8.47237C2.5642 8.47237 2.31524 8.36626 2.12451 8.16343C2.12133 8.16005 2.11814 8.15662 2.11499 8.15319L0.843262 9.24919C0.846278 9.25274 0.849305 9.25629 0.852343 9.25984C1.32074 9.80583 1.98189 10.1088 2.79981 10.1088C4.03726 10.1088 4.92725 9.52537 6.5094 6.75973C6.5094 6.75973 7.16894 5.59504 7.62266 4.79276C7.34161 4.33898 7.08584 3.94614 6.84924 3.60742Z" fill="#0082FB"/>
<path d="M8.56569 1.27734C8.56244 1.28079 8.55913 1.28431 8.55589 1.28777C8.30301 1.55719 8.06032 1.85807 7.82422 2.1773C8.06247 2.48067 8.30842 2.82111 8.56513 3.20145C8.86769 2.73447 9.15011 2.35626 9.42691 2.06637C9.4302 2.06294 9.43341 2.0596 9.43669 2.05618L8.56569 1.27734Z" fill="url(#paint6_linear_144_26)"/>
<path d="M13.2408 1.13125C12.5692 0.452783 11.7685 0.0546875 10.9125 0.0546875C10.0098 0.0546875 9.25054 0.549336 8.56571 1.27604C8.56246 1.27948 8.55915 1.283 8.55591 1.28646L9.42694 2.06506C9.43022 2.06163 9.43343 2.05829 9.43672 2.05488C9.88786 1.58561 10.3245 1.35131 10.8085 1.35131C11.3295 1.35131 11.8171 1.59654 12.2394 2.02645C12.2427 2.02982 12.246 2.03316 12.2493 2.03655L13.2508 1.14135C13.2475 1.13796 13.2441 1.13462 13.2408 1.13125Z" fill="#0082FB"/>
<path d="M15.1822 6.41693C15.1446 4.23851 14.3823 2.29103 13.2508 1.14096C13.2474 1.13757 13.2441 1.13423 13.2407 1.13086L12.2394 2.02606C12.2427 2.02943 12.246 2.03277 12.2493 2.03616C13.1005 2.91055 13.6844 4.53694 13.7375 6.41646C13.7376 6.42119 13.7377 6.42592 13.7379 6.43065L15.1824 6.43111C15.1824 6.42639 15.1823 6.42166 15.1822 6.41693Z" fill="url(#paint7_linear_144_26)"/>
<path d="M15.1824 6.43263C15.1824 6.4279 15.1823 6.42317 15.1822 6.41843L13.7375 6.41797C13.7376 6.4227 13.7377 6.42743 13.7379 6.43216C13.7402 6.52038 13.7414 6.60913 13.7414 6.69841C13.7414 7.21086 13.6649 7.6251 13.5092 7.92417C13.5069 7.92861 13.5045 7.93306 13.5022 7.93744L14.5793 9.05771C14.582 9.05364 14.5846 9.0496 14.5873 9.04551C14.9783 8.44213 15.1836 7.60392 15.1836 6.58747C15.1836 6.53573 15.1832 6.48411 15.1824 6.43263Z" fill="url(#paint8_linear_144_26)"/>
<path d="M13.5093 7.92188C13.507 7.92631 13.5046 7.93076 13.5023 7.93515C13.3676 8.18724 13.1753 8.35537 12.924 8.42889L13.415 9.97644C13.48 9.95436 13.5433 9.92957 13.6049 9.90207C13.6233 9.89388 13.6416 9.88544 13.6597 9.87677C13.6701 9.87177 13.6805 9.86671 13.6908 9.86157C14.0155 9.69974 14.2899 9.46105 14.5118 9.15353C14.5254 9.13475 14.5388 9.11582 14.5519 9.09654C14.5612 9.08295 14.5704 9.06925 14.5794 9.05541C14.5821 9.05135 14.5847 9.04729 14.5874 9.04321L13.5093 7.92188Z" fill="url(#paint9_linear_144_26)"/>
<path d="M12.6111 8.47085C12.4465 8.47085 12.3012 8.44634 12.159 8.38281L11.6562 9.96718C11.9388 10.0637 12.2403 10.1072 12.5765 10.1072C12.8862 10.1072 13.1705 10.0609 13.4283 9.97153L12.9374 8.42452C12.8316 8.45623 12.7216 8.47184 12.6111 8.47085Z" fill="url(#paint10_linear_144_26)"/>
<path d="M11.6051 7.93071C11.602 7.92714 11.5989 7.92355 11.5957 7.91992L10.4388 9.12313C10.4421 9.12659 10.4453 9.13004 10.4485 9.13348C10.8505 9.56188 11.2344 9.82762 11.6697 9.97347L12.1721 8.39027C11.9887 8.31148 11.8112 8.16864 11.6051 7.93071Z" fill="url(#paint11_linear_144_26)"/>
<path d="M11.5958 7.91873C11.2488 7.51518 10.8195 6.84328 10.1443 5.75677L9.26431 4.28917L9.25724 4.27734L8.23621 5.80859L8.24348 5.82083L8.86699 6.86972C9.47138 7.88111 9.96376 8.61279 10.4389 9.12193C10.4422 9.1254 10.4454 9.12885 10.4486 9.13229L11.6051 7.92952C11.602 7.92596 11.5989 7.92236 11.5958 7.91873Z" fill="url(#paint12_linear_144_26)"/>
<defs>
<linearGradient id="paint0_linear_144_26" x1="8.58586" y1="5.1989" x2="5.19669" y2="0.757905" gradientUnits="userSpaceOnUse">
<stop offset="0.0006" stop-color="#0867DF"/>
<stop offset="0.4539" stop-color="#0668E1"/>
<stop offset="0.8591" stop-color="#0064E0"/>
</linearGradient>
<linearGradient id="paint1_linear_144_26" x1="1.98772" y1="2.32206" x2="4.31121" y2="0.558086" gradientUnits="userSpaceOnUse">
<stop offset="0.1323" stop-color="#0064DF"/>
<stop offset="0.9988" stop-color="#0064E0"/>
</linearGradient>
<linearGradient id="paint2_linear_144_26" x1="1.0028" y1="4.91157" x2="1.93484" y2="2.56535" gradientUnits="userSpaceOnUse">
<stop offset="0.0147" stop-color="#0072EC"/>
<stop offset="0.6881" stop-color="#0064DF"/>
</linearGradient>
<linearGradient id="paint3_linear_144_26" x1="0.876315" y1="6.60704" x2="0.984158" y2="5.17414" gradientUnits="userSpaceOnUse">
<stop offset="0.0731" stop-color="#007CF6"/>
<stop offset="0.9943" stop-color="#0072EC"/>
</linearGradient>
<linearGradient id="paint4_linear_144_26" x1="0.935623" y1="7.38311" x2="0.858481" y2="6.80902" gradientUnits="userSpaceOnUse">
<stop offset="0.0731" stop-color="#007FF9"/>
<stop offset="1" stop-color="#007CF6"/>
</linearGradient>
<linearGradient id="paint5_linear_144_26" x1="0.89031" y1="7.53593" x2="1.37106" y2="8.55559" gradientUnits="userSpaceOnUse">
<stop offset="0.0731" stop-color="#007FF9"/>
<stop offset="1" stop-color="#0082FB"/>
</linearGradient>
<linearGradient id="paint6_linear_144_26" x1="8.27941" y1="2.60226" x2="8.91497" y2="1.72324" gradientUnits="userSpaceOnUse">
<stop offset="0.2799" stop-color="#007FF8"/>
<stop offset="0.9141" stop-color="#0082FB"/>
</linearGradient>
<linearGradient id="paint7_linear_144_26" x1="13.1116" y1="1.46132" x2="14.4412" y2="6.35237" gradientUnits="userSpaceOnUse">
<stop stop-color="#0082FB"/>
<stop offset="0.9995" stop-color="#0081FA"/>
</linearGradient>
<linearGradient id="paint8_linear_144_26" x1="14.7623" y1="6.541" x2="13.9208" y2="8.24143" gradientUnits="userSpaceOnUse">
<stop offset="0.0619" stop-color="#0081FA"/>
<stop offset="1" stop-color="#0080F9"/>
</linearGradient>
<linearGradient id="paint9_linear_144_26" x1="13.2521" y1="9.14064" x2="14.0387" y2="8.6049" gradientUnits="userSpaceOnUse">
<stop stop-color="#027AF3"/>
<stop offset="1" stop-color="#0080F9"/>
</linearGradient>
<linearGradient id="paint10_linear_144_26" x1="12.0183" y1="9.24502" x2="13.1113" y2="9.24502" gradientUnits="userSpaceOnUse">
<stop stop-color="#0377EF"/>
<stop offset="0.9994" stop-color="#0279F1"/>
</linearGradient>
<linearGradient id="paint11_linear_144_26" x1="11.068" y1="8.64479" x2="11.8538" y2="9.1071" gradientUnits="userSpaceOnUse">
<stop offset="0.0019" stop-color="#0471E9"/>
<stop offset="1" stop-color="#0377EF"/>
</linearGradient>
<linearGradient id="paint12_linear_144_26" x1="8.67106" y1="5.23467" x2="11.1883" y2="8.3996" gradientUnits="userSpaceOnUse">
<stop offset="0.2765" stop-color="#0867DF"/>
<stop offset="1" stop-color="#0471E9"/>
</linearGradient>
</defs>
</svg>
