<svg width="34" height="29" viewBox="0 0 34 29" fill="none" xmlns="http://www.w3.org/2000/svg">
<path d="M32.565 8.448C31.038 4.606 27.201 -0.86 17.998 0.114C8.795 1.087 0.521004 7.862 0.521004 16.682C0.930004 29.431 14.585 31.83 25.919 25.967C34.714 21.416 34.092 12.29 32.565 8.448ZM26.347 19.716C26.347 20.095 26.214 20.418 25.956 20.677C25.696 20.938 25.372 21.067 24.993 21.067C24.613 21.067 24.289 20.938 24.029 20.677C23.77 20.42 23.638 20.095 23.638 19.716V14.002C23.638 13.041 23.353 12.21 22.793 11.529C22.278 10.929 21.686 10.635 20.99 10.635C20.657 10.635 20.35 10.708 20.045 10.861C19.741 11.012 19.457 11.24 19.208 11.535C18.934 11.873 18.718 12.254 18.571 12.663C18.417 13.08 18.341 13.53 18.341 14.003V19.717C18.341 20.096 18.209 20.419 17.95 20.678C17.69 20.94 17.364 21.069 16.987 21.069C16.61 21.069 16.281 20.94 16.021 20.678C15.762 20.421 15.632 20.096 15.632 19.717V14.003C15.632 13.042 15.347 12.211 14.787 11.53C14.272 10.93 13.68 10.636 12.982 10.636C12.651 10.636 12.345 10.709 12.039 10.862C11.735 11.013 11.451 11.241 11.202 11.536C10.636 12.222 10.359 13.029 10.359 14.004V19.719C10.359 20.097 10.226 20.42 9.968 20.679C9.708 20.941 9.384 21.07 9.004 21.07C8.625 21.07 8.301 20.941 8.041 20.679C7.782 20.423 7.65 20.1 7.65 19.719V14.004C7.65 13.217 7.779 12.452 8.032 11.727C8.287 11.002 8.657 10.347 9.134 9.782C9.632 9.213 10.198 8.764 10.819 8.447C11.504 8.106 12.23 7.934 12.98 7.934C13.731 7.934 14.486 8.106 15.167 8.445C15.792 8.765 16.356 9.213 16.852 9.777C16.902 9.825 16.948 9.883 16.996 9.945C17.046 9.883 17.097 9.825 17.152 9.768C17.646 9.208 18.21 8.765 18.826 8.447C19.491 8.106 20.219 7.934 20.99 7.934C21.761 7.934 22.486 8.106 23.151 8.447C23.807 8.784 24.381 9.231 24.858 9.777C25.336 10.344 25.708 11 25.965 11.727C26.219 12.459 26.348 13.229 26.347 14.004V19.719V19.716Z" fill="#06513F"/>
</svg>
