<svg height="32" viewBox="0 0 32 32" width="32" xmlns="http://www.w3.org/2000/svg"><path fill="#76B900" d="m11.932 11.729v-1.907c.188-.011.375-.02.563-.02 5.229-.167 8.656 4.495 8.656 4.495s-3.697 5.135-7.667 5.135c-.525 0-1.047-.083-1.541-.244v-5.797c2.036.249 2.448 1.145 3.661 3.183l2.719-2.287s-1.984-2.604-5.333-2.604c-.353-.005-.708.011-1.057.047zm0-6.313v2.849l.563-.031c7.265-.251 12.016 5.959 12.016 5.959s-5.443 6.619-11.109 6.619c-.489 0-.975-.047-1.459-.129v1.765c.401.047.812.083 1.213.083 5.276 0 9.095-2.697 12.792-5.88.609.495 3.12 1.688 3.64 2.204-3.509 2.948-11.697 5.312-16.337 5.312-.448 0-.871-.021-1.297-.068v2.485h20.047v-21.168zm0 13.772v1.505c-4.88-.871-6.235-5.948-6.235-5.948s2.344-2.589 6.235-3.016v1.651h-.011c-2.041-.249-3.64 1.661-3.64 1.661s.907 3.213 3.651 4.147zm-8.656-4.657s2.885-4.26 8.667-4.708v-1.557c-6.407.521-11.943 5.937-11.943 5.937s3.136 9.068 11.932 9.896v-1.651c-6.453-.803-8.656-7.917-8.656-7.917z"/></svg>
