<svg width="24" height="24" viewBox="0 0 24 24" fill="none" xmlns="http://www.w3.org/2000/svg">
<path d="M0 2C0 0.89543 0.895431 0 2 0H10C11.1046 0 12 0.895431 12 2V4C12 4.55228 11.5523 5 11 5H1C0.447715 5 0 4.55228 0 4V2Z" fill="#151515"/>
<path d="M12 20C12 19.4477 12.4477 19 13 19H23C23.5523 19 24 19.4477 24 20V22C24 23.1046 23.1046 24 22 24H14C12.8954 24 12 23.1046 12 22V20Z" fill="#151515"/>
<path d="M0 8.5C0 7.94772 0.447715 7.5 1 7.5H22C23.1046 7.5 24 8.39543 24 9.5V15.5C24 16.0523 23.5523 16.5 23 16.5H2C0.89543 16.5 0 15.6046 0 14.5V8.5Z" fill="#151515"/>
</svg>
