<svg width="400" height="400" viewBox="0 0 400 400" fill="none" xmlns="http://www.w3.org/2000/svg">
<rect width="400" height="400" fill="#FDB61C"/>
<path d="M119.406 164.364C119.406 146.764 110.55 132.218 94 120H132.472C145.973 130.473 154.248 146.473 154.248 164.364C154.248 182.255 145.973 198.255 132.472 208.727C144.957 213.964 152.071 226.764 152.071 245.091V280H117.228V245.091C117.228 227.636 108.953 215.418 94 208.727C110.55 196.364 119.406 181.964 119.406 164.364ZM194.753 164.364C194.753 146.764 185.897 132.218 169.347 120H207.819C221.32 130.473 229.595 146.473 229.595 164.364C229.595 182.255 221.32 198.255 207.819 208.727C220.304 213.964 227.418 226.764 227.418 245.091V280H192.575V245.091C192.575 227.636 184.3 215.418 169.347 208.727C185.897 196.364 194.753 181.964 194.753 164.364ZM270.245 164.364C270.245 146.764 261.389 132.218 244.839 120H283.311C296.812 130.473 305.087 146.473 305.087 164.364C305.087 182.255 296.812 198.255 283.311 208.727C295.796 213.964 302.91 226.764 302.91 245.091V280H268.067V245.091C268.067 227.636 259.792 215.418 244.839 208.727C261.389 196.364 270.245 181.964 270.245 164.364Z" fill="#4E2F35"/>
</svg>
