<svg enable-background="new 0 0 1024 1024" viewBox="0 0 1024 1024" xmlns="http://www.w3.org/2000/svg"><circle cx="512" cy="512" fill="#054e9d" r="512"/><path d="m321.8 465.8 16 90.2h-24.6l-10.2-70.2h-2.5l-10.3 70.2h-24.6l16-90.2zm116.8 90.2h23l-3.7-90.2h-38.5l-6.8 49.8h-2l-6.8-49.8h-38.5l-3.7 90.2h23l1.1-67.8h2.3l11.6 67.8h24.2l11.6-67.8h2.3zm141.6-19.9v1.5l.1 1.5.2 1.4.3 1.4.4 1.3.5 1.3.5 1.2.6 1.2.7 1.1.8 1.1.8 1 .9 1 .9.9 1 .9 1.1.9 1.1.8 1.2.8 1.2.7 1.2.7 1.3.6 1.3.6 1.3.5 1.4.5 1.4.4 1.4.4 1.4.3 2.9.5 3 .3 3 .1 3-.1 3-.3 2.9-.5 1.4-.3 1.4-.4 1.4-.4 1.4-.5 1.3-.5 1.3-.5 1.3-.6 1.2-.6 1.2-.7 1.2-.7 1.1-.8 1.1-.8 1-.9.9-.9.9-1 .8-1 .8-1.1.7-1.1.6-1.2.5-1.2.5-1.3.4-1.3.3-1.4.2-1.4.1-1.5v-1.5-70.7h-25.3v69.1.4.4.4.4l-.1.3.4.2-.1.3-.1.3-.1.3-.1.3-.2.3-.2.3-.2.3-.2.3-.2.3-.2.3-.2.2-.3.2-.3.2-.3.2-.3.2-.3.2-.3.2-.3.2-.3.1-.3.1-.3.1-.3.1-.4.1h-.4-.4-.4-.4-.4-.4l-.4-.1-.3-.1-.3-.1-.3-.1-.3-.1-.3-.2-.3-.2-.3-.2-.3-.2-.3-.2-.3-.2-.3-.2-.2-.2-.2-.3-.2-.3-.2-.3-.2-.3-.2-.3-.2-.3v-.2l-.1-.3-.1-.3-.1-.3-.1-.3-.1-.3v-.4-.4-.4-.4-69.1h-25.3zm171.8-70.3h-21.9v56.4h-.5l-25.6-56.4h-27v90.2h21.9v-52.7h.5l23.9 52.7h28.7zm-263.6 72.4v.6.6l.1.6.1.6.1.6.1.6.1.6.2.5.2.5.2.5.2.5.2.5.3.5.3.5.6 1 .7.9.7.9.8.8.9.8.9.8 1 .7 1 .7 1.1.7 1.1.6 1.2.6 1.2.5 1.2.5 2.6.9 2.7.7 2.8.6 2.8.4 2.9.3 2.9.1 2.9-.1 2.9-.2 2.9-.4 2.8-.5 2.7-.7 1.3-.4 1.3-.5 1.3-.5 1.2-.5 1.2-.6 1.2-.6 1.1-.7 1.1-.7 1-.8 1-.8.9-.8.9-.9.8-.9.8-1 .7-1 .6-1.1.6-1.1.5-1.2.4-1.2.3-1.2.3-1.3.2-1.3.3-3.5.1-3.2-.1-3-.2-2.7-.2-1.3-.2-1.2-.2-1.2-.3-1.1-.3-1.1-.3-1-.4-1-.4-.9-.4-.9-.5-.8-.5-.8-.5-.8-.5-.7-.6-.7-.6-.7-.6-.6-.6-.6-.7-.6-.7-.5-.7-.5-1.4-1-1.5-.9-1.5-.8-1.6-.8-3.3-1.5-6.7-3-1.7-.8-1.6-.9-1.6-1-1.6-1.1-1.5-1.2-1.5-1.3-.7-.7-.7-.7-.7-.8-.7-.8-.3-.7-.3-.7-.2-.6-.2-.6-.1-.6-.1-.6v-.3-.3-.3-.3-.3-.3-.2-.2-.2l.1-.2.1-.2.1-.2.1-.2.1-.2.1-.2.1-.2.1-.2.1-.2.1-.2.1-.2.3-.3.3-.3.3-.3.3-.3.3-.2.3-.2.3-.2.3-.2.3-.2.3-.1.3-.1.3-.1.3-.1.3-.1h.3.3.8l.8.1.7.1.7.1.6.1.3.1.3.1.3.1.2.1.2.1.2.1.2.1.2.1.2.1.2.1.2.2.2.2.2.2.1.2.1.2.1.2.1.2.1.2.1.2.1.2.1.2.1.2.1.5.1.5.1.5.1.5.1 1.1v1.2l-.2 5.2h23v-12.5-.5-.5l-.1-.5-.1-.5-.1-.5-.1-.5-.1-.5-.1-.5-.2-.4-.2-.4-.2-.4-.2-.4-.2-.4-.2-.4-.5-.8-.6-.8-.7-.8-.7-.7-.8-.7-.8-.7-.9-.7-.9-.6-1-.6-1-.6-1.1-.5-2.2-1-2.4-.9-2.5-.7-2.6-.6-2.6-.5-2.7-.3-2.7-.2-2.7-.1-2.7.1-2.7.2-2.6.4-2.6.5-2.5.7-1.2.4-1.2.4-1.2.5-1.1.5-1.1.6-1 .6-1 .6-1 .7-.9.7-.9.8-.8.8-.8.9-.7.9-.7 1-.6 1-.5 1-.5 1.1-.4 1.1-.3 1.2-.3 1.2-.2 1.7-.2 1.8-.1 1.9v2 2.1l.1 2.1.2 2.2.3 2.1.4 2.1.5 2 .3 1 .3 1 .4.9.4.9.4.9.5.8.5.8.5.7.6.7.3.3.3.3.3.3.3.3.3.3.4.3 2.4 2 2.4 1.7 2.3 1.5 2.3 1.4 4.4 2.3 4 1.9 3.6 1.7 1.6.9 1.5.9.7.5.6.5.6.5.6.5.5.6.2.3.2.3.2.3.2.3.2.3.2.3.3.7.3.7.2.7.2.7.1.6.1.6.1.6v.6.6l-.1.6-.1.5-.1.5-.2.5-.2.5-.2.4-.2.4-.3.4-.3.4-.3.4-.3.3-.3.3-.3.3-.3.3-.4.2-.4.2-.4.2-.4.1-.4.1h-.2-.2-.2-.2-.2-.2-.2-.2l-.8-.1-.8-.1-.7-.1-.6-.2-.3-.1-.3-.1-.3-.1-.3-.1-.3-.1-.2-.1-.2-.1-.2-.1-.2-.2-.2-.2-.2-.2-.2-.2-.2-.2-.2-.2-.1-.2-.1-.2-.1-.2-.1-.2-.1-.2-.1-.2-.1-.2-.1-.2-.2-.5-.1-.5-.1-.5-.1-.6-.1-.6-.1-1.2v-1.2l.2-5.4h-25.2v12.1zm-278.1-76.1-3.9.3-3.6.5-1.7.3-1.6.4-1.5.4-1.5.5-1.4.5-1.3.5-1.2.6-1.2.6-1.1.7-1 .7-1 .7-.9.8-.9.8-.8.8-.7.8-.7.9-.6.9-.6.9-.5.9-.5 1-.4 1-.4 1-.3 1-.3 1-.2 1-.2 1-.2 1-.1 1-.1 2.1v2.1l.2 2.1.3 2 .4 2 .5 1.9.5 1.9.6 1.8.7 1.7.7 1.6.7 1.4.8 1.3.8 1.1.4.5.4.5.4.4.4.4.4.3.2.1.2.1 2.4 2 2.4 1.7 2.3 1.5 2.3 1.4 4.4 2.3 4 1.9 3.6 1.7 1.6.9 1.5.9.7.5.6.5.6.5.6.5.5.6.2.3.2.3.2.3.2.3.2.3.2.3.3.7.3.7.2.7.2.7.1.6.1.6.1.6v.6.6l-.1.6-.1.5-.1.5-.2.5-.2.5-.2.4-.2.4-.3.4-.3.4-.3.4-.3.3-.3.3-.3.3-.4.3-.4.2-.4.2-.4.2-.4.1-.4.1h-.2-.2-.2-.2-.2-.2-.2.2l-.8-.1-.8-.1-.7-.1-.6-.2-.3-.1-.3-.1-.3-.1-.3-.1-.3-.1-.2-.1-.2-.1-.2-.1-.2-.2-.2-.2-.2-.2-.2-.2-.2-.2-.2-.2-.1-.2-.1-.2-.1-.2-.1-.2-.1-.2-.1-.2-.2-.3-.1-.2-.2-.5-.1-.5-.1-.5-.1-.6-.1-.6-.1-1.2v-1.2l.2-5.4h-25.2v11.9.6.6l.1.6.1.6.1.6.1.6.1.6.2.5.2.5.2.5.2.5.2.5.3.5.3.5.6 1 .7.9.7.9.8.8.9.8.9.8 1 .7 1 .7 1.1.7 1.1.6 1.2.6 1.2.5 1.2.5 2.6.9 2.7.7 2.8.6 2.8.4 2.9.3 2.9.1 2.9-.1 2.9-.2 2.9-.4 2.8-.5 2.7-.7 1.3-.4 1.3-.5 1.3-.5 1.2-.5 1.2-.6 1.2-.6 1.1-.7 1.1-.7 1-.8 1-.8.9-.8.9-.9.8-.9.8-1 .7-1 .6-1.1.6-1.1.5-1.2.4-1.2.3-1.2.3-1.3.2-1.3.3-3.5.1-3.2-.1-3-.2-2.7-.2-1.3-.2-1.2-.2-1.2-.3-1.1-.3-1.1-.3-1-.4-1-.4-.9-.4-.9-.5-.8-.5-.8-.5-.8-.5-.7-.6-.7-.6-.7-.6-.6-.6-.6-.7-.6-.7-.5-.7-.5-1.4-1-1.5-.9-1.5-.8-1.6-.8-3.3-1.5-6.7-3-1.7-.8-1.6-.9-1.6-1-1.6-1.1-1.5-1.2-1.5-1.3-.7-.7-.7-.7-.7-.8-.7-.8-.3-.7-.3-.7-.2-.6-.2-.6-.1-.6-.1-.6v-.3-.3-.3-.3-.3-.3-.2-.2l.1-.2.1-.2.1-.2.1-.2.1-.2.1-.2.1-.2.1-.2.1-.2.1-.2.1-.2.1-.2.3-.3.3-.3.3-.3.3-.3.3-.2.3-.2.3-.2.3-.2.3-.2.3-.1.3-.1.3-.1.3-.1.3-.1h.3.3.8l.8.1.7.1.7.1.6.1.3.1.3.1.3.1.2.1.2.1.2.1.2.1.2.1.2.1.2.1.2.2.2.2.2.2.1.2.1.2.1.2.1.2.1.2.1.2.1.2.1.2.1.2.1.5.1.5.1.5.1.5.1 1.1v1.2l-.2 5.2h23v-12.5-.7-.7l-.1-.6-.1-.6-.1-.6-.1-.6-.2-.6-.2-.6-.2-.5-.2-.5-.3-.5-.3-.5-.3-.5-.3-.5-.3-.5-.4-.5-.4-.4-.4-.4-.4-.4-.4-.4-.9-.8-.9-.7-1-.7-1.1-.6-1.1-.6-1.1-.5-1.2-.5-1.2-.4-2.5-.8-2.6-.6-2.7-.5-2.7-.4-2.7-.3zm605.8 99.8 2.9.1 2.7-.1 2.5-.2 2.3-.3 2.1-.4 2-.5.9-.3.9-.3.8-.3.8-.3.8-.4.7-.4.7-.4.7-.4.6-.4.6-.4.6-.5.5-.5.5-.5.5-.5.4-.5.4-.5.4-.5.4-.6.3-.6.3-.6.3-.6.3-.6.5-1.2.4-1.2.3-1.2.2-1.2.2-1.2.1-1.2.1-1.2.1-2.4v-2.3l-.1-4v-24.6h-29.7v13.1h6.1v15.5.3.3.3l-.1.3-.1.3-.1.3-.1.3-.1.3-.1.3-.1.3-.2.3-.2.3-.2.3-.2.2-.2.2-.2.2-.2.2-.2.2-.2.2-.3.2-.3.2-.3.2-.3.1-.3.1-.3.1-.3.1-.3.1-.3.1-.3.1h-.3-.3-.3-.3-.3-.3l-.3-.1-.3-.1-.3-.1-.3-.1-.3-.1-.3-.1-.3-.1-.3-.2-.3-.2-.3-.2-.2-.2-.2-.2-.2-.2-.2-.2-.2-.2-.2-.2-.2-.3-.2-.3-.2-.3-.1-.3-.1-.3-.1-.3-.1-.3-.1-.3-.1-.3-.1-.3v-.3-.3-.3-50.3-.3-.3-.3l.1-.3.1-.3.1-.3.1-.3.1-.3.1-.3.1-.3.2-.3.2-.3.2-.3.2-.2.2-.2.2-.2.2-.2.2-.2.2-.2.3-.2.3-.2.3-.2.3-.1.3-.1.3-.1.3-.1.3-.1.3-.1.3-.1h.3.3.3.3.3.3l.3.1.3.1.3.1.3.1.3.1.3.1.3.1.3.2.3.2.3.2.2.2.2.2.2.2.2.2.2.2.2.2.2.3.2.3.2.3.1.3.1.3.1.3.1.3.1.3.1.3.1.3v.3.3.3 8.3h23.7v-10.3-1.3l-.1-.6-.1-.6-.1-.6-.1-.6-.1-.6-.4-.7-.2-.6-.2-.6-.2-.6-.2-.5-.3-.5-.3-.5-.6-1-.7-1-.7-.9-.8-.9-.8-.8-.9-.8-1-.8-1-.7-1-.7-1.1-.6-1.1-.6-1.2-.6-1.2-.5-1.2-.5-1.3-.4-2.6-.7-2.7-.6-2.8-.4-2.8-.3-2.9-.1-2.9.1-2.8.2-2.8.4-2.7.6-2.6.7-1.3.4-1.2.5-1.2.5-1.2.5-1.1.6-1.1.6-1 .7-1 .7-1 .8-.9.8-.8.8-.8.9-.7.9-.7 1-.6 1-.3.5-.2.5-.3.5-.2.5-.2.6-.2.6-.2.6-.1.6-.1.6-.1.6-.1.6-.1.6v1.3 56.7.9.8l.1.8.1.8.1.8.1.7.2.7.2.7.2.7.2.7.3.6.3.6.3.6.3.6.4.6.4.5.4.5.4.5.4.5.5.5.5.5.5.4 1 .8 1.1.8 1.1.7 1.2.6 1.2.6 1.2.5 1.3.5 1.3.4 1.3.4 2.7.6 2.7.4 2.7.3 2.6.2h2.5z" fill="#fff"/></svg>