<svg version="1.1" id="Layer_1" xmlns:x="ns_extend;" xmlns:i="ns_ai;" xmlns:graph="ns_graphs;" xmlns="http://www.w3.org/2000/svg" xmlns:xlink="http://www.w3.org/1999/xlink" x="0px" y="0px" viewBox="0 0 62.5 66" style="enable-background:new 0 0 62.5 66;" xml:space="preserve">
 <style type="text/css">
  .st0{fill:#0099FA;}
 </style>
 <metadata>
  <sfw xmlns="ns_sfw;">
   <slices>
   </slices>
   <sliceSourceBounds bottomLeftOrigin="true" height="66" width="62.5" x="-165.7" y="-20">
   </sliceSourceBounds>
  </sfw>
 </metadata>
 <g>
  <g>
   <polygon class="st0" points="15.7,0 15.7,10.3 26.2,10.3 26.2,37.1 36.3,37.1 36.3,10.1 36.3,0 		">
   </polygon>
   <g>
    <path class="st0" d="M10.1,34.7c0-8,4.4-15,11-18.6v0h-15C2.3,21.4,0,27.8,0,34.7c0,13.8,8.9,25.5,21.3,29.7v-11
				C14.7,49.8,10.1,42.8,10.1,34.7">
    </path>
    <path class="st0" d="M41.4,5.2v11c6.6,3.6,11,10.6,11,18.6c0,11.7-9.5,21.1-21.1,21.1c-1.7,0-3.4-0.2-5.1-0.6v10.3
				c1.6,0.3,3.3,0.4,5.1,0.4c17.3,0,31.3-14,31.3-31.3C62.5,21,53.7,9.4,41.4,5.2">
    </path>
   </g>
  </g>
 </g>
</svg>