<svg fill="none" height="32" viewBox="0 0 32 32" width="32" xmlns="http://www.w3.org/2000/svg"><path d="m8.45095 19.7926c.15628-1.2939.68695-2.0183 1.68695-2.7609 1.4309-1.0058 3.2182-.4369 3.2182-.4369v-3.3751c.4346-.0112.8693.0146 1.299.0769v4.3435s-1.7868-.5689-3.2176.4374c-.9995.7421-1.53127 1.4671-1.687 2.761-.00488.7026.12697 1.621.7342 2.4151-.1502-.077-.3032-.1647-.4591-.2631-1.33753-.8982-1.58116-2.2456-1.57465-3.1979zm13.58425-12.81362c-.9843-1.07859-1.3566-2.16759-1.4911-2.93259h1.2382s-.2469 2.00585 1.5524 3.97843l.025.02652c-.485-.30504-.9297-.6651-1.3245-1.07236zm5.9648 3.05792v4.2561s-1.58-.0618-2.7493-.3593c-1.6328-.4161-2.6822-1.0542-2.6822-1.0542s-.7249-.455-.7835-.4867v8.7889c0 .4894-.134 1.7115-.5426 2.7308-.5334 1.3335-1.3565 2.2087-1.5079 2.3876 0 0-1.0011 1.1831-2.7673 1.9799-1.592.7187-2.9898.7005-3.4076.7187 0 0-2.4162.0957-4.59045-1.3173-.47017-.3115-.90904-.6642-1.31095-1.0537l.01086.0078c2.17477 1.413 4.59044 1.3173 4.59044 1.3173.4184-.0182 1.8161 0 3.4076-.7187 1.7646-.7967 2.7673-1.9798 2.7673-1.9798.1498-.1789.9767-1.0542 1.5079-2.3881.4075-1.0188.5426-2.2415.5426-2.7308v-8.7879c.0586.0322.783.4872.783.4872s1.05.6387 2.6827 1.0542c1.1698.2975 2.7494.3594 2.7494.3594v-3.33516c.5404.12116 1.0011.15396 1.3.12376z" fill="#ee1d52"/><path d="m26.7009 9.91314v3.33406s-1.5796-.0619-2.7494-.3593c-1.6327-.4161-2.6827-1.0542-2.6827-1.0542s-.7244-.455-.783-.4873v8.79c0 .4894-.134 1.712-.5426 2.7308-.5334 1.334-1.3565 2.2092-1.5079 2.3881 0 0-1.0016 1.1831-2.7673 1.9799-1.5915.7187-2.9892.7005-3.4076.7187 0 0-2.41567.0957-4.59045-1.3173l-.01085-.0078c-.22961-.2224-.44574-.4571-.64733-.7031-.694-.8462-1.1194-1.8468-1.2263-2.1323-.00018-.0012-.00018-.0024 0-.0036-.172-.4961-.53338-1.6876-.484-2.8416.08736-2.036.8036-3.2857.99297-3.5988.50153-.8537 1.15384-1.6176 1.92789-2.2575.68305-.5523 1.45727-.9917 2.29087-1.3002.9012-.3622 1.8662-.5564 2.8433-.572v3.3751s-1.7874-.5668-3.2177.4369c-1.00001.7426-1.53068 1.467-1.68695 2.7609-.00651.9523.23712 2.2997 1.57355 3.1984.1559.0988.3089.1865.4591.2631.2334.3035.5176.568.841.7827 1.3055.8264 2.3994.8841 3.7983.3474.9327-.3588 1.6348-1.1675 1.9604-2.0636.2046-.5595.2019-1.1228.2019-1.7052v-16.56901h3.2556c.1346.765.5068 1.854 1.4911 2.93259.3948.40726.8396.76732 1.3245 1.07236.1433.14821.8758.88097 1.8161 1.33082.4862.23253.9988.41069 1.5275.53098z" fill="#000"/><g fill="#69c9d0"><path d="m4.48926 22.7568v.0026l.08078.219c-.00928-.0255-.0393-.103-.08078-.2216z"/><path d="m10.5128 13.7916c-.83361.3086-1.60782.748-2.29088 1.3002-.77429.6414-1.42644 1.4069-1.92734 2.2622-.18937.3121-.90561 1.5628-.99297 3.5988-.04938 1.154.312 2.3455.484 2.8416-.00018.0012-.00018.0024 0 .0036.10852.283.5323 1.2835 1.2263 2.1323.20159.246.41772.4808.64733.7031-.73567-.4877-1.39178-1.0772-1.94688-1.7495-.68803-.8388-1.11235-1.829-1.22304-2.1213-.00013-.0021-.00013-.0042 0-.0062v-.0037c-.17255-.4956-.53501-1.6876-.48455-2.8431.08736-2.036.80361-3.2857.99298-3.5988.50075-.8555 1.15292-1.621 1.92734-2.2622.68291-.5525 1.45716-.9919 2.29089-1.3002.52004-.2068 1.06182-.3593 1.61592-.455.835-.1397 1.6879-.1519 2.5269-.0359v.9621c-.978.0153-1.944.2095-2.846.572z"/><path d="m20.5438 4.04635h-3.2557v16.56955c0 .5824 0 1.1441-.2018 1.7052-.3288.8956-1.0283 1.7042-1.9605 2.0631-1.3993.5388-2.4932.479-3.7982-.3474-.324-.2138-.6089-.4774-.8432-.7801 1.1118.5684 2.1069.5585 3.3397.0843.9317-.3589 1.6322-1.1676 1.9599-2.0636.2051-.5596.2024-1.1228.2024-1.7048v-16.5726h4.4955s-.0504.41188.0619 1.04635zm6.1564 4.94469v.92206c-.5277-.12047-1.0393-.29863-1.5247-.53097-.9403-.44985-1.6729-1.18261-1.8161-1.33083.1662.1046.3387.19976.5165.28499 1.1433.5471 2.2692.7104 2.8243.65475z"/></g></svg>