<svg width="40" height="40" viewBox="0 0 40 40" fill="none" xmlns="http://www.w3.org/2000/svg">
<path d="M15 28.8462C17.1242 28.8462 18.8461 27.1242 18.8461 25C18.8461 22.8758 17.1242 21.1539 15 21.1539C12.8758 21.1539 11.1538 22.8758 11.1538 25C11.1538 27.1242 12.8758 28.8462 15 28.8462ZM15 18.8462C17.1242 18.8462 18.8461 17.1242 18.8461 15C18.8461 12.8758 17.1242 11.1538 15 11.1538C12.8758 11.1538 11.1538 12.8758 11.1538 15C11.1538 17.1242 12.8758 18.8462 15 18.8462ZM25 28.8462C27.1242 28.8462 28.8462 27.1242 28.8462 25C28.8462 22.8758 27.1242 21.1539 25 21.1539C22.8758 21.1539 21.1538 22.8758 21.1538 25C21.1538 27.1242 22.8758 28.8462 25 28.8462ZM25 18.8462C27.1242 18.8462 28.8462 17.1242 28.8462 15C28.8462 12.8758 27.1242 11.1538 25 11.1538C22.8758 11.1538 21.1538 12.8758 21.1538 15C21.1538 17.1242 22.8758 18.8462 25 18.8462ZM20 0C30.8333 0 40 9.1667 40 20C40 30.8333 30.8333 40 20 40C9.16668 40 0 30.8333 0 20C0 9.1668 9.16673 0 20 0ZM20 5.38461C11.9512 5.38461 5.38462 11.7238 5.38462 19.7315C5.38462 27.7392 11.9512 34.6154 20 34.6154C28.0488 34.6154 34.6154 27.7392 34.6154 19.7315C34.6154 11.7238 28.0488 5.38461 20 5.38461Z" fill="#F22F46"/>
</svg>
