<svg width="179" height="198" viewBox="0 0 179 198" fill="none" xmlns="http://www.w3.org/2000/svg">
<path d="M89.2 25.8001C95.8 25.8001 102.4 26.6001 108.8 28.1001C110.4 28.5001 112 27.7001 112.6 26.2001C113.2 24.4001 112.4 22.4001 110.7 21.6001H110.3C96.5 18.1001 82.2 18.1001 68.4 21.6001C66.5 22.0001 65.3 23.9001 65.7 25.8001V26.2001C66.4 27.7001 68 28.5001 69.5 28.1001C76.1 26.9001 82.6 25.8001 89.2 25.8001Z" fill="#5B627D"/>
<path d="M131.5 35C131.2 36.4 131.8 37.8 133 38.5C171.2 62.6 182.6 113.1 158.5 151.2C158.4 151.3 158.4 151.4 158.3 151.5C134.1 189.6 83.7 201.5 45.3 177.3C7.10001 152.8 -4.09999 102 20.3 63.8C26.8 53.6 35.5 44.9 45.8 38.4C47 37.7 47.7 36.3 47.3 34.9C47.1 33.2 45.5 31.9 43.8 32.2C43.7 32.2 43.6 32.2 43.5 32.3C43.1 32.3 42.7 32.7 42.3 32.7C0.700008 58.8 -12 113.5 13.8 155.3C39.6 197.2 94.5 209.5 136.4 183.8C177.9 157.7 190.6 102.9 164.8 61.2C157.9 49.7 148.3 40 136.7 33.1C135.2 32.1 133.2 32.5 132.2 34C132.1 34.1 132.1 34.2 132 34.3C131.8 34.2 131.5 34.6 131.5 35Z" fill="#5B627D"/>
<path d="M107.6 58.4C103.3 57.5 98.9 57 94.5 56.9H89.1C83.8 56.8 78.5 57.3 73.3 58.4C54.9 61.6 38 70.1 24.5 83C23.3 84.4 22.6 86.2 22.6 88L31.1 155.7C57.4 187.7 104.6 192.5 136.8 166.5C140.7 163.2 144.3 159.6 147.6 155.7L148.7 145.3C156.9 140.7 161.8 132 161.4 122.6C161.4 115.6 158.7 108.8 153.7 103.7L155.6 87.6C156 85.7 155.2 84.1 154.1 82.6C146.5 75.3 137.6 69.3 127.9 64.9C121.4 62.2 114.6 60 107.6 58.4Z" fill="#46DB83"/>
<path d="M81.1 141.1C78.5 142.5 75.6 143.2 72.6 143C61.8 142.6 53.4 134.2 53.8 123.4V122.6C53.3 112 61.3 103 71.9 102.2H72.7C77.2 102.1 81.6 103.8 85 106.8C89.4 110.8 91.8 116.6 91.5 122.6C91.7 130.2 87.7 137.4 81.1 141.1Z" fill="#46DB83"/>
<path d="M146.5 141.1C143.9 142.5 141 143.1 138 143C127.2 142.6 118.8 134.2 119.2 123.4V122.6C118.7 112 126.7 103 137.3 102.2H138.1C142.6 102.1 147 103.8 150.4 106.8C154.6 111 157.3 116.4 156.9 122.6C157.1 130.2 153.1 137.4 146.5 141.1Z" fill="#46DB83"/>
<path d="M58.4 61.9C56.5 48.4 54.2 34.6 52.2 23.5C45.8 23.7 40.5 18.7 40.3 12.4C40.1 5.99999 45.1 0.7 51.5 0.5C58 0.5 63.4 5.50001 63.4 11.6C63.7 16.1 61.3 20.3 57.2 22.4L71 58.5L58.4 61.9Z" fill="#5B627D"/>
<path d="M107.6 58.4L121.4 22.3C115.8 19.4 113.5 12.6 116.4 6.90002C119.3 1.20002 126.1 -0.999979 131.8 1.90002C137.2 5.00002 139.9 11.9 136.8 17.3C134.9 21.2 130.8 23.6 126.4 23.4C124.5 34.5 122.6 48.4 120.3 61.8C116.2 60.4 112 59.2 107.6 58.4Z" fill="#5B627D"/>
<path d="M81.1 141.1C78.5 142.5 75.6 143.2 72.6 143C61.8 142.6 53.4 134.2 53.8 123.4V122.6C53.3 112 61.3 103 71.9 102.2H72.7C77.2 102.1 81.6 103.8 85 106.8C89.4 110.8 91.8 116.6 91.5 122.6C91.7 130.2 87.7 137.4 81.1 141.1Z" fill="white"/>
<path d="M146.5 141.1C143.9 142.5 141 143.1 138 143C127.2 142.6 118.8 134.2 119.2 123.4V122.6C118.7 112 126.7 103 137.3 102.2H138.1C142.6 102.1 147 103.8 150.4 106.8C154.6 111 157.3 116.4 156.9 122.6C157.1 130.2 153.1 137.4 146.5 141.1Z" fill="white"/>
<path d="M139.2 115.3C137.7 112.6 133.8 111.8 131.1 113.4C130.3 113.8 129.6 114.5 129.2 115.3C128 117.3 127.3 119.5 127.3 121.8C127.3 124.5 127.7 126.8 129.2 128.7C130.4 130.6 131.9 131.4 134.2 131.8C136.2 131.7 138 130.7 139.2 129.1C141.7 124.9 141.7 119.6 139.2 115.3Z" fill="#5B627D"/>
<path d="M135.7 121.5C136.97 121.5 138 120.47 138 119.2C138 117.93 136.97 116.9 135.7 116.9C134.43 116.9 133.4 117.93 133.4 119.2C133.4 120.47 134.43 121.5 135.7 121.5Z" fill="white"/>
<path d="M74.2 115.3C72.7 112.6 68.8 111.8 66.1 113.4C65.3 113.8 64.6 114.5 64.2 115.3C63 117.4 62.3 119.8 62.3 122.2C62.3 124.9 62.7 127.2 64.2 129.1C65.7 131.8 69.1 132.9 71.9 131.4C72.9 130.8 73.6 130.1 74.2 129.1C75.7 127.1 76.4 124.7 76.1 122.2C76.1 119.8 75.5 117.4 74.2 115.3Z" fill="#5B627D"/>
<path d="M70.3 121.5C71.5703 121.5 72.6 120.47 72.6 119.2C72.6 117.93 71.5703 116.9 70.3 116.9C69.0297 116.9 68 117.93 68 119.2C68 120.47 69.0297 121.5 70.3 121.5Z" fill="white"/>
</svg>
