<svg width="154" height="155" viewBox="0 0 154 155" fill="none" xmlns="http://www.w3.org/2000/svg">
<path d="M23.7535 0.683594C7.92571 0.683594 -0.212594 43.9006 0.634967 84.4749C0.612275 84.4692 0.586194 84.4807 0.563503 84.4749C1.40964 120.088 9.28495 154.224 24.8969 154.224C84.8079 154.224 153.067 97.7243 153.067 77.4715C153.067 72.4047 147.906 62.6556 140.99 54.9604C140.981 54.9656 140.963 54.9551 140.954 54.9604C140.484 54.4144 139.985 53.8698 139.489 53.3167C118.147 29.505 73.8711 0.683594 23.7535 0.683594Z" fill="url(#paint0_linear_148_9)"/>
<path d="M0.623588 84.4736C45.6372 95.0445 93.6938 83.1443 140.251 55.3964C140.485 55.2563 140.72 55.1162 140.954 54.9747C140.484 54.4288 140.002 53.8785 139.506 53.3253C118.164 29.5136 73.8612 0.686523 23.7436 0.686523C7.91576 0.686523 -0.223973 43.8993 0.623588 84.4736ZM140.954 54.9747C140.965 54.9702 140.973 54.9644 140.981 54.9591L140.954 54.9747Z" fill="url(#paint1_linear_148_9)"/>
<path d="M0.57642 84.4635C1.42255 120.077 9.30072 154.225 24.9127 154.225C84.8237 154.225 153.077 97.7415 153.077 77.4887C153.077 72.4219 147.898 62.6542 140.981 54.959C94.1826 83.0285 45.8416 95.1088 0.57642 84.4635Z" fill="url(#paint2_linear_148_9)"/>
<defs>
<linearGradient id="paint0_linear_148_9" x1="129.102" y1="168.034" x2="24.5029" y2="-13.1377" gradientUnits="userSpaceOnUse">
<stop stop-color="#F47026"/>
<stop offset="0.375336" stop-color="#F47026"/>
<stop offset="0.949234" stop-color="#FBC195"/>
<stop offset="1" stop-color="#FBC195"/>
</linearGradient>
<linearGradient id="paint1_linear_148_9" x1="129.102" y1="168.034" x2="24.5029" y2="-13.1376" gradientUnits="userSpaceOnUse">
<stop stop-color="#F47026"/>
<stop offset="0.375336" stop-color="#F47026"/>
<stop offset="0.949234" stop-color="#FBC195"/>
<stop offset="1" stop-color="#FBC195"/>
</linearGradient>
<linearGradient id="paint2_linear_148_9" x1="0.577098" y1="54.9595" x2="153.077" y2="54.9595" gradientUnits="userSpaceOnUse">
<stop stop-color="#F57D34"/>
<stop offset="0.533798" stop-color="#F47026"/>
<stop offset="1" stop-color="#F47026"/>
</linearGradient>
</defs>
</svg>
