<svg width="453" height="328" viewBox="0 0 453 328" fill="none" xmlns="http://www.w3.org/2000/svg">
<g clip-path="url(#clip0_9_914)">
<g clip-path="url(#clip1_9_914)">
<rect x="36" y="24" width="163.921" height="180.795" rx="9.64238" fill="white"/>
<mask id="path-3-inside-1_9_914" fill="white">
<path d="M37.2053 34.8477C37.2053 29.5224 41.5223 25.2053 46.8477 25.2053H189.073C194.398 25.2053 198.715 29.5224 198.715 34.8477V58.4901H37.2053V34.8477Z"/>
</mask>
<path d="M37.2053 34.8477C37.2053 29.5224 41.5223 25.2053 46.8477 25.2053H189.073C194.398 25.2053 198.715 29.5224 198.715 34.8477V58.4901H37.2053V34.8477Z" fill="#FAFAFA"/>
<path d="M37.2053 25.2053H198.715H37.2053ZM198.715 59.6954H37.2053V57.2848H198.715V59.6954ZM37.2053 58.4901V25.2053V58.4901ZM198.715 25.2053V58.4901V25.2053Z" fill="#E4E4E7" mask="url(#path-3-inside-1_9_914)"/>
<path d="M72.8249 37.0819H74.7681L77.3704 43.4336H77.4731L80.0755 37.0819H82.0187V45.8477H80.4949V39.8254H80.4136L77.991 45.822H76.8525L74.4299 39.8126H74.3486V45.8477H72.8249V37.0819ZM85.5712 45.9803C85.1546 45.9803 84.7794 45.9062 84.4455 45.7578C84.1145 45.6065 83.852 45.384 83.658 45.0901C83.4668 44.7962 83.3712 44.4338 83.3712 44.0029C83.3712 43.632 83.4397 43.3252 83.5767 43.0827C83.7136 42.8401 83.9005 42.6461 84.1374 42.5006C84.3742 42.355 84.641 42.2452 84.9378 42.171C85.2374 42.0939 85.547 42.0383 85.8666 42.0041C86.2518 41.9641 86.5642 41.9284 86.8039 41.8971C87.0436 41.8628 87.2177 41.8114 87.3261 41.743C87.4374 41.6716 87.493 41.5618 87.493 41.4134V41.3877C87.493 41.0653 87.3974 40.8156 87.2063 40.6387C87.0151 40.4618 86.7397 40.3733 86.3802 40.3733C86.0007 40.3733 85.6996 40.4561 85.4771 40.6216C85.2573 40.7871 85.109 40.9825 85.0319 41.2079L83.5852 41.0025C83.6994 40.603 83.8877 40.2692 84.1502 40.0009C84.4127 39.7299 84.7337 39.5273 85.1133 39.3931C85.4928 39.2562 85.9122 39.1877 86.3716 39.1877C86.6884 39.1877 87.0037 39.2248 87.3175 39.299C87.6314 39.3732 87.9182 39.4959 88.1779 39.6671C88.4375 39.8354 88.6458 40.0651 88.8028 40.3562C88.9626 40.6472 89.0425 41.0111 89.0425 41.4476V45.8477H87.553V44.9445H87.5016C87.4074 45.1272 87.2747 45.2984 87.1035 45.4582C86.9352 45.6151 86.7226 45.7421 86.4658 45.8391C86.2118 45.9333 85.9136 45.9803 85.5712 45.9803ZM85.9736 44.8418C86.2846 44.8418 86.5542 44.7805 86.7825 44.6578C87.0108 44.5322 87.1863 44.3667 87.309 44.1613C87.4345 43.9558 87.4973 43.7318 87.4973 43.4893V42.7146C87.4488 42.7545 87.3661 42.7916 87.2491 42.8259C87.1349 42.8601 87.0065 42.8901 86.8638 42.9157C86.7212 42.9414 86.5799 42.9642 86.4401 42.9842C86.3003 43.0042 86.179 43.0213 86.0763 43.0356C85.8452 43.067 85.6383 43.1183 85.4557 43.1897C85.273 43.261 85.1289 43.3609 85.0234 43.4893C84.9178 43.6148 84.865 43.7775 84.865 43.9772C84.865 44.2626 84.9692 44.478 85.1775 44.6235C85.3858 44.7691 85.6511 44.8418 85.9736 44.8418ZM90.6004 45.8477V39.2733H92.1028V40.369H92.1713C92.2911 39.9895 92.4966 39.697 92.7876 39.4916C93.0815 39.2833 93.4168 39.1791 93.7935 39.1791C93.8791 39.1791 93.9746 39.1834 94.0802 39.192C94.1887 39.1977 94.2785 39.2077 94.3499 39.2219V40.6472C94.2842 40.6244 94.1801 40.6044 94.0374 40.5873C93.8976 40.5673 93.7621 40.5574 93.6308 40.5574C93.3483 40.5574 93.0944 40.6187 92.8689 40.7414C92.6464 40.8612 92.4709 41.0282 92.3425 41.2422C92.2141 41.4562 92.1499 41.703 92.1499 41.9827V45.8477H90.6004ZM96.7917 43.7846L96.7874 41.9142H97.0357L99.3983 39.2733H101.209L98.3026 42.5091H97.9816L96.7917 43.7846ZM95.3793 45.8477V37.0819H96.9287V45.8477H95.3793ZM99.5053 45.8477L97.3653 42.8558L98.4096 41.7644L101.359 45.8477H99.5053ZM104.881 45.9761C104.222 45.9761 103.653 45.8391 103.173 45.5652C102.697 45.2884 102.33 44.8975 102.073 44.3924C101.817 43.8845 101.688 43.2867 101.688 42.599C101.688 41.9227 101.817 41.3292 102.073 40.8184C102.333 40.3048 102.696 39.9053 103.161 39.62C103.626 39.3318 104.172 39.1877 104.8 39.1877C105.205 39.1877 105.587 39.2533 105.947 39.3846C106.309 39.513 106.629 39.7127 106.906 39.9838C107.185 40.2549 107.405 40.6002 107.565 41.0196C107.725 41.4362 107.805 41.9327 107.805 42.5091V42.9842H102.416V41.9399H106.319C106.317 41.6431 106.252 41.3792 106.127 41.148C106.001 40.914 105.826 40.73 105.6 40.5959C105.378 40.4618 105.118 40.3947 104.821 40.3947C104.505 40.3947 104.226 40.4718 103.987 40.6258C103.747 40.7771 103.56 40.9768 103.426 41.2251C103.295 41.4705 103.228 41.7401 103.225 42.034V42.9457C103.225 43.3281 103.295 43.6562 103.435 43.9301C103.574 44.2012 103.77 44.4095 104.021 44.555C104.272 44.6977 104.566 44.7691 104.903 44.7691C105.128 44.7691 105.332 44.7377 105.515 44.6749C105.697 44.6093 105.856 44.5137 105.99 44.3881C106.124 44.2626 106.225 44.1071 106.294 43.9216L107.74 44.0842C107.649 44.4666 107.475 44.8004 107.218 45.0858C106.964 45.3683 106.639 45.588 106.242 45.7449C105.846 45.899 105.392 45.9761 104.881 45.9761ZM112.398 39.2733V40.4718H108.619V39.2733H112.398ZM109.552 37.6982H111.101V43.8702C111.101 44.0785 111.133 44.2383 111.196 44.3496C111.261 44.458 111.347 44.5322 111.452 44.5722C111.558 44.6121 111.675 44.6321 111.803 44.6321C111.9 44.6321 111.989 44.625 112.069 44.6107C112.151 44.5964 112.214 44.5836 112.257 44.5722L112.518 45.7835C112.435 45.812 112.317 45.8434 112.163 45.8776C112.012 45.9119 111.826 45.9318 111.606 45.9375C111.218 45.949 110.869 45.8905 110.558 45.7621C110.247 45.6308 110 45.4282 109.817 45.1543C109.638 44.8803 109.549 44.5379 109.552 44.127V37.6982ZM113.694 45.8477V39.2733H115.244V45.8477H113.694ZM114.473 38.3402C114.228 38.3402 114.017 38.2589 113.84 38.0963C113.663 37.9308 113.574 37.7324 113.574 37.5013C113.574 37.2673 113.663 37.069 113.84 36.9064C114.017 36.7409 114.228 36.6581 114.473 36.6581C114.721 36.6581 114.933 36.7409 115.107 36.9064C115.284 37.069 115.372 37.2673 115.372 37.5013C115.372 37.7324 115.284 37.9308 115.107 38.0963C114.933 38.2589 114.721 38.3402 114.473 38.3402ZM118.386 41.9955V45.8477H116.837V39.2733H118.318V40.3904H118.395C118.546 40.0223 118.787 39.7299 119.118 39.513C119.452 39.2961 119.864 39.1877 120.355 39.1877C120.809 39.1877 121.204 39.2847 121.541 39.4788C121.88 39.6728 122.143 39.9539 122.328 40.3219C122.517 40.69 122.609 41.1366 122.607 41.6616V45.8477H121.057V41.9013C121.057 41.4619 120.943 41.1181 120.715 40.8698C120.489 40.6216 120.177 40.4974 119.777 40.4974C119.506 40.4974 119.265 40.5574 119.054 40.6772C118.846 40.7942 118.682 40.964 118.562 41.1865C118.445 41.4091 118.386 41.6788 118.386 41.9955ZM127.041 48.45C126.484 48.45 126.006 48.3744 125.607 48.2232C125.207 48.0748 124.886 47.875 124.644 47.6239C124.401 47.3728 124.233 47.0946 124.139 46.7893L125.534 46.4512C125.597 46.5796 125.688 46.7065 125.808 46.8321C125.928 46.9605 126.089 47.0661 126.292 47.1488C126.497 47.2344 126.755 47.2772 127.066 47.2772C127.506 47.2772 127.87 47.1702 128.158 46.9562C128.446 46.7451 128.59 46.3969 128.59 45.9119V44.6663H128.513C128.433 44.8261 128.316 44.9902 128.162 45.1585C128.011 45.3269 127.81 45.4681 127.559 45.5823C127.31 45.6964 126.998 45.7535 126.621 45.7535C126.116 45.7535 125.658 45.6351 125.247 45.3982C124.839 45.1585 124.514 44.8019 124.272 44.3282C124.032 43.8517 123.912 43.2553 123.912 42.5391C123.912 41.8172 124.032 41.2079 124.272 40.7114C124.514 40.2121 124.841 39.834 125.252 39.5772C125.663 39.3175 126.121 39.1877 126.626 39.1877C127.011 39.1877 127.328 39.2533 127.576 39.3846C127.827 39.513 128.027 39.6685 128.175 39.8511C128.323 40.0309 128.436 40.2007 128.513 40.3605H128.599V39.2733H130.127V45.9547C130.127 46.5168 129.993 46.9819 129.724 47.35C129.456 47.7181 129.09 47.9935 128.624 48.1761C128.159 48.3587 127.631 48.45 127.041 48.45ZM127.054 44.5379C127.382 44.5379 127.661 44.458 127.893 44.2982C128.124 44.1384 128.299 43.9087 128.419 43.6091C128.539 43.3095 128.599 42.95 128.599 42.5305C128.599 42.1168 128.539 41.7544 128.419 41.4434C128.302 41.1323 128.128 40.8912 127.897 40.72C127.669 40.5459 127.387 40.4589 127.054 40.4589C126.708 40.4589 126.42 40.5488 126.189 40.7286C125.958 40.9083 125.784 41.1552 125.667 41.469C125.55 41.7801 125.491 42.1339 125.491 42.5305C125.491 42.9329 125.55 43.2853 125.667 43.5877C125.787 43.8873 125.962 44.1213 126.193 44.2897C126.427 44.4552 126.714 44.5379 127.054 44.5379ZM134.704 48.313V39.2733H136.228V40.3605H136.318C136.398 40.2007 136.511 40.0309 136.656 39.8511C136.802 39.6685 136.999 39.513 137.247 39.3846C137.495 39.2533 137.812 39.1877 138.197 39.1877C138.705 39.1877 139.163 39.3175 139.571 39.5772C139.982 39.834 140.307 40.2149 140.547 40.72C140.789 41.2222 140.911 41.8386 140.911 42.569C140.911 43.291 140.792 43.9045 140.555 44.4095C140.319 44.9146 139.996 45.2998 139.588 45.5652C139.18 45.8305 138.718 45.9632 138.201 45.9632C137.825 45.9632 137.512 45.9004 137.264 45.7749C137.016 45.6493 136.816 45.4981 136.665 45.3212C136.516 45.1414 136.401 44.9716 136.318 44.8119H136.254V48.313H134.704ZM136.224 42.5605C136.224 42.9856 136.284 43.358 136.404 43.6776C136.526 43.9972 136.702 44.2469 136.93 44.4266C137.161 44.6036 137.441 44.692 137.769 44.692C138.111 44.692 138.398 44.6007 138.629 44.4181C138.861 44.2326 139.035 43.9801 139.152 43.6605C139.271 43.338 139.331 42.9714 139.331 42.5605C139.331 42.1524 139.273 41.79 139.156 41.4733C139.039 41.1566 138.865 40.9083 138.634 40.7286C138.403 40.5488 138.114 40.4589 137.769 40.4589C137.438 40.4589 137.157 40.5459 136.926 40.72C136.695 40.8941 136.519 41.138 136.399 41.4519C136.282 41.7658 136.224 42.1353 136.224 42.5605ZM144.129 45.9803C143.713 45.9803 143.338 45.9062 143.004 45.7578C142.673 45.6065 142.41 45.384 142.216 45.0901C142.025 44.7962 141.929 44.4338 141.929 44.0029C141.929 43.632 141.998 43.3252 142.135 43.0827C142.272 42.8401 142.459 42.6461 142.696 42.5006C142.932 42.355 143.199 42.2452 143.496 42.171C143.796 42.0939 144.105 42.0383 144.425 42.0041C144.81 41.9641 145.122 41.9284 145.362 41.8971C145.602 41.8628 145.776 41.8114 145.884 41.743C145.996 41.6716 146.051 41.5618 146.051 41.4134V41.3877C146.051 41.0653 145.956 40.8156 145.764 40.6387C145.573 40.4618 145.298 40.3733 144.938 40.3733C144.559 40.3733 144.258 40.4561 144.035 40.6216C143.816 40.7871 143.667 40.9825 143.59 41.2079L142.143 41.0025C142.258 40.603 142.446 40.2692 142.708 40.0009C142.971 39.7299 143.292 39.5273 143.671 39.3931C144.051 39.2562 144.47 39.1877 144.93 39.1877C145.247 39.1877 145.562 39.2248 145.876 39.299C146.19 39.3732 146.476 39.4959 146.736 39.6671C146.996 39.8354 147.204 40.0651 147.361 40.3562C147.521 40.6472 147.601 41.0111 147.601 41.4476V45.8477H146.111V44.9445H146.06C145.966 45.1272 145.833 45.2984 145.662 45.4582C145.493 45.6151 145.281 45.7421 145.024 45.8391C144.77 45.9333 144.472 45.9803 144.129 45.9803ZM144.532 44.8418C144.843 44.8418 145.112 44.7805 145.341 44.6578C145.569 44.5322 145.744 44.3667 145.867 44.1613C145.993 43.9558 146.055 43.7318 146.055 43.4893V42.7146C146.007 42.7545 145.924 42.7916 145.807 42.8259C145.693 42.8601 145.565 42.8901 145.422 42.9157C145.279 42.9414 145.138 42.9642 144.998 42.9842C144.858 43.0042 144.737 43.0213 144.634 43.0356C144.403 43.067 144.196 43.1183 144.014 43.1897C143.831 43.261 143.687 43.3609 143.582 43.4893C143.476 43.6148 143.423 43.7775 143.423 43.9772C143.423 44.2626 143.527 44.478 143.736 44.6235C143.944 44.7691 144.209 44.8418 144.532 44.8418ZM152.018 48.45C151.461 48.45 150.983 48.3744 150.584 48.2232C150.184 48.0748 149.863 47.875 149.621 47.6239C149.378 47.3728 149.21 47.0946 149.116 46.7893L150.511 46.4512C150.574 46.5796 150.665 46.7065 150.785 46.8321C150.905 46.9605 151.066 47.0661 151.269 47.1488C151.474 47.2344 151.732 47.2772 152.043 47.2772C152.483 47.2772 152.847 47.1702 153.135 46.9562C153.423 46.7451 153.567 46.3969 153.567 45.9119V44.6663H153.49C153.41 44.8261 153.293 44.9902 153.139 45.1585C152.988 45.3269 152.787 45.4681 152.536 45.5823C152.287 45.6964 151.975 45.7535 151.598 45.7535C151.093 45.7535 150.635 45.6351 150.224 45.3982C149.816 45.1585 149.491 44.8019 149.249 44.3282C149.009 43.8517 148.889 43.2553 148.889 42.5391C148.889 41.8172 149.009 41.2079 149.249 40.7114C149.491 40.2121 149.818 39.834 150.229 39.5772C150.64 39.3175 151.098 39.1877 151.603 39.1877C151.988 39.1877 152.305 39.2533 152.553 39.3846C152.804 39.513 153.004 39.6685 153.152 39.8511C153.3 40.0309 153.413 40.2007 153.49 40.3605H153.576V39.2733H155.104V45.9547C155.104 46.5168 154.97 46.9819 154.701 47.35C154.433 47.7181 154.067 47.9935 153.601 48.1761C153.136 48.3587 152.608 48.45 152.018 48.45ZM152.031 44.5379C152.359 44.5379 152.638 44.458 152.87 44.2982C153.101 44.1384 153.276 43.9087 153.396 43.6091C153.516 43.3095 153.576 42.95 153.576 42.5305C153.576 42.1168 153.516 41.7544 153.396 41.4434C153.279 41.1323 153.105 40.8912 152.874 40.72C152.646 40.5459 152.364 40.4589 152.031 40.4589C151.685 40.4589 151.397 40.5488 151.166 40.7286C150.935 40.9083 150.761 41.1552 150.644 41.469C150.527 41.7801 150.468 42.1339 150.468 42.5305C150.468 42.9329 150.527 43.2853 150.644 43.5877C150.764 43.8873 150.939 44.1213 151.17 44.2897C151.404 44.4552 151.691 44.5379 152.031 44.5379ZM159.602 45.9761C158.943 45.9761 158.374 45.8391 157.894 45.5652C157.418 45.2884 157.051 44.8975 156.794 44.3924C156.538 43.8845 156.409 43.2867 156.409 42.599C156.409 41.9227 156.538 41.3292 156.794 40.8184C157.054 40.3048 157.417 39.9053 157.882 39.62C158.347 39.3318 158.893 39.1877 159.521 39.1877C159.926 39.1877 160.308 39.2533 160.668 39.3846C161.03 39.513 161.35 39.7127 161.627 39.9838C161.906 40.2549 162.126 40.6002 162.286 41.0196C162.446 41.4362 162.526 41.9327 162.526 42.5091V42.9842H157.137V41.9399H161.04C161.038 41.6431 160.973 41.3792 160.848 41.148C160.722 40.914 160.547 40.73 160.321 40.5959C160.099 40.4618 159.839 40.3947 159.542 40.3947C159.226 40.3947 158.947 40.4718 158.708 40.6258C158.468 40.7771 158.281 40.9768 158.147 41.2251C158.016 41.4705 157.949 41.7401 157.946 42.034V42.9457C157.946 43.3281 158.016 43.6562 158.156 43.9301C158.295 44.2012 158.491 44.4095 158.742 44.555C158.993 44.6977 159.287 44.7691 159.624 44.7691C159.849 44.7691 160.053 44.7377 160.236 44.6749C160.418 44.6093 160.577 44.5137 160.711 44.3881C160.845 44.2626 160.946 44.1071 161.015 43.9216L162.461 44.0842C162.37 44.4666 162.196 44.8004 161.939 45.0858C161.685 45.3683 161.36 45.588 160.963 45.7449C160.567 45.899 160.113 45.9761 159.602 45.9761Z" fill="#A1A1AA"/>
<rect x="44.4371" y="68.5959" width="145.841" height="63.8808" rx="4.82119" fill="#E4E4E7"/>
<rect x="44.4371" y="139.708" width="55.4437" height="34.9536" rx="4.82119" fill="#E4E4E7"/>
<rect x="107.113" y="142.119" width="77.1391" height="6.02649" rx="2.4106" fill="#E4E4E7"/>
<rect x="44.4371" y="181.894" width="77.1391" height="6.02649" rx="2.4106" fill="#E4E4E7"/>
<rect x="107.113" y="151.761" width="44.596" height="6.02649" rx="2.4106" fill="#E4E4E7"/>
<rect x="76.9801" y="191.536" width="44.596" height="6.02649" rx="2.4106" fill="#E4E4E7"/>
<rect x="107.113" y="163.814" width="44.596" height="10.8477" rx="5.42384" fill="#1D6379"/>
<rect x="76.9801" y="203.589" width="44.596" height="10.8477" rx="5.42384" fill="#2E9CBE"/>
<rect x="128.808" y="181.894" width="55.4437" height="34.9536" rx="4.82119" fill="#E4E4E7"/>
<rect x="92.649" y="108.371" width="48.2119" height="18.0795" rx="9.03973" fill="#1D6379"/>
<path d="M100.959 121.781V113.892H103.848C104.408 113.892 104.872 113.985 105.239 114.17C105.606 114.352 105.881 114.6 106.063 114.913C106.245 115.224 106.337 115.574 106.337 115.965C106.337 116.293 106.276 116.571 106.156 116.797C106.035 117.02 105.873 117.2 105.67 117.336C105.47 117.47 105.249 117.567 105.008 117.629V117.706C105.27 117.719 105.525 117.803 105.774 117.96C106.026 118.114 106.234 118.334 106.398 118.619C106.563 118.904 106.645 119.251 106.645 119.659C106.645 120.062 106.55 120.424 106.36 120.745C106.172 121.064 105.882 121.317 105.489 121.504C105.096 121.689 104.594 121.781 103.983 121.781H100.959ZM102.149 120.761H103.867C104.438 120.761 104.846 120.65 105.092 120.429C105.339 120.209 105.462 119.932 105.462 119.601C105.462 119.352 105.399 119.124 105.273 118.915C105.148 118.707 104.968 118.542 104.734 118.419C104.503 118.295 104.228 118.234 103.91 118.234H102.149V120.761ZM102.149 117.305H103.744C104.011 117.305 104.251 117.254 104.465 117.151C104.68 117.048 104.851 116.905 104.977 116.72C105.105 116.532 105.169 116.311 105.169 116.057C105.169 115.731 105.055 115.458 104.827 115.237C104.598 115.016 104.247 114.905 103.775 114.905H102.149V117.305ZM111.712 119.328V115.865H112.868V121.781H111.735V120.757H111.674C111.538 121.073 111.319 121.336 111.019 121.547C110.721 121.755 110.35 121.859 109.906 121.859C109.526 121.859 109.189 121.775 108.896 121.608C108.606 121.439 108.378 121.188 108.211 120.857C108.046 120.526 107.964 120.116 107.964 119.628V115.865H109.116V119.489C109.116 119.893 109.228 120.214 109.451 120.452C109.675 120.691 109.965 120.811 110.322 120.811C110.537 120.811 110.752 120.757 110.965 120.649C111.181 120.541 111.359 120.378 111.5 120.16C111.644 119.941 111.715 119.664 111.712 119.328ZM117.178 115.865V116.789H113.946V115.865H117.178ZM114.812 114.447H115.964V120.044C115.964 120.268 115.998 120.436 116.064 120.549C116.131 120.659 116.217 120.735 116.322 120.776C116.43 120.815 116.547 120.834 116.673 120.834C116.765 120.834 116.846 120.827 116.916 120.815C116.985 120.802 117.039 120.791 117.077 120.784L117.285 121.735C117.219 121.761 117.124 121.787 117 121.812C116.877 121.841 116.723 121.856 116.538 121.859C116.235 121.864 115.953 121.81 115.691 121.697C115.429 121.584 115.217 121.409 115.055 121.173C114.893 120.937 114.812 120.64 114.812 120.283V114.447ZM121.214 115.865V116.789H117.982V115.865H121.214ZM118.848 114.447H120V120.044C120 120.268 120.034 120.436 120.1 120.549C120.167 120.659 120.253 120.735 120.359 120.776C120.466 120.815 120.583 120.834 120.709 120.834C120.802 120.834 120.882 120.827 120.952 120.815C121.021 120.802 121.075 120.791 121.114 120.784L121.322 121.735C121.255 121.761 121.16 121.787 121.036 121.812C120.913 121.841 120.759 121.856 120.574 121.859C120.271 121.864 119.989 121.81 119.727 121.697C119.465 121.584 119.253 121.409 119.091 121.173C118.929 120.937 118.848 120.64 118.848 120.283V114.447ZM124.917 121.901C124.362 121.901 123.878 121.774 123.464 121.52C123.051 121.265 122.73 120.91 122.501 120.452C122.273 119.995 122.158 119.461 122.158 118.85C122.158 118.236 122.273 117.699 122.501 117.24C122.73 116.78 123.051 116.423 123.464 116.169C123.878 115.915 124.362 115.788 124.917 115.788C125.471 115.788 125.955 115.915 126.369 116.169C126.782 116.423 127.103 116.78 127.332 117.24C127.56 117.699 127.675 118.236 127.675 118.85C127.675 119.461 127.56 119.995 127.332 120.452C127.103 120.91 126.782 121.265 126.369 121.52C125.955 121.774 125.471 121.901 124.917 121.901ZM124.92 120.934C125.28 120.934 125.578 120.839 125.814 120.649C126.05 120.459 126.225 120.206 126.338 119.89C126.454 119.574 126.511 119.226 126.511 118.846C126.511 118.469 126.454 118.122 126.338 117.806C126.225 117.488 126.05 117.232 125.814 117.039C125.578 116.847 125.28 116.751 124.92 116.751C124.558 116.751 124.258 116.847 124.019 117.039C123.783 117.232 123.607 117.488 123.491 117.806C123.378 118.122 123.322 118.469 123.322 118.846C123.322 119.226 123.378 119.574 123.491 119.89C123.607 120.206 123.783 120.459 124.019 120.649C124.258 120.839 124.558 120.934 124.92 120.934ZM130.112 118.268V121.781H128.96V115.865H130.066V116.828H130.139C130.275 116.514 130.488 116.263 130.779 116.073C131.071 115.883 131.44 115.788 131.884 115.788C132.287 115.788 132.64 115.872 132.944 116.042C133.247 116.209 133.482 116.458 133.648 116.789C133.815 117.12 133.899 117.53 133.899 118.018V121.781H132.747V118.157C132.747 117.728 132.635 117.393 132.412 117.151C132.188 116.907 131.882 116.785 131.491 116.785C131.224 116.785 130.987 116.843 130.779 116.959C130.573 117.074 130.41 117.244 130.289 117.467C130.171 117.688 130.112 117.955 130.112 118.268Z" fill="white"/>
</g>
<rect x="36.5288" y="24.5288" width="162.863" height="179.737" rx="9.11355" stroke="#E4E4E7" stroke-width="1.05767"/>
<g clip-path="url(#clip2_9_914)">
<rect x="145" y="227" width="163.921" height="180.795" rx="9.64238" fill="white"/>
<mask id="path-19-inside-2_9_914" fill="white">
<path d="M146.205 237.848C146.205 232.522 150.522 228.205 155.848 228.205H298.073C303.398 228.205 307.715 232.522 307.715 237.848V261.49H146.205V237.848Z"/>
</mask>
<path d="M146.205 237.848C146.205 232.522 150.522 228.205 155.848 228.205H298.073C303.398 228.205 307.715 232.522 307.715 237.848V261.49H146.205V237.848Z" fill="#7063F3"/>
<path d="M146.205 228.205H307.715H146.205ZM307.715 262.695H146.205V260.285H307.715V262.695ZM146.205 261.49V228.205V261.49ZM307.715 228.205V261.49V228.205Z" fill="#E4E4E7" mask="url(#path-19-inside-2_9_914)"/>
<path d="M181.528 240.082V248.848H180.116L175.986 242.877H175.913V248.848H174.325V240.082H175.746L179.872 246.057H179.949V240.082H181.528ZM186.101 248.976C185.442 248.976 184.872 248.839 184.393 248.565C183.916 248.288 183.55 247.897 183.293 247.392C183.036 246.884 182.908 246.287 182.908 245.599C182.908 244.923 183.036 244.329 183.293 243.818C183.553 243.305 183.915 242.905 184.38 242.62C184.845 242.332 185.392 242.188 186.019 242.188C186.425 242.188 186.807 242.253 187.166 242.385C187.529 242.513 187.848 242.713 188.125 242.984C188.405 243.255 188.625 243.6 188.784 244.02C188.944 244.436 189.024 244.933 189.024 245.509V245.984H183.635V244.94H187.539C187.536 244.643 187.472 244.379 187.346 244.148C187.221 243.914 187.045 243.73 186.82 243.596C186.597 243.462 186.338 243.395 186.041 243.395C185.724 243.395 185.446 243.472 185.206 243.626C184.966 243.777 184.78 243.977 184.645 244.225C184.514 244.47 184.447 244.74 184.444 245.034V245.946C184.444 246.328 184.514 246.656 184.654 246.93C184.794 247.201 184.989 247.41 185.24 247.555C185.491 247.698 185.785 247.769 186.122 247.769C186.348 247.769 186.552 247.738 186.734 247.675C186.917 247.609 187.075 247.514 187.209 247.388C187.343 247.263 187.445 247.107 187.513 246.922L188.96 247.084C188.869 247.467 188.694 247.8 188.438 248.086C188.184 248.368 187.858 248.588 187.462 248.745C187.065 248.899 186.611 248.976 186.101 248.976ZM191.656 248.848L189.799 242.273H191.378L192.534 246.896H192.594L193.775 242.273H195.337L196.519 246.87H196.583L197.721 242.273H199.305L197.443 248.848H195.83L194.597 244.405H194.507L193.274 248.848H191.656ZM208.209 242.492C208.169 242.118 208.001 241.827 207.704 241.618C207.41 241.41 207.028 241.306 206.557 241.306C206.226 241.306 205.942 241.356 205.705 241.456C205.468 241.556 205.287 241.691 205.161 241.862C205.036 242.034 204.972 242.229 204.969 242.449C204.969 242.631 205.01 242.79 205.093 242.924C205.179 243.058 205.294 243.172 205.44 243.266C205.585 243.358 205.746 243.435 205.923 243.497C206.1 243.56 206.279 243.613 206.458 243.656L207.28 243.861C207.611 243.938 207.929 244.042 208.235 244.174C208.543 244.305 208.818 244.47 209.061 244.67C209.306 244.87 209.5 245.111 209.643 245.394C209.785 245.676 209.857 246.007 209.857 246.387C209.857 246.9 209.725 247.352 209.463 247.743C209.2 248.131 208.821 248.435 208.324 248.655C207.831 248.872 207.233 248.98 206.531 248.98C205.849 248.98 205.257 248.875 204.755 248.664C204.255 248.452 203.865 248.144 203.582 247.739C203.302 247.334 203.151 246.84 203.128 246.258H204.691C204.713 246.563 204.808 246.817 204.973 247.02C205.139 247.223 205.354 247.374 205.619 247.474C205.888 247.574 206.187 247.624 206.518 247.624C206.863 247.624 207.166 247.572 207.426 247.469C207.688 247.364 207.894 247.218 208.042 247.033C208.19 246.845 208.266 246.625 208.269 246.374C208.266 246.145 208.199 245.957 208.068 245.809C207.936 245.657 207.752 245.532 207.516 245.432C207.282 245.329 207.008 245.238 206.694 245.158L205.696 244.901C204.975 244.716 204.404 244.435 203.984 244.058C203.568 243.679 203.359 243.175 203.359 242.547C203.359 242.031 203.499 241.578 203.779 241.19C204.061 240.802 204.445 240.501 204.93 240.287C205.415 240.07 205.965 239.962 206.578 239.962C207.2 239.962 207.745 240.07 208.213 240.287C208.684 240.501 209.054 240.799 209.322 241.182C209.59 241.561 209.728 241.998 209.737 242.492H208.209ZM213.096 248.98C212.679 248.98 212.304 248.906 211.97 248.758C211.639 248.607 211.377 248.384 211.183 248.09C210.991 247.796 210.896 247.434 210.896 247.003C210.896 246.632 210.964 246.325 211.101 246.083C211.238 245.84 211.425 245.646 211.662 245.501C211.899 245.355 212.166 245.245 212.462 245.171C212.762 245.094 213.072 245.038 213.391 245.004C213.776 244.964 214.089 244.928 214.328 244.897C214.568 244.863 214.742 244.811 214.851 244.743C214.962 244.672 215.018 244.562 215.018 244.413V244.388C215.018 244.065 214.922 243.816 214.731 243.639C214.54 243.462 214.264 243.373 213.905 243.373C213.525 243.373 213.224 243.456 213.002 243.622C212.782 243.787 212.634 243.983 212.556 244.208L211.11 244.002C211.224 243.603 211.412 243.269 211.675 243.001C211.937 242.73 212.258 242.527 212.638 242.393C213.017 242.256 213.437 242.188 213.896 242.188C214.213 242.188 214.528 242.225 214.842 242.299C215.156 242.373 215.443 242.496 215.702 242.667C215.962 242.835 216.17 243.065 216.327 243.356C216.487 243.647 216.567 244.011 216.567 244.448V248.848H215.078V247.945H215.026C214.932 248.127 214.799 248.298 214.628 248.458C214.46 248.615 214.247 248.742 213.99 248.839C213.736 248.933 213.438 248.98 213.096 248.98ZM213.498 247.842C213.809 247.842 214.079 247.78 214.307 247.658C214.535 247.532 214.711 247.367 214.834 247.161C214.959 246.956 215.022 246.732 215.022 246.489V245.715C214.973 245.755 214.891 245.792 214.774 245.826C214.659 245.86 214.531 245.89 214.388 245.916C214.246 245.941 214.104 245.964 213.965 245.984C213.825 246.004 213.704 246.021 213.601 246.036C213.37 246.067 213.163 246.118 212.98 246.19C212.798 246.261 212.653 246.361 212.548 246.489C212.442 246.615 212.39 246.777 212.39 246.977C212.39 247.263 212.494 247.478 212.702 247.624C212.91 247.769 213.176 247.842 213.498 247.842ZM220.017 248.98C219.6 248.98 219.225 248.906 218.891 248.758C218.56 248.607 218.298 248.384 218.104 248.09C217.912 247.796 217.817 247.434 217.817 247.003C217.817 246.632 217.885 246.325 218.022 246.083C218.159 245.84 218.346 245.646 218.583 245.501C218.82 245.355 219.087 245.245 219.383 245.171C219.683 245.094 219.993 245.038 220.312 245.004C220.697 244.964 221.01 244.928 221.25 244.897C221.489 244.863 221.663 244.811 221.772 244.743C221.883 244.672 221.939 244.562 221.939 244.413V244.388C221.939 244.065 221.843 243.816 221.652 243.639C221.461 243.462 221.185 243.373 220.826 243.373C220.446 243.373 220.145 243.456 219.923 243.622C219.703 243.787 219.555 243.983 219.478 244.208L218.031 244.002C218.145 243.603 218.333 243.269 218.596 243.001C218.858 242.73 219.179 242.527 219.559 242.393C219.938 242.256 220.358 242.188 220.817 242.188C221.134 242.188 221.449 242.225 221.763 242.299C222.077 242.373 222.364 242.496 222.623 242.667C222.883 242.835 223.091 243.065 223.248 243.356C223.408 243.647 223.488 244.011 223.488 244.448V248.848H221.999V247.945H221.947C221.853 248.127 221.72 248.298 221.549 248.458C221.381 248.615 221.168 248.742 220.911 248.839C220.657 248.933 220.359 248.98 220.017 248.98ZM220.419 247.842C220.73 247.842 221 247.78 221.228 247.658C221.456 247.532 221.632 247.367 221.755 247.161C221.88 246.956 221.943 246.732 221.943 246.489V245.715C221.894 245.755 221.812 245.792 221.695 245.826C221.581 245.86 221.452 245.89 221.309 245.916C221.167 245.941 221.026 245.964 220.886 245.984C220.746 246.004 220.625 246.021 220.522 246.036C220.291 246.067 220.084 246.118 219.901 246.19C219.719 246.261 219.575 246.361 219.469 246.489C219.363 246.615 219.311 246.777 219.311 246.977C219.311 247.263 219.415 247.478 219.623 247.624C219.831 247.769 220.097 247.842 220.419 247.842ZM230.242 244.011L228.83 244.165C228.79 244.022 228.72 243.888 228.62 243.763C228.523 243.637 228.392 243.536 228.226 243.459C228.061 243.382 227.858 243.343 227.618 243.343C227.296 243.343 227.025 243.413 226.805 243.553C226.588 243.693 226.481 243.874 226.484 244.097C226.481 244.288 226.551 244.443 226.694 244.563C226.839 244.683 227.079 244.781 227.413 244.859L228.534 245.098C229.156 245.232 229.619 245.445 229.921 245.736C230.226 246.027 230.381 246.408 230.383 246.879C230.381 247.293 230.259 247.658 230.02 247.974C229.783 248.288 229.453 248.534 229.031 248.711C228.609 248.888 228.123 248.976 227.576 248.976C226.771 248.976 226.123 248.808 225.632 248.471C225.142 248.131 224.849 247.659 224.755 247.054L226.266 246.909C226.334 247.205 226.48 247.429 226.702 247.581C226.925 247.732 227.215 247.808 227.571 247.808C227.939 247.808 228.235 247.732 228.457 247.581C228.683 247.429 228.795 247.243 228.795 247.02C228.795 246.832 228.723 246.676 228.577 246.553C228.435 246.431 228.212 246.337 227.909 246.271L226.788 246.036C226.157 245.904 225.691 245.683 225.388 245.372C225.086 245.058 224.936 244.662 224.939 244.182C224.936 243.777 225.046 243.426 225.269 243.129C225.494 242.83 225.806 242.599 226.206 242.436C226.608 242.27 227.072 242.188 227.597 242.188C228.367 242.188 228.974 242.352 229.416 242.68C229.861 243.008 230.137 243.452 230.242 244.011ZM234.651 251.313V242.273H236.175V243.36H236.264C236.344 243.201 236.457 243.031 236.603 242.851C236.748 242.669 236.945 242.513 237.193 242.385C237.441 242.253 237.758 242.188 238.143 242.188C238.651 242.188 239.109 242.318 239.517 242.577C239.928 242.834 240.254 243.215 240.493 243.72C240.736 244.222 240.857 244.839 240.857 245.569C240.857 246.291 240.739 246.904 240.502 247.41C240.265 247.915 239.942 248.3 239.534 248.565C239.126 248.831 238.664 248.963 238.148 248.963C237.771 248.963 237.459 248.9 237.21 248.775C236.962 248.649 236.762 248.498 236.611 248.321C236.463 248.141 236.347 247.972 236.264 247.812H236.2V251.313H234.651ZM236.17 245.56C236.17 245.986 236.23 246.358 236.35 246.678C236.473 246.997 236.648 247.247 236.876 247.427C237.108 247.604 237.387 247.692 237.715 247.692C238.058 247.692 238.345 247.601 238.576 247.418C238.807 247.233 238.981 246.98 239.098 246.66C239.218 246.338 239.278 245.971 239.278 245.56C239.278 245.152 239.219 244.79 239.102 244.473C238.985 244.157 238.811 243.908 238.58 243.729C238.349 243.549 238.061 243.459 237.715 243.459C237.384 243.459 237.103 243.546 236.872 243.72C236.641 243.894 236.466 244.138 236.346 244.452C236.229 244.766 236.17 245.135 236.17 245.56ZM242.184 248.848V242.273H243.686V243.369H243.755C243.875 242.99 244.08 242.697 244.371 242.492C244.665 242.283 245 242.179 245.377 242.179C245.462 242.179 245.558 242.183 245.664 242.192C245.772 242.198 245.862 242.208 245.933 242.222V243.647C245.868 243.624 245.764 243.604 245.621 243.587C245.481 243.567 245.345 243.557 245.214 243.557C244.932 243.557 244.678 243.619 244.452 243.741C244.23 243.861 244.054 244.028 243.926 244.242C243.797 244.456 243.733 244.703 243.733 244.983V248.848H242.184ZM249.56 248.976C248.918 248.976 248.361 248.835 247.89 248.552C247.42 248.27 247.054 247.875 246.795 247.367C246.538 246.859 246.409 246.265 246.409 245.586C246.409 244.907 246.538 244.312 246.795 243.801C247.054 243.291 247.42 242.894 247.89 242.611C248.361 242.329 248.918 242.188 249.56 242.188C250.202 242.188 250.758 242.329 251.229 242.611C251.7 242.894 252.064 243.291 252.32 243.801C252.58 244.312 252.71 244.907 252.71 245.586C252.71 246.265 252.58 246.859 252.32 247.367C252.064 247.875 251.7 248.27 251.229 248.552C250.758 248.835 250.202 248.976 249.56 248.976ZM249.568 247.735C249.916 247.735 250.207 247.639 250.441 247.448C250.675 247.254 250.849 246.994 250.964 246.669C251.081 246.344 251.139 245.981 251.139 245.582C251.139 245.18 251.081 244.816 250.964 244.49C250.849 244.162 250.675 243.901 250.441 243.707C250.207 243.513 249.916 243.416 249.568 243.416C249.212 243.416 248.915 243.513 248.678 243.707C248.444 243.901 248.268 244.162 248.152 244.49C248.037 244.816 247.98 245.18 247.98 245.582C247.98 245.981 248.037 246.344 248.152 246.669C248.268 246.994 248.444 247.254 248.678 247.448C248.915 247.639 249.212 247.735 249.568 247.735ZM256.465 248.963C255.948 248.963 255.486 248.831 255.078 248.565C254.67 248.3 254.347 247.915 254.111 247.41C253.874 246.904 253.755 246.291 253.755 245.569C253.755 244.839 253.875 244.222 254.115 243.72C254.357 243.215 254.684 242.834 255.095 242.577C255.506 242.318 255.964 242.188 256.469 242.188C256.854 242.188 257.171 242.253 257.419 242.385C257.667 242.513 257.864 242.669 258.01 242.851C258.155 243.031 258.268 243.201 258.348 243.36H258.412V240.082H259.966V248.848H258.442V247.812H258.348C258.268 247.972 258.152 248.141 258.001 248.321C257.85 248.498 257.65 248.649 257.402 248.775C257.154 248.9 256.841 248.963 256.465 248.963ZM256.897 247.692C257.225 247.692 257.505 247.604 257.736 247.427C257.967 247.247 258.143 246.997 258.262 246.678C258.382 246.358 258.442 245.986 258.442 245.56C258.442 245.135 258.382 244.766 258.262 244.452C258.145 244.138 257.971 243.894 257.74 243.72C257.512 243.546 257.231 243.459 256.897 243.459C256.552 243.459 256.264 243.549 256.032 243.729C255.801 243.908 255.627 244.157 255.51 244.473C255.393 244.79 255.335 245.152 255.335 245.56C255.335 245.971 255.393 246.338 255.51 246.66C255.63 246.98 255.806 247.233 256.037 247.418C256.271 247.601 256.557 247.692 256.897 247.692ZM265.807 246.083V242.273H267.357V248.848H265.854V247.679H265.786C265.637 248.047 265.393 248.348 265.054 248.582C264.717 248.816 264.302 248.933 263.808 248.933C263.378 248.933 262.997 248.838 262.666 248.646C262.337 248.452 262.081 248.171 261.895 247.803C261.71 247.432 261.617 246.984 261.617 246.459V242.273H263.166V246.22C263.166 246.636 263.281 246.967 263.509 247.213C263.737 247.458 264.037 247.581 264.408 247.581C264.636 247.581 264.857 247.525 265.071 247.414C265.285 247.303 265.461 247.137 265.598 246.917C265.737 246.695 265.807 246.417 265.807 246.083ZM271.818 248.976C271.161 248.976 270.598 248.832 270.127 248.544C269.659 248.256 269.298 247.858 269.044 247.35C268.793 246.839 268.667 246.251 268.667 245.586C268.667 244.918 268.796 244.329 269.053 243.818C269.309 243.305 269.672 242.905 270.14 242.62C270.611 242.332 271.167 242.188 271.809 242.188C272.343 242.188 272.815 242.286 273.226 242.483C273.64 242.677 273.969 242.952 274.215 243.309C274.46 243.663 274.6 244.077 274.634 244.55H273.153C273.093 244.234 272.95 243.97 272.725 243.759C272.503 243.545 272.204 243.438 271.831 243.438C271.514 243.438 271.236 243.523 270.996 243.694C270.756 243.863 270.569 244.105 270.435 244.422C270.304 244.739 270.238 245.118 270.238 245.56C270.238 246.008 270.304 246.394 270.435 246.716C270.566 247.036 270.75 247.283 270.987 247.457C271.227 247.628 271.508 247.713 271.831 247.713C272.059 247.713 272.263 247.671 272.443 247.585C272.625 247.497 272.778 247.37 272.901 247.204C273.023 247.039 273.107 246.837 273.153 246.601H274.634C274.597 247.066 274.46 247.478 274.223 247.838C273.986 248.194 273.664 248.474 273.256 248.676C272.848 248.876 272.368 248.976 271.818 248.976ZM279.189 242.273V243.472H275.41V242.273H279.189ZM276.343 240.698H277.892V246.87C277.892 247.079 277.924 247.238 277.986 247.35C278.052 247.458 278.138 247.532 278.243 247.572C278.349 247.612 278.466 247.632 278.594 247.632C278.691 247.632 278.78 247.625 278.86 247.611C278.942 247.596 279.005 247.584 279.048 247.572L279.309 248.783C279.226 248.812 279.108 248.843 278.954 248.878C278.803 248.912 278.617 248.932 278.397 248.938C278.009 248.949 277.66 248.89 277.349 248.762C277.038 248.631 276.791 248.428 276.608 248.154C276.429 247.88 276.34 247.538 276.343 247.127V240.698Z" fill="#F4F4F5"/>
<rect x="241" y="272" width="57" height="63" rx="4.82119" fill="#E4E4E7"/>
<rect x="152.648" y="307.371" width="48.2119" height="18.0795" rx="9.03973" fill="#7063F3"/>
<path d="M160.961 320.781V312.892H163.85C164.41 312.892 164.874 312.984 165.241 313.169C165.608 313.352 165.883 313.6 166.065 313.913C166.248 314.224 166.339 314.574 166.339 314.964C166.339 315.293 166.278 315.571 166.158 315.797C166.037 316.02 165.875 316.2 165.672 316.336C165.472 316.469 165.251 316.567 165.01 316.629V316.706C165.272 316.719 165.527 316.803 165.776 316.96C166.028 317.114 166.236 317.334 166.4 317.619C166.565 317.904 166.647 318.25 166.647 318.659C166.647 319.062 166.552 319.424 166.362 319.745C166.174 320.063 165.884 320.316 165.491 320.504C165.098 320.689 164.596 320.781 163.985 320.781H160.961ZM162.151 319.76H163.869C164.44 319.76 164.848 319.65 165.094 319.429C165.341 319.208 165.464 318.932 165.464 318.601C165.464 318.352 165.401 318.123 165.275 317.915C165.15 317.707 164.97 317.542 164.736 317.418C164.505 317.295 164.23 317.233 163.912 317.233H162.151V319.76ZM162.151 316.305H163.746C164.013 316.305 164.253 316.254 164.467 316.151C164.682 316.048 164.853 315.904 164.979 315.72C165.107 315.532 165.171 315.311 165.171 315.057C165.171 314.731 165.057 314.457 164.829 314.236C164.6 314.016 164.25 313.905 163.777 313.905H162.151V316.305ZM171.714 318.327V314.864H172.87V320.781H171.737V319.757H171.676C171.54 320.072 171.321 320.336 171.021 320.546C170.723 320.754 170.352 320.858 169.908 320.858C169.528 320.858 169.191 320.775 168.898 320.608C168.608 320.438 168.38 320.188 168.213 319.857C168.048 319.525 167.966 319.116 167.966 318.628V314.864H169.118V318.489C169.118 318.892 169.23 319.213 169.453 319.452C169.677 319.691 169.967 319.811 170.324 319.811C170.539 319.811 170.754 319.757 170.967 319.649C171.183 319.541 171.361 319.378 171.502 319.159C171.646 318.941 171.717 318.664 171.714 318.327ZM177.18 314.864V315.789H173.948V314.864H177.18ZM174.814 313.447H175.966V319.044C175.966 319.267 176 319.436 176.066 319.549C176.133 319.659 176.219 319.735 176.324 319.776C176.432 319.814 176.549 319.834 176.675 319.834C176.767 319.834 176.848 319.827 176.918 319.814C176.987 319.802 177.041 319.791 177.079 319.784L177.287 320.735C177.221 320.761 177.126 320.786 177.002 320.812C176.879 320.84 176.725 320.856 176.54 320.858C176.237 320.863 175.955 320.809 175.693 320.697C175.431 320.584 175.219 320.409 175.057 320.173C174.895 319.936 174.814 319.64 174.814 319.283V313.447ZM181.216 314.864V315.789H177.984V314.864H181.216ZM178.85 313.447H180.002V319.044C180.002 319.267 180.036 319.436 180.102 319.549C180.169 319.659 180.255 319.735 180.361 319.776C180.468 319.814 180.585 319.834 180.711 319.834C180.804 319.834 180.884 319.827 180.954 319.814C181.023 319.802 181.077 319.791 181.116 319.784L181.324 320.735C181.257 320.761 181.162 320.786 181.039 320.812C180.915 320.84 180.761 320.856 180.576 320.858C180.273 320.863 179.991 320.809 179.729 320.697C179.467 320.584 179.255 320.409 179.093 320.173C178.931 319.936 178.85 319.64 178.85 319.283V313.447ZM184.919 320.901C184.364 320.901 183.88 320.774 183.466 320.519C183.053 320.265 182.732 319.909 182.503 319.452C182.275 318.995 182.16 318.461 182.16 317.85C182.16 317.236 182.275 316.699 182.503 316.24C182.732 315.78 183.053 315.423 183.466 315.169C183.88 314.914 184.364 314.787 184.919 314.787C185.473 314.787 185.957 314.914 186.371 315.169C186.784 315.423 187.105 315.78 187.334 316.24C187.562 316.699 187.677 317.236 187.677 317.85C187.677 318.461 187.562 318.995 187.334 319.452C187.105 319.909 186.784 320.265 186.371 320.519C185.957 320.774 185.473 320.901 184.919 320.901ZM184.922 319.934C185.282 319.934 185.58 319.839 185.816 319.649C186.052 319.459 186.227 319.206 186.34 318.89C186.456 318.574 186.513 318.226 186.513 317.846C186.513 317.468 186.456 317.122 186.34 316.806C186.227 316.487 186.052 316.232 185.816 316.039C185.58 315.847 185.282 315.75 184.922 315.75C184.56 315.75 184.26 315.847 184.021 316.039C183.785 316.232 183.609 316.487 183.493 316.806C183.38 317.122 183.324 317.468 183.324 317.846C183.324 318.226 183.38 318.574 183.493 318.89C183.609 319.206 183.785 319.459 184.021 319.649C184.26 319.839 184.56 319.934 184.922 319.934ZM190.114 317.268V320.781H188.962V314.864H190.068V315.827H190.141C190.277 315.514 190.49 315.262 190.781 315.072C191.073 314.882 191.442 314.787 191.886 314.787C192.289 314.787 192.643 314.872 192.946 315.042C193.249 315.208 193.484 315.458 193.65 315.789C193.817 316.12 193.901 316.53 193.901 317.018V320.781H192.749V317.156C192.749 316.727 192.637 316.392 192.414 316.151C192.191 315.907 191.884 315.785 191.493 315.785C191.226 315.785 190.989 315.843 190.781 315.958C190.575 316.074 190.412 316.243 190.291 316.467C190.173 316.688 190.114 316.955 190.114 317.268Z" fill="white"/>
<rect x="153" y="273" width="77" height="14" rx="2.4106" fill="#E4E4E7"/>
<rect x="153" y="289" width="37" height="6" rx="2.4106" fill="#E4E4E7"/>
<rect x="153" y="297" width="52" height="6" rx="2.4106" fill="#E4E4E7"/>
</g>
<rect x="145.529" y="227.529" width="162.863" height="179.737" rx="9.11355" stroke="url(#paint0_angular_9_914)" stroke-opacity="0.25" stroke-width="1.05767"/>
<rect x="256.435" y="25.7359" width="162.863" height="179.737" rx="9.11355" fill="white"/>
<rect x="256.435" y="25.7359" width="162.863" height="179.737" rx="9.11355" stroke="#E4E4E7" stroke-width="1.05767"/>
<mask id="path-29-inside-3_9_914" fill="white">
<path d="M257.113 36.053C257.113 30.7277 261.43 26.4106 266.755 26.4106H408.98C414.305 26.4106 418.623 30.7277 418.623 36.053V59.6954H257.113V36.053Z"/>
</mask>
<path d="M257.113 36.053C257.113 30.7277 261.43 26.4106 266.755 26.4106H408.98C414.305 26.4106 418.623 30.7277 418.623 36.053V59.6954H257.113V36.053Z" fill="#FAFAFA"/>
<path d="M257.113 26.4106H418.623H257.113ZM418.623 60.9007H257.113V58.4901H418.623V60.9007ZM257.113 59.6954V26.4106V59.6954ZM418.623 26.4106V59.6954V26.4106Z" fill="#E4E4E7" mask="url(#path-29-inside-3_9_914)"/>
<path d="M320.858 47.053H319.163L322.249 38.2872H324.209L327.3 47.053H325.605L323.263 40.0848H323.195L320.858 47.053ZM320.913 43.616H325.536V44.8915H320.913V43.616ZM330.042 38.2872V47.053H328.454V38.2872H330.042ZM336.575 47.1857C336.158 47.1857 335.783 47.1115 335.449 46.9631C335.118 46.8119 334.855 46.5893 334.661 46.2954C334.47 46.0015 334.375 45.6391 334.375 45.2082C334.375 44.8373 334.443 44.5305 334.58 44.288C334.717 44.0454 334.904 43.8514 335.141 43.7059C335.378 43.5604 335.644 43.4505 335.941 43.3763C336.241 43.2993 336.55 43.2436 336.87 43.2094C337.255 43.1694 337.568 43.1338 337.807 43.1024C338.047 43.0681 338.221 43.0168 338.33 42.9483C338.441 42.877 338.496 42.7671 338.496 42.6187V42.593C338.496 42.2706 338.401 42.0209 338.21 41.844C338.018 41.6671 337.743 41.5786 337.384 41.5786C337.004 41.5786 336.703 41.6614 336.48 41.8269C336.261 41.9924 336.112 42.1878 336.035 42.4133L334.589 42.2078C334.703 41.8083 334.891 41.4745 335.154 41.2063C335.416 40.9352 335.737 40.7326 336.117 40.5985C336.496 40.4615 336.916 40.393 337.375 40.393C337.692 40.393 338.007 40.4301 338.321 40.5043C338.635 40.5785 338.922 40.7012 339.181 40.8724C339.441 41.0408 339.649 41.2705 339.806 41.5615C339.966 41.8526 340.046 42.2164 340.046 42.653V47.053H338.556V46.1499H338.505C338.411 46.3325 338.278 46.5037 338.107 46.6635C337.939 46.8204 337.726 46.9474 337.469 47.0444C337.215 47.1386 336.917 47.1857 336.575 47.1857ZM336.977 46.0471C337.288 46.0471 337.558 45.9858 337.786 45.8631C338.014 45.7375 338.19 45.572 338.312 45.3666C338.438 45.1611 338.501 44.9371 338.501 44.6946V43.9199C338.452 43.9598 338.369 43.9969 338.252 44.0312C338.138 44.0654 338.01 44.0954 337.867 44.1211C337.725 44.1467 337.583 44.1696 337.444 44.1895C337.304 44.2095 337.182 44.2266 337.08 44.2409C336.849 44.2723 336.642 44.3237 336.459 44.395C336.276 44.4663 336.132 44.5662 336.027 44.6946C335.921 44.8202 335.868 44.9828 335.868 45.1825C335.868 45.4679 335.973 45.6833 336.181 45.8288C336.389 45.9744 336.655 46.0471 336.977 46.0471ZM341.604 49.5184V40.4786H343.128V41.5658H343.217C343.297 41.406 343.41 41.2362 343.556 41.0564C343.701 40.8738 343.898 40.7183 344.146 40.5899C344.395 40.4587 344.711 40.393 345.096 40.393C345.604 40.393 346.062 40.5229 346.47 40.7825C346.881 41.0393 347.207 41.4203 347.446 41.9253C347.689 42.4275 347.81 43.0439 347.81 43.7744C347.81 44.4963 347.692 45.1098 347.455 45.6148C347.218 46.1199 346.896 46.5051 346.488 46.7705C346.079 47.0359 345.617 47.1685 345.101 47.1685C344.724 47.1685 344.412 47.1058 344.163 46.9802C343.915 46.8547 343.715 46.7034 343.564 46.5265C343.416 46.3467 343.3 46.177 343.217 46.0172H343.153V49.5184H341.604ZM343.123 43.7658C343.123 44.191 343.183 44.5633 343.303 44.8829C343.426 45.2025 343.601 45.4522 343.83 45.632C344.061 45.8089 344.34 45.8973 344.668 45.8973C345.011 45.8973 345.298 45.806 345.529 45.6234C345.76 45.4379 345.934 45.1854 346.051 44.8658C346.171 44.5434 346.231 44.1767 346.231 43.7658C346.231 43.3578 346.172 42.9954 346.055 42.6786C345.938 42.3619 345.764 42.1137 345.533 41.9339C345.302 41.7541 345.014 41.6642 344.668 41.6642C344.337 41.6642 344.056 41.7513 343.825 41.9253C343.594 42.0994 343.419 42.3434 343.299 42.6572C343.182 42.9711 343.123 43.3406 343.123 43.7658ZM349.137 49.5184V40.4786H350.661V41.5658H350.751C350.83 41.406 350.943 41.2362 351.089 41.0564C351.234 40.8738 351.431 40.7183 351.679 40.5899C351.928 40.4587 352.244 40.393 352.63 40.393C353.138 40.393 353.595 40.5229 354.004 40.7825C354.414 41.0393 354.74 41.4203 354.979 41.9253C355.222 42.4275 355.343 43.0439 355.343 43.7744C355.343 44.4963 355.225 45.1098 354.988 45.6148C354.751 46.1199 354.429 46.5051 354.021 46.7705C353.613 47.0359 353.15 47.1685 352.634 47.1685C352.257 47.1685 351.945 47.1058 351.697 46.9802C351.448 46.8547 351.249 46.7034 351.097 46.5265C350.949 46.3467 350.833 46.177 350.751 46.0172H350.686V49.5184H349.137ZM350.656 43.7658C350.656 44.191 350.716 44.5633 350.836 44.8829C350.959 45.2025 351.134 45.4522 351.363 45.632C351.594 45.8089 351.873 45.8973 352.202 45.8973C352.544 45.8973 352.831 45.806 353.062 45.6234C353.293 45.4379 353.467 45.1854 353.584 44.8658C353.704 44.5434 353.764 44.1767 353.764 43.7658C353.764 43.3578 353.705 42.9954 353.588 42.6786C353.471 42.3619 353.297 42.1137 353.066 41.9339C352.835 41.7541 352.547 41.6642 352.202 41.6642C351.871 41.6642 351.59 41.7513 351.358 41.9253C351.127 42.0994 350.952 42.3434 350.832 42.6572C350.715 42.9711 350.656 43.3406 350.656 43.7658Z" fill="#A1A1AA"/>
<rect x="264.344" y="69.8013" width="145.841" height="59.0596" rx="4.82119" fill="#E4E4E7"/>
<rect x="269.166" y="120.424" width="86.7815" height="16.8742" rx="8.43709" fill="#D4D4D8"/>
<rect x="359.563" y="120.424" width="47.0066" height="16.8742" rx="8.43709" fill="#AA6729"/>
<rect x="269.166" y="185.51" width="39.7748" height="6.02649" rx="2.4106" fill="#E4E4E7"/>
<rect x="273.987" y="195.152" width="30.1325" height="6.02649" rx="2.4106" fill="#E4E4E7"/>
<rect x="317.377" y="185.51" width="39.7748" height="6.02649" rx="2.4106" fill="#E4E4E7"/>
<rect x="322.199" y="195.152" width="30.1325" height="6.02649" rx="2.4106" fill="#E4E4E7"/>
<rect x="365.589" y="185.51" width="39.7748" height="6.02649" rx="2.4106" fill="#E4E4E7"/>
<rect x="370.411" y="195.152" width="30.1325" height="6.02649" rx="2.4106" fill="#E4E4E7"/>
<rect x="269.166" y="146.94" width="39.7748" height="33.7483" rx="2.4106" fill="#E4E4E7"/>
<rect x="317.377" y="146.94" width="39.7748" height="33.7483" rx="2.4106" fill="#E4E4E7"/>
<rect x="365.589" y="146.94" width="39.7748" height="33.7483" rx="2.4106" fill="#E4E4E7"/>
<path d="M291.81 127.899H290.875C290.84 127.699 290.773 127.524 290.675 127.372C290.577 127.22 290.457 127.091 290.315 126.985C290.173 126.879 290.015 126.8 289.839 126.746C289.665 126.692 289.48 126.665 289.285 126.665C288.931 126.665 288.614 126.754 288.335 126.931C288.057 127.109 287.837 127.37 287.676 127.713C287.516 128.057 287.436 128.476 287.436 128.972C287.436 129.471 287.516 129.893 287.676 130.236C287.837 130.58 288.058 130.839 288.338 131.015C288.617 131.191 288.932 131.279 289.282 131.279C289.475 131.279 289.659 131.253 289.833 131.201C290.009 131.147 290.167 131.068 290.309 130.964C290.451 130.86 290.571 130.733 290.669 130.584C290.769 130.432 290.838 130.258 290.875 130.062L291.81 130.065C291.76 130.367 291.663 130.645 291.52 130.898C291.378 131.15 291.195 131.368 290.971 131.551C290.75 131.733 290.496 131.874 290.21 131.974C289.925 132.074 289.613 132.124 289.276 132.124C288.744 132.124 288.271 131.998 287.855 131.746C287.44 131.493 287.112 131.13 286.873 130.659C286.635 130.187 286.516 129.625 286.516 128.972C286.516 128.317 286.636 127.754 286.876 127.285C287.115 126.814 287.443 126.452 287.858 126.2C288.274 125.947 288.746 125.82 289.276 125.82C289.601 125.82 289.905 125.867 290.186 125.961C290.47 126.053 290.725 126.188 290.95 126.368C291.176 126.546 291.363 126.764 291.511 127.021C291.658 127.277 291.758 127.57 291.81 127.899ZM292.846 132.04V127.438H293.712V128.169H293.76C293.844 127.921 293.992 127.726 294.203 127.585C294.417 127.441 294.659 127.369 294.928 127.369C294.984 127.369 295.05 127.371 295.126 127.375C295.204 127.379 295.265 127.384 295.309 127.39V128.247C295.273 128.237 295.209 128.226 295.117 128.214C295.025 128.2 294.933 128.193 294.842 128.193C294.63 128.193 294.441 128.238 294.275 128.328C294.112 128.415 293.982 128.538 293.886 128.696C293.79 128.852 293.742 129.03 293.742 129.229V132.04H292.846ZM297.903 132.133C297.449 132.133 297.059 132.036 296.731 131.842C296.406 131.646 296.154 131.372 295.976 131.018C295.801 130.663 295.713 130.246 295.713 129.769C295.713 129.297 295.801 128.882 295.976 128.522C296.154 128.163 296.402 127.882 296.719 127.68C297.039 127.479 297.413 127.378 297.84 127.378C298.1 127.378 298.351 127.421 298.595 127.507C298.839 127.593 299.057 127.727 299.251 127.911C299.445 128.095 299.598 128.334 299.71 128.627C299.821 128.919 299.877 129.273 299.877 129.691V130.008H296.219V129.337H298.999C298.999 129.102 298.952 128.893 298.856 128.711C298.76 128.527 298.625 128.383 298.451 128.277C298.279 128.171 298.078 128.118 297.846 128.118C297.594 128.118 297.375 128.18 297.187 128.304C297.001 128.425 296.857 128.585 296.755 128.783C296.656 128.979 296.606 129.191 296.606 129.421V129.946C296.606 130.253 296.659 130.515 296.767 130.73C296.877 130.946 297.03 131.111 297.226 131.225C297.422 131.337 297.65 131.393 297.912 131.393C298.082 131.393 298.236 131.369 298.376 131.321C298.516 131.271 298.637 131.197 298.739 131.099C298.841 131.001 298.919 130.88 298.973 130.736L299.82 130.889C299.752 131.139 299.631 131.358 299.455 131.545C299.281 131.731 299.062 131.876 298.799 131.98C298.537 132.082 298.238 132.133 297.903 132.133ZM302.211 132.142C301.919 132.142 301.655 132.088 301.42 131.98C301.184 131.87 300.997 131.711 300.859 131.503C300.723 131.296 300.656 131.041 300.656 130.739C300.656 130.48 300.706 130.266 300.805 130.098C300.905 129.931 301.04 129.798 301.21 129.7C301.38 129.602 301.569 129.528 301.779 129.478C301.989 129.428 302.203 129.39 302.42 129.364C302.696 129.332 302.92 129.306 303.091 129.286C303.263 129.264 303.388 129.229 303.466 129.181C303.544 129.134 303.583 129.056 303.583 128.948V128.927C303.583 128.665 303.509 128.462 303.361 128.319C303.215 128.175 302.998 128.103 302.708 128.103C302.406 128.103 302.169 128.17 301.995 128.304C301.823 128.435 301.704 128.582 301.638 128.744L300.796 128.552C300.896 128.273 301.042 128.047 301.234 127.875C301.428 127.701 301.65 127.576 301.902 127.498C302.154 127.418 302.418 127.378 302.696 127.378C302.88 127.378 303.074 127.4 303.28 127.444C303.488 127.486 303.682 127.564 303.861 127.677C304.043 127.791 304.192 127.954 304.308 128.166C304.424 128.376 304.482 128.648 304.482 128.984V132.04H303.607V131.411H303.571C303.513 131.526 303.426 131.64 303.31 131.752C303.194 131.864 303.045 131.957 302.864 132.031C302.682 132.105 302.464 132.142 302.211 132.142ZM302.405 131.423C302.653 131.423 302.865 131.374 303.04 131.276C303.218 131.178 303.353 131.05 303.445 130.892C303.539 130.732 303.586 130.562 303.586 130.38V129.787C303.554 129.819 303.492 129.849 303.4 129.877C303.31 129.903 303.207 129.926 303.091 129.946C302.976 129.963 302.863 129.98 302.753 129.996C302.643 130.01 302.551 130.022 302.477 130.032C302.303 130.054 302.145 130.091 302.001 130.143C301.859 130.195 301.745 130.27 301.659 130.368C301.575 130.464 301.533 130.592 301.533 130.751C301.533 130.973 301.615 131.141 301.779 131.255C301.943 131.367 302.152 131.423 302.405 131.423ZM307.823 127.438V128.157H305.309V127.438H307.823ZM305.983 126.335H306.879V130.689C306.879 130.862 306.905 130.993 306.957 131.081C307.009 131.167 307.076 131.226 307.158 131.258C307.242 131.288 307.333 131.303 307.431 131.303C307.502 131.303 307.565 131.298 307.619 131.288C307.673 131.278 307.715 131.27 307.745 131.264L307.907 132.004C307.855 132.024 307.781 132.044 307.685 132.064C307.589 132.086 307.47 132.098 307.326 132.1C307.09 132.104 306.87 132.062 306.667 131.974C306.463 131.886 306.298 131.75 306.172 131.566C306.046 131.383 305.983 131.152 305.983 130.874V126.335ZM310.748 132.133C310.295 132.133 309.904 132.036 309.577 131.842C309.251 131.646 308.999 131.372 308.822 131.018C308.646 130.663 308.558 130.246 308.558 129.769C308.558 129.297 308.646 128.882 308.822 128.522C308.999 128.163 309.247 127.882 309.565 127.68C309.884 127.479 310.258 127.378 310.685 127.378C310.945 127.378 311.196 127.421 311.44 127.507C311.684 127.593 311.903 127.727 312.096 127.911C312.29 128.095 312.443 128.334 312.555 128.627C312.667 128.919 312.722 129.273 312.722 129.691V130.008H309.064V129.337H311.845C311.845 129.102 311.797 128.893 311.701 128.711C311.605 128.527 311.47 128.383 311.296 128.277C311.125 128.171 310.923 128.118 310.691 128.118C310.439 128.118 310.22 128.18 310.032 128.304C309.846 128.425 309.702 128.585 309.601 128.783C309.501 128.979 309.451 129.191 309.451 129.421V129.946C309.451 130.253 309.505 130.515 309.612 130.73C309.722 130.946 309.875 131.111 310.071 131.225C310.267 131.337 310.495 131.393 310.757 131.393C310.927 131.393 311.082 131.369 311.221 131.321C311.361 131.271 311.482 131.197 311.584 131.099C311.686 131.001 311.764 130.88 311.818 130.736L312.666 130.889C312.598 131.139 312.476 131.358 312.3 131.545C312.126 131.731 311.908 131.876 311.644 131.98C311.382 132.082 311.084 132.133 310.748 132.133ZM316.947 132.04L315.593 127.438H316.519L317.42 130.817H317.465L318.37 127.438H319.296L320.195 130.802H320.24L321.136 127.438H322.061L320.71 132.04H319.796L318.862 128.717H318.793L317.858 132.04H316.947ZM322.912 132.04V127.438H323.807V132.04H322.912ZM323.364 126.728C323.208 126.728 323.074 126.676 322.962 126.572C322.853 126.466 322.798 126.34 322.798 126.194C322.798 126.047 322.853 125.921 322.962 125.817C323.074 125.711 323.208 125.658 323.364 125.658C323.52 125.658 323.653 125.711 323.762 125.817C323.874 125.921 323.93 126.047 323.93 126.194C323.93 126.34 323.874 126.466 323.762 126.572C323.653 126.676 323.52 126.728 323.364 126.728ZM327.161 127.438V128.157H324.647V127.438H327.161ZM325.321 126.335H326.217V130.689C326.217 130.862 326.243 130.993 326.295 131.081C326.347 131.167 326.414 131.226 326.496 131.258C326.58 131.288 326.67 131.303 326.768 131.303C326.84 131.303 326.903 131.298 326.957 131.288C327.011 131.278 327.053 131.27 327.083 131.264L327.245 132.004C327.193 132.024 327.119 132.044 327.023 132.064C326.927 132.086 326.807 132.098 326.663 132.1C326.428 132.104 326.208 132.062 326.004 131.974C325.801 131.886 325.636 131.75 325.51 131.566C325.384 131.383 325.321 131.152 325.321 130.874V126.335ZM329.146 129.307V132.04H328.251V125.904H329.134V128.187H329.191C329.299 127.939 329.464 127.742 329.686 127.597C329.907 127.451 330.197 127.378 330.555 127.378C330.87 127.378 331.146 127.443 331.382 127.573C331.619 127.702 331.803 127.896 331.933 128.154C332.065 128.409 332.131 128.729 332.131 129.113V132.04H331.235V129.22C331.235 128.883 331.148 128.621 330.974 128.435C330.8 128.248 330.559 128.154 330.249 128.154C330.037 128.154 329.848 128.199 329.68 128.289C329.514 128.379 329.383 128.51 329.287 128.684C329.193 128.856 329.146 129.064 329.146 129.307ZM336.149 132.04H335.166L337.375 125.904H338.444L340.652 132.04H339.67L337.935 127.018H337.887L336.149 132.04ZM336.314 129.637H339.502V130.416H336.314V129.637ZM342.464 125.904V132.04H341.538V125.904H342.464Z" fill="#3F3F46"/>
<path d="M370.416 127.842C370.358 127.66 370.28 127.498 370.182 127.354C370.087 127.208 369.972 127.084 369.838 126.982C369.704 126.878 369.551 126.8 369.38 126.746C369.21 126.692 369.023 126.665 368.819 126.665C368.474 126.665 368.162 126.754 367.884 126.931C367.607 127.109 367.387 127.37 367.225 127.713C367.066 128.055 366.986 128.473 366.986 128.969C366.986 129.466 367.067 129.887 367.228 130.23C367.39 130.574 367.612 130.834 367.893 131.012C368.175 131.19 368.496 131.279 368.855 131.279C369.189 131.279 369.479 131.211 369.727 131.075C369.977 130.939 370.169 130.747 370.305 130.5C370.443 130.25 370.512 129.956 370.512 129.619L370.752 129.664H368.996V128.9H371.408V129.598C371.408 130.113 371.298 130.561 371.078 130.94C370.861 131.318 370.559 131.609 370.173 131.815C369.79 132.021 369.351 132.124 368.855 132.124C368.3 132.124 367.813 131.996 367.393 131.74C366.976 131.485 366.65 131.122 366.416 130.653C366.183 130.181 366.066 129.622 366.066 128.975C366.066 128.485 366.134 128.046 366.27 127.656C366.405 127.267 366.596 126.936 366.842 126.665C367.089 126.391 367.38 126.182 367.714 126.039C368.049 125.893 368.416 125.82 368.813 125.82C369.145 125.82 369.453 125.869 369.739 125.967C370.027 126.065 370.282 126.203 370.506 126.383C370.732 126.563 370.919 126.777 371.066 127.024C371.214 127.27 371.314 127.543 371.366 127.842H370.416ZM374.495 132.133C374.041 132.133 373.651 132.036 373.323 131.842C372.998 131.646 372.746 131.372 372.568 131.018C372.392 130.663 372.304 130.246 372.304 129.769C372.304 129.297 372.392 128.882 372.568 128.522C372.746 128.163 372.994 127.882 373.311 127.68C373.631 127.479 374.004 127.378 374.432 127.378C374.691 127.378 374.943 127.421 375.187 127.507C375.43 127.593 375.649 127.727 375.843 127.911C376.037 128.095 376.189 128.334 376.301 128.627C376.413 128.919 376.469 129.273 376.469 129.691V130.008H372.811V129.337H375.591C375.591 129.102 375.543 128.893 375.447 128.711C375.352 128.527 375.217 128.383 375.043 128.277C374.871 128.171 374.669 128.118 374.438 128.118C374.186 128.118 373.966 128.18 373.779 128.304C373.593 128.425 373.449 128.585 373.347 128.783C373.247 128.979 373.197 129.191 373.197 129.421V129.946C373.197 130.253 373.251 130.515 373.359 130.73C373.469 130.946 373.622 131.111 373.818 131.225C374.013 131.337 374.242 131.393 374.504 131.393C374.673 131.393 374.828 131.369 374.968 131.321C375.108 131.271 375.229 131.197 375.331 131.099C375.432 131.001 375.51 130.88 375.564 130.736L376.412 130.889C376.344 131.139 376.222 131.358 376.047 131.545C375.873 131.731 375.654 131.876 375.39 131.98C375.129 132.082 374.83 132.133 374.495 132.133ZM378.359 129.307V132.04H377.463V127.438H378.323V128.187H378.38C378.486 127.943 378.652 127.747 378.877 127.6C379.105 127.452 379.392 127.378 379.737 127.378C380.051 127.378 380.325 127.444 380.561 127.576C380.797 127.705 380.98 127.899 381.109 128.157C381.239 128.414 381.304 128.733 381.304 129.113V132.04H380.408V129.22C380.408 128.887 380.321 128.626 380.148 128.438C379.974 128.249 379.735 128.154 379.432 128.154C379.224 128.154 379.039 128.199 378.877 128.289C378.717 128.379 378.591 128.51 378.497 128.684C378.405 128.856 378.359 129.064 378.359 129.307ZM384.489 132.133C384.036 132.133 383.645 132.036 383.317 131.842C382.992 131.646 382.74 131.372 382.562 131.018C382.387 130.663 382.299 130.246 382.299 129.769C382.299 129.297 382.387 128.882 382.562 128.522C382.74 128.163 382.988 127.882 383.305 127.68C383.625 127.479 383.999 127.378 384.426 127.378C384.686 127.378 384.937 127.421 385.181 127.507C385.425 127.593 385.643 127.727 385.837 127.911C386.031 128.095 386.184 128.334 386.296 128.627C386.407 128.919 386.463 129.273 386.463 129.691V130.008H382.805V129.337H385.586C385.586 129.102 385.538 128.893 385.442 128.711C385.346 128.527 385.211 128.383 385.037 128.277C384.865 128.171 384.664 128.118 384.432 128.118C384.18 128.118 383.961 128.18 383.773 128.304C383.587 128.425 383.443 128.585 383.341 128.783C383.242 128.979 383.192 129.191 383.192 129.421V129.946C383.192 130.253 383.246 130.515 383.353 130.73C383.463 130.946 383.616 131.111 383.812 131.225C384.008 131.337 384.236 131.393 384.498 131.393C384.668 131.393 384.823 131.369 384.962 131.321C385.102 131.271 385.223 131.197 385.325 131.099C385.427 131.001 385.505 130.88 385.559 130.736L386.406 130.889C386.339 131.139 386.217 131.358 386.041 131.545C385.867 131.731 385.648 131.876 385.385 131.98C385.123 132.082 384.825 132.133 384.489 132.133ZM387.457 132.04V127.438H388.323V128.169H388.371C388.455 127.921 388.603 127.726 388.815 127.585C389.028 127.441 389.27 127.369 389.54 127.369C389.596 127.369 389.662 127.371 389.737 127.375C389.815 127.379 389.876 127.384 389.92 127.39V128.247C389.884 128.237 389.82 128.226 389.728 128.214C389.637 128.2 389.545 128.193 389.453 128.193C389.241 128.193 389.052 128.238 388.887 128.328C388.723 128.415 388.593 128.538 388.497 128.696C388.401 128.852 388.353 129.03 388.353 129.229V132.04H387.457ZM391.994 132.142C391.702 132.142 391.438 132.088 391.203 131.98C390.967 131.87 390.78 131.711 390.642 131.503C390.506 131.296 390.439 131.041 390.439 130.739C390.439 130.48 390.488 130.266 390.588 130.098C390.688 129.931 390.823 129.798 390.993 129.7C391.163 129.602 391.352 129.528 391.562 129.478C391.772 129.428 391.986 129.39 392.203 129.364C392.479 129.332 392.703 129.306 392.874 129.286C393.046 129.264 393.171 129.229 393.249 129.181C393.327 129.134 393.366 129.056 393.366 128.948V128.927C393.366 128.665 393.292 128.462 393.144 128.319C392.998 128.175 392.78 128.103 392.491 128.103C392.189 128.103 391.952 128.17 391.778 128.304C391.606 128.435 391.487 128.582 391.421 128.744L390.579 128.552C390.679 128.273 390.825 128.047 391.017 127.875C391.211 127.701 391.433 127.576 391.685 127.498C391.937 127.418 392.201 127.378 392.479 127.378C392.663 127.378 392.857 127.4 393.063 127.444C393.271 127.486 393.465 127.564 393.644 127.677C393.826 127.791 393.975 127.954 394.091 128.166C394.207 128.376 394.265 128.648 394.265 128.984V132.04H393.39V131.411H393.354C393.296 131.526 393.209 131.64 393.093 131.752C392.977 131.864 392.828 131.957 392.647 132.031C392.465 132.105 392.247 132.142 391.994 132.142ZM392.188 131.423C392.436 131.423 392.648 131.374 392.823 131.276C393.001 131.178 393.136 131.05 393.228 130.892C393.322 130.732 393.369 130.562 393.369 130.38V129.787C393.337 129.819 393.275 129.849 393.183 129.877C393.093 129.903 392.99 129.926 392.874 129.946C392.759 129.963 392.646 129.98 392.536 129.996C392.426 130.01 392.334 130.022 392.26 130.032C392.086 130.054 391.928 130.091 391.784 130.143C391.642 130.195 391.528 130.27 391.442 130.368C391.358 130.464 391.316 130.592 391.316 130.751C391.316 130.973 391.398 131.141 391.562 131.255C391.726 131.367 391.935 131.423 392.188 131.423ZM397.606 127.438V128.157H395.092V127.438H397.606ZM395.766 126.335H396.662V130.689C396.662 130.862 396.688 130.993 396.74 131.081C396.792 131.167 396.859 131.226 396.941 131.258C397.025 131.288 397.116 131.303 397.214 131.303C397.285 131.303 397.348 131.298 397.402 131.288C397.456 131.278 397.498 131.27 397.528 131.264L397.69 132.004C397.638 132.024 397.564 132.044 397.468 132.064C397.372 132.086 397.252 132.098 397.109 132.1C396.873 132.104 396.653 132.062 396.449 131.974C396.246 131.886 396.081 131.75 395.955 131.566C395.829 131.383 395.766 131.152 395.766 130.874V126.335ZM400.531 132.133C400.078 132.133 399.687 132.036 399.359 131.842C399.034 131.646 398.782 131.372 398.604 131.018C398.429 130.663 398.341 130.246 398.341 129.769C398.341 129.297 398.429 128.882 398.604 128.522C398.782 128.163 399.03 127.882 399.347 127.68C399.667 127.479 400.041 127.378 400.468 127.378C400.728 127.378 400.979 127.421 401.223 127.507C401.467 127.593 401.685 127.727 401.879 127.911C402.073 128.095 402.226 128.334 402.338 128.627C402.449 128.919 402.505 129.273 402.505 129.691V130.008H398.847V129.337H401.628C401.628 129.102 401.58 128.893 401.484 128.711C401.388 128.527 401.253 128.383 401.079 128.277C400.907 128.171 400.706 128.118 400.474 128.118C400.222 128.118 400.003 128.18 399.815 128.304C399.629 128.425 399.485 128.585 399.383 128.783C399.284 128.979 399.234 129.191 399.234 129.421V129.946C399.234 130.253 399.288 130.515 399.395 130.73C399.505 130.946 399.658 131.111 399.854 131.225C400.05 131.337 400.278 131.393 400.54 131.393C400.71 131.393 400.865 131.369 401.004 131.321C401.144 131.271 401.265 131.197 401.367 131.099C401.469 131.001 401.547 130.88 401.601 130.736L402.448 130.889C402.381 131.139 402.259 131.358 402.083 131.545C401.909 131.731 401.69 131.876 401.427 131.98C401.165 132.082 400.867 132.133 400.531 132.133Z" fill="white"/>
<g clip-path="url(#clip3_9_914)">
<path d="M280.323 131.087L281.829 132.593L281.331 133.09L279.826 131.585C279.285 132.018 278.598 132.277 277.851 132.277C276.105 132.277 274.687 130.859 274.687 129.113C274.687 127.366 276.105 125.949 277.851 125.949C279.598 125.949 281.015 127.366 281.015 129.113C281.015 129.86 280.756 130.546 280.323 131.087ZM279.618 130.827C280.048 130.384 280.312 129.779 280.312 129.113C280.312 127.753 279.211 126.652 277.851 126.652C276.492 126.652 275.391 127.753 275.391 129.113C275.391 130.472 276.492 131.574 277.851 131.574C278.518 131.574 279.122 131.309 279.565 130.879L279.618 130.827Z" fill="#3F3F46"/>
</g>
<g clip-path="url(#clip4_9_914)">
<path d="M130.845 266.83C130.564 267.473 129.673 267.473 129.392 266.83L128.661 265.154C128.01 263.664 126.838 262.477 125.377 261.828L123.364 260.935C122.724 260.651 122.724 259.72 123.364 259.436L125.314 258.57C126.813 257.905 128.005 256.674 128.645 255.132L129.386 253.347C129.661 252.685 130.576 252.685 130.851 253.347L131.592 255.132C132.232 256.674 133.424 257.905 134.923 258.57L136.873 259.436C137.513 259.72 137.513 260.651 136.873 260.935L134.86 261.828C133.399 262.477 132.228 263.664 131.577 265.154L130.845 266.83ZM125.783 260.185C127.688 261.031 129.237 262.421 130.119 264.333C131.001 262.421 132.549 261.031 134.454 260.185C132.527 259.33 130.973 257.872 130.119 255.926C129.264 257.872 127.711 259.33 125.783 260.185ZM138.168 270.908L138.373 270.437C138.74 269.596 139.401 268.927 140.225 268.561L140.858 268.279C141.201 268.127 141.201 267.629 140.858 267.477L140.26 267.211C139.415 266.835 138.743 266.141 138.382 265.272L138.171 264.763C138.024 264.408 137.533 264.408 137.386 264.763L137.174 265.272C136.814 266.141 136.142 266.835 135.297 267.211L134.698 267.477C134.356 267.629 134.356 268.127 134.698 268.279L135.332 268.561C136.156 268.927 136.817 269.596 137.183 270.437L137.389 270.908C137.539 271.253 138.017 271.253 138.168 270.908ZM137.312 267.872L137.781 267.407L138.24 267.872L137.781 268.325L137.312 267.872Z" fill="#7063F3"/>
</g>
<g clip-path="url(#clip5_9_914)">
<path d="M319.845 249.83C319.564 250.473 318.673 250.473 318.392 249.83L317.661 248.154C317.01 246.664 315.838 245.477 314.377 244.828L312.364 243.935C311.724 243.651 311.724 242.72 312.364 242.436L314.314 241.57C315.813 240.905 317.005 239.674 317.645 238.132L318.386 236.347C318.661 235.685 319.576 235.685 319.851 236.347L320.592 238.132C321.232 239.674 322.424 240.905 323.923 241.57L325.873 242.436C326.513 242.72 326.513 243.651 325.873 243.935L323.86 244.828C322.399 245.477 321.228 246.664 320.577 248.154L319.845 249.83ZM314.783 243.185C316.688 244.031 318.237 245.421 319.119 247.333C320.001 245.421 321.549 244.031 323.454 243.185C321.527 242.33 319.973 240.872 319.119 238.926C318.264 240.872 316.711 242.33 314.783 243.185ZM327.168 253.908L327.373 253.437C327.74 252.596 328.401 251.927 329.225 251.561L329.858 251.279C330.201 251.127 330.201 250.629 329.858 250.477L329.26 250.211C328.415 249.835 327.743 249.141 327.382 248.272L327.171 247.763C327.024 247.408 326.533 247.408 326.386 247.763L326.174 248.272C325.814 249.141 325.142 249.835 324.297 250.211L323.698 250.477C323.356 250.629 323.356 251.127 323.698 251.279L324.332 251.561C325.156 251.927 325.817 252.596 326.183 253.437L326.389 253.908C326.539 254.253 327.017 254.253 327.168 253.908ZM326.312 250.872L326.781 250.407L327.24 250.872L326.781 251.325L326.312 250.872Z" fill="#7063F3"/>
</g>
<path d="M199.922 111.398C198.255 111.398 196.922 112.732 196.922 114.398C196.922 116.065 198.255 117.398 199.922 117.398C201.589 117.398 202.922 116.065 202.922 114.398C202.922 112.732 201.589 111.398 199.922 111.398Z" fill="white"/>
<path d="M226.255 227.708C226.645 228.099 227.278 228.099 227.669 227.708L234.033 221.344C234.423 220.954 234.423 220.321 234.033 219.93C233.642 219.539 233.009 219.539 232.618 219.93L226.962 225.587L221.305 219.93C220.914 219.539 220.281 219.539 219.891 219.93C219.5 220.321 219.5 220.954 219.891 221.344L226.255 227.708ZM197.922 114.398C197.922 113.284 198.807 112.398 199.922 112.398V110.398C197.703 110.398 195.922 112.179 195.922 114.398H197.922ZM199.922 112.398C201.036 112.398 201.922 113.284 201.922 114.398H203.922C203.922 112.179 202.141 110.398 199.922 110.398V112.398ZM201.922 114.398C201.922 115.513 201.036 116.398 199.922 116.398V118.398C202.141 118.398 203.922 116.617 203.922 114.398H201.922ZM199.922 116.398C198.807 116.398 197.922 115.513 197.922 114.398H195.922C195.922 116.617 197.703 118.398 199.922 118.398V116.398ZM202.922 115.398H206.962V113.398H202.922V115.398ZM225.962 134.398V227.001H227.962V134.398H225.962ZM206.962 115.398C217.455 115.398 225.962 123.905 225.962 134.398H227.962C227.962 122.8 218.56 113.398 206.962 113.398V115.398Z" fill="#71717A"/>
<path d="M253.961 111.398C255.628 111.398 256.961 112.732 256.961 114.398C256.961 116.065 255.628 117.398 253.961 117.398C252.294 117.398 250.961 116.065 250.961 114.398C250.961 112.732 252.294 111.398 253.961 111.398Z" fill="white"/>
<path d="M227.628 227.708C227.238 228.099 226.605 228.099 226.214 227.708L219.85 221.344C219.46 220.954 219.46 220.321 219.85 219.93C220.241 219.539 220.874 219.539 221.264 219.93L226.921 225.587L232.578 219.93C232.969 219.539 233.602 219.539 233.992 219.93C234.383 220.321 234.383 220.954 233.992 221.344L227.628 227.708ZM255.961 114.398C255.961 113.284 255.075 112.398 253.961 112.398V110.398C256.18 110.398 257.961 112.179 257.961 114.398H255.961ZM253.961 112.398C252.847 112.398 251.961 113.284 251.961 114.398H249.961C249.961 112.179 251.742 110.398 253.961 110.398V112.398ZM251.961 114.398C251.961 115.513 252.847 116.398 253.961 116.398V118.398C251.742 118.398 249.961 116.617 249.961 114.398H251.961ZM253.961 116.398C255.075 116.398 255.961 115.513 255.961 114.398H257.961C257.961 116.617 256.18 118.398 253.961 118.398V116.398ZM250.961 115.398H246.921V113.398H250.961V115.398ZM227.921 134.398V227.001H225.921V134.398H227.921ZM246.921 115.398C236.428 115.398 227.921 123.905 227.921 134.398H225.921C225.921 122.8 235.323 113.398 246.921 113.398V115.398Z" fill="#71717A"/>
</g>
<defs>
<radialGradient id="paint0_angular_9_914" cx="0" cy="0" r="1" gradientUnits="userSpaceOnUse" gradientTransform="translate(226.96 317.397) scale(81.9603 90.3974)">
<stop offset="0.471864" stop-color="#3F3F46"/>
<stop offset="0.65625" stop-color="#D8D8E1"/>
<stop offset="1" stop-color="#3F3F46"/>
</radialGradient>
<clipPath id="clip0_9_914">
<rect width="453" height="328" fill="white"/>
</clipPath>
<clipPath id="clip1_9_914">
<rect x="36" y="24" width="163.921" height="180.795" rx="9.64238" fill="white"/>
</clipPath>
<clipPath id="clip2_9_914">
<rect x="145" y="227" width="163.921" height="180.795" rx="9.64238" fill="white"/>
</clipPath>
<clipPath id="clip3_9_914">
<rect width="8.43709" height="8.43709" fill="white" transform="translate(273.984 125.246)"/>
</clipPath>
<clipPath id="clip4_9_914">
<rect width="20" height="20" fill="white" transform="translate(122 252)"/>
</clipPath>
<clipPath id="clip5_9_914">
<rect width="20" height="20" fill="white" transform="translate(311 235)"/>
</clipPath>
</defs>
</svg>
