<svg width="93" height="100" viewBox="0 0 93 100" fill="none" xmlns="http://www.w3.org/2000/svg">
<path d="M91.5 71C91 69.8 90.5 68.5 90 67.4C89.2 65.6 88.4 63.9 87.7 62.3L87.6 62.2C80.7 47.2 73.3 32 65.5 17L65.2 16.4C64.4 14.9 63.6 13.3 62.8 11.7C61.8 9.9 60.8 8 59.2 6.2C56 2.2 51.4 0 46.5 0C41.5 0 37 2.2 33.7 6C32.2 7.8 31.1 9.7 30.1 11.5C29.3 13.1 28.5 14.7 27.7 16.2L27.4 16.8C19.7 31.8 12.2 47 5.30003 62L5.20003 62.2C4.50003 63.8 3.70003 65.5 2.90003 67.3C2.40003 68.4 1.90003 69.6 1.40003 70.9C0.100033 74.6 -0.299967 78.1 0.200033 81.7C1.30003 89.2 6.30003 95.5 13.2 98.3C15.8 99.4 18.5 99.9 21.3 99.9C22.1 99.9 23.1 99.8 23.9 99.7C27.2 99.3 30.6 98.2 33.9 96.3C38 94 41.9 90.7 46.3 85.9C50.7 90.7 54.7 94 58.7 96.3C62 98.2 65.4 99.3 68.7 99.7C69.5 99.8 70.5 99.9 71.3 99.9C74.1 99.9 76.9 99.4 79.4 98.3C86.4 95.5 91.3 89.1 92.4 81.7C93.2 78.2 92.8 74.7 91.5 71ZM46.4 76.2C41 69.4 37.5 63 36.3 57.6C35.8 55.3 35.7 53.3 36 51.5C36.2 49.9 36.8 48.5 37.6 47.3C39.5 44.6 42.7 42.9 46.4 42.9C50.1 42.9 53.4 44.5 55.2 47.3C56 48.5 56.6 49.9 56.8 51.5C57.1 53.3 57 55.4 56.5 57.6C55.3 62.9 51.8 69.3 46.4 76.2ZM86.3 80.9C85.6 86.1 82.1 90.6 77.2 92.6C74.8 93.6 72.2 93.9 69.6 93.6C67.1 93.3 64.6 92.5 62 91C58.4 89 54.8 85.9 50.6 81.3C57.2 73.2 61.2 65.8 62.7 59.2C63.4 56.1 63.5 53.3 63.2 50.7C62.8 48.2 61.9 45.9 60.5 43.9C57.4 39.4 52.2 36.8 46.4 36.8C40.6 36.8 35.4 39.5 32.3 43.9C30.9 45.9 30 48.2 29.6 50.7C29.2 53.3 29.3 56.2 30.1 59.2C31.6 65.8 35.7 73.3 42.2 81.4C38.1 86 34.4 89.1 30.8 91.1C28.2 92.6 25.7 93.4 23.2 93.7C20.5 94 17.9 93.6 15.6 92.7C10.7 90.7 7.20003 86.2 6.50003 81C6.20003 78.5 6.40003 76 7.40003 73.2C7.70003 72.2 8.20003 71.2 8.70003 70C9.40003 68.4 10.2 66.7 11 65L11.1 64.8C18 49.9 25.4 34.7 33.1 19.9L33.4 19.3C34.2 17.8 35 16.2 35.8 14.7C36.6 13.1 37.5 11.6 38.6 10.3C40.7 7.9 43.5 6.6 46.6 6.6C49.7 6.6 52.5 7.9 54.6 10.3C55.7 11.6 56.6 13.1 57.4 14.7C58.2 16.2 59 17.8 59.8 19.3L60.1 19.9C67.7 34.8 75.1 50 82 64.9V65C82.8 66.6 83.5 68.4 84.3 70C84.8 71.2 85.3 72.2 85.6 73.2C86.4 75.8 86.7 78.3 86.3 80.9Z" fill="#FF5A5F"/>
</svg>
