<svg height="256" preserveAspectRatio="xMidYMid" viewBox="0 0 256 256" width="256" xmlns="http://www.w3.org/2000/svg" xmlns:xlink="http://www.w3.org/1999/xlink"><linearGradient id="a" x1="99.686553%" x2="39.835901%" y1="15.800799%" y2="97.437836%"><stop offset="0" stop-color="#0052cc"/><stop offset=".923" stop-color="#2684ff"/></linearGradient><path d="m75.7929022 117.949352c-3.8194672-4.080172-9.7708279-3.848901-12.366664 1.342771l-62.63505733 125.272918c-1.16118108 2.321166-1.03750329 5.07811.32685236 7.285979s3.7747707 3.551721 6.37018042 3.551496h87.22822135c2.8552051.06619 5.481075-1.556915 6.698434-4.140442 18.808599-38.888484 7.413271-98.01664-25.6219668-133.312722z" fill="url(#a)"/><path d="m121.756071 4.0114918c-35.0325735 55.504918-32.7212702 116.9780162-9.646082 163.1297952l42.060394 84.120787c1.26832 2.536659 3.860966 4.139021 6.697033 4.139041h87.226819c2.59541.000224 5.005825-1.343628 6.370181-3.551497 1.364355-2.207868 1.488033-4.964813.326852-7.285979 0 0-117.346648-234.72693408-120.2985-240.59980293-2.639287-5.25754918-9.343328-5.32903279-12.736697.04765573z" fill="#2681ff"/></svg>