<?xml version="1.0" encoding="utf-8"?>
<svg version="1.1" id="layer" xmlns="http://www.w3.org/2000/svg" xmlns:xlink="http://www.w3.org/1999/xlink" x="0px" y="0px"
	 viewBox="0 0 652 652" style="enable-background:new 0 0 652 652;" xml:space="preserve">
<path fill="#fff" class="st0" d="M427.9,274.7c-10.6,0-18.9,3.8-26.5,11.7v-9.9h-20.9v97.1H403v-56.3c0-12.9,7.7-21,19.3-21c2.1,0,4,0.3,5.3,0.5
	l15.6-20.5C437.1,275.2,431.9,274.7,427.9,274.7L427.9,274.7z M621.9,276.5h-25.9l-24,31.7l-24-31.7h-25.9l36.6,48.9l-36.6,48.2
	h26.5l23.3-30.7l23.3,30.7h26.7L585,325.5C585,325.5,621.9,276.5,621.9,276.5z M149.5,254.7c-7.7,10.3-9.5,13.7-16.9,13.7H21.9
	v131.6h43.4c9.8,0,19.3-4.7,25.4-12.6c7.9-10.5,9-13.7,16.7-13.7h110.9V242.1h-43.7C164.8,242.1,155.3,246.8,149.5,254.7
	L149.5,254.7z M183.9,339.7h-46.3c-10.1,0-19.3,4.2-25.4,12.4c-7.9,10.5-9.5,13.7-16.9,13.7H56v-63.1h46.3
	c10.1,0,19.3-4.7,25.4-12.6c7.9-10.3,10.1-13.4,17.2-13.4h38.9V339.7z M350.1,307.3c9.8-5.5,16.7-15.3,16.7-28.2
	c0-18.9-14.6-37.1-35.7-37.1h-63.5v131.6H331c23,0,38.9-16.3,38.9-36.8C369.9,324.7,364.4,314.2,350.1,307.3z M290,262.6h39.2
	c9.8,0,15.6,9.2,15.6,17.4c0,10-8.7,16.8-16.9,16.8H290C290,296.8,290,262.6,290,262.6z M327.8,353.1H290v-35.8h39.2
	c10.1,0,18.3,8.7,18.3,17.6C347.4,344.9,337.1,353.1,327.8,353.1z M499.6,345.7c-3.7,5.8-10.9,9.2-18.8,9.2
	c-12.4,0-22.8-8.4-22.8-21.3h67.2c1.1-3.9,1.3-5.8,1.3-9.2c0-29.5-18.3-49.7-45.8-49.7c-27,0-46.1,19.2-46.1,50.5
	c0,30.5,18.3,50.3,46.6,50.3c19.9,0,37.3-9.7,42.3-29.7C523.7,345.7,499.6,345.7,499.6,345.7z M480.8,295.2c12.4,0,22,7.9,21.7,19.7
	h-44.2C458.3,303.4,468.4,295.2,480.8,295.2z"/>
</svg>
