<?xml version="1.0" standalone="no"?><!-- Generator: Gravit.io --><svg xmlns="http://www.w3.org/2000/svg" xmlns:xlink="http://www.w3.org/1999/xlink" style="isolation:isolate" viewBox="0 0 694.033 100.758" width="694.033" height="100.758"><defs><clipPath id="_clipPath_MldTJNRvzYQhC5Pn5BVhBwU64oQtOlDD"><rect width="694.033" height="100.758"/></clipPath></defs><g clip-path="url(#_clipPath_MldTJNRvzYQhC5Pn5BVhBwU64oQtOlDD)"><clipPath id="_clipPath_9dgb5Av8bo1MoKhKKkbSrHEsaWJqFLf8"><path d=" M 0 0 L 0 100.758 L 694.033 100.758 L 694.033 0 L 0 0 Z " fill="#FFF"/></clipPath><g clip-path="url(#_clipPath_9dgb5Av8bo1MoKhKKkbSrHEsaWJqFLf8)"><path d=" M 274.737 13.614 L 274.737 80.468 C 274.737 93.729 282.993 100.746 295.152 100.746 C 300.963 100.746 306.102 99.233 307.326 98.84 L 307.326 87.88 C 306.248 88.205 302.745 89.254 297.992 89.254 C 290.879 89.254 287.625 84.823 287.625 79 L 287.625 41.109 L 305.517 41.109 L 305.517 30.253 L 287.625 30.253 L 287.625 23.157 C 287.625 16.37 283.582 12.925 278.43 12.925 C 277.21 12.925 275.959 13.161 274.737 13.614 Z  M 533.92 39.326 L 533.92 39.038 C 533.92 32.251 530.322 28.806 525.171 28.806 C 523.951 28.806 522.699 29.042 521.477 29.495 L 521.477 99.299 L 534.359 99.299 L 534.359 51.531 C 538.194 46.344 545.947 40.287 552.751 40.287 C 560.277 40.287 564.033 45.162 564.033 52.255 L 564.033 99.299 L 576.917 99.299 L 576.917 51.531 C 581.359 45.528 588.504 40.287 595.307 40.287 C 602.834 40.287 606.591 45.162 606.591 52.255 L 606.591 99.299 L 619.473 99.299 L 619.473 51.532 C 619.473 38.525 613.59 28.805 597.661 28.805 C 587.963 28.805 580.789 34.007 574.982 40.344 C 573.033 35.695 568.635 28.805 555.064 28.805 C 545.867 28.805 539.105 33.684 533.92 39.326 Z  M 488.911 39.038 C 488.911 32.251 485.094 28.806 479.943 28.806 C 478.723 28.806 477.471 29.042 476.249 29.495 L 476.249 99.299 L 489.131 99.299 L 489.131 58.48 C 492.787 49.813 501.439 41.817 512.87 41.817 L 512.87 28.805 C 500.653 28.805 493.657 34.712 488.911 43.48 L 488.911 39.038 Z  M 78.963 39.038 C 78.963 32.251 75.146 28.806 69.994 28.806 C 68.774 28.806 67.523 29.042 66.301 29.495 L 66.301 99.299 L 79.183 99.299 L 79.183 58.48 C 82.839 49.813 91.49 41.817 102.923 41.817 L 102.923 28.805 C 90.704 28.805 83.708 34.712 78.963 43.48 L 78.963 39.038 Z  M 377.921 64.067 C 386.28 54.686 393.684 43.446 398.958 29.726 L 387.053 25.374 C 379.459 45.322 368.112 58.718 354.404 69.817 L 354.404 1.631 L 341.522 1.631 L 341.522 99.298 L 354.404 99.298 L 354.404 84.884 C 359.368 81.35 363.836 77.75 368.645 73.323 L 380.406 93.216 C 383.344 98.164 387.255 100.744 393.114 100.744 C 396.411 100.744 398.36 99.688 399.085 99.298 L 377.921 64.067 Z  M 13.472 64.704 C 13.472 48.636 21.843 40.289 34.518 40.289 C 44.131 40.289 50.445 43.892 52.455 45.181 C 54.034 43.681 55.298 41.065 55.298 38.332 C 55.298 33.761 49.898 28.806 34.002 28.806 C 15.467 28.806 0 41.254 0 64.849 C 0 87.864 14.052 100.747 32.58 100.747 C 43.707 100.747 52.565 97.185 55.152 95.847 L 55.152 83.047 C 52.33 84.981 43.235 89.255 34.707 89.255 C 22.547 89.255 13.472 80.929 13.472 64.704 Z  M 217.522 44.149 C 215.948 43.203 210.325 40.289 203.193 40.289 C 191.287 40.289 183.121 48.553 183.121 65.633 C 183.121 80.832 190.758 89.242 207.157 89.242 C 210.938 89.242 214.527 88.659 217.522 87.761 L 217.522 44.149 Z  M 230.254 97.247 C 227.56 97.939 219.314 100.758 207.157 100.758 C 180.58 100.758 170.323 85.927 170.323 66.001 C 170.323 40.814 184.647 28.783 200.869 28.783 C 209.853 28.783 215.885 31.579 217.522 32.424 L 217.522 1.631 L 230.254 1.631 L 230.254 97.247 Z  M 116.989 60.412 C 117.544 50.253 124.113 39.844 138.377 39.844 C 144.747 39.844 148.58 43.479 148.58 47.882 C 148.58 57.727 130.596 60.412 116.989 60.412 Z  M 117.077 70.406 C 136.251 70.406 161.627 67.506 161.627 47.256 C 161.627 37.132 153.186 28.804 139.017 28.804 C 115.1 28.804 103.588 45.609 103.588 65.857 C 103.588 85.271 116.119 100.747 138.475 100.747 C 150.917 100.747 160.212 97.362 160.212 90.295 C 160.212 86.985 158.077 84.344 157.603 83.876 C 156.374 84.692 149.641 89.255 139.248 89.255 C 124.611 89.255 118.563 79.777 117.077 70.406 Z  M 245.982 99.298 L 245.982 30.253 L 258.865 30.253 L 258.865 99.298 L 245.982 99.298 Z  M 252.495 16.357 C 248.008 16.357 244.244 12.738 244.244 8.251 C 244.244 3.763 248.008 0 252.495 0 C 256.983 0 260.601 3.763 260.601 8.251 C 260.601 12.738 256.983 16.357 252.495 16.357 Z  M 673.561 80.336 C 667.771 86.272 661.902 89.269 654.374 89.269 C 647.071 89.269 643.236 84.604 643.236 79.704 C 643.236 72.611 648.892 66.651 673.561 64.269 L 673.561 80.336 Z  M 658.572 28.805 C 642.11 28.805 635.691 33.234 635.691 38.323 C 635.691 42.187 637.948 44.575 638.542 45.156 C 640.705 43.763 646.843 40.264 656.731 40.264 C 669.17 40.264 673.561 46.154 673.561 52.515 L 673.561 54.426 C 644.755 57.466 629.991 62.902 629.991 80.128 C 629.991 91.853 638.769 100.747 651.218 100.747 C 663.68 100.747 670.729 94.252 673.87 91.394 L 673.87 99.299 L 686.446 99.299 L 686.446 52.091 C 686.446 36.747 675.363 28.805 658.572 28.805 Z  M 447.498 80.336 C 441.707 86.272 435.838 89.269 428.311 89.269 C 421.007 89.269 417.174 84.604 417.174 79.704 C 417.174 72.611 422.828 66.651 447.498 64.269 L 447.498 80.336 Z  M 432.508 28.805 C 416.047 28.805 409.628 33.234 409.628 38.323 C 409.628 42.187 411.884 44.575 412.479 45.156 C 414.642 43.763 420.78 40.264 430.667 40.264 C 443.107 40.264 447.498 46.154 447.498 52.515 L 447.498 54.426 C 418.693 57.466 403.927 62.902 403.927 80.128 C 403.927 91.853 412.705 100.747 425.154 100.747 C 437.616 100.747 444.666 94.252 447.807 91.394 L 447.807 99.299 L 460.383 99.299 L 460.383 52.091 C 460.383 36.747 449.3 28.805 432.508 28.805 Z " fill="#FFF"/></g><clipPath id="_clipPath_3JmisqMKt6Zr07wu1fpHpRJAuSLvDPRU"><path d=" M 0 0 L 0 100.758 L 694.033 100.758 L 694.033 0 L 0 0 Z " fill="#FFF"/></clipPath><g clip-path="url(#_clipPath_3JmisqMKt6Zr07wu1fpHpRJAuSLvDPRU)"><path d=" M 692.41 24.254 C 692.41 22.112 692.175 19.476 691.75 17.263 C 690.716 18.793 689.985 20.676 689.656 22.418 L 688.668 22.418 C 688.361 20.676 687.632 18.769 686.595 17.263 C 686.149 19.452 685.936 22.088 685.936 24.254 L 684.29 24.254 C 684.29 21.547 684.619 18.346 685.302 15.686 L 686.76 15.686 C 687.654 16.745 688.597 18.463 689.162 20.041 C 689.727 18.463 690.668 16.722 691.562 15.686 L 693.045 15.686 C 693.704 18.346 694.033 21.57 694.033 24.254 L 692.41 24.254 Z  M 677.416 15.686 L 683.771 15.686 L 683.771 17.004 L 681.418 17.004 L 681.418 24.254 L 679.77 24.254 L 679.77 17.004 L 677.416 17.004 L 677.416 15.686 Z " fill="#FFF"/></g></g></svg>