<svg height="635" viewBox=".25 .25 800 203.33" width="2500" xmlns="http://www.w3.org/2000/svg"><path d="m260.87 144.65h-37.4v-86.1h37.4c26.94 0 40.43 13.57 40.43 40.7-.01 30.26-13.49 45.4-40.43 45.4zm-21.42-13.86h19c17.9 0 26.84-10.51 26.84-31.55 0-17.91-8.95-26.87-26.84-26.87h-19zm78.59 13.86h-16.42l36.63-86.1h17.19l37.41 86.1h-17.19l-10.86-23.48h-27.63l5.49-13.85h17.92l-14.12-32.34zm65.78-86.1h65.46v13.84h-24.73v72.26h-15.98v-72.26h-24.75zm73.68 86.1h-16.42l36.63-86.1h17.19l37.41 86.1h-17.21l-10.86-23.48h-27.63l5.49-13.85h17.92l-14.11-32.34zm122.82 0h-37.4v-86.1h37.4c26.96 0 40.43 13.57 40.43 40.7 0 30.26-13.47 45.4-40.43 45.4zm-21.41-13.86h19c17.89 0 26.86-10.51 26.86-31.55 0-17.91-8.96-26.87-26.86-26.87h-19zm72.67-29.07c0-29.2 14.45-43.79 43.33-43.79 28.44 0 42.64 14.59 42.64 43.79 0 29.03-14.21 43.55-42.64 43.55-27.6 0-42.04-14.52-43.33-43.55zm43.33 29.67c17.36 0 26.05-10.01 26.05-30.05 0-19.72-8.69-29.59-26.05-29.59-17.82 0-26.73 9.87-26.73 29.59 0 20.04 8.91 30.05 26.73 30.05zm109.35-21.58v20.16c-3.69.96-6.99 1.44-9.9 1.44-19.55 0-29.31-10.34-29.31-31.01 0-19.09 10.36-28.62 31.07-28.62 8.65 0 16.69 1.61 24.13 4.82v-14.46c-7.44-2.8-15.89-4.21-25.34-4.21-30.97 0-46.46 14.15-46.46 42.47 0 29.9 15.22 44.87 45.67 44.87 10.47 0 19.17-1.52 26.13-4.58v-45.05h-25.82l-5.4 14.16zm-625.39 34.35-16.87-11.12-14.07 23.5-16.36-4.78-14.41 21.99.74 6.92 78.33-14.43-4.55-48.94zm-73.05-21.09 12.57-1.73c2.03.91 3.45 1.26 5.89 1.88 3.8.99 8.19 1.94 14.7-1.34 1.51-.75 4.67-3.64 5.94-5.28l51.49-9.34 5.25 63.57-88.21 15.9zm95.64-22.91-5.08.97-9.76-100.88-166.37 19.29 20.5 166.33 19.47-2.83c-1.55-2.22-3.98-4.91-8.11-8.35-5.74-4.76-3.71-12.86-.32-17.97 4.47-8.63 27.54-19.61 26.23-33.41-.47-5.02-1.27-11.55-5.93-16.03-.17 1.86.14 3.65.14 3.65s-1.91-2.44-2.87-5.77c-.95-1.28-1.69-1.68-2.7-3.39-.72 1.97-.62 4.26-.62 4.26s-1.56-3.7-1.82-6.82c-.93 1.4-1.16 4.05-1.16 4.05s-2.03-5.83-1.57-8.97c-.93-2.73-3.68-8.15-2.9-20.47 5.08 3.56 16.26 2.71 20.61-3.71 1.45-2.13 2.44-7.93-.72-19.36-2.03-7.33-7.05-18.25-9.01-22.4l-.23.17c1.03 3.34 3.16 10.33 3.98 13.73 2.47 10.29 3.13 13.87 1.97 18.61-.99 4.12-3.35 6.82-9.35 9.84-6 3.03-13.96-4.34-14.47-4.74-5.83-4.64-10.34-12.22-10.84-15.9-.52-4.03 2.32-6.45 3.76-9.74-2.05.59-4.34 1.63-4.34 1.63s2.73-2.83 6.1-5.27c1.4-.92 2.21-1.51 3.68-2.73-2.13-.03-3.86.02-3.86.02s3.55-1.92 7.23-3.31c-2.69-.12-5.27-.02-5.27-.02s7.92-3.54 14.17-6.14c4.3-1.76 8.5-1.24 10.86 2.17 3.1 4.47 6.35 6.9 13.25 8.41 4.24-1.88 5.52-2.84 10.84-4.29 4.68-5.15 8.36-5.82 8.36-5.82s-1.82 1.67-2.31 4.3c2.66-2.09 5.57-3.84 5.57-3.84s-1.13 1.39-2.18 3.6l.24.36c3.1-1.86 6.74-3.32 6.74-3.32s-1.04 1.32-2.26 3.02c2.34-.02 7.08.1 8.91.31 10.86.24 13.11-11.6 17.28-13.08 5.22-1.86 7.55-2.99 16.44 5.74 7.63 7.5 13.59 20.91 10.63 23.92-2.48 2.49-7.38-.97-12.8-7.74-2.87-3.58-5.03-7.81-6.05-13.19-.86-4.54-4.19-7.17-4.19-7.17s1.93 4.31 1.93 8.11c0 2.08.26 9.84 3.59 14.19-.33.64-.48 3.15-.85 3.63-3.87-4.68-12.19-8.03-13.54-9.02 4.59 3.76 15.14 12.4 19.19 20.68 3.83 7.83 1.57 15.01 3.51 16.87.55.53 8.24 10.11 9.72 14.93 2.58 8.39.15 17.21-3.22 22.68l-9.43 1.47c-1.38-.38-2.31-.58-3.55-1.29.68-1.21 2.04-4.22 2.05-4.84l-.53-.93c-2.94 4.16-7.85 8.2-11.94 10.52-5.35 3.03-11.51 2.56-15.52 1.32-11.39-3.51-22.16-11.21-24.75-13.23 0 0-.08 1.61.41 1.98 2.87 3.24 9.45 9.1 15.81 13.18l-13.55 1.49 6.41 49.89c-2.84.41-3.28.61-6.39 1.05-2.74-9.68-7.98-16.01-13.71-19.69-5.05-3.25-12.02-3.98-18.7-2.66l-.43.5c4.64-.48 10.12.19 15.74 3.75 5.52 3.49 9.97 12.51 11.61 17.94 2.1 6.94 3.55 14.36-2.1 22.23-4.02 5.59-15.74 8.68-25.22 2 2.53 4.07 5.95 7.4 10.55 8.02 6.84.93 13.33-.26 17.79-4.84 3.81-3.92 5.84-12.12 5.3-20.75l6.03-.87 2.18 15.49 99.88-12.03zm-60.77-42.08c-.28.64-.72 1.05-.06 3.12l.04.12.1.27.27.62c1.19 2.42 2.49 4.71 4.66 5.88.56-.09 1.15-.16 1.75-.19 2.04-.09 3.33.23 4.15.68.07-.41.09-1 .04-1.88-.16-3.07.61-8.29-5.29-11.04-2.23-1.03-5.35-.72-6.39.58.19.02.36.06.49.11 1.59.54.53 1.08.24 1.73m16.54 28.65c-.77-.43-4.39-.26-6.93.04-4.84.57-10.07 2.25-11.22 3.14-2.08 1.61-1.14 4.42.4 5.57 4.32 3.22 8.1 5.39 12.09 4.86 2.45-.32 4.61-4.2 6.14-7.73 1.06-2.42 1.06-5.03-.48-5.88m-42.87-24.85c1.37-1.3-6.8-3-13.14 1.32-4.67 3.19-4.82 10.03-.35 13.9.45.38.82.66 1.16.88 1.31-.62 2.8-1.24 4.51-1.79 2.9-.94 5.3-1.43 7.28-1.68.95-1.06 2.05-2.92 1.77-6.29-.37-4.59-3.84-3.86-1.23-6.34" fill="#FFF"/></svg>