<?xml version="1.0" encoding="UTF-8" standalone="no"?>
<!-- Created with Inkscape (http://www.inkscape.org/) -->

<svg
   xmlns:dc="http://purl.org/dc/elements/1.1/"
   xmlns:cc="http://creativecommons.org/ns#"
   xmlns:rdf="http://www.w3.org/1999/02/22-rdf-syntax-ns#"
   xmlns:svg="http://www.w3.org/2000/svg"
   xmlns="http://www.w3.org/2000/svg"
   xmlns:sodipodi="http://sodipodi.sourceforge.net/DTD/sodipodi-0.dtd"
   xmlns:inkscape="http://www.inkscape.org/namespaces/inkscape"
   id="svg2"
   version="1.1"
   inkscape:version="0.48.5 r10040"
   width="91.867821"
   height="27.439499"
   xml:space="preserve"
   sodipodi:docname="20120921_Expedia_Logos Usage_Rev.pdf"><metadata
     id="metadata8"><rdf:RDF><cc:Work
         rdf:about=""><dc:format>image/svg+xml</dc:format><dc:type
           rdf:resource="http://purl.org/dc/dcmitype/StillImage" /><dc:title></dc:title></cc:Work></rdf:RDF></metadata><defs
     id="defs6"><clipPath
       clipPathUnits="userSpaceOnUse"
       id="clipPath16"><path
         d="m 278.35,382.998 72,0 0,20.358 -72,0 0,-20.358 z"
         id="path18"
         inkscape:connector-curvature="0" /></clipPath><clipPath
       clipPathUnits="userSpaceOnUse"
       id="clipPath80"><path
         d="m 601.067,370.955 52.32,0 0,20.358 -52.32,0 0,-20.358 z"
         id="path82"
         inkscape:connector-curvature="0" /></clipPath><clipPath
       clipPathUnits="userSpaceOnUse"
       id="clipPath144"><path
         d="m 278.4,157.14 16.837,0 0,20.359 -16.837,0 0,-20.359 z"
         id="path146"
         inkscape:connector-curvature="0" /></clipPath><clipPath
       clipPathUnits="userSpaceOnUse"
       id="clipPath516"><path
         d="m 439.621,366.985 52.416,0 0,36.165 -52.416,0 0,-36.165 z"
         id="path518"
         inkscape:connector-curvature="0" /></clipPath><clipPath
       clipPathUnits="userSpaceOnUse"
       id="clipPath654"><path
         d="M 0,0 792,0 792,612 0,612 0,0 z"
         id="path656"
         inkscape:connector-curvature="0" /></clipPath><clipPath
       clipPathUnits="userSpaceOnUse"
       id="clipPath664"><path
         d="M 0,612 792,612 792,0 0,0 0,612 z"
         id="path666"
         inkscape:connector-curvature="0" /></clipPath></defs><sodipodi:namedview
     pagecolor="#FFF"
     bordercolor="#FFF"
     borderopacity="1"
     objecttolerance="10"
     gridtolerance="10"
     guidetolerance="10"
     inkscape:pageopacity="0"
     inkscape:pageshadow="2"
     inkscape:window-width="1920"
     inkscape:window-height="1017"
     id="namedview4"
     showgrid="false"
     fit-margin-top="1"
     fit-margin-left="1"
     fit-margin-bottom="1"
     fit-margin-right="1"
     inkscape:zoom="6.9804842"
     inkscape:cx="72.424167"
     inkscape:cy="33.919588"
     inkscape:window-x="-8"
     inkscape:window-y="-8"
     inkscape:window-maximized="1"
     inkscape:current-layer="g14" /><g
     id="g10"
     inkscape:groupmode="layer"
     inkscape:label="20120921_Expedia_Logos Usage_Rev"
     transform="matrix(1.25,0,0,-1.25,-347.07005,505.1865)"><g
       id="g12"><g
         id="g14"
         clip-path="url(#clipPath16)"><g
           id="g20"
           transform="translate(313.0154,387.4258)"><path
             d="m 0,0 -2.233,0 c -0.01,0 -0.016,0.002 -0.022,0.009 l -1.924,2.35 -1.926,-2.35 C -6.109,0.002 -6.116,0 -6.126,0 l -1.788,0 c -0.011,0 -0.019,0.005 -0.027,0.017 -0.003,0.007 -0.003,0.02 0.004,0.028 l 2.834,3.481 -2.801,3.448 c -0.008,0.012 -0.008,0.022 -0.005,0.033 0.005,0.006 0.016,0.016 0.025,0.016 l 2.234,0 c 0.007,0 0.015,-0.004 0.021,-0.014 l 1.688,-2.092 1.718,2.093 c 0.005,0.009 0.013,0.013 0.021,0.013 l 1.821,0 c 0.011,0 0.022,-0.01 0.026,-0.016 C -0.35,6.996 -0.352,6.984 -0.359,6.974 L -3.018,3.781 0.019,0.045 C 0.027,0.037 0.03,0.024 0.024,0.017 0.019,0.005 0.009,0 0,0"
             style="fill:#FFF;fill-opacity:1;fill-rule:nonzero;stroke:none"
             id="path22"
             inkscape:connector-curvature="0" /></g><g
           id="g24"
           transform="translate(325.1013,393.2106)"><path
             d="m 0,0 c -0.989,0 -1.664,-0.6 -1.857,-1.643 l 3.364,0 0,0.067 C 1.507,-0.741 0.892,0 0,0 M 3.242,-2.713 C 3.237,-2.721 3.227,-2.726 3.218,-2.726 l -5.111,0 c 0.106,-1.19 0.879,-1.868 2.13,-1.868 0.77,0 1.588,0.263 2.744,0.878 0.021,0.012 0.042,-0.006 0.042,-0.028 L 3.021,-5.316 C 3.019,-5.329 3.013,-5.337 3.004,-5.34 1.929,-5.793 0.849,-6.102 0,-6.102 c -2.201,0 -3.796,1.604 -3.796,3.813 0,2.209 1.595,3.813 3.796,3.813 2.008,0 3.298,-1.353 3.298,-3.214 0,-0.301 -0.052,-1.001 -0.056,-1.023"
             style="fill:#FFF;fill-opacity:1;fill-rule:nonzero;stroke:none"
             id="path26"
             inkscape:connector-curvature="0" /></g><g
           id="g28"
           transform="translate(338.7259,395.8986)"><path
             d="m 0,0 c -0.627,0 -1.137,0.502 -1.137,1.12 0,0.636 0.51,1.151 1.137,1.151 0.627,0 1.138,-0.515 1.138,-1.151 C 1.138,0.502 0.627,0 0,0 m -0.918,-8.473 c -0.018,0 -0.029,0.011 -0.029,0.029 l 0,6.965 c 0,0.014 0.01,0.025 0.022,0.028 l 1.846,0 c 0.015,-0.003 0.023,-0.014 0.023,-0.028 l 0,-6.965 c 0,-0.018 -0.012,-0.029 -0.027,-0.029 l -1.835,0 z"
             style="fill:#FFF;fill-opacity:1;fill-rule:nonzero;stroke:none"
             id="path30"
             inkscape:connector-curvature="0" /></g><g
           id="g32"
           transform="translate(316.3916,388.4746)"><path
             d="m 0,0 c -0.333,0 -0.674,0.047 -1.066,0.152 l 0.004,4.468 c 0.459,0.146 0.858,0.215 1.253,0.215 1.28,0 2.139,-0.944 2.139,-2.346 C 2.33,0.977 1.415,0 0,0 m 0.502,6.259 c -0.521,0 -1.047,-0.095 -1.599,-0.285 l -1.837,0 c -0.015,0 -0.026,-0.013 -0.026,-0.029 l 0,-11.422 c 0.555,0.076 1.235,0.274 1.895,0.744 l -0.001,3.474 c 0.453,-0.064 0.827,-0.107 1.188,-0.107 2.516,0 4.144,1.508 4.144,3.843 0,2.226 -1.549,3.782 -3.764,3.782"
             style="fill:#FFF;fill-opacity:1;fill-rule:nonzero;stroke:none"
             id="path34"
             inkscape:connector-curvature="0" /></g><g
           id="g36"
           transform="translate(334.4465,389.053)"><path
             d="m 0,0 c -0.575,-0.302 -1.089,-0.445 -1.572,-0.445 -1.139,0 -1.822,0.805 -1.822,2.153 0,1.56 0.872,2.569 2.22,2.569 0.372,0 0.734,-0.091 1.174,-0.29 L 0,0 z M 0,9.083 0,5.437 c -0.539,0.154 -1.014,0.225 -1.493,0.225 -2.189,0 -3.842,-1.65 -3.842,-3.842 0,-2.182 1.458,-3.764 3.464,-3.764 0.695,0 1.345,0.174 2.11,0.568 L 0.238,-2.005 c 0.505,0.096 1.085,0.298 1.657,0.703 l 0,11.131 C 1.333,9.754 0.667,9.566 0,9.083"
             style="fill:#FFF;fill-opacity:1;fill-rule:nonzero;stroke:none"
             id="path38"
             inkscape:connector-curvature="0" /></g><g
           id="g40"
           transform="translate(346.0656,389.0668)"><path
             d="m 0,0 c -0.556,-0.321 -1.033,-0.475 -1.459,-0.475 -1.22,0 -1.951,0.802 -1.951,2.155 0,1.537 0.861,2.568 2.141,2.568 0.343,0 0.759,-0.131 1.269,-0.401 L 0,0 z m 1.897,5.466 c 0,0.043 -0.037,0.077 -0.079,0.077 L 0.326,5.541 c -0.044,0 -0.081,-0.038 -0.081,-0.08 l 0,-0.254 -0.038,0 c -0.689,0.302 -1.276,0.441 -1.855,0.441 -2.064,0 -3.682,-1.711 -3.682,-3.904 0,-2.217 1.448,-3.703 3.603,-3.703 0.577,0 1.316,0.04 2.008,0.836 l 0,-0.896 c 0.489,0.104 1.066,0.312 1.614,0.706 l 0.002,6.779 z"
             style="fill:#FFF;fill-opacity:1;fill-rule:nonzero;stroke:none"
             id="path42"
             inkscape:connector-curvature="0" /></g><g
           id="g44"
           transform="translate(299.994,389.1686)"><path
             d="M 0,0 4.634,0.002 C 4.564,-0.516 4.389,-1.122 3.987,-1.74 l -3.976,0 -0.792,0 -0.053,0 c -0.59,0 -1.075,0.457 -1.133,1.035 -0.003,0.009 -0.006,0.017 -0.007,0.025 l 0,4.746 0,4.393 c 10e-4,0.007 0.004,0.017 0.007,0.023 0.058,0.579 0.543,1.038 1.133,1.038 0.019,0 0.037,-0.002 0.053,-0.002 L 4.624,9.519 C 4.553,9.002 4.378,8.38 3.977,7.764 l -3.977,0 0,-2.488 3.937,0 c 0.016,0 0.028,-0.011 0.028,-0.027 l 0,-1.726 C 3.965,3.509 3.953,3.496 3.937,3.496 L 0,3.496 0,0.002 0,0 z"
             style="fill:#FFF;fill-opacity:1;fill-rule:nonzero;stroke:none"
             id="path46"
             inkscape:connector-curvature="0" /></g><g
           id="g48"
           transform="translate(294.1932,387.2835)"><path
             d="m 0,0 c -0.458,0 -0.741,0.358 -0.741,0.796 0,0.469 0.324,0.796 0.741,0.796 0.413,0 0.736,-0.327 0.736,-0.796 C 0.736,0.326 0.413,0 0,0 m 0,1.682 c -0.469,0 -0.87,-0.353 -0.87,-0.886 0,-0.504 0.362,-0.883 0.87,-0.883 0.463,0 0.866,0.351 0.866,0.883 0,0.533 -0.403,0.886 -0.866,0.886"
             style="fill:#FFF;fill-opacity:1;fill-rule:nonzero;stroke:none"
             id="path50"
             inkscape:connector-curvature="0" /></g><g
           id="g52"
           transform="translate(293.9853,388.1523)"><path
             d="m 0,0 0,0.323 0.218,0 c 0.11,0 0.24,-0.017 0.24,-0.151 C 0.458,0.013 0.338,0 0.201,0 L 0,0 z m 0.619,0.151 c 0,0.211 -0.13,0.301 -0.382,0.301 l -0.397,0 0,-1.047 0.173,0 0,0.448 0.16,0 0.271,-0.448 0.195,0 -0.294,0.46 c 0.159,0.019 0.274,0.096 0.274,0.286"
             style="fill:#FFF;fill-opacity:1;fill-rule:nonzero;stroke:none"
             id="path54"
             inkscape:connector-curvature="0" /></g><g
           id="g56"
           transform="translate(349.4863,393.2892)"><path
             d="m 0,0 c -0.458,0 -0.743,0.358 -0.743,0.796 0,0.469 0.325,0.796 0.743,0.796 0.412,0 0.736,-0.327 0.736,-0.796 C 0.736,0.326 0.412,0 0,0 m 0,1.682 c -0.469,0 -0.87,-0.353 -0.87,-0.886 0,-0.504 0.361,-0.883 0.87,-0.883 0.462,0 0.864,0.352 0.864,0.883 0,0.533 -0.402,0.886 -0.864,0.886"
             style="fill:#FFF;fill-opacity:1;fill-rule:nonzero;stroke:none"
             id="path58"
             inkscape:connector-curvature="0" /></g><g
           id="g60"
           transform="translate(349.2775,394.1585)"><path
             d="m 0,0 0,0.322 0.218,0 c 0.11,0 0.24,-0.016 0.24,-0.15 C 0.458,0.012 0.337,0 0.202,0 L 0,0 z m 0.619,0.151 c 0,0.211 -0.13,0.301 -0.382,0.301 l -0.397,0 0,-1.047 0.171,0 0,0.447 0.162,0 0.271,-0.447 0.194,0 -0.293,0.46 c 0.158,0.018 0.274,0.096 0.274,0.286"
             style="fill:#FFF;fill-opacity:1;fill-rule:nonzero;stroke:none"
             id="path62"
             inkscape:connector-curvature="0" /></g><g
           id="g64"
           transform="translate(288.2157,396.9411)"><path
             d="M 0,0 -0.336,0.951 -3.186,4.76 -2.674,4.887 2.24,0.639 5.132,1.466 C 5.472,1.554 5.858,1.573 6.152,1.571 5.243,3.531 3.58,5.14 1.384,5.922 -2.957,7.469 -7.73,5.201 -9.274,0.858 -9.752,-0.485 -9.866,-1.871 -9.665,-3.189 L -2.737,-0.782 0,0 z"
             style="fill:#FFF;fill-opacity:1;fill-rule:nonzero;stroke:none"
             id="path66"
             inkscape:connector-curvature="0" /></g><g
           id="g68"
           transform="translate(294.6721,397.7614)"><path
             d="m 0,0 c -0.254,-0.165 -0.627,-0.381 -0.997,-0.5 l -2.898,-0.827 -1.934,-6.208 -0.502,-0.163 0.408,4.741 -0.228,0.985 -2.716,-0.775 -7.178,-1.69 c 0.568,-2.763 2.524,-5.169 5.375,-6.185 4.342,-1.547 9.113,0.722 10.657,5.062 C 0.653,-3.689 0.61,-1.737 0,0"
             style="fill:#FFF;fill-opacity:1;fill-rule:nonzero;stroke:none"
             id="path70"
             inkscape:connector-curvature="0" /></g><g
           id="g72"
           transform="translate(288.5209,395.7888)"><path
             d="m 0,0 0.229,-0.984 -0.409,-4.741 0.502,0.163 1.934,6.207 2.898,0.827 c 0.37,0.119 0.743,0.337 0.997,0.5 C 6.062,2.227 5.96,2.478 5.847,2.723 5.553,2.725 5.167,2.705 4.827,2.619 L 1.935,1.79 -2.98,6.04 -3.491,5.912 -0.642,2.103 -0.305,1.153 -3.043,0.369 -9.97,-2.036 c 0.022,-0.144 0.047,-0.287 0.076,-0.429 l 7.179,1.69 L 0,0 z"
             style="fill:#000;fill-opacity:1;fill-rule:nonzero;stroke:none"
             id="path74"
             inkscape:connector-curvature="0" /></g></g></g></g></svg>