<?xml version="1.0" ?><!DOCTYPE svg  PUBLIC '-//W3C//DTD SVG 1.1//EN'  'http://www.w3.org/Graphics/SVG/1.1/DTD/svg11.dtd'><svg height="512px" style="enable-background:new 0 0 512 512;" version="1.1" viewBox="0 0 512 512" width="512px" xml:space="preserve" xmlns="http://www.w3.org/2000/svg" xmlns:xlink="http://www.w3.org/1999/xlink"><g id="_x31_68-hubspot"><g><path d="M266.197,216.109c-22.551,21.293-36.655,51.48-36.655,84.991c0,26.326,8.714,50.582,23.359,70.08    l-44.473,44.74c-3.953-1.438-8.176-2.245-12.579-2.245c-9.702,0-18.776,3.774-25.605,10.602    c-6.828,6.827-10.602,15.989-10.602,25.696c0,9.701,3.773,18.775,10.602,25.605c6.829,6.826,15.993,10.42,25.605,10.42    c9.703,0,18.777-3.505,25.695-10.42c6.829-6.83,10.602-15.994,10.602-25.605c0-3.774-0.538-7.369-1.707-10.873l44.923-45.102    c19.765,15.183,44.381,24.169,71.244,24.169c64.599,0,116.797-52.38,116.797-116.977c0-58.578-42.854-107.093-99.007-115.628    v-55.343c15.723-6.65,25.335-21.384,25.335-38.545c0-23.449-18.777-43.034-42.227-43.034c-23.448,0-41.956,19.585-41.956,43.034    c0,17.161,9.613,31.895,25.335,38.545v54.983c-13.655,1.887-26.593,6.019-38.362,12.219    c-24.796-18.778-105.565-76.997-151.746-112.126c1.078-3.953,1.798-8.085,1.798-12.397c0-25.875-21.113-46.898-47.078-46.898    c-25.875,0-46.898,21.023-46.898,46.898c0,25.965,21.023,46.988,46.898,46.988c8.805,0,16.98-2.606,24.078-6.828L266.197,216.109z     M346.606,363.095c-34.229,0-61.991-27.763-61.991-61.994c0-34.229,27.762-61.99,61.991-61.99c34.23,0,61.992,27.761,61.992,61.99    C408.599,335.332,380.837,363.095,346.606,363.095z" style="fill:#FF7A59;"/></g></g><g id="Layer_1"/></svg>