<svg width="98" height="21" xmlns="http://www.w3.org/2000/svg"><path d="M9.912.78H4.144v.467h1.87v9.509c0 2.884-.779 3.663-2.571 3.663-1.091 0-1.325-.857-1.325-1.247 0-1.013-.078-1.714-1.014-1.714-.935 0-1.09.935-1.09 1.247 0 1.325.623 2.338 3.195 2.338 3.118 0 4.754-1.013 4.754-4.52V1.246h1.871V.78h.078zm.78 12.08c-.312 0-.624.08-.78.312-.234.234-.312.468-.312.78 0 .31.078.545.312.78.234.233.468.31.78.31.311 0 .545-.078.779-.31.234-.234.312-.47.312-.78 0-.312-.078-.546-.312-.78-.234-.234-.468-.312-.78-.312zm12.782 0c-.312 0-.546.08-.78.312-.233.234-.311.468-.311.78 0 .31.078.545.311.78.234.233.468.31.78.31s.623-.078.78-.31c.233-.235.311-.47.311-.78 0-.312-.078-.546-.312-.78-.234-.234-.467-.312-.78-.312zM19.42.78h-5.612v.467h1.637V12.16c0 .857-.078 1.09-.156 1.324-.078.313-.312.469-.702.625-.233.078-.623.155-1.169.155v.468h6.08v-.468c-.546 0-.935-.077-1.17-.155-.389-.156-.623-.39-.7-.624a2.406 2.406 0 0 1-.157-.857V8.885h1.481c4.365 0 5.612-1.714 5.612-4.053 0-2.416-.701-4.053-5.144-4.053zm-.78 7.56h-1.169V1.325h1.014c3.351 0 4.13 1.403 4.13 3.585 0 2.26-1.324 3.43-3.975 3.43zm23.929 5.066a2.907 2.907 0 0 1-.156-.935V1.247h1.48V.78H40.31c-.078.156-4.286 10.6-4.286 10.6l-.078.079c-.078 0-.078 0-.078-.078 0 0-4.52-10.523-4.52-10.601H27.37v.468h1.715v11.847c0 .235-.078.469-.234.702-.156.234-.39.39-.624.467-.156.08-.467.08-.78.08v.466h3.898v-.468c-.312 0-.468-.078-.701-.078-.312-.078-.468-.234-.624-.468-.156-.156-.234-.39-.234-.701l-.078-1.014V2.727h.234s5.066 11.847 5.144 12.003h.39l4.832-11.924h.156v9.665c0 .39-.078.701-.156 1.013-.078.312-.311.468-.623.624a3.057 3.057 0 0 1-1.013.155v.468h5.456v-.468a3.06 3.06 0 0 1-1.014-.155c-.233-.156-.467-.39-.545-.702zm7.404-8.885c-2.962 0-4.754 1.948-4.754 5.3 0 4.988 3.897 5.3 4.676 5.3 1.637 0 4.755-1.013 4.755-5.377 0-3.43-2.027-5.223-4.677-5.223zm-.078 9.976c-2.182 0-2.572-1.09-2.572-4.598 0-2.728.156-4.755 2.572-4.755 2.572 0 2.572 2.104 2.572 4.598 0 3.508-.623 4.755-2.572 4.755zm12.394-9.82c-1.716 0-2.338 1.013-2.807 2.104h-.156s-.233-1.559-.311-1.949h-3.43v.546h1.87v6.859c0 .701-.077 1.17-.232 1.48-.157.313-.625.546-1.326.546h-.312v.624h5.768v-.624h-.312c-.78 0-1.09-.155-1.248-.467-.155-.312-.233-.78-.233-1.481V8.574c0-1.17.935-2.572 2.027-2.572 1.169 0 1.09 1.714 2.416 1.013.624-.39.468-2.338-1.714-2.338zm22.68 9.04c-.624 0-.779-.31-.857-.934V7.327c0-.936-.157-1.481-.701-2.028-.546-.545-1.56-.78-3.04-.78-1.403 0-2.416.235-3.118.78-.623.469-.934.936-.934 1.638 0 .31.078.545.233.623.156.156.39.234.623.234.545 0 .858-.31 1.013-1.013.08-.546.234-.857.469-1.17.31-.31.78-.467 1.324-.467.702 0 1.247.155 1.481.545.234.39.39.858.39 1.48v1.638c-1.794.156-6.158.545-5.924 3.819.078 1.247 1.17 2.416 2.65 2.416 1.637 0 2.649-.934 3.35-1.637.079.702.78 1.56 1.95 1.56 1.324 0 2.104-.624 2.183-2.261h-.312c0 .624-.39 1.014-.78 1.014zm-2.961-1.09v.078l-.078.078c-.935.858-1.714 1.17-2.26 1.17-1.403 0-1.637-1.17-1.637-1.715 0-1.87 2.572-2.806 3.975-2.806v3.195zm14.653 1.013c-.156-.311-.39-.78-.39-1.48V7.638c0-.623-.078-1.247-.312-1.636-.234-.468-.623-.78-1.013-1.014-.468-.234-.935-.311-1.48-.311-2.027 0-2.807 1.247-3.274 1.948h-.156l-.39-1.793h-3.118v.546h1.56v6.859c0 .546-.079.935-.157 1.17-.079.31-.31.545-.545.623-.156.078-.468.156-.858.156v.623h4.91v-.623c-.468-.078-.858-.156-1.013-.39-.156-.234-.311-.702-.311-1.403v-2.65c0-1.09 0-2.183.39-2.806.389-.702 1.168-1.091 1.948-1.091s1.169.234 1.404.701c.233.39.31 1.559.31 2.338v3.274c0 .545.08.935 0 1.17-.077.31-.155.545-.39.7-.155.157-.468.157-.779.234v.624h4.756v-.624c-.547-.233-.936-.39-1.092-.623zM74.37 4.053c-.312.078-.468.39-.624.78-.078.39-.234.623-.468.7-.234.079-.467.079-.701-.077-.545-.468-1.481-1.013-3.196-1.013-2.806 0-3.975 1.948-3.975 3.74 0 2.105.78 3.119 2.571 3.508.079 0 .079.156 0 .156-1.48.312-2.883.78-2.883 2.183 0 .858.468 1.325 1.17 1.637.7.311 1.713.468 2.961.468 1.09 0 1.87.078 2.338.078a3.35 3.35 0 0 1 1.325.468c.312.234.468.624.468 1.09 0 .702-.39 1.17-1.091 1.638-.7.39-1.56.546-2.728.546-.935 0-1.792-.079-2.494-.546-.545-.312-.624-.935-.545-1.403.079-.468-.079-.935-.624-1.091a.784.784 0 0 0-.857.39c-.157.232-.235.544-.235.934 0 1.169.936 1.714 1.637 1.948 1.091.311 1.794.39 2.728.39 1.326 0 2.338-.234 3.118-.546.78-.39 1.248-.857 1.559-1.403.311-.545.468-1.091.468-1.637 0-.701-.157-1.325-.468-1.714-1.013-1.325-2.417-1.17-5.534-1.325-1.481 0-1.793-.312-1.793-.78 0-.701.546-.935 2.728-1.325 2.182-.312 4.208-1.169 4.208-3.741 0-.78-.155-1.403-.39-1.87.469.077.859.077 1.248 0 .469-.156.701-.39.858-.624.156-.312.233-.624.078-.858.078-.623-.312-.857-.857-.701zm-4.91 7.327c-1.324 0-2.027-.469-2.027-3.118 0-1.87.624-3.274 2.027-3.274 1.637 0 2.104 1.247 2.104 3.196 0 2.806-.857 3.196-2.104 3.196z" fill="#FFF"/></svg>