<svg width="77" height="78" viewBox="0 0 77 78" fill="none" xmlns="http://www.w3.org/2000/svg">
<path d="M0.883301 6.24518C0.883301 3.22945 3.39001 0.783246 6.48236 0.783246H71.0515C74.1438 0.783246 76.6506 3.22945 76.6506 6.24518V71.5693C76.6506 74.5861 74.1438 77.0312 71.0515 77.0312H6.48236C3.39001 77.0312 0.883301 74.5861 0.883301 71.5693V6.24518Z" fill="#006699"/>
<path fill-rule="evenodd" clip-rule="evenodd" d="M23.8507 64.6108V30.1806H12.4067V64.6108H23.8507ZM18.1287 25.4797C22.1194 25.4797 24.6033 22.8359 24.6033 19.5318C24.5289 16.1534 22.1194 13.5829 18.2044 13.5829C14.2897 13.5829 11.7302 16.1534 11.7302 19.5318C11.7302 22.8359 14.2136 25.4797 18.0541 25.4797H18.1287Z" fill="white"/>
<path fill-rule="evenodd" clip-rule="evenodd" d="M30.1831 64.6108H41.627V45.3835C41.627 44.3545 41.7013 43.3265 42.0035 42.5909C42.8308 40.5349 44.7138 38.4056 47.8752 38.4056C52.0163 38.4056 53.6728 41.5629 53.6728 46.1915V64.6108H65.1157V44.869C65.1157 34.2936 59.4699 29.3727 51.9407 29.3727C45.767 29.3727 43.0567 32.8234 41.5509 35.1739H41.6273V30.1806H30.1834C30.3336 33.4113 30.1831 64.6108 30.1831 64.6108Z" fill="white"/>
</svg>
