<?xml version="1.0" encoding="UTF-8" standalone="no"?>
<svg width="199px" height="141px" viewBox="0 0 199 141" version="1.1" xmlns="http://www.w3.org/2000/svg" xmlns:xlink="http://www.w3.org/1999/xlink" xmlns:sketch="http://www.bohemiancoding.com/sketch/ns">
    <!-- Generator: Sketch 3.2.2 (9983) - http://www.bohemiancoding.com/sketch -->
    <title>logo_standard</title>
    <desc>Created with Sketch.</desc>
    <defs></defs>
    <g id="Page-1" stroke="none" stroke-width="1" fill="none" fill-rule="evenodd" sketch:type="MSPage">
        <g id="logos" sketch:type="MSArtboardGroup" transform="translate(-112.000000, -79.000000)" fill="#EA0B8C">
            <path d="M112.746,82.343 L142.806,82.343 L142.806,163.017 C142.806,175.784 148.646,183.389 153.264,186.649 C148.375,190.995 133.435,194.798 122.298,185.562 C115.732,180.118 112.746,171.166 112.746,162.745 L112.746,82.343 Z M300.609,149.357 L300.609,140.879 L309.777,140.879 L309.777,111.136 L299.709,111.136 C295.844,93.279 279.946,79.898 260.933,79.898 C239.03,79.898 221.275,97.654 221.275,119.556 L221.275,189.015 C227.515,189.892 234.949,188.906 241.274,183.661 C247.839,178.216 250.825,169.265 250.825,160.844 L250.825,158.285 L265.838,158.285 L265.838,128.542 L250.825,128.542 L250.825,119.556 L250.861,119.556 C250.861,113.994 255.37,109.485 260.933,109.485 C266.495,109.485 271.022,113.994 271.022,119.556 L271.022,149.357 C271.022,171.259 288.796,189.015 310.698,189.015 L310.698,159.428 C305.136,159.428 300.609,154.919 300.609,149.357 Z M186.761,111.136 L186.761,154.787 C186.761,157.265 184.705,159.274 182.168,159.274 C179.631,159.274 177.575,157.265 177.575,154.787 L177.575,111.136 L147.831,111.136 L147.831,162.474 C147.831,171.709 150.963,183.389 165.216,187.192 C179.484,190.999 187.761,183.118 187.761,183.118 C187.007,188.31 182.117,192.113 174.24,192.928 C168.28,193.544 160.658,191.57 156.856,189.94 L156.856,217.139 C166.544,219.996 176.791,220.919 186.819,218.973 C205.018,215.442 216.504,200.231 216.504,179.994 L216.504,111.136 L186.761,111.136 Z" id="logo_standard" sketch:type="MSShapeGroup"></path>
        </g>
    </g>
</svg>