<?xml version="1.0" encoding="UTF-8"?>
<svg width="1341px" height="333px" viewBox="0 0 1341 333" version="1.1" xmlns="http://www.w3.org/2000/svg" xmlns:xlink="http://www.w3.org/1999/xlink">
    <!-- Generator: Sketch 41.2 (35397) - http://www.bohemiancoding.com/sketch -->
    <title>Group</title>
    <desc>Created with Sketch.</desc>
    <defs>
        <polygon id="path-1" points="396.96 0.023 0.290562495 0.023 0.290562495 161.158 396.96 161.158"></polygon>
    </defs>
    <g id="Page-1" stroke="none" stroke-width="1" fill="none" fill-rule="evenodd">
        <g id="Group">
            <polyline id="Fill-1" fill="#FFF" points="380.852 161.964 380.851 161.958 380.851 161.964 380.852 161.964"></polyline>
            <path d="M1255.88,210.172 L1255.67,209.794 L1255.26,208.49 L1255.45,208.095 C1268.39,181.447 1283.21,166.164 1296.11,166.164 L1296.24,166.164 C1310.8,166.277 1320.88,179.377 1320.73,198.023 C1320.64,210.47 1315.15,217.636 1310.57,221.453 C1305.35,225.81 1298.38,228.306 1291.47,228.306 C1274.42,228.177 1262.72,218.375 1255.88,210.172 Z M1252.35,310.792 C1250.27,313.562 1247.37,314.965 1243.74,314.965 C1239.57,314.933 1236.44,313.474 1234.31,310.632 C1228.35,302.656 1230.03,283.918 1239.76,249.884 C1240.92,245.826 1242.19,241.74 1243.52,237.738 L1244.65,234.343 L1245.65,237.781 C1256.99,277.054 1259.25,301.619 1252.35,310.792 Z M835.33,129.865 C835.711,121.382 836.422,113.123 837.438,105.316 C844.005,54.992 857.725,19.845 870.803,19.845 L870.86,19.845 C877.092,19.892 880.215,24.607 880.146,33.855 C879.972,56.577 865.576,89.107 837.36,130.542 L835.152,133.786 L835.33,129.865 Z M1292.94,244.656 L1293.4,244.659 C1320.86,244.659 1340.19,225.638 1340.4,198.404 C1340.5,184.923 1336.61,172.585 1329.43,163.664 C1321.84,154.226 1311.22,149.189 1298.71,149.093 L1298.45,149.091 C1281.57,149.091 1265.89,161.906 1250.52,188.269 L1249.29,190.367 L1248.51,188.068 C1244.63,176.769 1241.17,167.357 1239.1,161.734 C1237.66,157.802 1237.01,156.039 1236.86,155.47 C1236.13,152.615 1233.69,150.845 1230.49,150.845 C1228.53,150.845 1226.44,151.511 1224.46,152.767 C1222.51,154.011 1221.41,155.538 1221.02,157.57 L1220.92,157.873 C1205.54,205.853 1192.85,229.156 1182.11,229.158 C1180.55,229.146 1179.32,228.629 1178.41,227.622 C1175.6,224.507 1176.29,217.107 1177.24,206.863 C1177.95,199.343 1178.74,190.82 1178.41,181.779 C1177.78,164.406 1168.27,153.964 1152.98,153.847 C1133.55,153.845 1120.96,174.533 1115.16,186.865 L1113.43,190.546 L1113.05,186.496 C1111.6,171.23 1106.48,153.003 1090.3,152.88 C1071.44,152.88 1057.07,175.021 1048.3,193.597 L1045.95,198.576 L1046.18,193.076 C1047.23,168.295 1048.09,153.672 1048.73,149.611 C1049.37,145.543 1049.03,142.808 1047.7,141.248 C1046.44,139.777 1044.06,139.236 1040.57,139.458 C1034.53,139.84 1031.44,143.513 1026.8,155.835 C1019.16,176.074 999.734,223.148 984.222,223.148 C981.146,223.126 978.709,222.076 976.925,220.033 C970.418,212.57 973.02,192.415 976.621,164.517 L976.893,162.408 C978.595,149.199 975.688,146.381 968.52,145.06 C967.746,144.917 967.014,144.845 966.34,144.845 C960.61,144.845 957.93,150.332 952.578,165.578 C943.057,192.712 930.816,221.253 916.49,221.253 C915.967,221.253 915.445,221.21 914.924,221.123 C907.335,219.836 907.5,208.574 907.711,194.316 C907.824,186.603 907.953,177.863 906.762,169.968 C904.623,155.806 896.278,146.957 884.982,146.87 C862.43,146.867 847.224,175.746 840.151,192.957 L838.548,196.853 L838.016,192.674 C837.067,185.212 835.819,173.381 835.274,159.39 L835.258,158.978 L835.515,158.654 C877.716,105.533 896.65,67.199 896.902,34.355 C897.063,13.371 887.383,0.769 871.008,0.642 C859.039,0.642 830.564,10.615 820.672,102.998 C818.837,120.128 817.828,137.693 817.677,155.206 L817.674,155.546 L817.479,155.827 C798.176,183.773 756.968,231.841 716.625,231.841 C680.176,231.841 651.094,202.355 651.094,150.3 C651.094,80.519 700.491,37.675 737.659,37.675 L737.964,37.677 C746.042,37.738 752.968,39.995 757.997,44.202 C763.217,48.57 765.946,54.693 765.89,61.906 C765.819,71.541 762.683,76.49 759.649,81.275 C758.87,82.506 758.093,83.73 757.382,85.027 C756.665,86.333 756.011,88.234 756.964,89.861 C757.941,91.525 760.435,92.572 763.476,92.595 C772.326,92.595 785.705,79.789 785.853,60.49 C786.007,40.292 768.992,19.48 738.636,19.48 C692.701,19.48 630.84,69.945 630.84,151.732 C630.84,209.586 667.111,249.572 716.248,249.572 C751.12,249.572 785.613,224.609 816.157,182.908 L818.028,180.377 L818.162,183.523 C818.809,198.781 819.919,210.814 820.729,219.597 C821.25,225.244 821.628,229.322 821.612,231.572 C821.573,236.506 822.379,239.924 824.078,242.025 C825.778,244.129 828.477,245.125 832.571,245.156 C839.432,245.156 840.803,240.474 843.52,228.943 L844.302,225.648 C847.677,211.664 860.147,166.029 878.906,166.029 C881.968,166.052 884.328,166.966 886.007,168.746 C890.152,173.14 889.699,182.154 889.173,192.595 C888.845,199.111 888.506,205.845 889.161,212.402 C890.927,230.101 898.57,238.757 912.528,238.863 C926.863,238.865 941.817,223.429 949.705,209.083 L951.197,206.373 L951.775,209.412 C953.233,217.087 959.748,242.292 980.146,242.292 C998.635,242.292 1014.49,222.82 1031.88,182.759 L1034.15,177.523 L1034.01,183.23 C1033.64,198.414 1032.82,216.954 1032.81,231.289 C1032.81,242.373 1033.93,246.605 1039.05,246.605 C1039.41,246.605 1039.8,246.662 1040.21,246.662 C1045.13,246.662 1048.47,243.72 1050.13,237.92 C1063.21,192.331 1074.51,171.099 1085.71,171.099 C1096.68,171.181 1097.71,191.236 1098.59,226.672 L1098.65,229.154 C1098.92,241.55 1099.36,247.031 1107.06,247.091 C1112.9,247.091 1114.36,242.505 1117.38,231.205 C1117.95,229.044 1118.59,226.683 1119.32,224.134 C1129.88,187.488 1138.64,172.54 1149.54,172.54 C1158.87,172.613 1159.39,182.232 1159.56,185.394 C1159.92,192.166 1159.22,199.248 1158.55,206.095 C1157.92,212.454 1157.28,219.025 1157.52,225.152 C1158.09,239.484 1165.94,247.433 1179.62,247.539 C1197.38,247.54 1213.4,226.779 1227.44,185.832 L1228.41,182.98 L1229.52,185.785 C1232.07,192.212 1235.39,200.925 1238.46,211.32 L1238.58,211.716 L1238.41,212.093 C1224.82,242.271 1215.23,275.888 1215.09,293.841 C1214.91,317.498 1225.62,332.87 1242.36,332.998 L1242.65,333 C1251.76,333 1273,329.345 1273.41,295.493 C1273.57,281.619 1270.3,261.999 1263.67,237.179 L1262.91,234.338 L1265.36,235.964 C1273.82,241.577 1283.35,244.582 1292.94,244.656 L1292.94,244.656 Z" id="Fill-2" fill="#FFF"></path>
            <g id="Group-6" transform="translate(0.000000, 19.000000)" fill="#FFF">
                <polyline id="Fill-3" points="1296.11 148.288 1296.11 148.279 1296.11 148.288"></polyline>
                <path d="M398.73,156.179 C392.753,180.234 381.293,209.253 360.63,210.914 C360.053,210.957 359.491,210.984 358.947,210.984 C350.378,210.984 345.572,205.373 344.664,194.306 C343.528,180.454 349.5,164.228 359.876,152.966 C366.483,145.794 373.933,141.845 380.851,141.845 L380.992,141.845 C389.732,141.914 395.856,148.929 398.673,155.47 L398.821,155.814 L398.73,156.179 Z M588.203,21.697 L588.496,21.691 C590.446,21.691 592.157,22.669 593.585,24.601 C600.365,33.769 600.465,67.226 588.805,105.296 C582.14,127.052 573.18,147.605 562.892,164.73 L561.251,167.458 L560.834,164.3 C559.623,155.097 559.027,145.511 558.605,137.349 C555.629,79.808 573.036,22.486 588.203,21.697 Z M430.85,221.254 C450.816,219.65 466.658,192.498 472.542,180.898 L474.059,177.906 L474.631,181.211 C477.453,197.535 486.33,224.952 514.102,225.164 L514.332,225.167 C526.344,225.167 539.972,217.822 553.742,203.925 L554.753,202.904 L555.488,204.136 C564.759,219.64 577.197,227.878 590.434,227.201 C609.93,226.191 621.759,212.371 622.802,202.781 C623.07,200.335 622.42,198.038 621.025,196.48 C619.271,194.523 616.726,194.302 614.853,196.087 L613.966,196.933 C609.425,201.294 600.97,209.411 591.759,209.888 C580.479,210.445 572.138,203.697 566.745,189.779 L566.521,189.197 L566.9,188.702 C597.916,148.13 619.687,86.224 617.537,44.706 C616.547,25.488 610.957,2.579 589.973,2.579 C589.458,2.579 588.937,2.593 588.407,2.621 C580.367,3.036 573.056,6.867 566.676,14.005 C547.203,35.789 537.012,89.414 540.711,150.621 C541.479,163.338 543.687,175.218 547.275,185.931 L547.475,186.529 L547.066,187.009 C535.556,200.46 524.199,207.872 515.088,207.872 C493.16,207.872 493.901,171.113 495.634,140.62 C496.008,134.047 496.565,129.861 494.62,127.48 C493.228,125.775 490.904,124.935 487.515,124.908 L487.118,124.906 C479.32,124.906 477.689,126.509 473.693,138.087 C465.389,162.148 448.995,202.513 432.504,202.513 C427.932,202.478 424.443,200.913 422.057,197.869 C414.057,187.656 420.131,162.191 425.01,141.724 C425.888,138.043 426.73,134.511 427.45,131.244 C428.52,126.39 428.192,122.847 426.474,120.708 C424.759,118.574 421.324,117.705 416.789,118.066 C409.727,118.63 405.211,121.586 403.031,135.017 L402.594,137.812 L400.951,135.824 C397.868,131.271 391.852,125.843 380.691,125.843 C379.711,125.843 378.7,125.881 377.654,125.968 C365.74,126.947 352.174,135.244 342.248,147.631 C330.656,162.095 325.12,180.4 326.661,199.173 C326.743,200.166 326.886,201.119 327.029,202.07 L327.11,202.595 L326.748,202.99 C319.814,210.545 312.748,214.377 305.748,214.379 C294.944,214.294 288.744,206.261 288.744,192.886 C288.744,170.372 304.002,102.498 304.002,77.927 C304.002,51.779 292.349,37.54 272.116,37.386 L271.811,37.384 C242.269,37.384 219.237,70.912 197.204,139.886 C195.185,146.206 192.99,153.503 191.108,159.81 L188.015,170.181 L188.933,159.398 C190.979,135.371 192.385,111.994 193.112,89.914 C194.208,56.578 189.702,35.125 179.334,24.328 C173.742,18.504 166.341,15.638 156.706,15.564 L156.45,15.564 C120.296,15.564 102.976,76.537 90.366,119.564 C86.56,132.55 79.054,161.845 74.047,181.874 L77.014,177.05 C79.24,151.831 85.682,88.661 85.259,54.392 C84.806,17.627 72.563,1.142 45.561,0.935 L45.228,0.935 C30.806,0.935 20.799,8.105 14.943,14.12 C5.546,23.771 -0.314,37.877 0.013,50.058 C0.211,57.463 4.756,64.054 8.2,64.054 C10.445,64.054 11.686,61.06 12.226,59.277 C20.58,31.66 31.388,18.234 45.267,18.234 C51.024,18.279 55.303,19.974 58.512,23.417 C69.352,35.047 67.381,66.449 63.804,123.456 C62.651,141.828 61.345,162.646 60.241,186.326 C60.052,190.386 59.799,194.314 59.559,198.041 C58.504,214.49 57.669,227.482 63.906,228.447 C72.02,229.712 77.303,226.419 80.003,218.386 C84.012,206.466 93.002,173.896 110.397,114.37 C127.087,57.251 139.697,36.468 155.831,36.468 C174.469,36.468 175.859,68.472 172.441,136.004 C171.716,150.318 170.74,166.536 169.993,184.187 C169.888,186.664 169.77,189.068 169.656,191.384 C168.939,205.991 168.372,217.529 172.545,221.947 C173.847,223.322 175.619,224.003 177.963,224.019 C186.042,224.019 188.471,216.933 192.495,205.193 C193.207,203.117 193.963,200.908 194.804,198.587 C222.491,122.216 242.961,55.954 270.437,55.954 C278.681,55.954 285.088,62.648 285.088,75.704 C285.088,105.838 270.356,164.072 270.356,193.591 C270.356,204.164 273.399,213.665 279.152,220.336 C285.055,227.183 293.314,230.84 303.035,230.915 L303.248,230.915 C312.441,230.915 322.021,226.447 331.725,217.64 L332.634,216.814 L333.366,217.798 C339.755,226.396 350.066,231.009 361.198,230.148 C378.274,228.82 392.603,213.613 397.932,199.279 L398.975,196.472 L400.018,199.279 C403.97,209.918 412.539,222.742 430.85,221.254 L430.85,221.254 Z" id="Fill-5"></path>
            </g>
            <polyline id="Fill-7" fill="#FFF" points="870.804 20.961 870.804 20.957 870.804 20.961"></polyline>
            <path d="M494.568,87.023 C486.94,87.023 480.777,93.033 480.721,100.419 C480.662,107.861 486.782,113.961 494.36,114.021 L494.469,115.127 L494.469,114.021 C501.987,114.021 508.148,108.015 508.204,100.63 C508.262,93.185 502.144,87.082 494.568,87.023" id="Fill-8" fill="#FFF"></path>
            <g id="Group-12" transform="translate(960.000000, 87.000000)">
                <mask id="mask-2" fill="white">
                    <use xlink:href="#path-1"></use>
                </mask>
                <g id="Clip-10"></g>
                <path d="M14.136,0.023 C6.509,0.023 0.347,6.033 0.291,13.419 C0.231,20.861 6.35,26.961 13.93,27.021 L14.037,28.127 L14.037,27.021 C21.556,27.021 27.717,21.015 27.773,13.63 C27.83,6.185 21.714,0.082 14.136,0.023" id="Fill-9" fill="#FFF" mask="url(#mask-2)"></path>
            </g>
        </g>
    </g>
</svg>