<svg width="112" height="24" viewBox="0 0 112 24" xmlns="http://www.w3.org/2000/svg"><path d="M0 2.19906C0 0.984555 0.984555 0 2.19907 0H10.8009C12.0154 0 13 0.984555 13 2.19907V3.90047C13 4.50772 12.5077 5 11.9005 5H1.09953C0.492278 5 0 4.50772 0 3.90047V2.19906Z" fill="#fff"></path><path d="M0 9.09953C0 8.49228 0.492278 8 1.09953 8H21.8009C23.0154 8 24 8.98456 24 10.1991V15.9005C24 16.5077 23.5077 17 22.9005 17H2.19907C0.984556 17 0 16.0154 0 14.8009V9.09953Z" fill="#fff"></path><path d="M11 21.0995C11 20.4923 11.4923 20 12.0995 20H22.9005C23.5077 20 24 20.4923 24 21.0995V21.8009C24 23.0154 23.0154 24 21.8009 24H13.1991C11.9846 24 11 23.0154 11 21.8009V21.0995Z" fill="#fff"></path><path d="M37.5956 14.741H39.9071L44.1999 21.7581H49.4559L44.6953 14.2456C47.337 13.3375 48.878 11.3012 48.878 8.35672C48.878 4.22898 45.9886 2 41.338 2H33V21.7581H37.5956V14.741ZM37.5956 10.9985V5.88008H41.0904C43.2643 5.88008 44.365 6.8157 44.365 8.43928C44.365 10.0353 43.2643 10.9985 41.0904 10.9985H37.5956Z" fill="#fff"></path><path d="M57.3631 22.0608C60.2525 22.0608 62.8943 20.6024 63.9675 17.823L60.2801 16.6397C59.8673 17.9056 58.7941 18.566 57.4182 18.566C55.7395 18.566 54.5563 17.4378 54.2536 15.4564H64.0776V14.3007C64.0776 10.2004 61.6835 6.95329 57.2806 6.95329C53.0978 6.95329 50.0157 10.2004 50.0157 14.4933C50.0157 19.0063 52.9877 22.0608 57.3631 22.0608ZM57.2255 10.3656C58.8491 10.3656 59.7022 11.4663 59.7297 12.7596H54.3912C54.8314 11.1636 55.8771 10.3656 57.2255 10.3656Z" fill="#fff"></path><path d="M66.5732 17.878C66.5732 20.85 68.1417 21.8957 71.2788 21.8957C72.3245 21.8957 73.15 21.8132 73.9205 21.7031V18.0982C73.4252 18.1532 73.1775 18.1807 72.6547 18.1807C71.554 18.1807 70.921 17.9606 70.921 16.7498V10.8884H73.7554V7.25599H70.921V3.23832H66.5732V7.25599H64.7294V10.8884H66.5732V17.878Z" fill="#fff"></path><path d="M89.6719 14.5208C89.6719 10.0078 86.6725 6.95329 82.4071 6.95329C78.1143 6.95329 75.1423 10.0078 75.1423 14.5208C75.1423 19.0338 78.1143 22.0608 82.4071 22.0608C86.6725 22.0608 89.6719 19.0338 89.6719 14.5208ZM79.5177 14.5208C79.5177 11.9891 80.646 10.5582 82.4071 10.5582C84.1683 10.5582 85.2965 11.9891 85.2965 14.5208C85.2965 17.0525 84.1683 18.4834 82.4071 18.4834C80.646 18.4834 79.5177 17.0525 79.5177 14.5208Z" fill="#fff"></path><path d="M105.527 14.5208C105.527 10.0078 102.528 6.95329 98.2624 6.95329C93.9695 6.95329 90.9975 10.0078 90.9975 14.5208C90.9975 19.0338 93.9695 22.0608 98.2624 22.0608C102.528 22.0608 105.527 19.0338 105.527 14.5208ZM95.373 14.5208C95.373 11.9891 96.5012 10.5582 98.2624 10.5582C100.024 10.5582 101.152 11.9891 101.152 14.5208C101.152 17.0525 100.024 18.4834 98.2624 18.4834C96.5012 18.4834 95.373 17.0525 95.373 14.5208Z" fill="#fff"></path><path d="M112 2H107.597V21.7581H112V2Z" fill="#fff"></path></svg>