<svg enable-background="new 0 0 1024 1024" viewBox="0 0 1024 1024" xmlns="http://www.w3.org/2000/svg"><circle cx="512" cy="512" fill="#00c805" r="512"/><path d="m481.2 657.7-3.4 1.1c-21.9 7.3-54.3 18.5-83.3 31.8-1.6.7-2.6 2.8-2.6 2.8-.5 1.2-1.2 2.8-2 4.5l-.1.2c-3.3 7.4-7.7 18.6-9.7 23.1l-1.5 3.6c-.2.6-.1 1.2.4 1.6.3.3.6.4 1 .4.2 0 .4 0 .7-.2l3.5-1.7c8-3.8 18-9.5 28.6-14.5l.4-.2c20.1-9.5 42.7-20.3 56.4-26.8 0 0 2.2-1.2 3.3-3.4l10.2-20.5c.3-.5.2-1.2-.2-1.6-.5-.2-1.1-.4-1.7-.2zm-81.6-31.8c1.4-2.8 8.1-15.5 9.6-18.4l.3-.5c44.3-83.6 98.4-162.5 160.6-234.4l1.7-2c.5-.6.6-1.5.2-2.2s-1.2-1.1-2-1l-2.6.4c-40.8 5.6-82.1 13.4-122.8 23.1-4 1.1-6.6 3.8-7.2 4.4-30.5 36.5-59.3 74.9-85.7 114.2-1.3 2-1.5 6.7-1.5 6.7s6.7 51.2 16.4 89c-24.2 69.1-45.6 160.3-45.6 160.3-.2.6-.1 1.2.3 1.7s.9.8 1.6.8h13.7c.9 0 1.6-.5 1.9-1.3l.9-2.6c14-38.1 29.9-75.8 47.5-112.4 4.1-8.5 12.7-25.8 12.7-25.8zm190.5-238.3v-2.6c0-.8-.5-1.6-1.3-1.8-.8-.3-1.6-.1-2.2.6l-1.7 2c-72.5 83.9-133.5 177-181.2 276.7l-1.1 2.3c-.4.7-.2 1.6.3 2.2.4.4.9.6 1.4.6.2 0 .5 0 .8-.1l2.4-1c40.7-16.9 82.3-31.5 123.7-43.4 2.5-.7 4.6-2.4 5.7-4.7 18.1-35.3 60.2-103.7 60.2-103.7 1.1-1.5.8-3.8.8-3.8s-7.4-82-7.8-123.3zm93.7-117.9c-10.3-8.9-25.2-13.1-48.4-13.6-21-.5-46.1 4.1-74.4 13.4-4.3 1.5-7.6 3.8-10.7 6.8-28.8 27.1-56.9 55.8-83.4 85.4l-2 2.3c-.6.6-.6 1.6-.2 2.3s1.3 1.1 2.1.9l3-.6c42.7-9.1 85.9-16.1 128.2-20.7 2.8-.3 5.7.6 7.7 2.5 2.1 1.9 3.3 4.6 3.2 7.5-.7 42 .8 84.2 4.6 125.4l.2 2.7c.1.8.7 1.5 1.5 1.7.1 0 .3.1.5.1.6 0 1.3-.3 1.7-.8l1.6-2.2c23.8-34 49.8-67.1 77.1-98.4 3.1-3.5 3.9-5.7 4.4-8.8 8.5-55-4.8-95.7-16.7-105.9z" fill="#fff"/></svg>