<svg id="logosandtypes_com" data-name="logosandtypes com" xmlns="http://www.w3.org/2000/svg" viewBox="0 0 150 150"><defs><style>.cls-1{fill:none;}.cls-2{fill:#95bf46;}.cls-3{fill:#5e8e3e;}</style></defs><path class="cls-1" d="M0,.2H150v150H0Z" transform="translate(0 -0.2)"/><path class="cls-2" d="M118.86,33.21h0a1.25,1.25,0,0,0-1.13-1.05l-10.46-.78-7.69-7.65c-.77-.76-2.25-.53-2.83-.36l-3.88,1.2c-2.32-6.67-6.41-12.79-13.6-12.79l-.61,0c-2-2.71-4.58-3.88-6.77-3.88-16.75,0-24.76,20.94-27.27,31.59L32.9,43.14c-3.64,1.14-3.75,1.26-4.23,4.68C28.31,50.42,18.8,124,18.8,124l74.1,13.89,40.15-8.69S119,33.87,118.86,33.21ZM76.41,17.12a31.14,31.14,0,0,1,1.7,11.29v.73l-13,4c2.49-9.62,7.17-14.27,11.25-16Zm-5-4.71h0a3.76,3.76,0,0,1,2.15.73C68.21,15.66,62.46,22,60,34.74L49.79,37.91C52.64,28.21,59.4,12.41,71.43,12.41Zm7.84,41.93h0l-5,14.73a22.74,22.74,0,0,0-9.65-2.32c-7.8,0-8.19,4.89-8.19,6.13C56.48,79.6,74,82.18,74,97.93c0,12.4-7.86,20.38-18.46,20.38-12.72,0-19.22-7.92-19.22-7.92l3.4-11.25s6.69,5.74,12.33,5.74a5,5,0,0,0,5.19-5c0-8.78-14.39-9.17-14.39-23.58,0-12.14,8.71-23.88,26.29-23.88,6.77,0,10.12,1.94,10.12,1.94ZM82.5,27.78c0-.44,0-.88,0-1.35A30.85,30.85,0,0,0,81,16.3c3.71.47,6.17,4.68,7.76,9.54Z" transform="translate(0 -0.2)"/><path class="cls-3" d="M117.73,32.16l-10.46-.78-7.69-7.65a1.92,1.92,0,0,0-1.08-.49l-5.6,114.6,40.15-8.69S119,33.87,118.86,33.21a1.25,1.25,0,0,0-1.13-1.05" transform="translate(0 -0.2)"/></svg>