<?xml version="1.0" encoding="UTF-8" standalone="no"?>
<svg id="svg14" enable-background="new 0 0 260 371.41" height="375.41" viewBox="0 0 264.00031 375.41" width="264.00031" xmlns="http://www.w3.org/2000/svg">
   <path id="path2" d="m174.212 201.122c-1.496 12.868-9.297 23.287-21.379 28.438-6.77 2.854-15.811 4.418-23.063 3.953-11.157-.465-21.616-3.229-31.378-8.137-3.377-1.859-8.581-5.344-12.551-8.598-.979-.93-1.143-1.395-.433-2.357.312-.564 1.009-1.596 2.438-3.686 2.179-3.081 2.412-3.488 2.644-3.883.697-1 1.759-1.091 2.869-.301.152.155.152.155.236.23.148.162.148.162.546.465.411.315.709.465.782.643 10.461 8.189 22.638 12.838 34.931 13.303 17.063-.23 29.325-7.902 31.584-19.758 2.326-12.903-7.843-24.167-27.729-30.448-6.265-1.859-22.031-8.156-24.942-9.908-13.629-7.983-20.026-18.461-19.096-31.455 1.395-17.958 18.078-31.324 39.163-31.441 9.359 0 18.793 1.951 27.743 5.716 3.228 1.373 8.989 4.494 10.905 5.986 1.15.852 1.395 1.781.686 2.822-.236.635-.93 1.581-2.128 3.609v0c-1.747 2.664-1.812 2.775-2.129 3.361-.622.978-1.511 1.056-2.695.356-9.566-6.506-20.356-9.762-32.145-9.994-14.643.232-25.653 8.96-26.362 20.919-.146 10.743 7.877 18.569 25.252 24.462 35.339 11.385 48.819 24.686 46.251 45.703m-43.576-185.385c22.96 0 41.717 21.785 42.646 49.095h-85.237c.82-27.31 19.632-49.095 42.591-49.095m119.001 54.269c0-2.85-2.206-5.174-5.021-5.174h-.184-55.101c-1.394-36.032-27.168-64.832-58.695-64.832-31.546 0-57.253 28.8-58.628 64.832h-55.332c-2.775.063-4.977 2.336-4.977 5.174 0 .164 0 .236 0 .4h-.063l7.859 173.798c0 .47.092.944.092 1.509 0 .11.015.144.015.351v.266l.058.092c1.183 12.117 9.937 21.777 21.901 22.25v.092h175.509c.092 0 .146 0 .237 0 .136 0 .136 0 .236 0h .364v-.092c12.134-.295 22.069-10.133 23.016-22.383v0l .053-.225c0-.115 0-.24 0-.351 0-.354.092-.579.092-.947l8.569-174.524v0c0-.064 0-.163 0-.236" fill="#ee4d2d" transform="translate(2.0003134 2)"/>
   <path id="path7" d="m230.675 327.736c1.523-4.819 5.84-7.896 10.92-7.896 4.979 0 9.646 3.324 11.17 7.896l.248.259h-22.383zm27.174 6.861c.069 0 .069 0 .179 0 .071 0 .071 0 .071 0 1.016-.021 1.901-1.016 1.901-2.034 0-.133-.004-.248-.014-.258.004 0 .004 0 .004-.117 0-10.547-8.241-18.921-18.397-18.921-10.13 0-18.281 8.374-18.281 18.921 0 .811 0 1.614.147 2.406l.012.003.07.23c.499 3.714 2.056 7.128 4.595 9.926v0c2.795 3.134 6.602 5.327 10.918 6.094v0 0h .254c.254 0 .292 0 .508.053 5.586.704 10.623-.053 14.729-2.186 1.016-.54 2.031-1.173 2.791-1.681.256-.249.508-.484.764-.548 0-.209.13-.209.234-.209.848-1.016.994-1.337.33-2.29-.564-1.016-1.074-1.772-1.58-2.539-.256-.249-.296-.508-.508-.612 0-.145 0-.145-.004-.145-.024 0-.024 0-.054 0h-.012c-.53-.767-.946-.767-1.454-.259-.026 0-.256.259-.26.259-4.059 3.555-9.645 4.757-15.126 3.555-1.037-.259-1.909-.571-2.897-1.016-3.36-1.782-5.838-4.829-6.602-8.384v-.249h27.682zm-70.842-6.861c1.523-4.819 5.832-7.896 10.945-7.896 5.006 0 9.615 3.324 11.174 7.896l.223.259h-22.342zm27.219 6.861c.076 0 .076 0 .186 0 .016 0 .016 0 .016 0 1.016-.021 1.957-1.016 1.957-2.034 0-.133-.004-.248-.014-.258.002 0 .002 0 .002-.117 0-10.547-8.297-18.921-18.434-18.921-10.09 0-18.303 8.374-18.303 18.921 0 .811 0 1.614.207 2.406l.014.003.041.23c.508 3.714 2.031 7.128 4.57 9.926v0c2.785 3.134 6.602 5.327 10.91 6.094v0 0h .265c.243 0 .341 0 .503.053 5.586.704 10.664-.053 14.727-2.186 1.022-.54 2.031-1.173 2.791-1.681.256-.249.508-.484.764-.548 0-.209.186-.209.252-.209.886-1.016 1.014-1.337.366-2.29-.618-1.016-1.126-1.772-1.634-2.539-.254-.249-.258-.508-.508-.612 0-.145 0-.145 0-.145 0 0 0 0-.004 0h-.01c-.531-.767-1.002-.767-1.51-.259l-.258.259c-4.063 3.555-9.648 4.757-15.072 3.555-1.038-.259-1.936-.571-2.949-1.016-3.313-1.782-5.848-4.829-6.597-8.384l-.005-.249h27.727zm-60.489 10.405c-6.85 0-12.436-5.329-12.635-12.189v-.633c.199-6.724 5.785-12.164 12.635-12.164 6.863 0 12.521 5.613 12.521 12.55.001 6.85-5.657 12.436-12.521 12.436m0-31.664c-4.549 0-8.795 1.525-12.197 4.324l-.438.412v-3.543c0-1.016-.136-1.193-1.128-1.193h-4.35c-.983 0-1.158.178-1.158 1.193v55.761c0 .866.175 1.118 1.158 1.118h4.35c.971 0 1.128-.252 1.128-1.118v-23.259l.438.259c3.404 2.788 7.648 4.312 12.197 4.312 10.662 0 19.295-8.536 19.295-19.038 0-10.665-8.633-19.228-19.295-19.228m-45.253 31.176c-6.988 0-12.573-5.492-12.573-12.324 0-6.83 5.586-12.324 12.573-12.324 6.977 0 12.57 5.494 12.57 12.324.001 6.831-5.593 12.324-12.57 12.324m0-31.247c-10.665 0-19.299 8.374-19.299 18.947 0 10.508 8.634 18.884 19.299 18.884 10.664 0 19.303-8.376 19.303-18.884 0-10.573-8.639-18.947-19.303-18.947m-43.039.358c-3.83 0-7.619 1.223-10.765 3.574l-.377.321v-25.901c0-.953-.284-1.205-1.136-1.205h-4.606c-.891 0-1.144.252-1.144 1.205v58.973c0 1.012.254 1.271 1.144 1.271h4.606c.852 0 1.136-.303 1.136-1.271v-19.301c.097-6.05 5.047-10.913 11.143-10.913 6.208 0 11.169 4.923 11.169 11.02v19.194c0 1.012.176 1.271 1.145 1.271h4.571c1.015 0 1.14-.259 1.14-1.271v-19.303c-.001-9.648-8.126-17.664-18.026-17.664m-63.991 27.492l-.011.041c-.683.959-.987 1.305-1.123 1.563-.51.757-.429 1.152.373 1.772 1.788 1.523 4.194 3.047 5.783 3.813 4.443 2.28 9.209 3.298 14.304 3.55 3.279.037 7.464-.76 10.513-2.026 5.585-2.539 9.133-7.368 9.737-13.273.991-9.658-5.294-15.672-21.448-20.525l-.011-.003c-7.573-2.514-11.121-5.775-11.122-10.201.246-5.006 4.869-8.813 11.132-9.03 4.984.031 9.427 1.462 13.825 4.281.932.509 1.314.392 1.95-.473.091-.034.254-.292 1.127-1.559h.005c.769-1.024 1.023-1.524 1.026-1.524.533-1.016.505-1.431-.483-2.031-.914-.764-3.514-2.031-4.979-2.664-4.188-1.654-8.503-2.414-12.74-2.414-9.73.252-17.342 6.602-17.849 14.888-.264 5.935 2.781 10.753 9.132 14.308 1.779 1.016 8.257 3.479 11.303 4.323 8.633 2.539 13.193 7.167 12.204 12.695-.788 5.071-6.052 8.374-13.361 8.609-5.324-.235-10.717-2.106-15.35-5.563-.021-.003-.136-.221-.38-.259-.293-.249-.293-.249-.377-.265-.898-.751-1.512-.737-2.037.265-.118.001-.806 1.117-1.143 1.702" fill="#ee4d2d" transform="translate(2.0003134 2)"/>
</svg>
