<?xml version="1.0" encoding="utf-8"?>
<svg version="1.0" id="katman_1" xmlns="http://www.w3.org/2000/svg" xmlns:xlink="http://www.w3.org/1999/xlink" x="0px" y="0px"
	 viewBox="0 0 574.1 418.4" style="enable-background:new 0 0 574.1 418.4;" xml:space="preserve">
<g>
	<g transform="translate(126 24)">
		<path fill="#fff" d="M91.8,192.8c-3.8-2.1-5.8-3.8-5.8-6.2c0-3.1,2.7-5,7-5c5,0,9.4,2.1,9.4,2.1l3.5-10.7c0,0-3.2-2.5-12.7-2.5
			c-13.2,0-22.4,7.6-22.4,18.2c0,6,4.3,10.6,10,13.9c4.6,2.6,6.2,4.5,6.2,7.2c0,2.9-2.3,5.2-6.6,5.2c-6.4,0-12.4-3.3-12.4-3.3
			l-3.7,10.7c0,0,5.6,3.7,14.9,3.7c13.6,0,23.3-6.7,23.3-18.7C102.7,200.8,97.7,196.2,91.8,192.8z M146,170.3c-6.7,0-11.9,3.2-16,8
			l-0.2-0.1l5.8-30.4h-15.1l-14.7,77.3h15.1l5-26.4c2-10,7.1-16.1,11.9-16.1c3.4,0,4.7,2.3,4.7,5.6c0,2.1-0.2,4.6-0.7,6.7l-5.7,30.3
			h15.1l5.9-31.2c0.7-3.3,1.1-7.2,1.1-9.9C158.3,175.4,153.8,170.3,146,170.3z M192.5,170.3c-18.2,0-30.3,16.4-30.3,34.7
			c0,11.7,7.2,21.2,20.8,21.2c17.9,0,29.9-16,29.9-34.7C213,180.6,206.7,170.3,192.5,170.3z M185.1,214.5c-5.2,0-7.3-4.4-7.3-9.9
			c0-8.7,4.5-22.8,12.7-22.8c5.4,0,7.1,4.6,7.1,9.1C197.6,200.3,193.1,214.5,185.1,214.5z M251.7,170.3c-10.2,0-16,9-16,9h-0.2
			l0.9-8.1H223c-0.7,5.5-1.9,13.8-3.1,20.1l-10.5,55.4h15.1l4.2-22.4h0.3c0,0,3.1,2,8.9,2c17.8,0,29.4-18.2,29.4-36.6
			C267.3,179.4,262.8,170.3,251.7,170.3z M237.3,214.8c-3.9,0-6.2-2.2-6.2-2.2l2.5-14.1c1.8-9.4,6.7-15.7,11.9-15.7
			c4.6,0,6,4.3,6,8.3C251.5,200.8,245.7,214.8,237.3,214.8z M288.9,148.5c-4.8,0-8.7,3.8-8.7,8.8c0,4.5,2.8,7.6,7.1,7.6h0.2
			c4.7,0,8.8-3.2,8.9-8.8C296.5,151.7,293.5,148.5,288.9,148.5z"/>
		<polygon fill="#fff" points="267.7,225.1 282.9,225.1 293.2,171.5 277.9,171.5 		"/>
		<path fill="#fff" d="M331.6,171.3h-10.5l0.5-2.5c0.9-5.2,3.9-9.8,9-9.8c2.7,0,4.8,0.8,4.8,0.8l3-11.8c0,0-2.6-1.3-8.2-1.3
			c-5.4,0-10.7,1.5-14.8,5c-5.2,4.4-7.6,10.7-8.8,17.1l-0.4,2.5h-7l-2.2,11.4h7l-8,42.3h15.1l8-42.3h10.4L331.6,171.3z M368,171.5
			c0,0-9.5,23.8-13.7,36.8h-0.2c-0.3-4.2-3.7-36.8-3.7-36.8h-15.9l9.1,49.2c0.2,1.1,0.1,1.8-0.3,2.5c-1.8,3.4-4.7,6.7-8.2,9.1
			c-2.8,2.1-6,3.4-8.5,4.3l4.2,12.8c3.1-0.7,9.4-3.2,14.8-8.2c6.9-6.5,13.3-16.4,19.8-30l18.5-39.7H368z"/>
	</g>
	<path fill="#fff" d="M135.5,270.2l37.4-8.1c0,0-13.5-91.3-13.6-91.9s-0.6-1-1.1-1s-10-0.7-10-0.7s-6.6-6.6-7.4-7.3
		c-0.2-0.2-0.4-0.3-0.6-0.4L135.5,270.2z M138.6,160.6c-0.1,0-0.3,0.1-0.4,0.1c-0.1,0-1.5,0.4-3.7,1.1c-2.2-6.4-6.1-12.3-13-12.3
		c-0.2,0-0.4,0-0.6,0c-2-2.5-4.4-3.6-6.5-3.6c-16.1,0-23.8,20.1-26.2,30.3c-6.2,1.9-10.7,3.3-11.2,3.5c-3.5,1.1-3.6,1.2-4,4.5
		c-0.4,2.4-9.5,72.9-9.5,72.9l70.3,13.2L138.6,160.6z M120.3,165.5c0,0.2,0,0.5,0,0.7c-3.9,1.2-8.2,2.5-12.4,3.8
		c2.4-9.2,6.9-13.7,10.8-15.4C119.7,157.2,120.3,160.7,120.3,165.5z M113.9,150.2c0.7,0,1.4,0.2,2.1,0.7c-5.1,2.4-10.7,8.5-13,20.7
		c-3.4,1.1-6.7,2.1-9.8,3C95.9,165.3,102.4,150.2,113.9,150.2z M116.7,204.5c0,0-4.2-2.2-9.2-2.2c-7.5,0-7.8,4.7-7.8,5.9
		c0,6.4,16.8,8.9,16.8,24c0,11.9-7.5,19.5-17.7,19.5c-12.2,0-18.4-7.6-18.4-7.6l3.3-10.8c0,0,6.4,5.5,11.8,5.5c3.5,0,5-2.8,5-4.8
		c0-8.4-13.8-8.8-13.8-22.6c0-11.6,8.3-22.9,25.2-22.9c6.5,0,9.7,1.9,9.7,1.9L116.7,204.5z M123.1,153.9c3.6,0.4,5.9,4.5,7.4,9.1
		c-1.8,0.6-3.8,1.2-6,1.9c0-0.4,0-0.8,0-1.3C124.5,159.7,124,156.5,123.1,153.9z"/>
</g>
</svg>
