<svg fill="none" height="93" viewBox="0 0 92 93" width="92" xmlns="http://www.w3.org/2000/svg"><rect fill="#fff853" height="91.56" rx="45.78" width="91.56" y=".68457"/><path d="m38.0866 27.1774 6.7629-1.4928h2.6012l7.2832 3.4832 3.6416 7.4642v5.4737l4.682-.4977v1.4929 2.488l-3.1214.9952-1.0404 1.4929 2.6011 4.976 6.763 3.4833-1.5607 1.9904-4.6821 1.4929-1.0404 1.9904-1.0405 1.4928h-5.7225l-2.6011.9952-5.7225 2.9857-3.6416-.9952-4.1618-1.9905-3.1214-.9952h-4.1618l-1.5607-.9952-1.5607-2.488-2.6011-.4976-2.0809-1.4929v-1.4928l2.6011-1.4928 4.6821-3.4833 1.0404-3.4832-4.1618-2.4881.5202-2.488 1.5607-1.4929 3.1214.4977 1.5607-8.957z" fill="#fff"/><path d="m45.8096 27.1203c6.3968.002 11.7253 5.1005 11.733 11.2394.0018 1.4379.0481 2.7619.1329 3.9816.0523.7526.7061 1.3103 1.4558 1.3103.1104 0 .2228-.0121.3358-.0374l2.0039-.4498c.0853-.0192.1709-.0283.2554-.0283.509 0 .9776.3329 1.0919.826.1615.6968-.2463 1.4008-.9515 1.6376l-3.0418 1.1755c-.768.2968-1.1804 1.097-.9642 1.8624 2.4404 8.6375 9.2566 7.7392 9.2566 8.8645 0 1.4131-5.1377 1.6126-5.6018 2.0571-.4642.4445-.0202 2.6014-1.0573 3.019-.1955.0787-.4732.1061-.812.1061-.7811 0-1.8859-.1459-3.0504-.1459-1.01 0-2.0649.1098-2.9923.52-2.4603 1.088-4.8323 3.1204-7.7728 3.1204-2.9404 0-5.3124-2.0324-7.7728-3.1204-.9276-.4103-1.9822-.52-2.9923-.52-1.1643 0-2.2693.1459-3.0504.1459-.3386 0-.6166-.0275-.812-.1061-1.0371-.4176-.5931-2.5745-1.0572-3.019-.4642-.4445-5.6019-.6441-5.6019-2.0572 0-1.1254 6.8162-.2271 9.2566-8.8645.2163-.7653-.1962-1.5655-.9642-1.8624l-3.0418-1.1755c-.7054-.2368-1.1132-.9408-.9516-1.6376.1143-.4932.583-.8261 1.0919-.826.0845 0 .1701.0091.2554.0283l2.0039.4498c.113.0253.2254.0374.3359.0374.7496 0 1.4034-.5578 1.4557-1.3103.0848-1.2197.1312-2.5437.133-3.9816.0078-6.1388 5.2938-11.2372 11.6906-11.2393zm.0009-2.4357h-.0019c-1.9093.0006-3.7693.3679-5.5281 1.0918-1.6882.6947-3.2076 1.6854-4.5159 2.9445-1.3066 1.2574-2.3348 2.7172-3.0562 4.3388-.75 1.6862-1.1314 3.4683-1.1337 5.297-.0012.8978-.0206 1.7691-.058 2.6035l-.7456-.1674c-.2735-.0614-.5548-.0926-.8358-.0927-.8114 0-1.6118.2625-2.2537.7393-.6698.4975-1.1394 1.2059-1.3223 1.9948-.4353 1.8777.6477 3.7734 2.5245 4.44l2.2325.8628c-1.4783 4.3439-4.2041 5.1764-6.0397 5.7371-.487.1488-.9077.2773-1.3083.4675-1.596.7584-1.7683 2.0432-1.7683 2.5604 0 .9905.4897 1.8945 1.379 2.5452.4428.3241.9914.5914 1.6769.8173.9343.308 2.0174.5035 2.8977.6601.0425.3123.1049.6477.21.9858.4365 1.4041 1.3576 2.0328 2.0535 2.3129.6603.2659 1.3425.2966 1.7982.2966.4458 0 .9169-.0335 1.4158-.0688.5352-.038 1.0886-.0772 1.6346-.0772.8461 0 1.4759.0967 1.9254.2954.6172.273 1.2718.6411 1.9648 1.0307 1.9293 1.0848 4.116 2.3143 6.8749 2.3143s4.9455-1.2295 6.8748-2.3143c.693-.3897 1.3476-.7577 1.9649-1.0307.4495-.1988 1.0794-.2954 1.9254-.2954.546 0 1.0994.0393 1.6345.0772.4989.0353.9701.0688 1.4158.0688.4557 0 1.1379-.0307 1.7982-.2966.6959-.2801 1.617-.9088 2.0535-2.3129.1051-.3381.1676-.6735.21-.9858.8803-.1567 1.9635-.3521 2.8978-.6601.6856-.2259 1.234-.4932 1.6768-.8173.8892-.6507 1.379-1.5547 1.379-2.5452 0-.5172-.1723-1.802-1.7685-2.5603-.4005-.1902-.8212-.3188-1.3083-.4675-1.8356-.5606-4.5614-1.3932-6.0397-5.7371l2.2324-.8628c1.8768-.6666 2.9599-2.5624 2.5246-4.4401-.1829-.7889-.6525-1.4973-1.3222-1.9948-.642-.4767-1.4422-.7393-2.2534-.7393-.2809 0-.5622.0312-.836.0926l-.7456.1674c-.0375-.8343-.0569-1.7056-.058-2.6035-.0024-1.8301-.3869-3.614-1.1429-5.3025-.7257-1.6208-1.7595-3.0802-3.0727-4.3377-1.3131-1.2574-2.8368-2.247-4.5285-2.9412-1.7621-.723-3.6234-1.0899-5.5322-1.0906z" fill="#050505"/></svg>