<svg height="308" preserveAspectRatio="xMidYMid" viewBox="0 0 256 308" width="256" xmlns="http://www.w3.org/2000/svg"><path d="m239.681566 40.706757c-28.568294-40.88864637-84.990676-53.008196-125.78675-27.0157177l-71.6479098 45.6644961c-19.570902 12.3124674-33.051091 32.2983189-37.13493731 55.0565976-3.41776368 18.959041-.41375109 38.516443 8.53642621 55.575772-6.13289834 9.30324-10.31580082 19.753395-12.2959039 30.718882-4.12332891 23.195311 1.27037857 47.073752 14.9634684 66.244657 28.5743379 40.892492 84.9969944 53.006822 125.7867504 27.015717l71.64791-45.664496c19.572285-12.311039 33.052933-32.297571 37.134937-55.056598 3.41731-18.958818.415653-38.515839-8.530108-55.577145 6.131299-9.303027 10.312445-19.75276 12.290685-30.717509 4.126054-23.1953736-1.267891-47.0748665-14.963469-66.244656" fill="#ff3e00"/><path d="m106.888658 270.841265c-23.1014725 6.0068-47.4971535-3.035919-61.1022469-22.648699-8.2386528-11.531546-11.484062-25.895993-9.0033153-39.849411.4158375-2.267741.9880975-4.50399 1.7126797-6.692722l1.3497005-4.115598 3.6718337 2.696928c8.4798204 6.230728 17.9611706 10.967965 28.0354106 14.007539l2.66368.808117-.2453751 2.658459c-.3254753 3.781973.698577 7.557047 2.8906451 10.656094 4.094361 5.907777 11.439466 8.633996 18.3968128 6.828187 1.557586-.416307 3.0422028-1.068775 4.4021887-1.934699l71.6709622-45.672742c3.545834-2.232755 5.989505-5.853489 6.733665-9.977122.742872-4.205548-.234798-8.533235-2.713415-12.011015-4.096808-5.909003-11.44375-8.636381-18.403957-6.832034-1.555535.416341-3.038177 1.068333-4.396418 1.933325l-27.34902 17.434272c-4.497208 2.859414-9.405052 5.01464-14.553519 6.391018-23.101278 6.006447-47.4965751-3.036361-61.1014229-22.648974-8.2389847-11.531293-11.4844292-25.895797-9.0033154-39.849136 2.4560427-13.689336 10.5657257-25.7105194 22.3393011-33.1140983l71.6646422-45.676589c4.499119-2.8641088 9.410469-5.0220447 14.563136-6.3987122 23.101129-6.0062931 47.496216 3.0363681 61.101148 22.648699 8.238653 11.5315465 11.484063 25.8959937 9.003316 39.8494112-.417631 2.2673473-.98986 4.5034733-1.71268 6.6927223l-1.3497 4.115598-3.669911-2.692807c-8.479223-6.234292-17.961484-10.9737028-28.037334-14.0135834l-2.66368-.8083914.245375-2.6584593c.322677-3.7816356-.701122-7.5556774-2.890645-10.6558191-4.094361-5.9077771-11.439466-8.6339968-18.396813-6.8281873-1.557586.4163071-3.042202 1.0687749-4.402188 1.9346989l-71.6709626 45.6746656c-3.5453478 2.230999-5.9876426 5.851504-6.7284436 9.974374-.7474696 4.205351.2285574 8.534589 2.7081937 12.012389 4.0968602 5.908936 11.443754 8.636297 18.403957 6.832034 1.5571995-.417161 3.0415995-1.069574 4.4019135-1.934699l27.345448-17.427677c4.495261-2.863184 9.402886-5.020319 14.55187-6.396239 23.101278-6.006447 47.496576 3.036361 61.101423 22.648974 8.238985 11.531293 11.484429 25.895797 9.003316 39.849136-2.457653 13.690047-10.566752 25.71226-22.339301 33.119319l-71.664918 45.672742c-4.499119 2.864109-9.410469 5.022045-14.563136 6.398712" fill="#fff"/></svg>