<?xml version="1.0" encoding="utf-8"?><svg xmlns="http://www.w3.org/2000/svg" viewBox="0 0 2400 1000"><g fill="#fff"><path d="M640.92,374.86a98.56,98.56,0,0,1-44.86-82.55h-70.8l-.12,283.76a59.48,59.48,0,1,1-59.4-61.76,58.65,58.65,0,0,1,17.56,2.75V444.78a130.41,130.41,0,0,0-17.56-1.28c-71.86,0-130.32,58.47-130.32,130.33a130.32,130.32,0,1,0,260.64,0V429.94a168.41,168.41,0,0,0,98.51,31.68V390.81A97.94,97.94,0,0,1,640.92,374.86Z"/><path d="M762.19,391.16H985.46L965,455,907,455V691.18H834.86V455l-72.62.14Z"/><path d="M1351.2,391.16h228.43L1559.13,455l-63,0V691.18h-72.28V455l-72.62.14Z"/><polygon points="999.07 486.59 1070.66 486.59 1070.58 691.18 999.5 691.18 999.07 486.59"/><path d="M1099,390.32h71.51V530l70.86-69.54h85.35l-89.63,87,100.39,143.69h-78.78l-67-99.65-21.19,20.61v79H1099Z"/><path d="M1826.1,390.32h71.51V530l70.86-69.54h85.35l-89.63,87,100.39,143.69H1985.8l-67-99.65-21.19,20.61v79H1826.1Z"/><circle cx="1034.84" cy="427.18" r="36.03"/><path d="M1674.57,446.24A122.47,122.47,0,1,0,1797,568.71,122.47,122.47,0,0,0,1674.57,446.24Zm0,182a59.54,59.54,0,1,1,59.53-59.53A59.54,59.54,0,0,1,1674.57,628.24Z"/></g></svg>