<svg width="20" height="20" viewBox="0 0 20 20" fill="none" xmlns="http://www.w3.org/2000/svg">
<path fill-rule="evenodd" clip-rule="evenodd" d="M10 8.02559e-10C4.8644 -6.45192e-05 0.563614 3.89009 0.0500488 9H7.00005V7.5C7.00005 7.22386 7.22391 7 7.50005 7H12.5C12.7762 7 13 7.22386 13 7.5V12.5C13 12.7761 12.7762 13 12.5 13H7.50005C7.22391 13 7.00005 12.7761 7.00005 12.5V11H0.0500488C0.589337 16.3659 5.2863 20.3376 10.6672 19.9777C16.048 19.6179 20.1743 15.0561 19.9944 9.66625C19.8144 4.27637 15.3929 6.77508e-05 10 8.02559e-10Z" fill="black"/>
</svg>
