<svg version="1.1" xmlns="http://www.w3.org/2000/svg" viewBox="0 0 372.0485280946955 337.1050514041673" width="744.097056189391" height="674.2101028083346">
  <!-- svg-source:excalidraw -->
  <rect x="0" y="0" width="372.0485280946955" height="337.1050514041673" fill="#ffffff"></rect><g stroke-linecap="round" transform="translate(10.274289728825579 10.35324792007708) rotate(0 175.88136134963588 158.3759017420451)"><path d="M0 0 C98.11 0, 196.22 0, 351.76 0 M0 0 C127.64 0, 255.29 0, 351.76 0 M351.76 0 C351.76 103.54, 351.76 207.09, 351.76 316.75 M351.76 0 C351.76 76.09, 351.76 152.19, 351.76 316.75 M351.76 316.75 C280.54 316.75, 209.31 316.75, 0 316.75 M351.76 316.75 C268.56 316.75, 185.36 316.75, 0 316.75 M0 316.75 C0 197.57, 0 78.4, 0 0 M0 316.75 C0 231.13, 0 145.5, 0 0" stroke="#000000" stroke-width="1" fill="none"></path></g><g stroke-linecap="round" transform="translate(10 10) rotate(0 176.02426404734774 12.825495283474282)"><path d="M0 0 C102.24 0, 204.48 0, 352.05 0 M0 0 C118.62 0, 237.24 0, 352.05 0 M352.05 0 C352.05 9.28, 352.05 18.56, 352.05 25.65 M352.05 0 C352.05 8.23, 352.05 16.46, 352.05 25.65 M352.05 25.65 C238.27 25.65, 124.49 25.65, 0 25.65 M352.05 25.65 C223.2 25.65, 94.36 25.65, 0 25.65 M0 25.65 C0 17.97, 0 10.29, 0 0 M0 25.65 C0 18.37, 0 11.08, 0 0" stroke="#000000" stroke-width="1" fill="none"></path></g><g stroke-linecap="round" transform="translate(248.58279512610147 51.32733044661438) rotate(0 47.18275890588541 43.282773381584946)"><path d="M0 0 C0 0, 0 0, 0 0 M0 0 C0 0, 0 0, 0 0 M-0.26 6.4 C1.71 4.13, 3.68 1.86, 4.99 0.36 M-0.26 6.4 C1.77 4.06, 3.81 1.72, 4.99 0.36 M0.13 12.04 C3.47 8.21, 6.8 4.37, 10.63 -0.03 M0.13 12.04 C2.54 9.27, 4.94 6.51, 10.63 -0.03 M-0.13 18.44 C4.02 13.67, 8.16 8.9, 15.62 0.33 M-0.13 18.44 C5.14 12.38, 10.41 6.31, 15.62 0.33 M0.27 24.08 C6.39 17.03, 12.52 9.98, 21.26 -0.07 M0.27 24.08 C8.38 14.75, 16.48 5.42, 21.26 -0.07 M0 30.48 C9.6 19.44, 19.19 8.41, 26.25 0.29 M0 30.48 C10.46 18.46, 20.91 6.43, 26.25 0.29 M-0.26 36.88 C7.71 27.71, 15.67 18.55, 31.89 -0.1 M-0.26 36.88 C9.38 25.79, 19.02 14.7, 31.89 -0.1 M0.14 42.52 C8.29 33.15, 16.44 23.77, 36.88 0.26 M0.14 42.52 C11.72 29.2, 23.3 15.87, 36.88 0.26 M-0.12 48.92 C8.84 38.61, 17.79 28.31, 42.52 -0.14 M-0.12 48.92 C14.62 31.96, 29.37 14.99, 42.52 -0.14 M0.27 54.56 C14.09 38.67, 27.91 22.77, 47.51 0.22 M0.27 54.56 C16.83 35.51, 33.4 16.46, 47.51 0.22 M0.01 60.96 C11.99 47.18, 23.97 33.39, 53.15 -0.17 M0.01 60.96 C17.45 40.89, 34.9 20.82, 53.15 -0.17 M-0.25 67.36 C20.79 43.16, 41.82 18.95, 58.14 0.19 M-0.25 67.36 C17.13 47.36, 34.51 27.36, 58.14 0.19 M0.14 73 C23.2 46.47, 46.26 19.94, 63.78 -0.21 M0.14 73 C17.94 52.53, 35.73 32.06, 63.78 -0.21 M-0.12 79.4 C22.59 53.28, 45.29 27.16, 68.77 0.15 M-0.12 79.4 C19.02 57.38, 38.16 35.37, 68.77 0.15 M0.28 85.04 C23.35 58.5, 46.42 31.95, 74.41 -0.24 M0.28 85.04 C19.57 62.85, 38.86 40.66, 74.41 -0.24 M2.64 88.42 C20.04 68.4, 37.44 48.38, 79.4 0.12 M2.64 88.42 C28.77 58.36, 54.89 28.31, 79.4 0.12 M7.63 88.78 C37.38 54.56, 67.13 20.33, 85.04 -0.28 M7.63 88.78 C35.38 56.85, 63.14 24.91, 85.04 -0.28 M13.27 88.39 C43.96 53.08, 74.66 17.77, 90.03 0.08 M13.27 88.39 C33.46 65.16, 53.65 41.93, 90.03 0.08 M18.26 88.75 C42.49 60.87, 66.72 33, 95.01 0.44 M18.26 88.75 C40.62 63.02, 62.98 37.29, 95.01 0.44 M23.9 88.35 C46.51 62.34, 69.12 36.33, 94.75 6.84 M23.9 88.35 C48.8 59.7, 73.71 31.05, 94.75 6.84 M28.89 88.71 C46.21 68.79, 63.53 48.86, 95.15 12.49 M28.89 88.71 C42.36 73.22, 55.83 57.72, 95.15 12.49 M34.53 88.32 C57.25 62.18, 79.96 36.05, 94.89 18.88 M34.53 88.32 C48.99 71.68, 63.45 55.05, 94.89 18.88 M39.52 88.68 C61.78 63.06, 84.05 37.44, 95.28 24.53 M39.52 88.68 C54.42 71.53, 69.33 54.38, 95.28 24.53 M44.5 89.04 C58.93 72.44, 73.35 55.85, 95.02 30.92 M44.5 89.04 C59.11 72.23, 73.72 55.42, 95.02 30.92 M50.15 88.64 C64.83 71.75, 79.52 54.85, 94.76 37.32 M50.15 88.64 C62.84 74.04, 75.53 59.44, 94.76 37.32 M55.13 89 C66.43 76.01, 77.72 63.02, 95.15 42.96 M55.13 89 C70.76 71.02, 86.39 53.05, 95.15 42.96 M60.78 88.61 C70.08 77.91, 79.38 67.2, 94.89 49.36 M60.78 88.61 C70.46 77.47, 80.15 66.32, 94.89 49.36 M65.76 88.97 C75.12 78.21, 84.47 67.45, 94.63 55.76 M65.76 88.97 C76.2 76.96, 86.65 64.94, 94.63 55.76 M71.41 88.57 C77.86 81.15, 84.31 73.72, 95.02 61.4 M71.41 88.57 C79.03 79.8, 86.66 71.03, 95.02 61.4 M76.39 88.93 C81.73 82.8, 87.06 76.66, 94.76 67.8 M76.39 88.93 C82.81 81.55, 89.22 74.18, 94.76 67.8 M82.04 88.54 C87.24 82.56, 92.44 76.57, 95.16 73.44 M82.04 88.54 C85.8 84.21, 89.56 79.88, 95.16 73.44 M87.02 88.9 C90.04 85.43, 93.05 81.97, 94.9 79.84 M87.02 88.9 C88.81 86.84, 90.6 84.78, 94.9 79.84 M92.67 88.5 C93.31 87.76, 93.96 87.01, 94.63 86.24 M92.67 88.5 C93.24 87.85, 93.8 87.19, 94.63 86.24" stroke="#ffec99" stroke-width="0.5" fill="none"></path><path d="M0 0 C34.49 0, 68.98 0, 94.37 0 M0 0 C33.74 0, 67.48 0, 94.37 0 M94.37 0 C94.37 25.97, 94.37 51.95, 94.37 86.57 M94.37 0 C94.37 29.04, 94.37 58.07, 94.37 86.57 M94.37 86.57 C63.74 86.57, 33.12 86.57, 0 86.57 M94.37 86.57 C73.56 86.57, 52.76 86.57, 0 86.57 M0 86.57 C0 61.77, 0 36.97, 0 0 M0 86.57 C0 56.43, 0 26.3, 0 0" stroke="#000000" stroke-width="1" fill="none"></path></g><g transform="translate(268.33648372447715 62.67062261414952) rotate(0 27.384802363251538 23.434407150954627)"><text x="0" y="0" font-family="Inter var, Segoe UI Emoji" font-size="9.373762860381849px" fill="#1e1e1e" text-anchor="start" style="white-space: pre;" direction="ltr" dominant-baseline="text-before-edge">height: 110px</text><text x="0" y="11.71720357547731" font-family="Inter var, Segoe UI Emoji" font-size="9.373762860381849px" fill="#1e1e1e" text-anchor="start" style="white-space: pre;" direction="ltr" dominant-baseline="text-before-edge">top: 0px</text><text x="0" y="23.43440715095462" font-family="Inter var, Segoe UI Emoji" font-size="9.373762860381849px" fill="#1e1e1e" text-anchor="start" style="white-space: pre;" direction="ltr" dominant-baseline="text-before-edge">left: 160px</text><text x="0" y="35.151610726431926" font-family="Inter var, Segoe UI Emoji" font-size="9.373762860381849px" fill="#1e1e1e" text-anchor="start" style="white-space: pre;" direction="ltr" dominant-baseline="text-before-edge"></text></g><g stroke-linecap="round" transform="translate(136.87363834877465 51.473592674414135) rotate(0 47.18275890588541 84.5131188269944)"><path d="M0 0 C0 0, 0 0, 0 0 M0 0 C0 0, 0 0, 0 0 M-0.26 6.4 C1.41 4.48, 3.08 2.55, 4.99 0.36 M-0.26 6.4 C1.32 4.58, 2.91 2.76, 4.99 0.36 M0.13 12.04 C3.28 8.42, 6.43 4.8, 10.63 -0.03 M0.13 12.04 C4.23 7.32, 8.34 2.6, 10.63 -0.03 M-0.13 18.44 C4.7 12.89, 9.52 7.34, 15.62 0.33 M-0.13 18.44 C4.67 12.92, 9.46 7.41, 15.62 0.33 M0.27 24.08 C5.13 18.48, 10 12.89, 21.26 -0.07 M0.27 24.08 C6.65 16.74, 13.03 9.4, 21.26 -0.07 M0 30.48 C9.58 19.46, 19.16 8.45, 26.25 0.29 M0 30.48 C7.11 22.31, 14.21 14.14, 26.25 0.29 M-0.26 36.88 C9.66 25.47, 19.58 14.05, 31.89 -0.1 M-0.26 36.88 C8.99 26.24, 18.24 15.59, 31.89 -0.1 M0.14 42.52 C11.1 29.91, 22.06 17.31, 36.88 0.26 M0.14 42.52 C8.27 33.16, 16.41 23.8, 36.88 0.26 M-0.12 48.92 C13.56 33.18, 27.24 17.44, 42.52 -0.14 M-0.12 48.92 C12.77 34.09, 25.66 19.26, 42.52 -0.14 M0.27 54.56 C11.28 41.9, 22.28 29.24, 47.51 0.22 M0.27 54.56 C14.74 37.92, 29.2 21.28, 47.51 0.22 M0.01 60.96 C14.92 43.8, 29.84 26.65, 53.15 -0.17 M0.01 60.96 C17.87 40.41, 35.73 19.87, 53.15 -0.17 M-0.25 67.36 C12.43 52.77, 25.11 38.18, 58.14 0.19 M-0.25 67.36 C11.58 53.75, 23.41 40.14, 58.14 0.19 M0.14 73 C14.29 56.73, 28.43 40.46, 63.78 -0.21 M0.14 73 C13.24 57.93, 26.35 42.86, 63.78 -0.21 M-0.12 79.4 C15.09 61.9, 30.31 44.4, 68.77 0.15 M-0.12 79.4 C21.68 54.33, 43.47 29.25, 68.77 0.15 M0.28 85.04 C15.22 67.84, 30.17 50.65, 74.41 -0.24 M0.28 85.04 C26.7 54.64, 53.12 24.25, 74.41 -0.24 M0.01 91.44 C26.69 60.75, 53.36 30.07, 79.4 0.12 M0.01 91.44 C30.29 56.62, 60.56 21.79, 79.4 0.12 M-0.25 97.84 C25.05 68.73, 50.36 39.62, 85.04 -0.28 M-0.25 97.84 C21.98 72.27, 44.21 46.69, 85.04 -0.28 M0.15 103.48 C33.98 64.56, 67.82 25.63, 90.03 0.08 M0.15 103.48 C23.46 76.66, 46.78 49.84, 90.03 0.08 M-0.11 109.88 C19.59 87.21, 39.29 64.55, 95.01 0.44 M-0.11 109.88 C20.77 85.86, 41.65 61.84, 95.01 0.44 M0.28 115.52 C26.53 85.32, 52.79 55.12, 94.75 6.84 M0.28 115.52 C32.47 78.49, 64.66 41.46, 94.75 6.84 M0.02 121.92 C24.24 94.06, 48.45 66.2, 95.15 12.49 M0.02 121.92 C34.48 82.28, 68.93 42.64, 95.15 12.49 M-0.24 128.32 C28.1 95.72, 56.43 63.12, 94.89 18.88 M-0.24 128.32 C32.44 90.72, 65.11 53.13, 94.89 18.88 M0.15 133.96 C36.55 92.09, 72.94 50.23, 95.28 24.53 M0.15 133.96 C23.56 107.04, 46.96 80.12, 95.28 24.53 M-0.11 140.36 C20.43 116.73, 40.96 93.11, 95.02 30.92 M-0.11 140.36 C29.77 105.99, 59.65 71.62, 95.02 30.92 M0.29 146 C33.96 107.26, 67.64 68.51, 94.76 37.32 M0.29 146 C24.5 118.14, 48.72 90.29, 94.76 37.32 M0.02 152.4 C31.72 115.94, 63.42 79.47, 95.15 42.96 M0.02 152.4 C21.61 127.57, 43.19 102.74, 95.15 42.96 M-0.24 158.8 C34.35 119, 68.94 79.21, 94.89 49.36 M-0.24 158.8 C19.42 136.18, 39.08 113.57, 94.89 49.36 M0.16 164.44 C25.95 134.77, 51.74 105.1, 94.63 55.76 M0.16 164.44 C36.48 122.65, 72.81 80.86, 94.63 55.76 M0.55 170.08 C20.68 146.93, 40.8 123.78, 95.02 61.4 M0.55 170.08 C32.55 133.28, 64.54 96.47, 95.02 61.4 M6.19 169.69 C39.89 130.93, 73.58 92.17, 94.76 67.8 M6.19 169.69 C25.48 147.5, 44.76 125.32, 94.76 67.8 M11.18 170.05 C39.38 137.61, 67.57 105.18, 95.16 73.44 M11.18 170.05 C38.23 138.93, 65.28 107.81, 95.16 73.44 M16.83 169.65 C41.99 140.71, 67.15 111.76, 94.9 79.84 M16.83 169.65 C39.1 144.03, 61.37 118.4, 94.9 79.84 M21.81 170.01 C49.83 137.79, 77.84 105.56, 94.63 86.24 M21.81 170.01 C40.38 148.65, 58.94 127.3, 94.63 86.24 M27.46 169.62 C46.89 147.26, 66.32 124.91, 95.03 91.88 M27.46 169.62 C45.99 148.3, 64.52 126.98, 95.03 91.88 M32.44 169.98 C47.06 153.16, 61.68 136.34, 94.77 98.28 M32.44 169.98 C48.84 151.11, 65.24 132.24, 94.77 98.28 M38.09 169.58 C60.17 144.18, 82.25 118.78, 95.16 103.92 M38.09 169.58 C60.89 143.34, 83.7 117.11, 95.16 103.92 M43.07 169.94 C62.87 147.17, 82.67 124.39, 94.9 110.32 M43.07 169.94 C58.67 152, 74.26 134.07, 94.9 110.32 M48.72 169.55 C60.32 156.2, 71.93 142.84, 94.64 116.72 M48.72 169.55 C58.11 158.74, 67.51 147.93, 94.64 116.72 M53.7 169.91 C67.99 153.48, 82.27 137.05, 95.03 122.36 M53.7 169.91 C68.19 153.25, 82.67 136.59, 95.03 122.36 M59.35 169.51 C67.84 159.75, 76.33 149.98, 94.77 128.76 M59.35 169.51 C72.12 154.82, 84.9 140.12, 94.77 128.76 M64.33 169.87 C72.52 160.45, 80.71 151.03, 95.17 134.4 M64.33 169.87 C71.18 161.99, 78.03 154.11, 95.17 134.4 M69.98 169.48 C75.56 163.06, 81.14 156.63, 94.91 140.8 M69.98 169.48 C76.64 161.82, 83.29 154.16, 94.91 140.8 M74.96 169.84 C80.95 162.95, 86.94 156.06, 94.64 147.2 M74.96 169.84 C81.94 161.81, 88.92 153.78, 94.64 147.2 M80.61 169.45 C83.55 166.06, 86.49 162.68, 95.04 152.84 M80.61 169.45 C84.24 165.27, 87.87 161.09, 95.04 152.84 M85.59 169.81 C87.85 167.21, 90.11 164.61, 94.78 159.24 M85.59 169.81 C87.56 167.54, 89.53 165.27, 94.78 159.24 M91.24 169.41 C92.41 168.06, 93.59 166.7, 95.17 164.88 M91.24 169.41 C92.69 167.74, 94.15 166.06, 95.17 164.88" stroke="#ffec99" stroke-width="0.5" fill="none"></path><path d="M0 0 C37.62 0, 75.24 0, 94.37 0 M0 0 C27.47 0, 54.94 0, 94.37 0 M94.37 0 C94.37 58.42, 94.37 116.83, 94.37 169.03 M94.37 0 C94.37 57.62, 94.37 115.23, 94.37 169.03 M94.37 169.03 C73.7 169.03, 53.03 169.03, 0 169.03 M94.37 169.03 C68.47 169.03, 42.58 169.03, 0 169.03 M0 169.03 C0 115.21, 0 61.39, 0 0 M0 169.03 C0 106.69, 0 44.36, 0 0" stroke="#000000" stroke-width="1" fill="none"></path></g><g transform="translate(152.89171003861702 61.333598873727624) rotate(0 32.63581848144531 18.34208071694755)"><text x="0" y="0" font-family="Inter var, Segoe UI Emoji" font-size="9.782443049038688px" fill="#1e1e1e" text-anchor="start" style="white-space: pre;" direction="ltr" dominant-baseline="text-before-edge">height: 300px</text><text x="0" y="12.228053811298361" font-family="Inter var, Segoe UI Emoji" font-size="9.782443049038688px" fill="#1e1e1e" text-anchor="start" style="white-space: pre;" direction="ltr" dominant-baseline="text-before-edge">top: 0px,</text><text x="0" y="24.456107622596722" font-family="Inter var, Segoe UI Emoji" font-size="9.782443049038688px" fill="#1e1e1e" text-anchor="start" style="white-space: pre;" direction="ltr" dominant-baseline="text-before-edge">left: 80px</text></g><g stroke-linecap="round" transform="translate(25.17927990036219 51.639956561999725) rotate(0 47.18275890588541 71.94977898282349)"><path d="M0 0 C0 0, 0 0, 0 0 M0 0 C0 0, 0 0, 0 0 M-0.26 6.4 C0.84 5.13, 1.94 3.86, 4.99 0.36 M-0.26 6.4 C1.23 4.68, 2.73 2.96, 4.99 0.36 M0.13 12.04 C3.79 7.83, 7.45 3.63, 10.63 -0.03 M0.13 12.04 C4.21 7.35, 8.3 2.65, 10.63 -0.03 M-0.13 18.44 C5.1 12.42, 10.33 6.4, 15.62 0.33 M-0.13 18.44 C3.68 14.06, 7.48 9.69, 15.62 0.33 M0.27 24.08 C7.51 15.75, 14.75 7.42, 21.26 -0.07 M0.27 24.08 C4.64 19.06, 9 14.03, 21.26 -0.07 M0 30.48 C7.28 22.1, 14.56 13.73, 26.25 0.29 M0 30.48 C9.5 19.56, 18.99 8.64, 26.25 0.29 M-0.26 36.88 C7.68 27.75, 15.61 18.62, 31.89 -0.1 M-0.26 36.88 C8.26 27.08, 16.78 17.28, 31.89 -0.1 M0.14 42.52 C11.73 29.18, 23.32 15.85, 36.88 0.26 M0.14 42.52 C13.03 27.69, 25.91 12.87, 36.88 0.26 M-0.12 48.92 C8.83 38.62, 17.77 28.33, 42.52 -0.14 M-0.12 48.92 C12.84 34, 25.81 19.08, 42.52 -0.14 M0.27 54.56 C11.54 41.6, 22.81 28.63, 47.51 0.22 M0.27 54.56 C11.73 41.38, 23.19 28.19, 47.51 0.22 M0.01 60.96 C11.27 48, 22.54 35.04, 53.15 -0.17 M0.01 60.96 C15.87 42.71, 31.73 24.47, 53.15 -0.17 M-0.25 67.36 C20.79 43.15, 41.83 18.95, 58.14 0.19 M-0.25 67.36 C23.05 40.55, 46.36 13.73, 58.14 0.19 M0.14 73 C16.24 54.48, 32.34 35.96, 63.78 -0.21 M0.14 73 C15.99 54.77, 31.84 36.53, 63.78 -0.21 M-0.12 79.4 C21.69 54.31, 43.5 29.22, 68.77 0.15 M-0.12 79.4 C21.27 54.79, 42.66 30.19, 68.77 0.15 M0.28 85.04 C26.55 54.82, 52.82 24.59, 74.41 -0.24 M0.28 85.04 C28.82 52.2, 57.37 19.37, 74.41 -0.24 M0.01 91.44 C21.03 67.26, 42.05 43.08, 79.4 0.12 M0.01 91.44 C31.36 55.38, 62.7 19.33, 79.4 0.12 M-0.25 97.84 C30.44 62.53, 61.13 27.23, 85.04 -0.28 M-0.25 97.84 C30.77 62.15, 61.79 26.47, 85.04 -0.28 M0.15 103.48 C25.71 74.07, 51.27 44.67, 90.03 0.08 M0.15 103.48 C35.97 62.27, 71.79 21.07, 90.03 0.08 M-0.11 109.88 C31.72 73.26, 63.55 36.64, 95.01 0.44 M-0.11 109.88 C25.61 80.28, 51.34 50.69, 95.01 0.44 M0.28 115.52 C35.88 74.57, 71.47 33.63, 94.75 6.84 M0.28 115.52 C37.69 72.48, 75.11 29.44, 94.75 6.84 M0.02 121.92 C34.84 81.86, 69.66 41.81, 95.15 12.49 M0.02 121.92 C20.83 97.98, 41.63 74.05, 95.15 12.49 M-0.24 128.32 C24.98 99.31, 50.19 70.29, 94.89 18.88 M-0.24 128.32 C36.85 85.64, 73.94 42.97, 94.89 18.88 M0.15 133.96 C34.7 94.22, 69.25 54.48, 95.28 24.53 M0.15 133.96 C33.47 95.63, 66.8 57.3, 95.28 24.53 M-0.11 140.36 C37.41 97.19, 74.94 54.03, 95.02 30.92 M-0.11 140.36 C29.47 106.33, 59.05 72.3, 95.02 30.92 M0.94 145.25 C25.06 117.5, 49.17 89.76, 94.76 37.32 M0.94 145.25 C22.97 119.9, 45.01 94.56, 94.76 37.32 M6.58 144.85 C35.97 111.05, 65.35 77.25, 95.15 42.96 M6.58 144.85 C25.88 122.65, 45.18 100.45, 95.15 42.96 M11.57 145.21 C28.28 125.98, 45 106.76, 94.89 49.36 M11.57 145.21 C34.09 119.3, 56.62 93.39, 94.89 49.36 M17.21 144.82 C45.53 112.24, 73.85 79.66, 94.63 55.76 M17.21 144.82 C40.27 118.3, 63.32 91.78, 94.63 55.76 M22.2 145.18 C49.04 114.31, 75.87 83.43, 95.02 61.4 M22.2 145.18 C42.79 121.49, 63.38 97.8, 95.02 61.4 M27.84 144.78 C48.41 121.12, 68.98 97.46, 94.76 67.8 M27.84 144.78 C45.62 124.33, 63.4 103.88, 94.76 67.8 M32.83 145.14 C55.11 119.51, 77.39 93.89, 95.16 73.44 M32.83 145.14 C53.17 121.75, 73.5 98.36, 95.16 73.44 M38.48 144.75 C54.78 125.99, 71.08 107.24, 94.9 79.84 M38.48 144.75 C59.06 121.07, 79.64 97.4, 94.9 79.84 M43.46 145.11 C63.21 122.39, 82.96 99.67, 94.63 86.24 M43.46 145.11 C57.95 128.44, 72.44 111.77, 94.63 86.24 M49.11 144.71 C65.87 125.43, 82.63 106.15, 95.03 91.88 M49.11 144.71 C65.93 125.36, 82.76 106, 95.03 91.88 M54.09 145.07 C66.06 131.3, 78.03 117.53, 94.77 98.28 M54.09 145.07 C64.82 132.73, 75.55 120.39, 94.77 98.28 M59.74 144.68 C70.78 131.97, 81.83 119.26, 95.16 103.92 M59.74 144.68 C72.85 129.6, 85.96 114.51, 95.16 103.92 M64.72 145.04 C75.13 133.07, 85.53 121.1, 94.9 110.32 M64.72 145.04 C70.96 137.86, 77.2 130.68, 94.9 110.32 M70.37 144.64 C75.89 138.28, 81.42 131.92, 94.64 116.72 M70.37 144.64 C75.3 138.97, 80.24 133.29, 94.64 116.72 M75.35 145 C79.71 139.99, 84.08 134.97, 95.03 122.36 M75.35 145 C80.84 138.7, 86.32 132.39, 95.03 122.36 M81 144.61 C85.58 139.34, 90.16 134.06, 94.77 128.76 M81 144.61 C84.05 141.09, 87.11 137.57, 94.77 128.76 M85.98 144.97 C88.1 142.53, 90.22 140.09, 95.17 134.4 M85.98 144.97 C88.5 142.07, 91.02 139.17, 95.17 134.4 M91.63 144.57 C92.83 143.18, 94.04 141.79, 94.91 140.8 M91.63 144.57 C92.64 143.41, 93.66 142.24, 94.91 140.8" stroke="#ffec99" stroke-width="0.5" fill="none"></path><path d="M0 0 C33.75 0, 67.5 0, 94.37 0 M0 0 C31.17 0, 62.33 0, 94.37 0 M94.37 0 C94.37 52.27, 94.37 104.54, 94.37 143.9 M94.37 0 C94.37 40.01, 94.37 80.02, 94.37 143.9 M94.37 143.9 C60.77 143.9, 27.18 143.9, 0 143.9 M94.37 143.9 C73.19 143.9, 52.02 143.9, 0 143.9 M0 143.9 C0 91.75, 0 39.6, 0 0 M0 143.9 C0 98.82, 0 53.75, 0 0" stroke="#000000" stroke-width="1" fill="none"></path></g><g transform="translate(36.95556502191016 60.28284019461256) rotate(0 31.981157713161565 18.081317334308125)"><text x="0" y="0" font-family="Inter var, Segoe UI Emoji" font-size="9.643369244964322px" fill="#1e1e1e" text-anchor="start" style="white-space: pre;" direction="ltr" dominant-baseline="text-before-edge">height: 250px</text><text x="0" y="12.054211556205402" font-family="Inter var, Segoe UI Emoji" font-size="9.643369244964322px" fill="#1e1e1e" text-anchor="start" style="white-space: pre;" direction="ltr" dominant-baseline="text-before-edge">top: 0px</text><text x="0" y="24.108423112410804" font-family="Inter var, Segoe UI Emoji" font-size="9.643369244964322px" fill="#1e1e1e" text-anchor="start" style="white-space: pre;" direction="ltr" dominant-baseline="text-before-edge">left: 0px</text></g><g stroke-linecap="round" transform="translate(248.30410100751965 153.0350413834949) rotate(0 47.18275890588541 86.7312789024732)"><path d="M0 0 C0 0, 0 0, 0 0 M0 0 C0 0, 0 0, 0 0 M-0.26 6.4 C0.81 5.17, 1.87 3.94, 4.99 0.36 M-0.26 6.4 C1.08 4.86, 2.41 3.32, 4.99 0.36 M0.13 12.04 C3.14 8.59, 6.14 5.13, 10.63 -0.03 M0.13 12.04 C2.72 9.07, 5.3 6.09, 10.63 -0.03 M-0.13 18.44 C4.35 13.29, 8.82 8.14, 15.62 0.33 M-0.13 18.44 C3.39 14.39, 6.91 10.34, 15.62 0.33 M0.27 24.08 C7.52 15.74, 14.76 7.4, 21.26 -0.07 M0.27 24.08 C8.26 14.88, 16.26 5.69, 21.26 -0.07 M0 30.48 C6.23 23.32, 12.46 16.15, 26.25 0.29 M0 30.48 C8.1 21.17, 16.19 11.86, 26.25 0.29 M-0.26 36.88 C8.32 27.01, 16.9 17.14, 31.89 -0.1 M-0.26 36.88 C11.74 23.08, 23.73 9.28, 31.89 -0.1 M0.14 42.52 C14.77 25.69, 29.4 8.86, 36.88 0.26 M0.14 42.52 C11.15 29.85, 22.17 17.18, 36.88 0.26 M-0.12 48.92 C15.75 30.66, 31.62 12.4, 42.52 -0.14 M-0.12 48.92 C14.91 31.63, 29.93 14.34, 42.52 -0.14 M0.27 54.56 C10.88 42.36, 21.49 30.15, 47.51 0.22 M0.27 54.56 C15.18 37.41, 30.09 20.25, 47.51 0.22 M0.01 60.96 C10.91 48.42, 21.8 35.89, 53.15 -0.17 M0.01 60.96 C14.67 44.09, 29.34 27.22, 53.15 -0.17 M-0.25 67.36 C17.02 47.48, 34.3 27.61, 58.14 0.19 M-0.25 67.36 C11.57 53.75, 23.4 40.15, 58.14 0.19 M0.14 73 C21.19 48.79, 42.23 24.58, 63.78 -0.21 M0.14 73 C21.08 48.91, 42.02 24.82, 63.78 -0.21 M-0.12 79.4 C21.46 54.57, 43.05 29.74, 68.77 0.15 M-0.12 79.4 C22.94 52.87, 45.99 26.35, 68.77 0.15 M0.28 85.04 C25.21 56.35, 50.15 27.66, 74.41 -0.24 M0.28 85.04 C24.39 57.3, 48.51 29.55, 74.41 -0.24 M0.01 91.44 C23.84 64.03, 47.67 36.62, 79.4 0.12 M0.01 91.44 C17.07 71.82, 34.13 52.2, 79.4 0.12 M-0.25 97.84 C19.48 75.15, 39.2 52.46, 85.04 -0.28 M-0.25 97.84 C25.89 67.77, 52.02 37.71, 85.04 -0.28 M0.15 103.48 C18.25 82.65, 36.36 61.82, 90.03 0.08 M0.15 103.48 C24.75 75.18, 49.35 46.88, 90.03 0.08 M-0.11 109.88 C23.32 82.92, 46.75 55.96, 95.01 0.44 M-0.11 109.88 C32.43 72.44, 64.97 35.01, 95.01 0.44 M0.28 115.52 C27.12 84.64, 53.97 53.76, 94.75 6.84 M0.28 115.52 C25.79 86.17, 51.3 56.83, 94.75 6.84 M0.02 121.92 C22.32 96.26, 44.63 70.6, 95.15 12.49 M0.02 121.92 C31.43 85.78, 62.85 49.64, 95.15 12.49 M-0.24 128.32 C31.82 91.43, 63.88 54.55, 94.89 18.88 M-0.24 128.32 C27.43 96.49, 55.1 64.66, 94.89 18.88 M0.15 133.96 C25.88 104.37, 51.6 74.77, 95.28 24.53 M0.15 133.96 C37.91 90.53, 75.66 47.1, 95.28 24.53 M-0.11 140.36 C25.66 110.72, 51.42 81.08, 95.02 30.92 M-0.11 140.36 C33.3 101.92, 66.72 63.48, 95.02 30.92 M0.29 146 C23.98 118.74, 47.68 91.48, 94.76 37.32 M0.29 146 C28.27 113.81, 56.25 81.62, 94.76 37.32 M0.02 152.4 C30.29 117.58, 60.55 82.77, 95.15 42.96 M0.02 152.4 C37.54 109.24, 75.06 66.08, 95.15 42.96 M-0.24 158.8 C27.75 126.6, 55.74 94.4, 94.89 49.36 M-0.24 158.8 C19.78 135.77, 39.79 112.75, 94.89 49.36 M0.16 164.44 C22.2 139.08, 44.24 113.72, 94.63 55.76 M0.16 164.44 C27.71 132.74, 55.27 101.04, 94.63 55.76 M-0.1 170.84 C32.33 133.52, 64.76 96.21, 95.02 61.4 M-0.1 170.84 C33.19 132.54, 66.48 94.24, 95.02 61.4 M1.6 174.97 C28.88 143.59, 56.15 112.22, 94.76 67.8 M1.6 174.97 C24.2 148.98, 46.79 122.99, 94.76 67.8 M7.25 174.58 C38.3 138.85, 69.36 103.12, 95.16 73.44 M7.25 174.58 C38.31 138.84, 69.38 103.1, 95.16 73.44 M12.23 174.94 C36.59 146.92, 60.94 118.9, 94.9 79.84 M12.23 174.94 C43.19 139.32, 74.16 103.7, 94.9 79.84 M17.88 174.54 C42.08 146.7, 66.29 118.85, 94.63 86.24 M17.88 174.54 C39.93 149.17, 61.98 123.8, 94.63 86.24 M22.86 174.9 C48.77 145.1, 74.68 115.29, 95.03 91.88 M22.86 174.9 C47.65 146.39, 72.43 117.88, 95.03 91.88 M27.85 175.26 C43.45 157.31, 59.05 139.37, 94.77 98.28 M27.85 175.26 C44.35 156.28, 60.84 137.31, 94.77 98.28 M33.49 174.87 C53.71 151.61, 73.93 128.35, 95.16 103.92 M33.49 174.87 C54.03 151.24, 74.57 127.61, 95.16 103.92 M38.48 175.23 C57.35 153.51, 76.23 131.8, 94.9 110.32 M38.48 175.23 C58.45 152.26, 78.41 129.29, 94.9 110.32 M44.12 174.83 C62.56 153.63, 80.99 132.42, 94.64 116.72 M44.12 174.83 C57.02 159.99, 69.92 145.15, 94.64 116.72 M49.11 175.19 C61.48 160.96, 73.85 146.74, 95.03 122.36 M49.11 175.19 C65.67 156.15, 82.22 137.1, 95.03 122.36 M54.75 174.8 C69 158.41, 83.24 142.03, 94.77 128.76 M54.75 174.8 C68.78 158.67, 82.8 142.53, 94.77 128.76 M59.74 175.16 C70.69 162.56, 81.64 149.96, 95.17 134.4 M59.74 175.16 C68.44 165.15, 77.13 155.15, 95.17 134.4 M65.38 174.76 C74.49 164.29, 83.6 153.81, 94.91 140.8 M65.38 174.76 C76.79 161.64, 88.2 148.51, 94.91 140.8 M70.37 175.12 C78.8 165.42, 87.24 155.72, 94.64 147.2 M70.37 175.12 C75.61 169.09, 80.86 163.06, 94.64 147.2 M76.01 174.73 C82.71 167.02, 89.41 159.32, 95.04 152.84 M76.01 174.73 C80.96 169.04, 85.9 163.36, 95.04 152.84 M81 175.09 C85.13 170.34, 89.26 165.59, 94.78 159.24 M81 175.09 C85.24 170.21, 89.48 165.34, 94.78 159.24 M86.64 174.69 C89.52 171.38, 92.41 168.07, 95.17 164.88 M86.64 174.69 C90.01 170.82, 93.38 166.94, 95.17 164.88 M91.63 175.05 C92.62 173.91, 93.62 172.77, 94.91 171.28 M91.63 175.05 C92.89 173.61, 94.15 172.16, 94.91 171.28" stroke="#ffec99" stroke-width="0.5" fill="none"></path><path d="M0 0 C37.16 0, 74.33 0, 94.37 0 M0 0 C30.19 0, 60.38 0, 94.37 0 M94.37 0 C94.37 56.28, 94.37 112.56, 94.37 173.46 M94.37 0 C94.37 60.1, 94.37 120.19, 94.37 173.46 M94.37 173.46 C58.77 173.46, 23.16 173.46, 0 173.46 M94.37 173.46 C59.01 173.46, 23.65 173.46, 0 173.46 M0 173.46 C0 107.44, 0 41.41, 0 0 M0 173.46 C0 114.42, 0 55.38, 0 0" stroke="#000000" stroke-width="1" fill="none"></path></g><g transform="translate(263.9644927069269 165.90144169370456) rotate(0 31.022431532314386 17.460120479535533)"><text x="0" y="0" font-family="Inter var, Segoe UI Emoji" font-size="9.312064255752297px" fill="#1e1e1e" text-anchor="start" style="white-space: pre;" direction="ltr" dominant-baseline="text-before-edge">height: 330px</text><text x="0" y="11.640080319690371" font-family="Inter var, Segoe UI Emoji" font-size="9.312064255752297px" fill="#1e1e1e" text-anchor="start" style="white-space: pre;" direction="ltr" dominant-baseline="text-before-edge">top: 120px</text><text x="0" y="23.280160639380743" font-family="Inter var, Segoe UI Emoji" font-size="9.312064255752297px" fill="#1e1e1e" text-anchor="start" style="white-space: pre;" direction="ltr" dominant-baseline="text-before-edge">left: 160px</text></g><g stroke-linecap="round" transform="translate(136.88170225549402 239.70679922995964) rotate(0 47.18275890588541 39.87384734799383)"><path d="M0 0 C0 0, 0 0, 0 0 M0 0 C0 0, 0 0, 0 0 M-0.26 6.4 C1.43 4.45, 3.13 2.5, 4.99 0.36 M-0.26 6.4 C1.36 4.53, 2.98 2.67, 4.99 0.36 M0.13 12.04 C3.37 8.32, 6.6 4.6, 10.63 -0.03 M0.13 12.04 C2.91 8.85, 5.68 5.66, 10.63 -0.03 M-0.13 18.44 C5.81 11.6, 11.76 4.77, 15.62 0.33 M-0.13 18.44 C4.69 12.89, 9.51 7.35, 15.62 0.33 M0.27 24.08 C6.95 16.4, 13.63 8.71, 21.26 -0.07 M0.27 24.08 C8.3 14.84, 16.33 5.6, 21.26 -0.07 M0 30.48 C6.57 22.92, 13.14 15.37, 26.25 0.29 M0 30.48 C8.56 20.64, 17.12 10.8, 26.25 0.29 M-0.26 36.88 C10.83 24.13, 21.91 11.38, 31.89 -0.1 M-0.26 36.88 C7.21 28.29, 14.67 19.7, 31.89 -0.1 M0.14 42.52 C12.73 28.03, 25.33 13.54, 36.88 0.26 M0.14 42.52 C9.06 32.25, 17.99 21.99, 36.88 0.26 M-0.12 48.92 C11.59 35.44, 23.31 21.96, 42.52 -0.14 M-0.12 48.92 C13.8 32.9, 27.72 16.89, 42.52 -0.14 M0.27 54.56 C18.14 34.01, 36 13.46, 47.51 0.22 M0.27 54.56 C12.52 40.47, 24.77 26.38, 47.51 0.22 M0.01 60.96 C11.56 47.67, 23.11 34.39, 53.15 -0.17 M0.01 60.96 C11.01 48.3, 22.02 35.64, 53.15 -0.17 M-0.25 67.36 C11.51 53.83, 23.27 40.3, 58.14 0.19 M-0.25 67.36 C17.61 46.81, 35.48 26.25, 58.14 0.19 M0.14 73 C19.46 50.78, 38.78 28.55, 63.78 -0.21 M0.14 73 C15.66 55.15, 31.18 37.3, 63.78 -0.21 M-0.12 79.4 C26.02 49.32, 52.17 19.25, 68.77 0.15 M-0.12 79.4 C16.53 60.24, 33.18 41.09, 68.77 0.15 M2.9 82.02 C23.37 58.47, 43.85 34.92, 74.41 -0.24 M2.9 82.02 C19.68 62.72, 36.46 43.41, 74.41 -0.24 M7.89 82.38 C22.28 65.83, 36.67 49.28, 79.4 0.12 M7.89 82.38 C26.01 61.53, 44.14 40.68, 79.4 0.12 M13.53 81.99 C37.87 53.99, 62.2 26, 85.04 -0.28 M13.53 81.99 C28.23 65.08, 42.93 48.17, 85.04 -0.28 M18.52 82.35 C38.35 59.54, 58.18 36.73, 90.03 0.08 M18.52 82.35 C36.85 61.26, 55.18 40.17, 90.03 0.08 M24.16 81.95 C42.74 60.58, 61.32 39.21, 95.01 0.44 M24.16 81.95 C39.08 64.79, 54.01 47.62, 95.01 0.44 M29.15 82.31 C51.47 56.63, 73.79 30.95, 94.75 6.84 M29.15 82.31 C48.41 60.16, 67.67 38, 94.75 6.84 M34.79 81.92 C51.12 63.14, 67.45 44.35, 95.15 12.49 M34.79 81.92 C54.84 58.85, 74.89 35.79, 95.15 12.49 M39.78 82.28 C53.26 66.77, 66.74 51.26, 94.89 18.88 M39.78 82.28 C58.32 60.95, 76.86 39.62, 94.89 18.88 M45.42 81.88 C55.67 70.09, 65.92 58.3, 95.28 24.53 M45.42 81.88 C59.41 65.79, 73.41 49.69, 95.28 24.53 M50.41 82.24 C66.76 63.43, 83.12 44.61, 95.02 30.92 M50.41 82.24 C63.1 67.64, 75.79 53.04, 95.02 30.92 M56.05 81.85 C68.81 67.17, 81.58 52.49, 94.76 37.32 M56.05 81.85 C71.32 64.28, 86.6 46.71, 94.76 37.32 M61.04 82.21 C68.01 74.18, 74.99 66.16, 95.15 42.96 M61.04 82.21 C73.5 67.87, 85.96 53.54, 95.15 42.96 M66.68 81.81 C75.91 71.2, 85.13 60.59, 94.89 49.36 M66.68 81.81 C73.47 74.01, 80.25 66.2, 94.89 49.36 M71.67 82.18 C80.35 72.18, 89.04 62.19, 94.63 55.76 M71.67 82.18 C79.35 73.34, 87.03 64.5, 94.63 55.76 M76.65 82.54 C82.23 76.12, 87.8 69.71, 95.02 61.4 M76.65 82.54 C80.57 78.03, 84.49 73.52, 95.02 61.4 M82.3 82.14 C85.17 78.84, 88.03 75.54, 94.76 67.8 M82.3 82.14 C85.74 78.18, 89.18 74.23, 94.76 67.8 M87.28 82.5 C90.33 79, 93.38 75.49, 95.16 73.44 M87.28 82.5 C89.93 79.46, 92.57 76.42, 95.16 73.44" stroke="#ffec99" stroke-width="0.5" fill="none"></path><path d="M0 0 C21.72 0, 43.45 0, 94.37 0 M0 0 C36.15 0, 72.29 0, 94.37 0 M94.37 0 C94.37 21.75, 94.37 43.49, 94.37 79.75 M94.37 0 C94.37 25.83, 94.37 51.65, 94.37 79.75 M94.37 79.75 C66.38 79.75, 38.4 79.75, 0 79.75 M94.37 79.75 C65.33 79.75, 36.29 79.75, 0 79.75 M0 79.75 C0 63.23, 0 46.72, 0 0 M0 79.75 C0 48.87, 0 17.98, 0 0" stroke="#000000" stroke-width="1" fill="none"></path></g><g transform="translate(158.3729079338807 249.89680912101335) rotate(0 29.12718745879397 18.705293396138757)"><text x="0" y="0" font-family="Inter var, Segoe UI Emoji" font-size="9.976156477940663px" fill="#1e1e1e" text-anchor="start" style="white-space: pre;" direction="ltr" dominant-baseline="text-before-edge">height: 70px</text><text x="0" y="12.470195597425828" font-family="Inter var, Segoe UI Emoji" font-size="9.976156477940663px" fill="#1e1e1e" text-anchor="start" style="white-space: pre;" direction="ltr" dominant-baseline="text-before-edge">top: 310px</text><text x="0" y="24.940391194851657" font-family="Inter var, Segoe UI Emoji" font-size="9.976156477940663px" fill="#1e1e1e" text-anchor="start" style="white-space: pre;" direction="ltr" dominant-baseline="text-before-edge">left: 80px</text></g><g stroke-linecap="round" transform="translate(24.999325015139902 214.5817609580307) rotate(0 47.18275890588541 56.18978487744448)"><path d="M0 0 C0 0, 0 0, 0 0 M0 0 C0 0, 0 0, 0 0 M-0.26 6.4 C1.13 4.8, 2.52 3.19, 4.99 0.36 M-0.26 6.4 C1.42 4.46, 3.1 2.53, 4.99 0.36 M0.13 12.04 C4.13 7.44, 8.13 2.84, 10.63 -0.03 M0.13 12.04 C2.46 9.36, 4.8 6.68, 10.63 -0.03 M-0.13 18.44 C4.58 13.02, 9.29 7.6, 15.62 0.33 M-0.13 18.44 C4.96 12.58, 10.05 6.73, 15.62 0.33 M0.27 24.08 C7.01 16.32, 13.76 8.56, 21.26 -0.07 M0.27 24.08 C5.56 17.99, 10.86 11.9, 21.26 -0.07 M0 30.48 C10.35 18.57, 20.7 6.67, 26.25 0.29 M0 30.48 C5.46 24.21, 10.91 17.93, 26.25 0.29 M-0.26 36.88 C7.1 28.42, 14.45 19.96, 31.89 -0.1 M-0.26 36.88 C10.68 24.3, 21.61 11.72, 31.89 -0.1 M0.14 42.52 C8.14 33.31, 16.14 24.11, 36.88 0.26 M0.14 42.52 C12.37 28.45, 24.6 14.38, 36.88 0.26 M-0.12 48.92 C15.06 31.45, 30.25 13.98, 42.52 -0.14 M-0.12 48.92 C16.24 30.1, 32.6 11.28, 42.52 -0.14 M0.27 54.56 C17.2 35.09, 34.13 15.61, 47.51 0.22 M0.27 54.56 C18.48 33.61, 36.7 12.66, 47.51 0.22 M0.01 60.96 C20.11 37.84, 40.2 14.72, 53.15 -0.17 M0.01 60.96 C16.42 42.09, 32.82 23.21, 53.15 -0.17 M-0.25 67.36 C18.82 45.41, 37.9 23.47, 58.14 0.19 M-0.25 67.36 C21.99 41.77, 44.24 16.18, 58.14 0.19 M0.14 73 C25.06 44.34, 49.98 15.67, 63.78 -0.21 M0.14 73 C17.3 53.26, 34.46 33.53, 63.78 -0.21 M-0.12 79.4 C24.36 51.24, 48.84 23.07, 68.77 0.15 M-0.12 79.4 C17.95 58.61, 36.02 37.83, 68.77 0.15 M0.28 85.04 C23.61 58.2, 46.95 31.35, 74.41 -0.24 M0.28 85.04 C18.7 63.85, 37.12 42.65, 74.41 -0.24 M0.01 91.44 C31.68 55.01, 63.34 18.59, 79.4 0.12 M0.01 91.44 C23.89 63.97, 47.77 36.5, 79.4 0.12 M-0.25 97.84 C24.33 69.56, 48.91 41.28, 85.04 -0.28 M-0.25 97.84 C21.58 72.73, 43.4 47.62, 85.04 -0.28 M0.15 103.48 C30.12 69, 60.09 34.53, 90.03 0.08 M0.15 103.48 C26.76 72.87, 53.37 42.26, 90.03 0.08 M-0.11 109.88 C25.96 79.88, 52.04 49.88, 95.01 0.44 M-0.11 109.88 C31.3 73.73, 62.72 37.59, 95.01 0.44 M1.59 114.01 C34.88 75.72, 68.17 37.42, 94.75 6.84 M1.59 114.01 C36.58 73.76, 71.57 33.51, 94.75 6.84 M7.24 113.62 C29.8 87.66, 52.36 61.71, 95.15 12.49 M7.24 113.62 C36.97 79.41, 66.71 45.2, 95.15 12.49 M12.22 113.98 C44.51 76.83, 76.8 39.69, 94.89 18.88 M12.22 113.98 C44.88 76.4, 77.55 38.83, 94.89 18.88 M17.87 113.58 C36.58 92.05, 55.3 70.52, 95.28 24.53 M17.87 113.58 C46.87 80.22, 75.88 46.85, 95.28 24.53 M22.85 113.94 C42.71 91.1, 62.57 68.25, 95.02 30.92 M22.85 113.94 C47.28 85.84, 71.71 57.74, 95.02 30.92 M28.5 113.55 C45.55 93.93, 62.6 74.31, 94.76 37.32 M28.5 113.55 C52.51 85.93, 76.52 58.3, 94.76 37.32 M33.48 113.91 C56.6 87.31, 79.72 60.71, 95.15 42.96 M33.48 113.91 C53.07 91.37, 72.66 68.84, 95.15 42.96 M39.13 113.51 C58.82 90.85, 78.52 68.19, 94.89 49.36 M39.13 113.51 C53.2 97.32, 67.28 81.13, 94.89 49.36 M44.11 113.87 C63.08 92.05, 82.05 70.24, 94.63 55.76 M44.11 113.87 C62.94 92.21, 81.77 70.55, 94.63 55.76 M49.1 114.23 C58.33 103.61, 67.56 93, 95.02 61.4 M49.1 114.23 C59.38 102.4, 69.67 90.57, 95.02 61.4 M54.74 113.84 C66.12 100.75, 77.51 87.65, 94.76 67.8 M54.74 113.84 C65.62 101.32, 76.51 88.8, 94.76 67.8 M59.73 114.2 C70.15 102.21, 80.57 90.23, 95.16 73.44 M59.73 114.2 C69.8 102.62, 79.87 91.03, 95.16 73.44 M65.37 113.8 C72.2 105.95, 79.02 98.1, 94.9 79.84 M65.37 113.8 C74.57 103.22, 83.77 92.64, 94.9 79.84 M70.36 114.16 C78.81 104.45, 87.26 94.73, 94.63 86.24 M70.36 114.16 C76.88 106.66, 83.4 99.16, 94.63 86.24 M76 113.77 C81.09 107.92, 86.17 102.08, 95.03 91.88 M76 113.77 C82.02 106.85, 88.03 99.94, 95.03 91.88 M80.99 114.13 C85.12 109.38, 89.26 104.62, 94.77 98.28 M80.99 114.13 C84.31 110.31, 87.63 106.5, 94.77 98.28 M86.63 113.73 C89.75 110.15, 92.87 106.56, 95.16 103.92 M86.63 113.73 C88.66 111.4, 90.69 109.06, 95.16 103.92 M91.62 114.09 C92.63 112.93, 93.65 111.76, 94.9 110.32 M91.62 114.09 C92.58 112.99, 93.54 111.89, 94.9 110.32" stroke="#ffec99" stroke-width="0.5" fill="none"></path><path d="M0 0 C34.14 0, 68.27 0, 94.37 0 M0 0 C30.27 0, 60.54 0, 94.37 0 M94.37 0 C94.37 36.32, 94.37 72.64, 94.37 112.38 M94.37 0 C94.37 41.13, 94.37 82.26, 94.37 112.38 M94.37 112.38 C66.11 112.38, 37.85 112.38, 0 112.38 M94.37 112.38 C67.57 112.38, 40.77 112.38, 0 112.38 M0 112.38 C0 73.3, 0 34.22, 0 0 M0 112.38 C0 70.9, 0 29.43, 0 0" stroke="#000000" stroke-width="1" fill="none"></path></g><g transform="translate(33.852600988441054 222.912286373857) rotate(0 29.9687142564768 16.771468903256846)"><text x="0" y="0" font-family="Inter var, Segoe UI Emoji" font-size="8.944783415070313px" fill="#1e1e1e" text-anchor="start" style="white-space: pre;" direction="ltr" dominant-baseline="text-before-edge">height: 200px</text><text x="0" y="11.180979268837891" font-family="Inter var, Segoe UI Emoji" font-size="8.944783415070313px" fill="#1e1e1e" text-anchor="start" style="white-space: pre;" direction="ltr" dominant-baseline="text-before-edge">top: 260px</text><text x="0" y="22.361958537675783" font-family="Inter var, Segoe UI Emoji" font-size="8.944783415070313px" fill="#1e1e1e" text-anchor="start" style="white-space: pre;" direction="ltr" dominant-baseline="text-before-edge">left: 0px</text></g></svg>