<svg id="7d1857de-4e1d-4ad3-937b-baacafe47dc3" data-name="Layer 1" xmlns="http://www.w3.org/2000/svg" xmlns:xlink="http://www.w3.org/1999/xlink" width="1030.01" height="729.86" viewBox="0 0 1030.01 729.86"><defs><linearGradient id="a5312bde-8c7e-4767-9e17-08a43f21bf92" x1="889.13" y1="701.85" x2="889.13" y2="363.3" gradientUnits="userSpaceOnUse"><stop offset="0" stop-color="gray" stop-opacity="0.25"/><stop offset="0.54" stop-color="gray" stop-opacity="0.12"/><stop offset="1" stop-color="gray" stop-opacity="0.1"/></linearGradient><linearGradient id="016d359d-0d48-4404-968f-1612e9b5c7a7" x1="376.53" y1="777.06" x2="376.53" y2="381.85" xlink:href="#a5312bde-8c7e-4767-9e17-08a43f21bf92"/></defs><title>static_assets</title><ellipse cx="814.66" cy="585.22" rx="211.36" ry="41.08" fill="#ffc107" opacity="0.1"/><g opacity="0.5"><path d="M718.61,188.63c-2.85.81-6.34,2.92-8.06,8.69-3.37,11.31,4.46,19,1.88,30.79a23,23,0,0,1-4,8.64c-3.15,4.27-6.57,6.29-9.89,9.28a29.5,29.5,0,0,0-8.69,14.27,39.5,39.5,0,0,0-.39,18.55c1.18,5.12,3.19,8.85,4.95,13a96,96,0,0,1,5.11,16.37,39.87,39.87,0,0,1,1.12,8.32,73.21,73.21,0,0,1-1,11.12l-4.79,33.42a100.43,100.43,0,0,0-1.31,13.21,65.61,65.61,0,0,0,1.53,13.19c1.68,8.84,3.49,18,7.34,22.68s10.41,3,14.44-6.47c3.83-9.06,3.92-21.15,7.3-30.83,5.33-15.25,15.92-17.3,21.8-31.85,5.64-14,3.91-31.08,6.77-47,2-11.41,6.41-21.81,9-33.08,3.72-16.23,3.35-33.08.38-45.56a60.55,60.55,0,0,0-14.18-27.54c-2.49-2.75-5.16-5.2-8.29-5.45-3.33-.26-6.24,3.93-9.53,5.19C726.3,189.06,722.48,187.53,718.61,188.63Z" transform="translate(-84.99 -85.07)" fill="#ffc107"/><path d="M736.64,183.23S731,327.57,707.28,412.68" transform="translate(-84.99 -85.07)" fill="none" stroke="#535461" stroke-miterlimit="10" stroke-width="2"/><path d="M710.41,198s25.35,23.08,20.54,67" transform="translate(-84.99 -85.07)" fill="none" stroke="#535461" stroke-miterlimit="10" stroke-width="2"/><path d="M689.14,263.68s41.61,8.37,38.52,33.26" transform="translate(-84.99 -85.07)" fill="none" stroke="#535461" stroke-miterlimit="10" stroke-width="2"/><path d="M762.17,215.07s-16.84,14.74-31.84,56.49" transform="translate(-84.99 -85.07)" fill="none" stroke="#535461" stroke-miterlimit="10" stroke-width="2"/><path d="M745.72,341.25s-11.49,9-20.71-22.51" transform="translate(-84.99 -85.07)" fill="none" stroke="#535461" stroke-miterlimit="10" stroke-width="2"/><path d="M696.14,359.66s23.43-3.06,25.59-17.73" transform="translate(-84.99 -85.07)" fill="none" stroke="#535461" stroke-miterlimit="10" stroke-width="2"/></g><path d="M775.25,91.82c-5.8.86-12.78,3.55-15.65,11.84-5.63,16.26,11.48,28.57,7.54,45.56A25.53,25.53,0,0,1,760,161.47c-6,5.91-12.86,8.49-19.36,12.5s-13.25,10.32-16.3,20c-2.93,9.31-1.66,19.59,1.39,27.27s7.66,13.41,11.78,19.73A133.69,133.69,0,0,1,750,265.67,46.94,46.94,0,0,1,753.32,278c.53,5.2-.14,10.79-.81,16.26L746.56,343c-.79,6.48-1.59,13.06-1.14,19.3.51,7.19,2.64,13.47,4.74,19.6,4.52,13.22,9.36,27,17.89,34.28s21.91,5.72,29.12-7.82c6.86-12.89,5.6-30.68,11.45-44.53,9.22-21.83,30.9-23.6,41.33-44.32,10-19.88,4.41-45.31,8.43-68.41,2.88-16.55,10.68-31.35,14.68-47.64,5.77-23.47,3-48.32-4.62-67s-19.67-32-32.6-42.23c-5.48-4.35-11.29-8.28-17.8-9-6.92-.77-12.45,5.05-19.1,6.52C791.2,93.36,783.12,90.65,775.25,91.82Z" transform="translate(-84.99 -85.07)" fill="#ffc107"/><path d="M811.93,86s5.46,211.89-33.56,334.42" transform="translate(-84.99 -85.07)" fill="none" stroke="#535461" stroke-miterlimit="10" stroke-width="2"/><path d="M759.38,104.68s55.2,37,50.47,101.16" transform="translate(-84.99 -85.07)" fill="none" stroke="#535461" stroke-miterlimit="10" stroke-width="2"/><path d="M723.15,198.85s87.12,17.26,83.68,53.54" transform="translate(-84.99 -85.07)" fill="none" stroke="#535461" stroke-miterlimit="10" stroke-width="2"/><path d="M868.54,135.92s-33.11,19.71-59.19,79.41" transform="translate(-84.99 -85.07)" fill="none" stroke="#535461" stroke-miterlimit="10" stroke-width="2"/><path d="M849.43,319.79s-22.7,12-45.53-35.61" transform="translate(-84.99 -85.07)" fill="none" stroke="#535461" stroke-miterlimit="10" stroke-width="2"/><path d="M749,341s48.13-1.73,50.87-23.08" transform="translate(-84.99 -85.07)" fill="none" stroke="#535461" stroke-miterlimit="10" stroke-width="2"/><path d="M152.24,663.66s8.38,11-3.87,27.5S126,721.68,130.11,732c0,0,18.48-30.73,33.52-31.16S168.79,682.14,152.24,663.66Z" transform="translate(-84.99 -85.07)" fill="#ffc107"/><path d="M152.24,663.66A13.57,13.57,0,0,1,154,667.1c14.68,17.24,22.49,33.33,8.39,33.74-13.14.38-28.9,23.87-32.68,29.81a12.74,12.74,0,0,0,.45,1.35s18.48-30.73,33.52-31.16S168.79,682.14,152.24,663.66Z" transform="translate(-84.99 -85.07)" opacity="0.1"/><path d="M167.82,677.63c0,3.86-.43,7-1,7s-1-3.13-1-7,.54-2,1.07-2S167.82,673.77,167.82,677.63Z" transform="translate(-84.99 -85.07)" fill="#ffd037"/><path d="M173.17,682.23c-3.39,1.85-6.34,3-6.59,2.49s2.28-2.35,5.67-4.19,2.05-.5,2.31,0S176.55,680.38,173.17,682.23Z" transform="translate(-84.99 -85.07)" fill="#ffd037"/><path d="M108,663.66s-8.38,11,3.87,27.5,22.35,30.51,18.26,40.83c0,0-18.48-30.73-33.52-31.16S91.43,682.14,108,663.66Z" transform="translate(-84.99 -85.07)" fill="#ffc107"/><path d="M108,663.66a13.57,13.57,0,0,0-1.71,3.44c-14.68,17.24-22.49,33.33-8.39,33.74,13.14.38,28.9,23.87,32.68,29.81a12.74,12.74,0,0,1-.45,1.35s-18.48-30.73-33.52-31.16S91.43,682.14,108,663.66Z" transform="translate(-84.99 -85.07)" opacity="0.1"/><path d="M92.4,677.63c0,3.86.43,7,1,7s1-3.13,1-7-.54-2-1.07-2S92.4,673.77,92.4,677.63Z" transform="translate(-84.99 -85.07)" fill="#ffd037"/><path d="M87.05,682.23c3.39,1.85,6.34,3,6.59,2.49s-2.28-2.35-5.67-4.19-2.05-.5-2.31,0S83.67,680.38,87.05,682.23Z" transform="translate(-84.99 -85.07)" fill="#ffd037"/><path d="M95.07,730.56s23.43-.72,30.49-5.75,36-11,37.79-3,35.21,40.11,8.76,40.32-61.46-4.12-68.51-8.41S95.07,730.56,95.07,730.56Z" transform="translate(-84.99 -85.07)" fill="#a8a8a8"/><path d="M172.58,759.35c-26.45.21-61.46-4.12-68.51-8.41-5.37-3.27-7.51-15-8.22-20.41l-.78,0s1.48,18.9,8.53,23.19,42.06,8.63,68.51,8.41c7.64-.06,10.27-2.78,10.13-6.8C181.18,757.79,178.27,759.31,172.58,759.35Z" transform="translate(-84.99 -85.07)" opacity="0.2"/><path d="M1067.35,659.11a11.67,11.67,0,0,0,3.83-5.78c.5-2.3-.48-5.05-2.68-5.89-2.46-.94-5.09.76-7.08,2.49s-4.28,3.69-6.89,3.32a10.48,10.48,0,0,0,3.24-9.81,4.1,4.1,0,0,0-.9-2c-1.37-1.46-3.84-.83-5.48.32-5.2,3.66-6.65,10.72-6.68,17.08-.52-2.29-.08-4.68-.1-7s-.66-5-2.64-6.22a8,8,0,0,0-4-.95c-2.34-.09-4.94.15-6.54,1.86-2,2.12-1.47,5.69.26,8s4.35,3.8,6.77,5.42a15,15,0,0,1,4.84,4.61,4.57,4.57,0,0,1,.36.82h14.65A40.83,40.83,0,0,0,1067.35,659.11Z" transform="translate(-84.99 -85.07)" fill="#ffc107"/><path d="M231.72,565.39c31.82,40.46,19.46,99.57-.76,146.9-6.77,15.85-14.43,32.62-11.57,49.61,3.49,20.78,22,36,41.52,44,35.5,14.68,78,11.18,110.61-9.11,28.19-17.54,48.38-46.06,77.05-62.8,48-28,109.06-17.43,161.16,1.86,36.86,13.65,77.16,31.41,113.79,17.14,25.77-10,43.59-34.47,53.3-60.37,4.69-12.51,8.09-26,17-36,5.32-5.89,12.26-10.08,19.38-13.6,65-32.21,147-15,210.08-50.68,42.61-24.12,69.89-69.63,82-117.08s10.67-97.21,7.6-146.07c-2.18-34.73-6.09-71.8-28.28-98.61-23.47-28.35-63.76-38.9-100.17-33.51S915,221.76,886,244.38c-36.29,28.27-69.94,63.48-114.5,74.94-30.34,7.8-62.26,3.53-93.56,2.06-52.32-2.47-104.65,3-156.68,9-49.81,5.76-100,12.1-147.43,28.3-33.58,11.47-60.5,32.28-92.21,46.82-20.67,9.48-43.21,12.1-62.77,24.17-24.11,14.87-46.2,40.74-40,71C184.67,529.48,214.82,543.92,231.72,565.39Z" transform="translate(-84.99 -85.07)" fill="#ffc107" opacity="0.1"/><ellipse cx="552.35" cy="439.22" rx="427.67" ry="41.08" fill="#ffc107" opacity="0.1"/><ellipse cx="223.66" cy="676.22" rx="211.36" ry="41.08" fill="#ffc107" opacity="0.1"/><path d="M524.71,511.48l-3.35,4.87s3.65,4.87,4,5.48,10.65-.3,10.65-.3l.91-3.65-1.52-4.26Z" transform="translate(-84.99 -85.07)" fill="#e6e6f0"/><polygon points="327.09 423.67 320.39 424.88 324.65 433.11 329.22 435.54 333.48 438.58 334.7 435.24 331.65 428.84 327.09 423.67" fill="#fdc2cc"/><path d="M521.67,429.59s35.62,8.52,42.31,18c0,0,6.09,5.18,0,14.61s-14.61,30.75-14.61,30.75-6.09,20.7-8.52,22.22-16.44,2.74-17.66-3c0,0,7.91-12.48,7.91-18.27s13.09-33.18,13.09-33.18-29.83-3.35-39.27-1.22S509.19,426.24,521.67,429.59Z" transform="translate(-84.99 -85.07)" fill="#565171"/><path d="M521.67,429.59s35.62,8.52,42.31,18c0,0,6.09,5.18,0,14.61s-14.61,30.75-14.61,30.75-6.09,20.7-8.52,22.22-16.44,2.74-17.66-3c0,0,7.91-12.48,7.91-18.27s13.09-33.18,13.09-33.18-29.83-3.35-39.27-1.22S509.19,426.24,521.67,429.59Z" transform="translate(-84.99 -85.07)" opacity="0.1"/><path d="M514.36,437.81c-.07,1.77-.26,3.76-.53,5.9-1.95,15.5-8.3,38.55-8.3,38.55s-6.39,13.7-8.22,22.53-14.31,11-14.31,11-34.1,4-41.1,2.44-18,4.57-23.44,3.65-8.83-13.7-8.83-13.7a66,66,0,0,0,27.4-5.78c14-6.39,34.1-3.35,34.1-3.35a11.45,11.45,0,0,0,7-5.78c2.13-4.57,2.13-32.27,1.52-34.1-4-12-3.67-19.7-2.52-24.19a12.07,12.07,0,0,1,2.52-5.34Z" transform="translate(-84.99 -85.07)" fill="#565171"/><path d="M514.36,437.81c-.07,1.77-.26,3.76-.53,5.9-3.06.24-11.64.47-18-3.46-6-3.68-14.73-4.93-18.66-5.32a12.07,12.07,0,0,1,2.52-5.34Z" transform="translate(-84.99 -85.07)" opacity="0.1"/><path d="M518.57,434c-1.42,4-3.6,8.69-3.6,8.69s-11.26,1.52-19.18-3.35-20.7-5.48-20.7-5.48c2.07-1.27,3.47-5.13,4.34-8.51a53.93,53.93,0,0,0,1.14-5.8s37.44,7.61,39,8.83C520.15,428.86,519.53,431.28,518.57,434Z" transform="translate(-84.99 -85.07)" fill="#e6e6f0"/><path d="M585.29,305.69,539.88,333.1l-4.51,2.72V322.43l3.13-1.5,38.27-18.29s1.83-33.18,6.7-28S585.29,305.69,585.29,305.69Z" transform="translate(-84.99 -85.07)" fill="#fdc2cc"/><path d="M539.88,333.1l-4.51,2.72V322.43l3.13-1.5A98.54,98.54,0,0,0,539.88,333.1Z" transform="translate(-84.99 -85.07)" opacity="0.1"/><path d="M504.93,338l32.57-18.87s.61,18.27,4.26,21c0,0-13.39,4-18.57,12.48Z" transform="translate(-84.99 -85.07)" fill="#b45181"/><path d="M504.93,338l32.57-18.87s.61,18.27,4.26,21c0,0-13.39,4-18.57,12.48Z" transform="translate(-84.99 -85.07)" opacity="0.1"/><path d="M585,354.09s-15.49,6.75-25.75,9.23a20.22,20.22,0,0,1-7.13.82c-7-1.22,1.83-10,1.83-10l3.68-.57,19.76-3.08s2.13-30.44,5.78-28S585,354.09,585,354.09Z" transform="translate(-84.99 -85.07)" fill="#fdc2cc"/><path d="M519.54,326.69s-13.09,9.74-8.22,21.92-25.27-7.31-25.27-7.31,9.74-14.61,11.87-25.57S519.54,326.69,519.54,326.69Z" transform="translate(-84.99 -85.07)" fill="#fdc2cc"/><path d="M518.57,434a69,69,0,0,0-17.6-4.1c-8.8-1-16.86-2.69-21.53-4.55a53.93,53.93,0,0,0,1.14-5.8s37.44,7.61,39,8.83C520.15,428.86,519.53,431.28,518.57,434Z" transform="translate(-84.99 -85.07)" opacity="0.1"/><path d="M559.24,363.32a20.22,20.22,0,0,1-7.13.82c-7-1.22,1.83-10,1.83-10l3.68-.57C559.16,355.94,560.73,359.64,559.24,363.32Z" transform="translate(-84.99 -85.07)" opacity="0.1"/><path d="M498.23,332.17s-11.87-.3-16.13,4.57-3.35,18-3.35,18-.89,26.29,5.78,41a2,2,0,0,1,.07,1.51c-.07.18-.07.07-.07.07s-4.26,19.18-8.52,22.53,9.13,7.31,25,9.13,22.22,6.39,22.22,6.39,2.74-3,3-9.74S522,369.92,522,369.92s16.74,4.26,26.79-.91c0,0,4.57,2.44,8.83-4.26s-3-14-3-14-6.7,6.7-25.27-2.13S504,331.87,498.23,332.17Z" transform="translate(-84.99 -85.07)" fill="#b45181"/><path d="M407.21,509.35h-3.65v5.18l3.65,8.22s4.87.91,5.18.91,4.26-.91,4.26-.91l1.22-2.13S404.47,515.43,407.21,509.35Z" transform="translate(-84.99 -85.07)" fill="#e6e6f0"/><path d="M521.67,514.22l-5.48,12.18,23.14,11,18.27.61s1.52-4.26-4.57-6.39l-4.87-.91s-6.39-11.57-7-17c0,0-6.09,1.22-7,5.78C534.15,519.39,525.63,523.65,521.67,514.22Z" transform="translate(-84.99 -85.07)" fill="#b45181"/><path d="M404.47,508.13l-1.86,1.52-8.18,6.7,18.87,25s10.65,4.57,15.53,0c0,0,3-3-3.65-5.48,0,0-5.18.91-5.18-4.26s1.22-10.65,3-11.87c0,0-4.57-1.52-5.78-.3a19.32,19.32,0,0,0-2.44,3.35S403.86,518.48,404.47,508.13Z" transform="translate(-84.99 -85.07)" fill="#b45181"/><path d="M497.32,316.34a37,37,0,0,1-1.22,4.56,15.83,15.83,0,0,0,20.27,8.71,25.18,25.18,0,0,1,2.57-2.31S499.45,305.38,497.32,316.34Z" transform="translate(-84.99 -85.07)" opacity="0.1"/><path d="M495.64,357s9.44,12.48,23.14,12.79" transform="translate(-84.99 -85.07)" opacity="0.1"/><g opacity="0.1"><path d="M552.06,369.22a3.44,3.44,0,0,1-.56-.21q-.44.23-.9.43A5.69,5.69,0,0,0,552.06,369.22Z" transform="translate(-84.99 -85.07)"/><path d="M555.3,352a15.06,15.06,0,0,0-1.06-1.22s-2,2-6.94,2.38A16.8,16.8,0,0,0,555.3,352Z" transform="translate(-84.99 -85.07)"/><path d="M524.71,369.92l.06.65a60.46,60.46,0,0,0,12.18,1A63.38,63.38,0,0,1,524.71,369.92Z" transform="translate(-84.99 -85.07)"/><path d="M503.71,429c-15.83-1.83-29.22-5.78-25-9.13s8.52-22.53,8.52-22.53,0,.11.07-.07a2,2,0,0,0-.07-1.51c-6.67-14.75-5.78-41-5.78-41s-.91-13.09,3.35-18c3.17-3.63,10.56-4.38,14.13-4.53a6.47,6.47,0,0,0-1,0s-11.87-.3-16.13,4.57-3.35,18-3.35,18-.89,26.29,5.78,41a2,2,0,0,1,.07,1.51c-.07.18-.07.07-.07.07S480,416.5,475.7,419.85s9.13,7.31,25,9.13,22.22,6.39,22.22,6.39a7.8,7.8,0,0,0,.84-1.23C520.67,432.65,514.31,430.2,503.71,429Z" transform="translate(-84.99 -85.07)"/></g><circle cx="426.33" cy="229.14" r="15.83" fill="#fdc2cc"/><path d="M533.85,307.13c-1.31,3.28-5.22,4.52-8.65,5.37-4.9,1.2-10.18,2.38-14.87.52a3.25,3.25,0,0,0-2-.39,2.66,2.66,0,0,0-1.32,1.15c-5.17,7.36-4.33,17.17-5.67,26.07-.42,2.77-1.13,5.63-3,7.7-3.64,4-10.51,3.85-13.86,8.1-2.21,2.8-2.23,6.69-2.21,10.26q0,5.71-.1,11.43c-.06,2.5-.18,5.09-1.31,7.31-1.92,3.76-6.2,5.55-10.15,7-2.46.92-5,1.85-7.64,1.6s-5.28-2-5.62-4.64c-.47-3.58,3.22-6.08,5.76-8.66,4.06-4.11,5.73-10.09,5.88-15.87a17,17,0,0,0-1-6.87c-.93-2.27-2.59-4.18-3.59-6.42-3.08-6.9.72-14.88,5.27-20.92s10.14-11.93,11.11-19.42a26.93,26.93,0,0,1,.69-4.81c.7-2.18,2.36-8.2,4.19-9.58a21.77,21.77,0,0,1,10-4.16c2.81-.41,5.68-.26,8.47-.8,3.26-.63,6.29-2.18,9.55-2.76,7.05-1.25,14.7,6.94,17.79,13.4C532.42,303.72,534.65,305.12,533.85,307.13Z" transform="translate(-84.99 -85.07)" opacity="0.1"/><path d="M533.85,306.52c-1.31,3.28-5.22,4.52-8.65,5.37-4.9,1.2-10.18,2.38-14.87.52a3.25,3.25,0,0,0-2-.39,2.66,2.66,0,0,0-1.32,1.15c-5.17,7.36-4.33,17.17-5.67,26.07-.42,2.77-1.13,5.63-3,7.7-3.64,4-10.51,3.85-13.86,8.1-2.21,2.8-2.23,6.69-2.21,10.26q0,5.71-.1,11.43c-.06,2.5-.18,5.09-1.31,7.31-1.92,3.76-6.2,5.55-10.15,7-2.46.92-5,1.85-7.64,1.6s-5.28-2-5.62-4.64c-.47-3.58,3.22-6.08,5.76-8.66,4.06-4.11,5.73-10.09,5.88-15.87a17,17,0,0,0-1-6.87c-.93-2.27-2.59-4.18-3.59-6.42-3.08-6.9.72-14.88,5.27-20.92s10.14-11.93,11.11-19.42a26.93,26.93,0,0,1,.69-4.81c.7-2.18,2.36-8.2,4.19-9.58a21.77,21.77,0,0,1,10-4.16c2.81-.41,5.68-.26,8.47-.8,3.26-.63,6.29-2.18,9.55-2.76,7.05-1.25,14.7,6.94,17.79,13.4C532.42,303.11,534.65,304.51,533.85,306.52Z" transform="translate(-84.99 -85.07)" fill="#f569bc"/><path d="M585,276.09H848.17V539.24H585Z" transform="translate(-84.99 -85.07)" fill="#f7df1e"/><path d="M654.21,496l20.14-12.19c3.89,6.89,7.42,12.72,15.9,12.72,8.13,0,13.25-3.18,13.25-15.54V396.9h24.73v84.43c0,25.61-15,37.27-36.92,37.27-19.78,0-31.26-10.25-37.09-22.61m87.44-2.65,20.13-11.66c5.3,8.66,12.19,15,24.38,15,10.25,0,16.78-5.12,16.78-12.19,0-8.48-6.71-11.48-18-16.43l-6.18-2.65c-17.84-7.59-29.68-17.13-29.68-37.27,0-18.55,14.13-32.68,36.21-32.68,15.72,0,27,5.48,35.15,19.78l-19.25,12.37c-4.24-7.6-8.83-10.6-15.9-10.6-7.24,0-11.84,4.59-11.84,10.6,0,7.42,4.59,10.42,15.19,15l6.18,2.65c21,9,32.86,18.19,32.86,38.86,0,22.26-17.49,34.45-41,34.45-23,0-37.8-11-45-25.26" transform="translate(-84.99 -85.07)"/><path d="M963.61,685.28S953.34,686,947,675a36.88,36.88,0,0,0-4.37-6.21,21,21,0,0,1-3.07-11.15c.35-8.15-8.15-52.79-8.15-52.79s1.06-17-7.44-27.63c-5.6-7-13.65-27-18.5-39.92a2.67,2.67,0,0,0,1.14.6l-.2-1.11.2,0L904.1,523a62.88,62.88,0,0,1-9.16-13.88l.57-.12,7.52-1.58s12.22-17.37,13-25.91l1,0h1.41a294,294,0,0,1,33.86,1.77h0c0-.05-.08-.27-.18-.62h0a42.5,42.5,0,0,1-1.1-5.23l.7,0,7-.46s24.09-26.92,15.23-31.88-18.07,22.32-18.07,22.32l-3,.54-.81.15c.08-.12.16-.23.25-.34S913,466,906.93,456.42c0,0-17.36-13.82-18.07-23a10.39,10.39,0,0,0-6.24-8.84,13.62,13.62,0,0,0-6.89-1.29l-8.13.56.57,1-.23,0a27.35,27.35,0,0,1-1.28-3.6l.17,0c-.06-.25-.11-.5-.16-.75a19.13,19.13,0,0,0,14.09-23.56,7.65,7.65,0,0,0,2.39-.07c3-.61,5.11-3.65,5.19-6.69,0-.2,0-.4,0-.59,0,0,0-.08,0-.12a10.28,10.28,0,0,0-3.95-7.9c-1.62-1.35-3.56-2.31-5-3.81-1.75-1.79-2.71-4.19-4.07-6.3a18.7,18.7,0,0,0-9.6-7.47c-2.93-1-6.53-1.1-8.78,1-1.16,1.09-1.83,2.67-3.13,3.59-1.87,1.34-4.41.94-6.7,1.21a12.78,12.78,0,0,0-9.63,7.21,16.61,16.61,0,0,0-1.58,7.62,20.35,20.35,0,0,0,.64,5.35c.44,1.74,1.09,3.42,1.57,5.16,1,3.6,1.23,7.39,2.38,10.94a13.77,13.77,0,0,0,4.43,6.73l-.34,1.46c-.22,0-5.74,1.23-9.55,9.56-3,6.57-13.21,13.35-17.7,16.09a7.38,7.38,0,0,0-3.34,4.64,24.1,24.1,0,0,0-.57,5.89c-.08,4.27.81,10.18,4.24,17.67,7.79,17,13.46,24.44,13.46,24.44s.43,5.21.46,10.7c0,4.09-.3,8.16-1.17,10.2-.74,1.72-1,6.11-.94,11.13,0,9.62.94,22.17.94,22.17s2.71.52,6.9,1.13l2.61,45.92a22.08,22.08,0,0,1-5,15.34,33.94,33.94,0,0,1-6.29,6c-7.44,5.31-23.38,61.29-23.38,61.29s.78,0,2.06.15l-4.9,13.67s19.58,15,31.49,10.9a11.54,11.54,0,0,1,4-.56c2.35,0,7.38-1.86,4.58-4.31a181.52,181.52,0,0,1-15.27-15.88,8.12,8.12,0,0,1,1.1.65v-.11l.17.11s0-.55.13-1.45l-.17-.06c.36-3.68,1.5-13,3.76-14.08,2.83-1.42,23.74-42.87,23.74-42.87l20.9-53.85s16.65,28.7,30.82,33.65v12s7.79,35.43,10.63,39.32,0,19.48,0,19.48a9.71,9.71,0,0,0,1.91,1.68l-2.27,12.84s16.3-.71,43.93,7.79C961.84,695.55,972.47,690.95,963.61,685.28ZM898.43,500l-3.45.86-.68.17c-.07-.43-.12-.68-.12-.68a7,7,0,0,1-2.51.61,46.15,46.15,0,0,1-2.1-11.95,80.52,80.52,0,0,1-2.11-14.8c0-2.58.43-4.83,1.4-6.1l1.15.09.8.76.06.05.41.37h0l.43.38.07.06.46.41.08.07.47.4,0,0,.53.44.12.1.56.45,0,0,.55.44.13.1.61.46.13.09.58.43.1.07.66.47.16.11.7.48.06,0,.68.45.16.11.73.47.16.1.68.42.13.08.78.46.19.11.81.45.06,0,.79.42.19.1.84.42.17.08.78.36.15.07.88.38.21.09.91.37h0C901.33,485.5,898.43,500,898.43,500Z" transform="translate(-84.99 -85.07)" fill="url(#a5312bde-8c7e-4767-9e17-08a43f21bf92)"/><path d="M811.05,668.16l-6.57,18.33s18,13.8,29.7,10.94a32.69,32.69,0,0,1,5.37-.87c2.42-.18,6.59-1.95,4-4.19-8.3-7.26-19.37-20.75-19.37-20.75Z" transform="translate(-84.99 -85.07)" fill="#4f4d59"/><path d="M920.34,666.43l-3.11,17.64s15.91-.69,42.89,7.61c0,0,10.38-4.5,1.73-10,0,0-10,.69-16.25-10s-10-9.34-10-9.34Z" transform="translate(-84.99 -85.07)" fill="#4f4d59"/><path d="M838,538.47l3,53.68a22.2,22.2,0,0,1-5.29,15.7,32.54,32.54,0,0,1-5.71,5.33c-7.26,5.19-22.83,59.83-22.83,59.83s17.64,1,22.48,4.5c0,0,1-13.83,3.8-15.22s23.17-41.85,23.17-41.85l20.41-52.57s16.25,28,30.09,32.86v11.76s7.61,34.59,10.38,38.39,0,19,0,19,8,10,26.28-.69c0,0-5.88-6.57-5.53-14.53s-8-51.53-8-51.53,1-16.6-7.26-27S901,526,901,526l-9.52-20.48Z" transform="translate(-84.99 -85.07)" fill="#c48c96"/><g opacity="0.1"><path d="M810.53,673s15.56-54.64,22.83-59.83a33,33,0,0,0,6-5.68,22,22,0,0,0,5-15.34l-3.05-53.69,51-31.44-.69-1.49L838.2,538.47l3.05,53.69a22,22,0,0,1-5,15.34,33,33,0,0,1-6,5.68C823,618.36,807.42,673,807.42,673s17.64,1,22.48,4.5c0,0,0-.54.13-1.41C823.22,673.75,810.53,673,810.53,673Z" transform="translate(-84.99 -85.07)"/><path d="M920.86,669.89s2.77-15.22,0-19-10.38-38.39-10.38-38.39V600.72c-13.83-4.84-30.09-32.86-30.09-32.86L879.19,571c4.69,7.44,17.2,25.9,28.19,29.74v11.76s7.61,34.59,10.38,38.39,0,19,0,19,3.86,4.86,12.38,4.2C923.77,673.56,920.86,669.89,920.86,669.89Z" transform="translate(-84.99 -85.07)"/></g><path d="M957,478.29l-6.79.45-3.58.24v-8.65l4.7-.85,2.91-.53s9-26.63,17.64-21.79S957,478.29,957,478.29Z" transform="translate(-84.99 -85.07)" fill="#714b4f"/><path d="M848.06,407s-4.5,17.29-5.88,28,32.16,2.08,32.16,2.08-12.8-15.56-5.53-23.86Z" transform="translate(-84.99 -85.07)" fill="#714b4f"/><path d="M884.37,479l.69,6.57-10.72-.69-10.72-9.34L852.9,445.44,846,434.71l-5.19-6.57,2.08-8s.95.83,2.55,2.05c5.27,4,17.62,12.41,26.65,10.09a10.76,10.76,0,0,0,1.23-.39l13.49,23.17Z" transform="translate(-84.99 -85.07)" fill="#e6e6f0"/><path d="M845.64,418.11s-5.53,1-9.34,9.34c-2.92,6.38-12.8,13-17.21,15.67a7.38,7.38,0,0,0-3.35,4.66c-.89,3.94-1.23,11.29,3.61,21.86,7.61,16.6,13.14,23.86,13.14,23.86s1.38,16.6-.69,21.44,0,31.47,0,31.47,36.31,6.92,48.42,0,10.38-33.55,10.38-33.55,11.41,24.21,15.56,24.9l-2.42-13.49s-13.49-14.53-14.18-33.2c0,0-4.15-16.95-.69-21.44,0,0,58.45,4.84,61.91.69,0,0-38.39-1.73-44.27-11.07,0,0-16.95-13.49-17.64-22.48a9.94,9.94,0,0,0-5.19-8.15,13.54,13.54,0,0,0-7.75-1.73l-7.81.54s13.49,23.86,12.8,27,.69,28.36.69,28.36S866,449.24,859.13,445.44,844.25,426,844.25,426l1.38-7.9" transform="translate(-84.99 -85.07)" opacity="0.1"/><path d="M884.37,479l.69,6.57-10.72-.69-10.72-9.34L852.9,445.44,846,434.71l-5.19-6.57,2.08-8s.95.83,2.55,2.05l-.48,2.73s8,15.62,14.87,19.43,22.48,37.35,22.48,37.35-1.38-25.25-.69-28.36c.47-2.11-5.59-13.77-9.53-21.06a10.76,10.76,0,0,0,1.23-.39l13.49,23.17Z" transform="translate(-84.99 -85.07)" opacity="0.1"/><path d="M950.21,478.74l-3.58.24v-8.65l4.7-.85C949.69,471.65,949.75,475.49,950.21,478.74Z" transform="translate(-84.99 -85.07)" opacity="0.1"/><path d="M845.64,417.08s-5.53,1-9.34,9.34c-2.92,6.38-12.8,13-17.21,15.67a7.38,7.38,0,0,0-3.35,4.66c-.89,3.94-1.23,11.29,3.61,21.86,7.61,16.6,13.14,23.86,13.14,23.86s1.38,16.6-.69,21.44,0,31.47,0,31.47,36.31,6.92,48.42,0,10.38-33.55,10.38-33.55S902,536,906.16,536.74l-2.42-13.49s-13.49-14.53-14.18-33.2c0,0-4.15-16.95-.69-21.44,0,0,13.49,14.53,28.71,14.18a286.36,286.36,0,0,1,33.2,1.73s-3.46-11.07,0-15.22c0,0-38.39-1.73-44.27-11.07,0,0-16.95-13.49-17.64-22.48a9.94,9.94,0,0,0-5.19-8.15,13.54,13.54,0,0,0-7.75-1.73l-7.81.54s13.49,23.86,12.8,27,.69,28.36.69,28.36S866,448.2,859.13,444.4,844.25,425,844.25,425l1.38-7.9" transform="translate(-84.99 -85.07)" fill="#c48c96"/><path d="M838,453.39s8.3,28,13.14,31.47,34.24,21.1,42.89,16.95c0,0,2.08,10.38-1,12.8,0,0-32.25-1.26-32.51-1.38,0,0-21.1-2.77-24.56-13.14s-7.61-28-7.61-28Z" transform="translate(-84.99 -85.07)" opacity="0.1"/><ellipse cx="797.31" cy="398.24" rx="1.21" ry="1.73" fill="#ba7855"/><ellipse cx="800.76" cy="410.34" rx="1.21" ry="1.73" fill="#ba7855"/><g opacity="0.1"><path d="M834.23,545s-2.08-26.63,0-31.47.69-21.44.69-21.44-5.53-7.26-13.14-23.86c-4.85-10.57-4.5-17.92-3.61-21.86a7.38,7.38,0,0,1,3.35-4.66c4.41-2.7,14.28-9.29,17.21-15.67,2.15-4.68,4.84-7.05,6.78-8.23l.13-.76s-5.53,1-9.34,9.34c-2.92,6.38-12.8,13-17.21,15.67a7.38,7.38,0,0,0-3.35,4.66c-.89,3.94-1.23,11.29,3.61,21.86,7.61,16.6,13.14,23.86,13.14,23.86s1.38,16.6-.69,21.44,0,31.47,0,31.47,25.94,4.94,41.28,2.29C857.59,549.49,834.23,545,834.23,545Z" transform="translate(-84.99 -85.07)"/><path d="M880.91,453.39c-.47,2.13,0,14.66.39,22.34,1.67,3.41,2.72,5.68,2.72,5.68s-1.38-25.25-.69-28.36c.66-3-11.49-24.66-12.7-26.8l-2.52.17S881.61,450.28,880.91,453.39Z" transform="translate(-84.99 -85.07)"/><path d="M920,482.44c-15.22.35-28.71-14.18-28.71-14.18a5.54,5.54,0,0,0-.87,1.87c4,3.72,15,12.93,27.16,12.65a286.36,286.36,0,0,1,33.2,1.73s-.07-.23-.18-.62A275.32,275.32,0,0,0,920,482.44Z" transform="translate(-84.99 -85.07)"/><path d="M893,511.49s.14,2.16.06,5.4c3.6,7.14,10.15,19.35,13.08,19.84l-.51-2.84C900.6,527.57,893,511.49,893,511.49Z" transform="translate(-84.99 -85.07)"/></g><path d="M902.7,508l-7.35,1.55-5.8,1.22,3.11-8.65,2.17-.54,3.37-.84s4.84-24.21,14.53-22.48S902.7,508,902.7,508Z" transform="translate(-84.99 -85.07)" fill="#714b4f"/><path d="M895.36,509.58l-5.8,1.22,3.11-8.65,2.17-.54A34.54,34.54,0,0,1,895.36,509.58Z" transform="translate(-84.99 -85.07)" opacity="0.1"/><path d="M838,452.7s8.3,28,13.14,31.47,34.24,21.1,42.89,16.95c0,0,2.08,10.38-1,12.8,0,0-32.25-1.26-32.51-1.38,0,0-21.1-2.77-24.56-13.14s-7.61-28-7.61-28Z" transform="translate(-84.99 -85.07)" fill="#c48c96"/><path d="M848.4,407.74s-.7,2.71-1.64,6.65a18.67,18.67,0,0,0,20.61,9.5c-.83-3.55-.65-7.14,1.78-9.92Z" transform="translate(-84.99 -85.07)" opacity="0.1"/><circle cx="777.94" cy="319.9" r="18.68" fill="#714b4f"/><path d="M879.15,399.83a10,10,0,0,0,4.16.26,6.85,6.85,0,0,0,5.06-6.53,10,10,0,0,0-3.85-7.71c-1.58-1.32-3.47-2.25-4.92-3.72-1.71-1.75-2.65-4.09-4-6.15a18.25,18.25,0,0,0-9.37-7.29c-2.86-1-6.37-1.08-8.57,1-1.13,1.07-1.79,2.6-3.05,3.51-1.83,1.3-4.31.92-6.54,1.18a12.47,12.47,0,0,0-9.4,7,17.61,17.61,0,0,0-.92,12c.43,1.7,1.07,3.34,1.53,5,1,3.52,1.2,7.21,2.32,10.68s3.43,6.87,6.93,7.91a21.91,21.91,0,0,1,2.23-11.29,3.24,3.24,0,0,1,1.58-1.76,3.82,3.82,0,0,1,1.9,0,19,19,0,0,0,12.65-2.56c1.33-.8,3.4-3.56,4.81-3.83C873.52,397.22,877.25,399.41,879.15,399.83Z" transform="translate(-84.99 -85.07)" opacity="0.1"/><path d="M879.15,399.14a10,10,0,0,0,4.16.26,6.85,6.85,0,0,0,5.06-6.53,10,10,0,0,0-3.85-7.71c-1.58-1.32-3.47-2.25-4.92-3.72-1.71-1.75-2.65-4.09-4-6.15a18.25,18.25,0,0,0-9.37-7.29c-2.86-1-6.37-1.08-8.57,1-1.13,1.07-1.79,2.6-3.05,3.51-1.83,1.3-4.31.92-6.54,1.18a12.47,12.47,0,0,0-9.4,7,17.61,17.61,0,0,0-.92,12c.43,1.7,1.07,3.34,1.53,5,1,3.52,1.2,7.21,2.32,10.68s3.43,6.87,6.93,7.91A21.91,21.91,0,0,1,850.78,405a3.24,3.24,0,0,1,1.58-1.76,3.82,3.82,0,0,1,1.9,0,19,19,0,0,0,12.65-2.56c1.33-.8,3.4-3.56,4.81-3.83C873.52,396.53,877.25,398.72,879.15,399.14Z" transform="translate(-84.99 -85.07)" fill="#503f43"/><path d="M1065.5,337.49l-15.24,170.7-68.5,19-68.31-19L898.23,337.49H1065.5Z" transform="translate(-84.99 -85.07)" fill="#e44d26"/><path d="M981.86,512.67l55.35-15.34,13-145.88H981.86Z" transform="translate(-84.99 -85.07)" fill="#f16529"/><path d="M952.24,393.33h29.62V372.39H929.36l.5,5.62,5.15,57.7h46.86V414.77H954.16ZM957,446.18h-21l2.93,32.88L981.77,491l.1,0V469.15l-.09,0-23.32-6.3L957,446.18Z" transform="translate(-84.99 -85.07)" fill="#ebebeb"/><path d="M913.8,291.09h10.64V301.6h9.73V291.09h10.64v31.84H934.17V312.27h-9.73v10.66H913.8V291.09Zm45,10.56h-9.37V291.09h29.38v10.56h-9.37v21.28H958.81V301.65h0Zm24.68-10.56h11.1l6.83,11.19,6.82-11.19h11.1v31.84h-10.6V307.15l-7.32,11.32h-.18l-7.33-11.32v15.78H983.48Zm41.14,0h10.64V312.4h15v10.52h-25.61V291.09Z" transform="translate(-84.99 -85.07)"/><path d="M981.79,435.71h25.78l-2.43,27.16-23.35,6.3V491l42.93-11.9.31-3.54,4.92-55.13.51-5.62H981.79v20.94Zm0-42.43v.05h50.58l.42-4.71,1-10.62.5-5.62H981.79v20.89Z" transform="translate(-84.99 -85.07)" fill="#fff"/><path d="M451.72,463.51c-1.95-5.71-4.76-13-7-14.66a2.09,2.09,0,0,0-.44-.27H444v-7.05l-5.26.84a50.27,50.27,0,0,1-1.91-7.81,3.63,3.63,0,0,0,3.95.79c-.09-.14-.16-.29-.24-.44l.24-.1a9.77,9.77,0,0,1-1.27-4.79,17.44,17.44,0,0,1,.73-4.52c.94-3.25,2.53-6.29,3.42-9.55a23.22,23.22,0,0,0,.8-6.46A23.54,23.54,0,0,0,442,398.84a6.22,6.22,0,0,0-1.86-2.43,24,24,0,0,0-2.28-1.11,12.31,12.31,0,0,1-3.31-3.3,29.74,29.74,0,0,0-14.37-9.59,8.41,8.41,0,0,0-4.59-.36c-3.53,1-4.82,5.33-7.68,7.62-2.53,2-6,2.23-9.16,2.91a15.58,15.58,0,0,0-8.53,4.47,9.26,9.26,0,0,0-2.29,6.18,6.21,6.21,0,0,0,2.53,5.52,7.93,7.93,0,0,0,6.7.95,22.79,22.79,0,0,0,17.25,28.65l.62,1.1h0a47.19,47.19,0,0,1,4.27,11.17c-4.84,2.75-10.13,5.32-13.32,5.56a22.45,22.45,0,0,1-.69,3.69,20.37,20.37,0,0,1-4.19,8.25c-4.34,4.88-23.87,41.78-23.87,41.78s-.62,1.47-1.62,4c-12.13,1.49-31.92,3.64-37.45,2.53l-21.7-20.62s-7,5.35-6.4,11.85l-3.91-3.72s-20.62,15.73,11.94,26l49.54,5.75c-4.72,14.24-9.12,30.81-7.76,39.83h.41a18.73,18.73,0,0,0,2.83-.22l-.09,1.6-4.77,85.43s-1.09,15.73,13.56,22.79c0,0,17.91,52.63,10.85,58.6,0,0,.84.44,2.25,1.06l-14.73,13s-10.85,2.71-16.82,2.17a4.31,4.31,0,0,0-4.76,3.21c0,.11,0,.22-.06.34l0,.14c0,.11,0,.23,0,.35s0,.09,0,.13,0,.2,0,.3l0,.13c0,.12,0,.23.07.35l0,.13q.05.19.12.37l0,.12c.05.12.11.24.17.36l0,.08c.07.12.14.24.22.36l.07.1q.13.19.29.38l.08.1c.11.13.23.25.36.38l.06,0,.4.34.09.07.49.35.12.08.57.33.09,0,.61.3.09,0,.71.29.15.06.79.26.13,0,.85.22.07,0,1,.19.19,0,1,.15.19,0,1.15.11c2.23.17,5.24.23,8.72.22h0s0,.09,0,.13,0,.2,0,.3l0,.13c0,.12,0,.23.07.35l0,.13q.05.19.12.37l0,.12c.05.12.11.24.17.36l0,.08c.07.12.14.24.22.36l.07.1q.13.19.29.38l.08.1c.11.13.23.25.36.38l.05,0,.4.34.09.07.49.35.12.08.56.33.09,0,.61.3.09,0,.71.29.15.06.79.26.13,0,.85.22.07,0,1,.19.19,0,1,.15.19,0,1.15.11c14.11,1.09,59.14-2.17,59.14-2.17l0-.13v0l0-.16v0c.45-2.1,2.61-14.31-5.07-23.34.23-.24.45-.49.66-.75,0,0-6-10.31-2.71-13.56S413.63,677,413.63,677s-10.31-16.28-4.34-34.73-.54-38.52-.54-38.52S423,599.53,423.26,582c0-.53,0-1.08,0-1.63a5.76,5.76,0,0,0,.9.06,4.21,4.21,0,0,0,.6,0s-2.71-9.77.54-16.82,10.31-.54,16.82-29.3c4.71-20.81,8.85-44.74,10.79-56.39A29.69,29.69,0,0,0,451.72,463.51Zm-123.82,61-4.95-4.7c1.64.68,3.46,1.34,5.49,2L347.09,524C338.77,524.75,331,525.17,327.9,524.54Z" transform="translate(-84.99 -85.07)" fill="url(#016d359d-0d48-4404-968f-1612e9b5c7a7)"/><path d="M375.13,521.77s-38.38,5.33-46.38,3.73l-21.32-20.26s-20.26,15.46,11.73,25.59l59.7,6.93Z" transform="translate(-84.99 -85.07)" fill="#fdc2cc"/><path d="M375.13,521.77s-38.38,5.33-46.38,3.73l-21.32-20.26s-20.26,15.46,11.73,25.59l59.7,6.93Z" transform="translate(-84.99 -85.07)" opacity="0.05"/><path d="M300,535.22l-82.94-23-18.48-207.3H401.67l-18.5,207.27L300,535.22Z" transform="translate(-84.99 -85.07)" fill="#264de4"/><path d="M367.33,499l15.81-177.12h-83V517.59L367.33,499Z" transform="translate(-84.99 -85.07)" fill="#2965f1"/><path d="M241,398.73l2.28,25.42h56.9V398.73Zm-4.58-51.46,2.31,25.42h61.44V347.27H236.37Zm63.75,117.49-.11,0-28.32-7.65-1.81-20.28H244.36l3.56,39.92L300,491.24l.12,0Z" transform="translate(-84.99 -85.07)" fill="#ebebeb"/><path d="M246.38,248.56h30.79v12.88H259.25v12.88h17.92v12.88H246.38Zm37,0h30.79v11.2H296.21V262h17.92v25.76H283.33V276h17.92v-2.24H283.33V248.56Zm37,0h30.79v11.2H333.16V262h17.92v25.76H320.28V276H338.2v-2.24H320.28V248.56Z" transform="translate(-84.99 -85.07)"/><path d="M359.14,398.73l4.59-51.46H300v25.42h35.83l-2.31,26H300v25.42h31.31l-3,33L300,464.78v26.45l52.12-14.45.38-4.3,6-66.94.62-6.83Z" transform="translate(-84.99 -85.07)" fill="#fff"/><path d="M389,738.19l-18.66,16.52s-10.66,2.67-16.52,2.13-8.53,9.06,5.33,10.13,58.1-2.13,58.1-2.13,4.26-17.06-8.53-26.65Z" transform="translate(-84.99 -85.07)" fill="#47465a"/><path d="M389,738.19l-18.66,16.52s-10.66,2.67-16.52,2.13-8.53,9.06,5.33,10.13,58.1-2.13,58.1-2.13,4.26-17.06-8.53-26.65Z" transform="translate(-84.99 -85.07)" opacity="0.05"/><path d="M417.91,757.47a29.4,29.4,0,0,1-.67,5.78s-44.24,3.2-58.1,2.13c-6.67-.51-9.5-3-10-5.38-.61,2.74,1.81,6.35,10,7,13.86,1.07,58.1-2.13,58.1-2.13A30.8,30.8,0,0,0,417.91,757.47Z" transform="translate(-84.99 -85.07)" fill="#fff" opacity="0.3"/><path d="M410.84,436s11.73,16.52,7.46,27.72,22.39-11.73,22.39-11.73S432.16,437,436.43,421Z" transform="translate(-84.99 -85.07)" fill="#fdc2cc"/><path d="M407.64,744.59,389,761.11s-10.66,2.67-16.52,2.13-8.53,9.06,5.33,10.13,58.1-2.13,58.1-2.13,4.26-17.06-8.53-26.65Z" transform="translate(-84.99 -85.07)" fill="#47465a"/><path d="M413,740.86c-2.78,3.43-6.7,4.75-10.8,4.95-9.32.44-19.58-4.95-19.58-4.95,6.93-5.86-10.66-57.57-10.66-57.57-14.39-6.93-13.33-22.39-13.33-22.39L363.29,577l1.18-21.08,14.93-9.06,11.76,9,11.16,8.56a44.86,44.86,0,0,1,1.4,8.32c1.3,19.59-14.19,24.2-14.19,24.2s6.4,19.72.53,37.85,4.26,34.12,4.26,34.12,19.19,55.44,16,58.64S413,740.86,413,740.86Z" transform="translate(-84.99 -85.07)" fill="#565171"/><path d="M413,740.86c-2.78,3.43-6.7,4.75-10.8,4.95-9.32.44-19.58-4.95-19.58-4.95,6.93-5.86-10.66-57.57-10.66-57.57-14.39-6.93-13.33-22.39-13.33-22.39L363.29,577l1.18-21.08,14.93-9.06,11.76,9,11.16,8.56a44.86,44.86,0,0,1,1.4,8.32c1.3,19.59-14.19,24.2-14.19,24.2s6.4,19.72.53,37.85,4.26,34.12,4.26,34.12,19.19,55.44,16,58.64S413,740.86,413,740.86Z" transform="translate(-84.99 -85.07)" opacity="0.05"/><path d="M431.63,747.25c-9.06,11.19-30.38,0-30.38,0a3.4,3.4,0,0,0,.93-1.45c3.91-10.63-13.19-61.45-13.19-61.45-14.39-6.93-16-23.45-16-23.45l-3.77-85.42-.49-11.06,22.43-8.56,6.89-2.63L421,570.82A41.57,41.57,0,0,1,422.44,582c-.29,17.21-14.26,21.37-14.26,21.37s6.4,19.72.53,37.85S413,675.29,413,675.29s19.19,55.44,16,58.64S431.63,747.25,431.63,747.25Z" transform="translate(-84.99 -85.07)" fill="#565171"/><path d="M422.44,582c-4.61-.66-13.94-6.21-18.73-9.22-1.83-1.15-3-1.92-3-1.92s-4.8-13.33-17.59-3.2a47.89,47.89,0,0,1-13.9,7.86,32.52,32.52,0,0,1-5.93,1.49l1.18-21.08,14.93-9.06,11.76,9,6.89-2.63L421,570.82A41.57,41.57,0,0,1,422.44,582Z" transform="translate(-84.99 -85.07)" opacity="0.1"/><path d="M451.29,479.71c-1.9,11.44-6,35-10.6,55.39-6.4,28.25-13.33,21.85-16.52,28.78s-.53,16.52-.53,16.52c-5.33.53-22.92-11.19-22.92-11.19s-4.8-13.33-17.59-3.2-22.92,9.59-22.92,9.59c-2.67-17.59,17.06-64.5,17.06-64.5s19.19-36.25,23.45-41a20,20,0,0,0,4.12-8.1,22.05,22.05,0,0,0,.68-3.62c6.93-.53,24-12.26,24-12.26l13.33-2.13v6.93a2,2,0,0,1,.44.27c2.19,1.67,5,8.79,6.87,14.4A29.17,29.17,0,0,1,451.29,479.71Z" transform="translate(-84.99 -85.07)" fill="#e1a0a7"/><path d="M389,529.77l-6.89-.8-52.81-6.13c-32-10.13-11.73-25.59-11.73-25.59l21.32,20.26c6.15,1.23,30.28-1.64,41.09-3,3.24-.42,5.29-.7,5.29-.7Z" transform="translate(-84.99 -85.07)" fill="#fdc2cc"/><path d="M440.69,457.81S426.83,446.62,406,482.86s-25.59,30.38-25.59,30.38,4.26,16,2.13,19.19c0,0,14.39-1.07,19.72,0s38.38-40.51,38.38-40.51S457.75,468.47,440.69,457.81Z" transform="translate(-84.99 -85.07)" opacity="0.1"/><path d="M440.16,455.68s-13.86-11.19-34.65,25.05-25.59,30.38-25.59,30.38,16.52,18.12,21.85,19.19,38.38-40.51,38.38-40.51S457.22,466.34,440.16,455.68Z" transform="translate(-84.99 -85.07)" opacity="0.1"/><path d="M382.1,529c.22-3.95-1.27-10.89-2.13-14.49,3.24-.42,5.29-.7,5.29-.7l3.73,16Z" transform="translate(-84.99 -85.07)" opacity="0.1"/><path d="M440.69,456.74S426.83,445.55,406,481.8s-25.59,30.38-25.59,30.38,4.26,16,2.13,19.19c0,0,14.39-1.07,19.72,0s38.38-40.51,38.38-40.51S457.75,467.4,440.69,456.74Z" transform="translate(-84.99 -85.07)" fill="#e1a0a7"/><path d="M437,422.09,411.37,437a54.69,54.69,0,0,1,3,4.88,22.49,22.49,0,0,0,4.48.45c6.83,0,10-7.17,14.13-12C432.68,426.49,435.82,426.39,437,422.09Z" transform="translate(-84.99 -85.07)" opacity="0.1"/><circle cx="333.31" cy="333.83" r="22.39" fill="#fdc2cc"/><path d="M390,400.79a15.3,15.3,0,0,1,8.38-4.4c3.11-.67,6.52-.87,9-2.86,2.81-2.25,4.07-6.53,7.54-7.49a8.27,8.27,0,0,1,4.51.36,29.21,29.21,0,0,1,14.12,9.42,12.09,12.09,0,0,0,3.26,3.25,23.6,23.6,0,0,1,2.24,1.09,6.11,6.11,0,0,1,1.82,2.39,23.18,23.18,0,0,1,1.62,16.27c-.87,3.21-2.43,6.19-3.36,9.39s-1.16,6.82.53,9.68c-1.64.84-3.71-.22-4.74-1.75s-1.34-3.41-1.88-5.18a19.75,19.75,0,0,0-5.78-9c-1.68-1.48-4.68-2.48-5.85-.57-.45.74-.42,1.69-.81,2.46-.76,1.51-3,1.81-4.43,1a6.79,6.79,0,0,1-2.77-4.11c-2.19-7.43-5.94-12.1-13.88-8.93-3,1.18-6.45,2-9.3,0C386.57,409.13,387.3,403.82,390,400.79Z" transform="translate(-84.99 -85.07)" opacity="0.1"/><path d="M390,400.25a15.3,15.3,0,0,1,8.38-4.4c3.11-.67,6.52-.87,9-2.86,2.81-2.25,4.07-6.53,7.54-7.49a8.27,8.27,0,0,1,4.51.36,29.21,29.21,0,0,1,14.12,9.42,12.09,12.09,0,0,0,3.26,3.25,23.6,23.6,0,0,1,2.24,1.09,6.11,6.11,0,0,1,1.82,2.39,23.18,23.18,0,0,1,1.62,16.27c-.87,3.21-2.43,6.19-3.36,9.39s-1.16,6.82.53,9.68c-1.64.84-3.71-.22-4.74-1.75s-1.34-3.41-1.88-5.18a19.75,19.75,0,0,0-5.78-9c-1.68-1.48-4.68-2.48-5.85-.57-.45.74-.42,1.69-.81,2.46-.76,1.51-3,1.81-4.43,1a6.79,6.79,0,0,1-2.77-4.11c-2.19-7.43-5.94-12.1-13.88-8.93-3,1.18-6.45,2-9.3,0C386.57,408.6,387.3,403.29,390,400.25Z" transform="translate(-84.99 -85.07)" fill="#8f5a6a"/><path d="M443.26,451.15H432.43s-21.32,10.66-21.85,10.13c-.36-.36-3.66.26-5.75.69a22.05,22.05,0,0,0,.68-3.62c6.93-.53,24-12.26,24-12.26l13.33-2.13v6.93A2,2,0,0,1,443.26,451.15Z" transform="translate(-84.99 -85.07)" opacity="0.05"/><path d="M436.56,763.86a29.4,29.4,0,0,1-.67,5.78s-44.24,3.2-58.1,2.13c-6.67-.51-9.5-3-10-5.38-.61,2.74,1.81,6.35,10,7,13.86,1.07,58.1-2.13,58.1-2.13A30.8,30.8,0,0,0,436.56,763.86Z" transform="translate(-84.99 -85.07)" fill="#fff" opacity="0.3"/><g opacity="0.05"><path d="M378.06,565.48c-7.19,5.7-13.55,8-17.73,9,0,.4.08.79.14,1.17,0,0,10.13.53,22.92-9.59a17.18,17.18,0,0,1,6.85-3.58C387.45,561.11,383.47,561.2,378.06,565.48Z" transform="translate(-84.99 -85.07)"/><path d="M450.4,465.54c-1.91-5.61-4.68-12.72-6.87-14.4a2,2,0,0,0-.44-.27s-4.41.15-4.26.27c2.19,1.67,4.33,8.26,6.24,13.86a29.17,29.17,0,0,1,1.16,14.16c-1.9,11.44-6,35-10.6,55.39-6.4,28.25-13.33,21.85-16.52,28.78-2.62,5.68-1.31,13.14-.74,15.65a13.41,13.41,0,0,0,5.54,1.41s-2.67-9.59.53-16.52,10.13-.53,16.52-28.78c4.63-20.44,8.7-44,10.6-55.39A29.17,29.17,0,0,0,450.4,465.54Z" transform="translate(-84.99 -85.07)"/></g><path d="M512.35,565.11a11.67,11.67,0,0,0,3.83-5.78c.5-2.3-.48-5.05-2.68-5.89-2.46-.94-5.09.76-7.08,2.49s-4.28,3.69-6.89,3.32a10.48,10.48,0,0,0,3.24-9.81,4.1,4.1,0,0,0-.9-2c-1.37-1.46-3.84-.83-5.48.32-5.2,3.66-6.65,10.72-6.68,17.08-.52-2.29-.08-4.68-.1-7s-.66-5-2.64-6.22a8,8,0,0,0-4-.95c-2.34-.09-4.94.15-6.54,1.86-2,2.12-1.47,5.69.26,8s4.35,3.8,6.77,5.42a15,15,0,0,1,4.84,4.61,4.57,4.57,0,0,1,.36.82h14.65A40.83,40.83,0,0,0,512.35,565.11Z" transform="translate(-84.99 -85.07)" fill="#ffc107"/><path d="M539.26,752.88c2.33-2.17,4.52-4.73,5.2-7.84s-.65-6.85-3.63-8c-3.33-1.28-6.9,1-9.6,3.37s-5.8,5-9.33,4.5a14.21,14.21,0,0,0,4.39-13.3,5.56,5.56,0,0,0-1.22-2.7c-1.85-2-5.21-1.13-7.42.43-7,5-9,14.53-9.05,23.15-.71-3.11-.11-6.35-.13-9.54s-.89-6.72-3.58-8.44a10.79,10.79,0,0,0-5.46-1.28c-3.17-.12-6.7.2-8.86,2.52-2.69,2.88-2,7.71.35,10.88s5.9,5.16,9.17,7.35a20.34,20.34,0,0,1,6.55,6.25,6.19,6.19,0,0,1,.49,1.12H527A55.36,55.36,0,0,0,539.26,752.88Z" transform="translate(-84.99 -85.07)" fill="#ffc107"/></svg>
