<svg xmlns="http://www.w3.org/2000/svg" data-name="Layer 1" width="722.73047" height="493.99795" viewBox="0 0 722.73047 493.99795" xmlns:xlink="http://www.w3.org/1999/xlink"><path d="M489.746,676.20016a2.80741,2.80741,0,0,1-2.03464-4.86593l.19237-.76476q-.038-.09187-.07644-.18358a7.53909,7.53909,0,0,0-13.90673.05167c-2.27452,5.4781-5.17038,10.96553-5.88341,16.75771a22.30361,22.30361,0,0,0,.39153,7.67061,89.41943,89.41943,0,0,1-8.13413-37.13874,86.307,86.307,0,0,1,.53535-9.6283q.44349-3.93126,1.23055-7.80653a90.45553,90.45553,0,0,1,17.93812-38.3373,24.07272,24.07272,0,0,0,10.0118-10.38735,18.36254,18.36254,0,0,0,1.67-5.0179c-.48738.06393-1.83778-7.3591-1.47017-7.81452-.67924-1.03072-1.895-1.54307-2.63681-2.54886-3.68943-5.0021-8.77253-4.12871-11.42612,2.66876-5.6687,2.861-5.72357,7.60577-2.24528,12.16916,2.2129,2.90325,2.517,6.83168,4.45862,9.93984-.19981.25572-.40756.50344-.6073.75916a91.04013,91.04013,0,0,0-9.50223,15.05379,37.84594,37.84594,0,0,0-2.25945-17.57871c-2.16269-5.21725-6.21632-9.61122-9.786-14.12153-4.2878-5.41757-13.08033-3.05323-13.83575,3.81439q-.011.09973-.02142.19942.79533.44865,1.55706.95246a3.808,3.808,0,0,1-1.53532,6.92993l-.07765.012a37.89,37.89,0,0,0,.99876,5.66516c-4.57949,17.71008,5.30731,24.16046,19.42432,24.45023.31163.15978.61531.31957.92694.47144a92.92532,92.92532,0,0,0-5.00193,23.53931,88.13664,88.13664,0,0,0,.06393,14.23066l-.024-.16778a23.28922,23.28922,0,0,0-7.95036-13.44764c-6.11822-5.02589-14.76211-6.87666-21.36259-10.9165a4.37072,4.37072,0,0,0-6.69422,4.252q.01328.0882.027.17642a25.57824,25.57824,0,0,1,2.86849,1.38226q.79532.44877,1.55706.95246a3.8081,3.8081,0,0,1-1.53533,6.93l-.07772.01193c-.05591.008-.10387.016-.15972.024a37.92258,37.92258,0,0,0,6.97545,10.92264c2.86344,15.46022,15.16195,16.92705,28.31753,12.42488h.008a92.89671,92.89671,0,0,0,6.24043,18.21781h22.2928c.08-.24769.15184-.5034.22379-.75113a25.329,25.329,0,0,1-6.16856-.36745c1.654-2.02957,3.308-4.07513,4.962-6.10463a1.38254,1.38254,0,0,0,.10388-.11987c.839-1.03866,1.68595-2.06945,2.52491-3.10816l.00045-.00126a37.1011,37.1011,0,0,0-1.08711-9.45126Z" transform="translate(-238.63477 -203.00102)" fill="#f2f2f2"/><polygon points="79.642 439.481 85.793 445.982 114.354 424.822 105.276 415.227 79.642 439.481" fill="#a0616a"/><path d="M328.35632,646.078l-6.96353-6.54152-1.71-1.60238-17.728,14.17343,4.61159,4.8742,5.4282-3.48117-2.49372,6.58314,12.22676,12.92278a4.00014,4.00014,0,0,0,6.86063-3.35611l-2.63877-17.07148,4.64993-4.39748Z" transform="translate(-238.63477 -203.00102)" fill="#2f2e41"/><path d="M453.459,405.78081l-1.95019,21.29s-3.404,16.04008-1.047,14.74-1.869,4.55144-.756,9.62568-9.50711,42.91409-4.697,38.99417-2.77979,23.16016-7.58008,36.52c-1.46973,4.12988-2.98,8.31006-4.5,12.46-.2998.84033-.6001,1.66992-.90967,2.51025-1.97021,5.39991-3.94043,10.71973-5.83008,15.73975-.27.7002-.53027,1.3999-.79,2.09033-.01026.01953-.01026.03955-.02.03955-6.22022,16.37012-11.5503,29.25-13.68018,31.38037-1.10986,1.10987-18.71973,13.83008-36.46973,26.56983-18.62988,13.37012-37.41015,26.77-37.41015,26.77l-17.54-18.3999s.41992-.12012,1.21-.35987c1.46-.42041,4.16016-1.21045,7.70019-2.26025,14.75977-4.3501-3.99023-11.12012,9.41016-15.96,3.77979-1.35987,6.29981-2.41992,6.86963-2.98,3.33008-3.25,7.80029-11,9.91016-7.75s11.68017-20.8999,14.43994-23.29c1.48-1.29,6.31006-7.31983,10.45019-12.62012,3.55957-4.56006,6.61963-8.58984,6.61963-8.58984s.06006-2.16016.1499-5.6001c.13038-5.08984.32032-13,.52051-20.91992-.01025-.01026-.01025-.01026,0-.01026.06983-2.98.13965-5.96.21-8.79.04981-2.18994.09961-4.2998.14991-6.25.12988-5.83984.21972-10.25976.21972-11.35986,0-3.60986,0-.7998,2.8501-2.98a12.88888,12.88888,0,0,0,1.21-1.08008,14.59188,14.59188,0,0,0,1.68018-1.79c.21-.4497-1.1001.16016-2.8003-.17968a5.08475,5.08475,0,0,1-2.46-1.26026c-3.58008-3.21972.28028-13.11963.28028-13.11963-8.14014-16.28027-7.54981-29.63037-3.74024-39.92041a51.20818,51.20818,0,0,1,13.21-19.34961,47.8025,47.8025,0,0,1,7.23047-5.67041l.25-1.34961,2.75-14.89013A33.18008,33.18008,0,0,1,413.149,395.711a31.58409,31.58409,0,0,1,15.25976-1.52,45.54775,45.54775,0,0,1,14.61035,4.73A54.06707,54.06707,0,0,1,453.459,405.78081Z" transform="translate(-238.63477 -203.00102)" fill="#2f2e41"/><polygon points="138.02 472.651 146.931 473.48 154.44 438.736 141.287 437.513 138.02 472.651" fill="#a0616a"/><path d="M402.3189,689.27055l-13.24024-11.08984.6001-6.37988-3.07959-.1001-9.54-.31006h-.01025l-2.33985-.08008-3.97021,22.34034,6.68994.61962,1.77-6.1997,2.47022,6.60009,3.54.33008,14.16993,1.31983c.12011.00976.25.02.37011.02a3.9726,3.9726,0,0,0,2.98-1.33985,3.91645,3.91645,0,0,0,1.00977-2.30029A3.99526,3.99526,0,0,0,402.3189,689.27055Z" transform="translate(-238.63477 -203.00102)" fill="#2f2e41"/><path d="M426.189,557.66069c-3.39013,18.4502-17.74023,61.71-26.41992,87.03027-3.95019,11.56983-6.71,19.39991-6.71,19.39991l-4.5-1.41993h-.01025l-7.60987-2.40039-2.77-.87988h-.01026l-3.35986-1.06982s.39013-20.66016.43017-40.58008c.02979-8.3501-.01025-16.58008-.16992-23.1001-.18017-7.10986-.49023-12.19971-1-13.21-2.11035-4.14014,1.41992-4.58008,5.1499-5.62012,3.73975-1.0498.81983-2.62988-.63037-5.98974-.97949-2.24024.9502-5.23,2.32032-6.93018a16.711,16.711,0,0,1,1.21-1.37012s-.66016-.23-1.83985-.62988c3.55957-4.56006,6.61963-8.58984,6.61963-8.58984s.06006-2.16016.1499-5.6001c.13038-5.08984.32032-13,.52051-20.91992-.01025-.01026-.01025-.01026,0-.01026.06983-2.98.13965-5.96.21-8.79,5.71973,4.39014,11.27979,8.69043,16.31983,12.67042a.05086.05086,0,0,1,.02.04c12.10986,9.56983,21.20019,17.25,22.48,19.68995C427.169,550.48051,426.9688,553.42094,426.189,557.66069Z" transform="translate(-238.63477 -203.00102)" fill="#2f2e41"/><path d="M724.31735,231.89366a6.42747,6.42747,0,0,1,6.97932,5.62663,6.16556,6.16556,0,0,1,.02248,1.01911l20.62184,8.80623-.78684,12.03612L724.209,244.2641a6.40964,6.40964,0,0,1-5.4825-5.58355,6.134,6.134,0,0,1,5.42311-6.77069Q724.23338,231.90062,724.31735,231.89366Z" transform="translate(-238.63477 -203.00102)" fill="#ffb6b6"/><path d="M864.6187,306.191a18.90115,18.90115,0,0,0-2.79-6.53027,16.90687,16.90687,0,0,0-1.21-1.62012c-1.61963-1.92968-3.12988-3.6997-4.52978-5.27978-.8501-.99024-1.68018-1.91016-2.46-2.75977-4.52979-4.97021-7.5-7.60009-8.85987-7.82031-.66015-.10986-1.31006-.18994-1.94043-.27-3.22949-.3999-5.56982-.68994-5.63965-4.1001a8.87681,8.87681,0,0,1,.09961-1.46,17.84789,17.84789,0,0,1,.53028-2.3999,10.60551,10.60551,0,0,0,.31006-1.35986c.10009-.58985.06005-1.03028-.26026-1.3003-.3999-.32959-1.06982-.27978-2.33008.22022-.1997.08008-.42968.16992-.66992.27978-.08008.03028-.15967.07032-.25.11036-.15967.06982-.33984.1499-.51953.23974-1.51025.72022-3.84033.81006-6.5.54-7.8501-.7998-18.47021-4.75977-18.6001-4.81006L742.1187,241.88091l-.61963,1-1.47021,2.37988-.50977.81982-.58008.93994-2.53027,4.08008-1.27978,2.06006,21.60009,16.29,2.34961,1.77,2.02051,1.53027,41.23975,31.10987,15.37988,10.1499,3.43018,2.25976,14.62011,9.64014a18.8578,18.8578,0,0,0,26.39991-5.75976A18.9053,18.9053,0,0,0,864.6187,306.191Z" transform="translate(-238.63477 -203.00102)" fill="#e6e6e6"/><path d="M960.36523,696.999H239.63477a1,1,0,0,1,0-2H960.36523a1,1,0,0,1,0,2Z" transform="translate(-238.63477 -203.00102)" fill="#e6e6e6"/><polygon points="164.915 166.791 166.789 184.173 165.687 206.965 216.172 200.968 220.915 166.791 214.871 166.851 164.915 166.791" fill="#ffb6b6"/><path d="M446.49277,313.65025l-19-15h0l-9.97368-.5799-14.79926,9.48075L399.096,326.03849l-8.57038,20.81821L403.096,403.03849s1.179,4.03151-1.91051,4.51576-2.71906,6.42685-2.71906,6.42685.62914,5.15031-2.37086,5.60385-10.99957.45354-3.99957,9.45354S454.46173,403.999,454.46173,403.999l8.04148-42.19418s15.59514-20.94623-1.19963-32.94249Z" transform="translate(-238.63477 -203.00102)" fill="#e6e6e6"/><path d="M363.54889,441.20883a9.15746,9.15746,0,0,1,2.76343-13.76726l23.899-80.20474,14.94386,7.5236-26.02651,76.8754a9.20709,9.20709,0,0,1-15.57979,9.573Z" transform="translate(-238.63477 -203.00102)" fill="#a0616a"/><path d="M406.15189,306.809s-4.27186-2.27032-7.19382,7.554c-2.33923,7.86509-21.32065,54.71295-21.56274,66.10293a7.194,7.194,0,0,0-5.69619,6.73344l23.46882,3.145c4.101-3.45891,5.17686-8.13061,3.59016-9.51717l5.09559-13.91706,21.25842-44.2794-15.8432-14.23548Z" transform="translate(-238.63477 -203.00102)" fill="#e6e6e6"/><path d="M531.553,414.84552a9.15747,9.15747,0,0,0-8.44523-11.21839L468.284,341.01386l-11.62967,13.87679,56.71129,58.06063a9.20709,9.20709,0,0,0,18.18747,1.89424Z" transform="translate(-238.63477 -203.00102)" fill="#a0616a"/><path d="M435.01937,312.08574s2.87-3.8944,9.753,3.7002c5.5104,6.08006,42.88422,40.11261,48.028,50.27783a7.194,7.194,0,0,1,8.04787,3.608L481.0474,382.65645c-5.19347-1.34533-8.1838-5.09237-7.35274-7.02873l-10.61282-10.34493-38.3162-30.732,8.12918-19.68686Z" transform="translate(-238.63477 -203.00102)" fill="#e6e6e6"/><circle cx="400.82696" cy="140.99795" r="140" fill="#4f45e4"/><path d="M632.83951,393.54861a34.19886,34.19886,0,0,1-48.36445,0l0-.00008a34.20534,34.20534,0,0,1-4.62155-42.61667l-7.52385,7.67608a34.19884,34.19884,0,0,0,0,48.36444l0,.00008a34.19886,34.19886,0,0,0,48.36445,0l16.6733-17.31253.25368-1.07625Z" transform="translate(-238.63477 -203.00102)" opacity="0.2"/><path d="M648.7224,286.59184a34.19884,34.19884,0,0,1,47.51695,9.01436l0,.00008a34.20537,34.20537,0,0,1-3.4025,42.73128l8.8227-6.13925a34.19886,34.19886,0,0,0,9.01436-47.517l0-.00009a34.19884,34.19884,0,0,0-47.51695-9.01435L643.549,289.56845l-.44983,1.0101Z" transform="translate(-238.63477 -203.00102)" opacity="0.2"/><path d="M596.512,421.26753a37.19872,37.19872,0,0,1-26.30371-63.50244l31.56836-32.20752a37.19814,37.19814,0,0,1,52.62793-.021,2.99968,2.99968,0,0,1-4.24219,4.24219,31.19932,31.19932,0,0,0-44.12183.00009c-4.63672,16.3462-14.65528,27.562-31.56836,32.20752a31.1992,31.1992,0,1,0,44.10107,44.14356c-.68359-6.70606,1.27588-13.00977,16.63379-17.27246a2.99975,2.99975,0,1,1,4.32105,4.162L622.85479,410.332A36.98475,36.98475,0,0,1,596.512,421.26753Z" transform="translate(-238.63477 -203.00102)" fill="#fff"/><path d="M647.76348,375.705a36.95558,36.95558,0,0,1-26.30371-10.896,3,3,0,0,1,4.24317-4.24219,31.19775,31.19775,0,0,0,44.12133.00009c3.99805-24.08447,20.29834-27.4834,34.4668-34.46582A31.19919,31.19919,0,0,0,660.16851,281.979c-3.94141,11.37109-7.811,22.87646-19.54981,19.5498a2.99979,2.99979,0,0,1-4.24242-4.24228l19.5498-19.5498A37.19855,37.19855,0,1,1,708.533,330.34322l-34.4663,34.4663A36.95515,36.95515,0,0,1,647.76348,375.705Z" transform="translate(-238.63477 -203.00102)" fill="#fff"/><path d="M761.09917,272.751a142.54233,142.54233,0,0,0-21.07031-27.49023c-1.81006-1.83985-3.67969-3.64014-5.58985-5.39014-1.06005-.96972-2.12988-1.91992-3.22021-2.8501-2.06982-1.77978-4.19971-3.5-6.36963-5.15966A140.28645,140.28645,0,0,0,639.459,203.001c-77.74023,0-141,63.25-141,141a140.73243,140.73243,0,0,0,2.32959,25.55957.765.765,0,0,0,.02051.14014c.71,3.87012,1.58985,7.68994,2.60987,11.43994a140.99,140.99,0,0,0,255.75,37.31006q2.92455-4.71021,5.5-9.66016A140.803,140.803,0,0,0,761.09917,272.751ZM639.459,483.001a138.95232,138.95232,0,0,1-139-139c0-76.65039,62.35987-139,139-139a138.95426,138.95426,0,0,1,99.48,42.01953,133.0646,133.0646,0,0,1,9.54,10.86036,134.82842,134.82842,0,0,1,8.25,11.56982,138.92664,138.92664,0,0,1,16.19971,113.41016c-1.23,4.23974-2.66992,8.39013-4.29,12.46-1.62988,4.08008-3.43994,8.08008-5.43994,11.96A139.47249,139.47249,0,0,1,639.459,483.001Z" transform="translate(-238.63477 -203.00102)" fill="#3f3d56"/><polygon points="592.636 472.969 583.445 472.891 579.376 436.612 592.942 436.727 592.636 472.969" fill="#ffb6b6"/><path d="M833.709,671.73051l-2.3999-.15966-9.79-.66992-3.15039-.21-.05957,6.56983-14.68017,9.96a4.11008,4.11008,0,0,0,2.27978,7.50976l18.27.1504,3.2002-6.48,1.16992,6.52,6.8999.05957Z" transform="translate(-238.63477 -203.00102)" fill="#2f2e41"/><polygon points="689.407 466.253 680.622 468.954 665.792 435.596 678.759 431.61 689.407 466.253" fill="#ffb6b6"/><path d="M929.08843,664.48051l-2.33984.57032-9.5293,2.31006-3.07031.75,1.92968,6.29-10.99023,13.91992a4.11608,4.11608,0,0,0,3.23047,6.65966,4.15453,4.15453,0,0,0,1.20019-.17968l17.46973-5.37012,1.08984-7.1499,3.08985,5.85986,6.59082-2.02978Z" transform="translate(-238.63477 -203.00102)" fill="#2f2e41"/><path d="M812.78329,370.91675l-17.54015,50.97388-.57921,4.079c-4.41957,4.19635,1.13241,5.5788-.94933,6.68544s-3.48177,4.2088-.67637,4.7631,11.85018,199.37293,23.78067,207.09266,19.19128,13.30355,17,2c-.88288-4.55426.36588-28.97208,2.17191-56.5079.20469-3.12074,3.43839-6.42387.63324-9.458s.34558-5.0307.5218-7.5487c2.51638-35.95681,5.42183-71.45591,5.42183-71.45591s18.59426,63.85717,23.42274,58.91383,2.91733,7.22758,4.39282,10.8645c1.233,3.03932-4.0279,9.009,3.70388,9.1006s25.88973,62.16171,27.73178,62.09156c3.64941-.13916,13.9082.2539,20-1,3.0084-.61921-10.34541-47.61285-21.49629-88.19285-.88925-3.23615-5.72892-3.31146-2.61632-9.55931s-12.37445-46.67414-11.04546-48.54383c3.5275-4.96265,4.87075-7.11979,1.39195-7.4448s-4.50662,1.58332-4.6945-3.23072-.78837-16.68505-.78837-16.68505-2.51976-46.94879-20.16591-72.88752l-1.50489-15.41183Z" transform="translate(-238.63477 -203.00102)" fill="#2f2e41"/><path d="M856.60355,273.59494l-23.2605,3.312L831.93947,293.75l-11.47825,17.95518s-25.5139,17.955-7.72,46.31833c-6.77148,24.43311-13.50391,47.86524-19.92236,63.48731-5,31,39.793,33.97119,91,23,0,0-.706-13.25516-5.353-19.62758s-2.11738-7.76374-2.11738-7.76374l-3.24693-11.90507c1.8374-17.20849-4.3667-18.75293-7.28271-26.70361l8.85265-82.49448Z" transform="translate(-238.63477 -203.00102)" fill="#e6e6e6"/><path d="M744.93955,417.78662a6.42747,6.42747,0,0,1,7.12986-5.43461,6.16513,6.16513,0,0,1,.995.22141l13.4738-17.92391,11.50044,3.63692-21.11206,22.558a6.40966,6.40966,0,0,1-6.73077,3.99135,6.134,6.134,0,0,1-5.28058-6.88243Q744.92627,417.86982,744.93955,417.78662Z" transform="translate(-238.63477 -203.00102)" fill="#ffb6b6"/><path d="M864.6187,306.191c-.33008-.41015-.68994-.81005-1.06982-1.20019A18.83231,18.83231,0,0,0,842.7188,300.751c-.33984.13965-.68018.29981-1.00977.46-11.95019,5.86963-18.3999,9.77979-19.18017,11.60987-.27.62011-.5,1.23-.73,1.81982-.22022.58008-.43018,1.12988-.6499,1.62988-.91993,2.14014-1.98,3.47022-4.68018,2.87012a10.80429,10.80429,0,0,1-2.56982-.98974c-.37012-.18018-.71-.37012-1.03028-.5503-1.15967-.63965-2-1.09961-2.56982-.67969-.54981.40967-.56983,1.44971-.06983,3.85987a8.04939,8.04939,0,0,1-.08007,3.02978,34.44311,34.44311,0,0,1-3.08008,8.3501,110.22581,110.22581,0,0,1-6.98,11.98l-23.79,33.91992-1.60987,2.29-1.76025,2.51026-14.04,20.02.83008.8496,3.48,3.5503.77.79.7002.71972,1.81005,1.8501,1.69971,1.73,37.93018-30.8999,4.23-3.4502,7.58008-6.17968L833.44878,359.191l29.39014-27.20019a18.705,18.705,0,0,0,6.0498-13.3501c0-.16992.01026-.33008.01026-.5A18.69042,18.69042,0,0,0,864.6187,306.191Z" transform="translate(-238.63477 -203.00102)" fill="#e6e6e6"/><circle cx="604.00441" cy="43.98901" r="25.99183" fill="#ffb6b6"/><path d="M877.08409,283.03139a41.0395,41.0395,0,0,1,6.831,16.705,17.254,17.254,0,0,1-9.42086,2.71941c-.11332-.437-.22664-.87406-.35607-1.31114a37.50836,37.50836,0,0,0-4.2734-9.59889,22.59494,22.59494,0,0,1-1.27883,9.48567,16.64664,16.64664,0,0,0-5.58445-1.44067,10.14586,10.14586,0,0,0-4.53244,1.0683c-1.63481-5.42262-3.14029-10.40825-4.20859-13.98561-.0324,8.96767-13.17626,16.786-27.51794,15.65292-.518-.32376,4.67808-15.07012,4.17628-15.41008-1.14931-.76074-2.26622-1.5863-3.38313-2.39565,4.69428-7.25185,9.79313-15.0216,8.91907-16.187.06471,1.44067-5.08275,8.36866-10.6834,14.90818-3.108-2.28232,14.55212-39.41536,5.82729-42.42612-.14573,1.31115-2.072,1.31115-4.419,1.036a23.95,23.95,0,0,0-2.73561-6.135,14.40956,14.40956,0,0,1-.67992,5.68166,33.09039,33.09039,0,0,0-6.89559.72844,22.09534,22.09534,0,0,0-1.732-2.36334,14.0714,14.0714,0,0,1-.08092,2.73561c-2.31483.50179-4.22489,1.0845-4.5,1.554-1.81294-.66373,1.27874-3.65829.14573-5.21228-2.88134-3.88482,1.39206-9.55028,4.09526-13.56473,5.55214-8.22294,17.741-11.07187,26.36863-6.13485.38857-1.34355,2.37954-2.23381,4.93712-2.83272a13.39409,13.39409,0,0,1,3.30211-.30756c11.00716.19423,26.28771,9.27513,26.88663,20.26618.0486,1.10071.12952,2.29853.21043,3.57727.77695,12.3022-.178,23.64932,8.223,32.6493,3.04317,3.25351,3.07547,18.66358,1.91006,26.59526C883.60751,295.90009,881.45461,283.50087,877.08409,283.03139Z" transform="translate(-238.63477 -203.00102)" fill="#2f2e41"/><circle cx="352.18413" cy="141.50977" r="3" fill="#4f45e4"/><circle cx="447.18413" cy="139.50977" r="3" fill="#4f45e4"/><path d="M400.24925,257.79764c-2.28311,5.68611-8.72413,16.86807-9.59656,22.96807l.39267-.38615a27.5393,27.5393,0,0,0,2.54529,3.63919,17.68893,17.68893,0,0,1,6.00683-4.13024,21.1744,21.1744,0,0,0-2.1089,8.12478c2.43073,7.61939,13.668,4.22629,20.252,3.39432,6.57486,7.52075,15.32232,9.48327,26.7771,5.15948,3.20367.32984,6.79.53,9.03491-1.363s.908-5.39871,2.11581-8.05026c8.60337-18.88694.6636-25.70122-6.08226-34.26526-1.48451-1.88464-1.47831-4.6971-3.28467-6.49523-2.50635-2.49246-6.34831-3.2591-9.89045-3.87321a5.36777,5.36777,0,0,0,4.7153-2.3334,4.84233,4.84233,0,0,0-.06416-5.05422c-1.26681-2.10021-3.89925-3.32152-6.4389-3.62661a24.44991,24.44991,0,0,0-7.45176.64056,13.33407,13.33407,0,0,0-4.51249,1.44232,3.69276,3.69276,0,0,0-1.92254,3.74277,4.78385,4.78385,0,0,0,2.82873,3.0489,12.52178,12.52178,0,0,0,3.198.87545,25.08754,25.08754,0,0,0-14.71541,2.57567C406.37091,246.85969,402.54018,252.11457,400.24925,257.79764Z" transform="translate(-238.63477 -203.00102)" fill="#2f2e41"/><circle cx="192.35345" cy="66.38236" r="20.29276" fill="#a0616a"/><path d="M411.46152,258.50274c1.17664,3.556,4.539,4.70186,7.64677,5.41652.9799.22839,1.96586.4412,2.96089.63058.3671-.459.75757-.90882,1.16536-1.334a17.68859,17.68859,0,0,1,6.00683-4.13022,20.84552,20.84552,0,0,0-1.9299,6.3713q2.81808.40887,5.66744.66828a6.40753,6.40753,0,0,0,7.52542-4.61736c1.72926,2.82788,3.774,5.49107,6.57022,6.61442a7.95152,7.95152,0,0,0,9.04534-2.7061,19.14764,19.14764,0,0,0,3.27816-7.43658c.79355-3.149,1.23429-6.77652-.32374-8.77445-1.24819-1.617-3.40126-1.646-5.388-1.50257a64.1208,64.1208,0,0,0-12.94717,2.34727l-.35753.80394c.72591-4.36079-.84862-8.55646-3.76184-10.04861-1.965-.99766-4.32915-.83037-6.62615-.628a30.19743,30.19743,0,0,0-8.65265,1.67335,16.62051,16.62051,0,0,0-7.84224,6.26338C411.45979,251.20965,410.44654,255.43175,411.46152,258.50274Z" transform="translate(-238.63477 -203.00102)" fill="#2f2e41"/><path d="M440.39072,239.53607c-.20021-.05911.31857.01682.13865.02165a1.6523,1.6523,0,0,0,.26557-.03719c.01486-.003.21687-.06744.08268-.02a1.6292,1.6292,0,0,0,.77409-.50518,6.74869,6.74869,0,0,0,1.10613-1.96875,7.07014,7.07014,0,0,1,1.52107-2.53621,1.74006,1.74006,0,0,1,2.77634.42379,4.05193,4.05193,0,0,1-.24771,2.81,8.72405,8.72405,0,0,1-1.282,2.48577A7.97831,7.97831,0,0,1,441.85894,242.9a8.34551,8.34551,0,0,1-5.24524.14989,1.26759,1.26759,0,0,1-.0506-2.31936l2.867-1.17353a1.25553,1.25553,0,1,1,1.01131,2.29841l-2.867,1.17354-.0506-2.31936a4.99358,4.99358,0,0,0,1.09743.18764,4.20372,4.20372,0,0,0,1.18869-.05012,5.21182,5.21182,0,0,0,1.0999-.26822,7.1738,7.1738,0,0,0,.66972-.28385q.11891-.05775.23569-.11992c-.00561.003.328-.19126.18167-.1a7.08084,7.08084,0,0,0,1.03918-.8095,2.85851,2.85851,0,0,0,.31171-.34683,6.6458,6.6458,0,0,0,.45352-.629,6.52178,6.52178,0,0,0,.666-1.47569,6.61133,6.61133,0,0,0,.18427-.66271,2.7192,2.7192,0,0,1,.06655-.36467c.10639-.2857-.0202.16682.10219.29061l.52848.38943a.69006.69006,0,0,0,.59068-.09457q.0939-.13217-.04106.04385a4.09677,4.09677,0,0,0-.28692.43291,11.85131,11.85131,0,0,0-.51334,1.08773,11.936,11.936,0,0,1-1.18959,2.24665,4.0424,4.0424,0,0,1-4.42792,1.69309,1.26566,1.26566,0,0,1-.7151-1.62522A1.28122,1.28122,0,0,1,440.39072,239.53607Z" transform="translate(-238.63477 -203.00102)" fill="#2f2e41"/></svg>